<svg width="276" height="108" viewBox="0 0 276 108" fill="none" xmlns="http://www.w3.org/2000/svg">
<path fill-rule="evenodd" clip-rule="evenodd" d="M117.536 0.896221C112.14 2.52722 102.965 8.12122 95.7149 14.1982C75.2899 31.3212 64.6538 53.6692 68.8178 70.7132L70.3089 76.8142L61.7449 79.8522C44.1469 86.0942 25.9608 89.8832 10.9538 90.4322C0.387834 90.8192 -1.68212 91.7612 1.15488 94.8962C7.82888 102.271 40.4859 99.2632 67.9469 88.7432L75.7119 85.7682L80.8169 90.3582C87.0449 95.9572 99.4359 102.187 110.181 105.122C121.264 108.148 152.971 108.412 165.063 105.577C181.423 101.743 193.958 96.7512 208.181 88.4072C226.31 77.7722 249.32 58.6182 257.181 47.6182C259.381 44.5402 261.447 41.9992 261.771 41.9732C262.096 41.9472 262.957 44.4062 263.684 47.4382C266.115 57.5712 269.304 56.8402 273.724 45.1342C276.496 37.7942 276.02 28.9742 272.516 22.7152C271.195 20.3552 270.129 17.7502 270.148 16.9252C270.194 14.8512 260.753 14.5572 254.181 16.4282C248.547 18.0322 221.953 32.8622 219.144 35.9662C217.7 37.5612 217.516 38.5572 218.267 40.7052C219.824 45.1632 224.111 44.8532 233.363 39.6152C246.417 32.2232 253.681 28.8122 253.681 30.0732C253.681 34.4682 240.381 48.8592 225.181 60.9132C202.319 79.0412 180.958 89.8292 158.446 94.6152C146.196 97.2192 122.882 96.9432 112.271 94.0682C99.9818 90.7392 85.9159 83.4712 86.8779 80.9492C87.0449 80.5122 91.9839 76.9512 97.8529 73.0352C127.338 53.3652 146.868 25.1432 141.743 9.6132C141.092 7.6392 138.996 4.6522 137.085 2.9752C133.919 0.195201 133.016 -0.0667885 126.896 0.0112115C123.203 0.0582115 118.991 0.457221 117.536 0.896221ZM133.169 6.9152C133.944 7.5592 135.095 9.65021 135.726 11.5622C139.821 23.9702 117.864 50.1572 89.2359 67.0062C82.6859 70.8612 80.2168 71.8612 79.3598 71.0042C78.7308 70.3752 78.0529 66.6132 77.8519 62.6432C77.2119 49.9592 82.6559 38.4972 96.1129 24.1992C104.956 14.8022 110.483 10.6332 118.657 7.19322C124.429 4.76422 130.438 4.6492 133.169 6.9152Z" fill="black"/>
</svg>
