<svg width="200" height="148" viewBox="0 0 200 148" fill="none" xmlns="http://www.w3.org/2000/svg">
<g clip-path="url(#clip0_144_2)">
<path d="M200 80.1553H151.491C152.32 44.8017 162.347 40.7886 174.941 39.6432L179.798 39.0411V0.166382L174.2 0.466379C157.755 1.39163 139.573 4.35627 127.442 19.331C116.809 32.4583 112.121 53.9048 112.121 86.827V147.832H200V80.1553Z" fill="#E8CFBA"/>
<path d="M87.8749 147.832V80.1553H40.0133C40.8426 44.8017 50.5456 40.7886 63.1395 39.6432L67.6729 39.0411V0.166382L62.3981 0.466379C45.9527 1.39163 27.6082 4.35627 15.4779 19.331C4.84559 32.4583 -0.00390625 53.9048 -0.00390625 86.827V147.832H87.8749Z" fill="#E8CFBA"/>
</g>
<defs>
<clipPath id="clip0_144_2">
<rect width="200" height="148" fill="white"/>
</clipPath>
</defs>
</svg>
