<svg width="5528" height="486" viewBox="0 0 5528 486" fill="none" xmlns="http://www.w3.org/2000/svg">
<g clip-path="url(#clip0_215_9)">
<path fill-rule="evenodd" clip-rule="evenodd" d="M0 9.96297H198.846C309.447 9.96297 367.278 67.149 367.278 137.376C367.278 185.854 339.942 218.781 302.035 236.196V237.451C350.512 254.866 377.848 293.382 377.848 342.468C377.848 412.695 323.783 474.214 206.946 474.214H0V9.96297ZM192.65 193.914C225.575 193.914 240.519 177.147 240.519 158.476C240.519 139.806 225.615 122.431 192.65 122.431H134.251V193.914H192.65ZM194.513 361.705C229.301 361.705 246.107 344.939 246.107 323.19C246.107 301.441 228.693 284.674 195.161 284.674H134.251V361.746H194.513V361.705ZM406.399 285.282V9.96297H541.866V284.026C541.866 335.623 567.339 362.961 610.834 362.961C654.329 362.961 681.665 335.624 681.665 283.419V9.96297H817.78V285.282C817.78 402.125 739.497 486.041 610.834 486.041C482.171 486.041 406.359 402.125 406.359 285.282H406.399ZM1162.7 32.319V151.632C1133.5 131.139 1083.77 116.842 1043.39 116.842C1006.74 116.842 988.074 128.668 988.074 144.18C988.074 159.691 1008.57 167.791 1045.26 180.832C1107.42 202.581 1191.9 231.781 1191.9 330.601C1191.9 418.851 1125.4 484.096 1008.57 484.096C948.305 484.096 892.985 466.681 858.804 443.718V318.168C892.377 345.505 943.324 367.254 992.408 367.254C1034.04 367.254 1053.32 351.702 1053.32 334.328C1053.32 311.971 1021.61 302.009 983.701 288.32C933.969 270.297 855.078 237.978 855.078 147.865C855.078 66.4605 919.106 -0.0405273 1033.43 -0.0405273C1083.77 -0.0405273 1129.13 13.0005 1162.7 32.2785V32.319ZM1226.69 9.96297H1362.16V474.214H1226.69V9.96297ZM1843.8 474.214H1714.53L1547.35 225.018H1546.75V474.214H1418.12V9.96297H1547.39L1714.57 254.826H1715.18V9.96297H1843.8V474.214ZM1899.73 9.96297H2220.39V130.531H2035.2V186.462H2201.72V295.853H2035.2V353.646H2220.39V474.214H1899.73V9.96297ZM2560.33 32.319V151.632C2531.14 131.139 2481.4 116.842 2441.03 116.842C2404.38 116.842 2385.71 128.668 2385.71 144.18C2385.71 159.691 2406.2 167.791 2442.89 180.832C2505.05 202.581 2589.53 231.781 2589.53 330.601C2589.53 418.851 2523.04 484.096 2406.2 484.096C2345.94 484.096 2290.62 466.681 2256.44 443.718V318.168C2290.01 345.505 2340.96 367.254 2390.04 367.254C2431.67 367.254 2450.95 351.702 2450.95 334.328C2450.95 311.971 2419.24 302.009 2381.33 288.32C2331.6 270.297 2252.71 237.978 2252.71 147.865C2252.71 66.4605 2316.74 -0.0405273 2431.06 -0.0405273C2481.4 -0.0405273 2526.76 13.0005 2560.33 32.2785V32.319ZM2918.91 32.319V151.632C2889.71 131.139 2839.97 116.842 2799.6 116.842C2762.95 116.842 2744.28 128.668 2744.28 144.18C2744.28 159.691 2764.77 167.791 2801.46 180.832C2863.63 202.581 2948.1 231.781 2948.1 330.601C2948.1 418.851 2881.61 484.096 2764.77 484.096C2704.51 484.096 2649.19 466.681 2615.01 443.718V318.168C2648.58 345.505 2699.53 367.254 2748.61 367.254C2790.24 367.254 2809.52 351.702 2809.52 334.328C2809.52 311.971 2777.81 302.009 2739.9 288.32C2690.17 270.297 2611.28 237.978 2611.28 147.865C2611.28 66.4605 2675.31 -0.0405273 2789.64 -0.0405273C2839.97 -0.0405273 2885.33 13.0005 2918.91 32.2785V32.319ZM3105.08 475.105H3240.54V10.8945H3105.08V475.146V475.105ZM3722.11 10.8945H3593.48V255.757H3592.88L3425.7 10.8945H3296.43V475.146H3425.05V225.949H3425.66L3592.84 475.146H3722.11V10.8945ZM3940.15 0.931473C3825.78 0.931473 3761.79 67.4325 3761.79 148.837C3761.79 238.95 3840.73 271.269 3890.42 289.292C3928.32 302.98 3960.03 312.903 3960.03 335.299C3960.03 352.715 3940.76 368.226 3899.12 368.226C3850.04 368.226 3799.05 346.478 3765.52 319.14V444.69C3799.7 467.694 3855.02 485.068 3915.28 485.068C4032.12 485.068 4098.62 419.823 4098.62 331.574C4098.62 232.754 4014.1 203.553 3951.97 181.804C3915.32 168.763 3894.79 161.311 3894.79 145.152C3894.79 128.992 3913.42 117.814 3950.11 117.814C3990.49 117.814 4040.22 132.111 4069.42 152.604V33.2505C4035.85 13.9725 3990.49 0.931473 3940.15 0.931473ZM4130.25 475.105H4265.71V10.8945H4130.25V475.146V475.105ZM4457.11 352.674H4483.23C4553.45 352.674 4598.81 312.903 4598.81 243.283C4598.81 173.664 4553.45 133.285 4483.23 133.285H4457.11V352.674ZM4735.53 243.283C4735.53 383.13 4629.87 475.105 4478.25 475.105H4321.64V10.8945H4478.25C4629.87 10.8945 4735.53 103.477 4735.53 243.324V243.283ZM4772.26 475.105H5092.93V354.537H4907.73V296.743H5074.26V187.353H4907.73V131.422H5092.93V10.8945H4772.26V475.146V475.105ZM5306.15 230.242C5340.33 230.242 5367.06 214.083 5367.06 181.764C5367.06 149.445 5340.33 133.285 5305.54 133.285H5276.95V230.242H5306.15ZM5528 475.105H5368.28L5280.03 331.533H5276.91V475.105H5141.45V10.8945H5306.76C5422.99 10.8945 5503.74 62.4915 5503.74 172.489C5503.74 215.986 5484.46 279.369 5407.4 311.688L5527.96 475.146L5528 475.105Z" fill="#0A0A0A"/>
</g>
<defs>
<clipPath id="clip0_215_9">
<rect width="5528" height="486" fill="white"/>
</clipPath>
</defs>
</svg>
