<svg width="2976" height="895" viewBox="0 0 2976 895" fill="none" xmlns="http://www.w3.org/2000/svg">
<g clip-path="url(#clip0_166_10)">
<path d="M499.756 442.108C477.502 442.108 460.46 437.166 448.629 427.282C437.08 417.397 431.305 403.449 431.305 385.436V261.551C431.305 243.539 437.08 229.591 448.629 219.706C460.46 209.821 477.502 204.879 499.756 204.879C522.009 204.879 538.911 209.821 550.46 219.706C562.291 229.591 568.207 243.539 568.207 261.551V285.933H524.263V259.245C524.263 244.967 516.516 237.828 501.023 237.828C485.53 237.828 477.784 244.967 477.784 259.245V388.073C477.784 402.131 485.53 409.159 501.023 409.159C516.516 409.159 524.263 402.131 524.263 388.073V352.817H568.207V385.436C568.207 403.449 562.291 417.397 550.46 427.282C538.911 437.166 522.009 442.108 499.756 442.108Z" fill="#0A71B9"/>
<path d="M631.93 208.175H694.888L743.058 438.813H696.578L688.128 393.015V393.674H635.31L626.86 438.813H583.761L631.93 208.175ZM682.635 362.374L661.93 248.371H661.085L640.804 362.374H682.635Z" fill="#0A71B9"/>
<path d="M765.607 208.175H834.48C858.424 208.175 875.89 212.568 886.875 221.354C897.862 229.92 903.354 243.209 903.354 261.221V275.389C903.354 299.332 893.213 314.488 872.931 320.859V321.517C884.199 324.153 892.086 329.535 896.594 337.662C901.382 345.789 903.777 356.662 903.777 370.281V410.807C903.777 417.397 904.058 422.779 904.622 426.952C905.185 430.906 906.593 434.86 908.847 438.813H861.523C859.832 435.079 858.707 431.565 858.143 428.27C857.58 424.975 857.297 419.044 857.297 410.478V368.304C857.297 357.761 855.044 350.402 850.537 346.228C846.312 342.055 838.847 339.968 828.142 339.968H812.086V438.813H765.607V208.175ZM828.988 307.019C838.283 307.019 845.185 305.153 849.692 301.419C854.481 297.685 856.875 291.424 856.875 282.638V264.846C856.875 256.498 854.904 250.459 850.959 246.725C847.298 242.99 841.382 241.123 833.213 241.123H812.086V307.019H828.988Z" fill="#0A71B9"/>
<path d="M936.024 208.175H1062.79V241.123H982.504V302.078H1046.31V335.025H982.504V405.865H1062.79V438.813H936.024V208.175Z" fill="#0A71B9"/>
<path d="M1089.53 208.175H1216.29V241.123H1136V302.078H1199.8V335.025H1136V405.865H1216.29V438.813H1089.53V208.175Z" fill="#0A71B9"/>
<path d="M1243.02 208.175H1311.9C1335.85 208.175 1353.3 212.568 1364.29 221.354C1375.28 229.92 1380.77 243.209 1380.77 261.221V275.389C1380.77 299.332 1370.63 314.488 1350.35 320.859V321.517C1361.62 324.153 1369.5 329.535 1374.01 337.662C1378.8 345.789 1381.2 356.662 1381.2 370.281V410.807C1381.2 417.397 1381.48 422.779 1382.04 426.952C1382.6 430.906 1384.01 434.86 1386.27 438.813H1338.94C1337.25 435.079 1336.13 431.565 1335.56 428.27C1335 424.975 1334.71 419.044 1334.71 410.478V368.304C1334.71 357.761 1332.46 350.402 1327.95 346.228C1323.73 342.055 1316.27 339.968 1305.56 339.968H1289.5V438.813H1243.02V208.175ZM1306.4 307.019C1315.71 307.019 1322.61 305.153 1327.11 301.419C1331.9 297.685 1334.29 291.424 1334.29 282.638V264.846C1334.29 256.498 1332.32 250.459 1328.37 246.725C1324.72 242.99 1318.8 241.123 1310.63 241.123H1289.5V307.019H1306.4Z" fill="#0A71B9"/>
<path d="M1473.86 442.108C1451.33 442.108 1434.29 437.166 1422.73 427.282C1411.18 417.178 1405.42 402.79 1405.42 384.119V370.94H1449.36V386.755C1449.36 401.692 1457.39 409.159 1473.44 409.159C1481.33 409.159 1487.25 407.403 1491.19 403.889C1495.42 400.154 1497.53 394.224 1497.53 386.096C1497.53 376.431 1494.71 367.974 1489.08 360.726C1483.44 353.257 1473.02 344.361 1457.81 334.038C1438.65 320.858 1425.28 308.997 1417.67 298.453C1410.06 287.69 1406.26 275.609 1406.26 262.21C1406.26 243.978 1412.18 229.92 1424.01 220.036C1435.83 209.931 1453.02 204.879 1475.56 204.879C1497.81 204.879 1514.57 209.931 1525.84 220.036C1537.38 229.92 1543.16 244.198 1543.16 262.869V272.424H1499.21V260.562C1499.21 252.655 1497.24 246.943 1493.31 243.429C1489.36 239.695 1483.58 237.828 1475.98 237.828C1460.48 237.828 1452.74 245.187 1452.74 259.904C1452.74 268.251 1455.56 276.048 1461.18 283.296C1467.1 290.545 1477.67 299.332 1492.87 309.656C1512.31 322.835 1525.7 334.806 1533.02 345.569C1540.34 356.333 1544 368.963 1544 383.46C1544 402.351 1537.95 416.848 1525.84 426.952C1514.01 437.056 1496.68 442.108 1473.86 442.108Z" fill="#0A71B9"/>
<path d="M1638.33 208.175H1684.8V438.813H1638.33V208.175Z" fill="#0A71B9"/>
<path d="M1719.62 208.175H1777.92L1823.13 346.228H1823.99V208.175H1865.39V438.813H1817.65L1761.87 270.447H1761.03V438.813H1719.62V208.175Z" fill="#0A71B9"/>
<mask id="mask0_166_10" style="mask-type:luminance" maskUnits="userSpaceOnUse" x="0" y="506" width="2017" height="325">
<path d="M2016.35 506.807H0V830.301H2016.35V506.807Z" fill="white"/>
</mask>
<g mask="url(#mask0_166_10)">
<path d="M121.331 803.938C126.559 800.14 131.257 795.366 135.451 789.677C135.534 793.397 135.676 798.369 135.916 805.129L136.101 810.329H141.303H161.428H166.878L166.819 804.878L165.178 655.594L165.12 650.262H159.788H80.5007H75.1094V655.653V691.944V697.335H80.5007H128.149C128.146 723.145 124.504 741.014 118.002 751.819C111.846 761.784 102.172 766.967 87.8825 766.967C73.3637 766.967 62.5305 760.563 54.866 747.06C47.1287 732.826 42.9677 711.358 42.9677 682.046V644.931C42.9677 615.593 47.2288 594.294 55.1171 580.371L55.1374 580.334C62.8392 566.493 73.6067 560.011 87.8825 560.011C100.714 560.011 110.093 565.06 116.712 575.282L116.777 575.38C120.8 581.307 122.834 584.331 124.106 588.336C125.391 592.379 125.982 597.756 125.982 608.272V613.664H131.373H158.167H163.558V608.272C163.558 597.903 163.238 591.096 162.094 584.81C160.947 578.508 159.007 572.944 156.092 565.11C149.985 548.705 141.081 535.713 129.217 526.462C117.452 517.144 103.59 512.525 87.8825 512.525C61.5654 512.525 40.9491 524.951 26.4049 548.937L26.3883 548.964C12.2078 572.665 5.3916 604.826 5.3916 644.931V682.046C5.3916 722.419 12.205 754.72 26.3883 778.427L26.4202 778.478C40.9788 802.195 61.5971 814.453 87.8825 814.453C100.423 814.453 111.642 810.977 121.331 803.938Z" fill="#112D51" stroke="#112D51"/>
<path d="M299.092 819.845C272.243 819.845 251.691 813.185 237.437 799.866C223.184 786.546 216.058 767.725 216.058 743.404V583.574C216.058 559.252 223.184 540.431 237.437 527.112C251.691 513.793 272.243 507.134 299.092 507.134C325.942 507.134 346.494 513.793 360.747 527.112C375 540.431 382.127 559.252 382.127 583.574V743.404C382.127 767.725 375 786.546 360.747 799.866C346.494 813.185 325.942 819.845 299.092 819.845ZM299.092 776.412C317.987 776.412 327.433 766.423 327.433 746.444V580.533C327.433 560.555 317.987 550.566 299.092 550.566C280.198 550.566 270.751 560.555 270.751 580.533V746.444C270.751 766.423 280.198 776.412 299.092 776.412Z" fill="#112D51"/>
<path d="M403.727 511.472H458.917L494.717 747.309H495.711L531.51 511.472H581.729L529.025 815.497H456.431L403.727 511.472Z" fill="#112D51"/>
<path d="M607.996 511.472H757.161V554.904H662.69V635.254H737.769V678.686H662.69V772.065H757.161V815.497H607.996V511.472Z" fill="#112D51"/>
<path d="M788.626 511.472H869.672C897.847 511.472 918.399 517.264 931.327 528.845C944.255 540.137 950.718 557.655 950.718 581.397V600.074C950.718 631.635 938.785 651.613 914.918 660.011V660.879C928.178 664.353 937.459 671.447 942.762 682.16C948.398 692.873 951.216 707.206 951.216 725.158V778.58C951.216 787.266 951.547 794.36 952.21 799.861C952.873 805.073 954.53 810.285 957.182 815.497H901.494C899.505 810.574 898.179 805.942 897.516 801.599C896.853 797.255 896.522 789.437 896.522 778.145V722.553C896.522 708.654 893.87 698.954 888.567 693.452C883.594 687.952 874.81 685.201 862.214 685.201H843.32V815.497H788.626V511.472ZM863.208 641.769C874.147 641.769 882.269 639.307 887.571 634.386C893.208 629.463 896.025 621.211 896.025 609.629V586.175C896.025 575.172 893.705 567.21 889.064 562.287C884.754 557.365 877.794 554.904 868.181 554.904H843.32V641.769H863.208Z" fill="#112D51"/>
<path d="M989.162 511.472H1057.78L1110.98 693.452H1111.98V511.472H1160.7V815.497H1104.52L1038.88 593.559H1037.89V815.497H989.162V511.472Z" fill="#112D51"/>
<path d="M1201.36 511.472H1279.41L1314.22 729.067H1315.22L1350.02 511.472H1428.08V815.497H1376.37V585.306H1375.38L1335.6 815.497H1289.86L1250.08 585.306H1249.09V815.497H1201.36V511.472Z" fill="#112D51"/>
<path d="M1468.89 511.472H1618.06V554.904H1523.59V635.254H1598.67V678.686H1523.59V772.065H1618.06V815.497H1468.89V511.472Z" fill="#112D51"/>
<path d="M1649.52 511.472H1718.14L1771.35 693.452H1772.34V511.472H1821.06V815.497H1764.88L1699.24 593.559H1698.25V815.497H1649.52V511.472Z" fill="#112D51"/>
<path d="M1904.48 554.904H1847.3V511.472H2016.35V554.904H1959.17V815.497H1904.48V554.904Z" fill="#112D51"/>
</g>
<path fill-rule="evenodd" clip-rule="evenodd" d="M2625.92 341.86L2517.74 0L2409.56 341.86H2625.92ZM2692.78 553.14L2976 341.86H2625.92L2661.91 455.592L2692.78 553.14ZM2734.1 683.72H2517.74L2369.03 572.778L2342.69 553.14L2234.52 895L2517.74 683.72L2800.96 895L2734.1 683.72Z" fill="#112D51"/>
<path fill-rule="evenodd" clip-rule="evenodd" d="M2211.93 455.592L2059.48 341.86H2409.56H2625.92L2661.91 455.592H2211.93ZM2369.03 572.778L2517.74 683.72H2734.1L2699 572.778H2369.03Z" fill="#B9383A"/>
<path d="M2692.78 553.14L2661.91 455.592H2211.93L2342.69 553.14L2369.03 572.779H2698.99L2692.78 553.14Z" fill="white"/>
<path d="M2215.83 458.283H2221.22L2372.17 571.506H2366.78L2215.83 458.283Z" fill="#D9D9D9"/>
</g>
<defs>
<clipPath id="clip0_166_10">
<rect width="2976" height="895" fill="white"/>
</clipPath>
</defs>
</svg>
