<svg width="1119" height="227" viewBox="0 0 1119 227" fill="none" xmlns="http://www.w3.org/2000/svg">
<path d="M32.4002 171.4C26.9335 171.4 21.7335 170.6 16.8002 169C11.8669 167.4 7.8002 165 4.6002 161.8C1.53353 158.6 0.000195682 154.6 0.000195682 149.8C0.000195682 144.867 2.13353 140.4 6.4002 136.4C10.8002 132.4 17.0002 130.4 25.0002 130.4C33.4002 130.4 41.3335 132.333 48.8002 136.2C56.4002 139.933 64.4002 144 72.8002 148.4C79.8669 141.6 86.1335 133.733 91.6002 124.8C97.2002 115.733 102.534 106.2 107.6 96.2C112.8 86.2 118.134 76.2667 123.6 66.4C129.067 56.4 135.2 47.1334 142 38.6C143.2 37.1334 144.4 35.6667 145.6 34.2C146.8 32.6 148.067 31.0667 149.4 29.6C142.2 25.3334 134.467 22.0667 126.2 19.8C117.934 17.4 109.4 16.2 100.6 16.2C89.6669 16.2 79.5335 17.6 70.2002 20.4C60.8669 23.2 52.7335 27 45.8002 31.8C39.0002 36.4667 33.6669 41.8 29.8002 47.8C25.9335 53.6667 24.0002 59.7334 24.0002 66C24.0002 71.6 25.1335 76.2667 27.4002 80C29.8002 83.6 32.8002 86.2667 36.4002 88C40.0002 89.7334 43.5335 90.6 47.0002 90.6C51.6669 90.6 55.6669 89.7334 59.0002 88C62.3335 86.1334 65.0669 83.8667 67.2002 81.2C69.3335 78.5334 70.9335 75.9334 72.0002 73.4C73.0669 70.8667 73.6669 68.8 73.8002 67.2C73.8002 66.2667 74.4002 65.8 75.6002 65.8C77.4669 65.8 78.2002 66.9334 77.8002 69.2C77.1335 74.5334 75.1335 79.2 71.8002 83.2C68.4669 87.0667 64.4669 90.1334 59.8002 92.4C55.1335 94.5334 50.3335 95.6 45.4002 95.6C39.5335 95.6 34.2002 94.5334 29.4002 92.4C24.6002 90.1334 20.7335 86.8 17.8002 82.4C15.0002 77.8667 13.6002 72.3334 13.6002 65.8C13.6002 57.1334 15.9335 49.4 20.6002 42.6C25.2669 35.6667 31.6669 29.8 39.8002 25C47.9335 20.2 57.2669 16.5334 67.8002 14C78.3335 11.4667 89.4669 10.2 101.2 10.2C110.267 10.2 119.4 11.3334 128.6 13.6C137.8 15.7334 146.534 19 154.8 23.4C158.267 19.5334 161.8 16.1334 165.4 13.2C169.134 10.1334 172.934 7.80004 176.8 6.20004C178.534 5.53337 179.934 5.20004 181 5.20004C181.8 5.20004 182.2 5.40004 182.2 5.80004C182.2 6.46671 180.667 8.13337 177.6 10.8C175.867 12.4 173.8 14.8667 171.4 18.2C169 21.4 166.534 24.9334 164 28.8C172 34 179.067 40.3334 185.2 47.8C191.467 55.1334 196.4 63.5334 200 73C203.6 82.3334 205.4 92.7334 205.4 104.2C205.4 115.4 203.467 125.2 199.6 133.6C195.734 141.867 190.467 148.733 183.8 154.2C177.134 159.667 169.467 163.733 160.8 166.4C152.134 169.2 143 170.6 133.4 170.6C122.067 170.6 111.534 169.067 101.8 166C92.2002 162.933 83.2669 159.467 75.0002 155.6C68.4669 160.8 61.6669 164.733 54.6002 167.4C47.6669 170.067 40.2669 171.4 32.4002 171.4ZM150.4 50.2C147.6 54.6 144.2 60.2 140.2 67C136.2 73.6667 131.734 80.9334 126.8 88.8C121.867 96.6667 116.734 104.533 111.4 112.4C106.067 120.267 100.667 127.667 95.2002 134.6C89.8669 141.4 84.6669 147.133 79.6002 151.8C86.6669 155.267 94.4669 158.267 103 160.8C111.534 163.333 121.2 164.6 132 164.6C144.267 164.6 154.934 162.067 164 157C173.067 151.8 180.134 144.8 185.2 136C190.267 127.067 192.8 117 192.8 105.8C192.8 91.2667 189.734 78.0667 183.6 66.2C177.467 54.2 169.267 44.2 159 36.2C157.267 39 155.667 41.6667 154.2 44.2C152.734 46.6 151.467 48.6 150.4 50.2ZM32.4002 165.2C39.2002 165.6 45.8002 164.4 52.2002 161.6C58.7335 158.667 64.1335 155.533 68.4002 152.2C60.4002 148.333 53.0002 144.8 46.2002 141.6C39.5335 138.4 33.3335 136.8 27.6002 136.8C22.9335 136.8 19.3335 138.2 16.8002 141C14.2669 143.667 13.0002 146.667 13.0002 150C13.0002 154.267 14.6669 157.8 18.0002 160.6C21.4669 163.4 26.2669 164.933 32.4002 165.2ZM227.202 162.8C222.268 162.8 218.802 161.4 216.802 158.6C214.802 155.667 213.802 152.333 213.802 148.6C213.802 146.6 214.002 144.6 214.402 142.6C214.935 140.467 215.535 138.533 216.202 136.8L229.602 102.6C230.002 101.533 230.202 100.6 230.202 99.8C230.202 98.4667 229.868 97.3334 229.202 96.4C228.535 95.3334 228.068 94.6 227.802 94.2L238.802 93.8C240.802 93.6667 242.202 93.9334 243.002 94.6C243.935 95.1334 244.402 95.8 244.402 96.6C244.402 97.4 243.935 98.8667 243.002 101C241.668 104.2 239.868 108.2 237.602 113C235.335 117.8 233.068 122.733 230.802 127.8C228.668 132.867 226.802 137.6 225.202 142C223.735 146.4 223.002 149.8 223.002 152.2C223.002 153.933 223.402 155.4 224.202 156.6C225.135 157.8 226.668 158.4 228.802 158.4C231.602 158.4 234.335 157.333 237.002 155.2C239.802 152.933 242.402 150.067 244.802 146.6C247.202 143.133 249.402 139.4 251.402 135.4C253.535 131.4 255.335 127.667 256.802 124.2C258.402 124.2 259.202 124.8 259.202 126C257.868 129.333 256.135 133.133 254.002 137.4C251.868 141.667 249.402 145.733 246.602 149.6C243.935 153.333 240.935 156.467 237.602 159C234.402 161.533 230.935 162.8 227.202 162.8ZM245.002 81.4C243.268 81.4 241.735 80.7334 240.402 79.4C239.202 78.0667 238.602 76.4667 238.602 74.6C238.602 72.3334 239.535 70.3334 241.402 68.6C243.268 66.7334 245.335 65.8 247.602 65.8C249.468 65.8 251.068 66.4 252.402 67.6C253.735 68.8 254.402 70.3334 254.402 72.2C254.402 74.6 253.468 76.7334 251.602 78.6C249.735 80.4667 247.535 81.4 245.002 81.4ZM242.958 226.6C230.291 226.6 223.958 221.4 223.958 211C223.958 206.067 225.691 201.667 229.158 197.8C232.625 193.933 236.758 190.6 241.558 187.8C248.225 183.8 254.758 180.6 261.158 178.2C267.558 175.8 273.691 173.667 279.558 171.8C285.425 170.067 290.891 168.133 295.958 166C297.158 162.533 298.158 158.733 298.958 154.6C299.758 150.333 300.358 146.2 300.758 142.2C301.158 138.2 301.358 134.733 301.358 131.8C301.358 128.733 301.158 126.733 300.758 125.8C299.291 128.6 297.291 132.067 294.758 136.2C292.358 140.333 289.491 144.467 286.158 148.6C282.958 152.6 279.558 155.933 275.958 158.6C272.358 161.267 268.691 162.6 264.958 162.6C263.625 162.6 262.358 162.4 261.158 162C257.425 160.4 254.691 158.133 252.958 155.2C251.358 152.267 250.558 148.933 250.558 145.2C250.558 139.2 252.291 132.733 255.758 125.8C259.225 118.867 263.358 112.533 268.158 106.8C272.025 102.133 276.558 98.4 281.758 95.6C286.958 92.8 292.225 91.4 297.558 91.4C303.691 91.4 309.425 93.4667 314.758 97.6C316.758 99.2 317.758 100.933 317.758 102.8C317.758 104.8 316.958 105.8 315.358 105.8C314.025 105.8 313.091 104.933 312.558 103.2C310.691 98.2667 307.691 95.8 303.558 95.8C300.225 95.8 296.425 97.2667 292.158 100.2C287.891 103 283.891 106.533 280.158 110.8C276.958 114.4 273.825 118.533 270.758 123.2C267.825 127.867 265.358 132.467 263.358 137C261.491 141.533 260.558 145.467 260.558 148.8C260.558 151.067 261.091 153 262.158 154.6C263.225 156.2 264.891 157 267.158 157C270.225 157 273.425 155.533 276.758 152.6C280.225 149.667 283.491 146.067 286.558 141.8C289.758 137.533 292.491 133.2 294.758 128.8C297.158 124.4 298.825 120.733 299.758 117.8C300.691 114.733 301.958 112.867 303.558 112.2C305.158 111.4 306.758 111 308.358 111C309.958 111 311.291 110.6 312.358 109.8C312.891 112.733 313.225 115.733 313.358 118.8C313.625 121.733 313.758 124.733 313.758 127.8C313.758 133.933 313.358 139.533 312.558 144.6C311.891 149.667 310.691 155.067 308.958 160.8C313.758 157.867 317.891 154.2 321.358 149.8C324.958 145.267 327.891 140.733 330.158 136.2C332.558 131.533 334.491 127.533 335.958 124.2C337.558 124.2 338.358 124.8 338.358 126C336.625 129.6 334.425 134 331.758 139.2C329.225 144.4 325.958 149.467 321.958 154.4C318.091 159.2 313.225 162.933 307.358 165.6C305.091 172 301.825 178.733 297.558 185.8C293.425 192.867 288.491 199.467 282.758 205.6C277.025 211.867 270.758 216.933 263.958 220.8C257.158 224.667 250.158 226.6 242.958 226.6ZM238.158 222.6C241.091 222.6 244.158 221.933 247.358 220.6C250.691 219.4 253.825 217.933 256.758 216.2C259.691 214.467 261.958 213 263.558 211.8C266.625 209.4 269.758 206.4 272.958 202.8C276.158 199.2 278.958 195.733 281.358 192.4C283.625 189.2 285.958 185.8 288.358 182.2C290.758 178.733 292.691 175.267 294.158 171.8L285.958 174.4C281.558 175.733 276.691 177.333 271.358 179.2C266.158 181.2 260.958 183.4 255.758 185.8C250.558 188.2 245.825 190.8 241.558 193.6C237.825 196.133 234.758 199.467 232.358 203.6C229.825 207.733 228.558 211.333 228.558 214.4C228.558 216.667 229.358 218.6 230.958 220.2C232.425 221.8 234.825 222.6 238.158 222.6ZM341.655 162.8C336.722 162.8 333.255 161.4 331.255 158.6C329.255 155.667 328.255 152.333 328.255 148.6C328.255 146.6 328.455 144.6 328.855 142.6C329.388 140.467 329.988 138.533 330.655 136.8L344.055 102.6C344.455 101.533 344.655 100.6 344.655 99.8C344.655 98.4667 344.322 97.3334 343.655 96.4C342.988 95.3334 342.522 94.6 342.255 94.2L353.255 93.8C355.255 93.6667 356.655 93.9334 357.455 94.6C358.388 95.1334 358.855 95.8 358.855 96.6C358.855 97.4 358.388 98.8667 357.455 101C356.122 104.2 354.322 108.2 352.055 113C349.788 117.8 347.522 122.733 345.255 127.8C343.122 132.867 341.255 137.6 339.655 142C338.188 146.4 337.455 149.8 337.455 152.2C337.455 153.933 337.855 155.4 338.655 156.6C339.588 157.8 341.122 158.4 343.255 158.4C346.055 158.4 348.788 157.333 351.455 155.2C354.255 152.933 356.855 150.067 359.255 146.6C361.655 143.133 363.855 139.4 365.855 135.4C367.988 131.4 369.788 127.667 371.255 124.2C372.855 124.2 373.655 124.8 373.655 126C372.322 129.333 370.588 133.133 368.455 137.4C366.322 141.667 363.855 145.733 361.055 149.6C358.388 153.333 355.388 156.467 352.055 159C348.855 161.533 345.388 162.8 341.655 162.8ZM359.455 81.4C357.722 81.4 356.188 80.7334 354.855 79.4C353.655 78.0667 353.055 76.4667 353.055 74.6C353.055 72.3334 353.988 70.3334 355.855 68.6C357.722 66.7334 359.788 65.8 362.055 65.8C363.922 65.8 365.522 66.4 366.855 67.6C368.188 68.8 368.855 70.3334 368.855 72.2C368.855 74.6 367.922 76.7334 366.055 78.6C364.188 80.4667 361.988 81.4 359.455 81.4ZM412.611 57.2C410.878 59.7334 408.944 62.9334 406.811 66.8C404.678 70.6667 402.678 74.4 400.811 78C399.078 81.6 397.744 84.3334 396.811 86.2H415.211C415.211 86.7334 414.944 87.6 414.411 88.8C414.011 90 413.144 90.8667 411.811 91.4H394.411C392.811 95 390.944 99.3334 388.811 104.4C386.811 109.467 384.811 114.733 382.811 120.2C380.944 125.667 379.344 130.8 378.011 135.6C376.811 140.267 376.211 144.067 376.211 147C376.211 151 376.744 154 377.811 156C378.878 157.867 380.811 158.8 383.611 158.8C387.211 158.8 390.678 157.067 394.011 153.6C397.344 150 400.478 145.533 403.411 140.2C406.478 134.867 409.144 129.533 411.411 124.2C413.011 124.2 413.811 124.8 413.811 126C412.344 129.6 410.544 133.533 408.411 137.8C406.278 142.067 403.811 146.2 401.011 150.2C398.344 154.067 395.278 157.267 391.811 159.8C388.478 162.2 384.744 163.4 380.611 163.4C375.011 163.4 371.211 161.867 369.211 158.8C367.211 155.6 366.211 151.533 366.211 146.6C366.211 143 366.878 138.667 368.211 133.6C369.544 128.4 371.144 123.067 373.011 117.6C375.011 112.133 376.944 107.067 378.811 102.4C380.678 97.6 382.144 93.9334 383.211 91.4H370.411C370.411 90.3334 370.878 89.2 371.811 88C372.744 86.8 373.744 86.2 374.811 86.2H385.411C386.478 84.0667 387.678 81.4 389.011 78.2C390.478 75 392.411 71.4667 394.811 67.6C396.811 64.4 399.344 61.8667 402.411 60C405.611 58.1334 409.011 57.2 412.611 57.2ZM454.846 163.4C451.779 163.4 449.046 162.533 446.646 160.8C444.379 159.067 443.246 155.533 443.246 150.2C443.246 147.933 443.379 145.8 443.646 143.8C444.046 141.8 444.512 139.667 445.046 137.4C443.846 139.4 442.179 141.867 440.046 144.8C437.912 147.733 435.512 150.6 432.846 153.4C430.312 156.2 427.646 158.533 424.846 160.4C422.179 162.267 419.646 163.2 417.246 163.2C413.779 163.2 410.979 161.667 408.846 158.6C406.712 155.4 405.646 151.267 405.646 146.2C405.646 140.733 406.912 134.867 409.446 128.6C411.979 122.333 415.446 116.333 419.846 110.6C424.246 104.867 429.312 100.2 435.046 96.6C440.779 93 446.779 91.2 453.046 91.2C456.112 91.2 459.046 91.7334 461.846 92.8C464.646 93.7334 467.112 95.3334 469.246 97.6C470.179 98.5334 470.646 99.6 470.646 100.8C470.646 101.6 470.312 102.267 469.646 102.8C468.979 103.333 468.112 103.467 467.046 103.2C465.579 98.5334 462.446 96.2 457.646 96.2C455.379 96.2 452.779 96.9334 449.846 98.4C446.246 100.267 442.379 103.267 438.246 107.4C434.246 111.4 430.446 116 426.846 121.2C423.379 126.267 420.512 131.4 418.246 136.6C415.979 141.8 414.846 146.533 414.846 150.8C414.846 155.2 416.512 157.4 419.846 157.4C422.779 157.4 425.779 156 428.846 153.2C432.046 150.4 435.046 146.933 437.846 142.8C440.779 138.533 443.446 134.333 445.846 130.2C448.246 126.067 450.112 122.733 451.446 120.2C453.446 116.6 455.312 113.6 457.046 111.2C458.779 108.8 461.246 107.6 464.446 107.6C465.912 107.6 467.379 107.8 468.846 108.2C470.312 108.6 471.846 108.667 473.446 108.4C469.446 112.4 465.912 117.133 462.846 122.6C459.912 128.067 457.646 133.467 456.046 138.8C454.446 144 453.646 148.4 453.646 152C453.646 156 454.979 158 457.646 158C459.779 158 462.046 156.8 464.446 154.4C466.979 152 469.379 149 471.646 145.4C474.046 141.667 476.246 137.933 478.246 134.2C480.246 130.333 481.846 127 483.046 124.2C483.712 124.2 484.246 124.267 484.646 124.4C485.179 124.533 485.446 125.067 485.446 126C485.312 126.533 485.046 127.133 484.646 127.8C484.379 128.333 483.912 129.333 483.246 130.8C482.179 132.933 480.712 135.8 478.846 139.4C476.979 143 474.779 146.667 472.246 150.4C469.712 154 466.979 157.067 464.046 159.6C461.112 162.133 458.046 163.4 454.846 163.4ZM492.525 163.4C487.592 163.4 483.925 161.933 481.525 159C479.259 155.933 478.125 152.333 478.125 148.2C478.125 143.933 478.725 139.533 479.925 135C481.125 130.467 482.192 126.667 483.125 123.6C485.259 116.133 487.925 108.2 491.125 99.8C494.459 91.2667 498.059 82.9334 501.925 74.8C505.925 66.5334 509.859 59.1334 513.725 52.6C516.792 47.4 520.059 43.5334 523.525 41C527.125 38.3334 530.259 37 532.925 37C535.059 37 536.725 37.8 537.925 39.4C539.259 40.8667 539.925 43.1334 539.925 46.2C539.925 48.3334 539.525 50.8667 538.725 53.8C538.059 56.7334 536.859 60.0667 535.125 63.8C530.459 74.2 524.859 84.6 518.325 95C511.925 105.4 503.792 115.133 493.925 124.2C492.325 127.933 490.992 131.933 489.925 136.2C488.859 140.467 488.325 143.933 488.325 146.6C488.325 154.867 491.125 159 496.725 159C500.992 159 505.725 155.933 510.925 149.8C516.125 143.533 521.059 135 525.725 124.2C526.259 124.2 526.792 124.333 527.325 124.6C527.859 124.733 528.125 125.2 528.125 126C526.659 129.6 524.792 133.6 522.525 138C520.392 142.267 517.859 146.333 514.925 150.2C512.125 154.067 508.859 157.267 505.125 159.8C501.392 162.2 497.192 163.4 492.525 163.4ZM495.525 117.8C500.325 112.867 504.992 107.2 509.525 100.8C514.059 94.2667 518.259 87.5334 522.125 80.6C526.125 73.5334 529.459 66.8667 532.125 60.6C533.059 58.6 533.792 56.4 534.325 54C534.992 51.6 535.325 49.6 535.325 48C535.325 46.1334 534.859 45.2 533.925 45.2C533.392 45.2 532.592 45.7334 531.525 46.8C530.459 47.7334 529.059 49.4 527.325 51.8C524.792 55.1334 521.992 59.6667 518.925 65.4C515.992 71.1334 512.992 77.2667 509.925 83.8C506.859 90.3334 504.059 96.6667 501.525 102.8C498.992 108.8 496.992 113.8 495.525 117.8ZM581.883 170.6C578.95 170.6 576.083 170.4 573.283 170C564.883 168.933 558.683 166.467 554.683 162.6C550.816 158.733 548.883 154.533 548.883 150C548.883 145.067 551.083 140.6 555.483 136.6C560.016 132.6 566.35 130.6 574.483 130.6C577.016 130.6 579.683 130.867 582.483 131.4C585.416 131.8 588.483 132.533 591.683 133.6C593.283 134.133 594.083 134.867 594.083 135.8C594.083 136.333 593.683 136.6 592.883 136.6C592.083 136.6 591.416 136.467 590.883 136.2C588.75 135.4 586.683 134.867 584.683 134.6C582.816 134.2 581.016 134 579.283 134C573.55 134 569.15 135.667 566.083 139C563.15 142.2 561.683 145.733 561.683 149.6C561.683 153.333 563.216 156.733 566.283 159.8C569.35 162.867 574.216 164.4 580.883 164.4C589.283 164.4 597.016 162.467 604.083 158.6C611.283 154.733 618.083 149.667 624.483 143.4C631.283 136.733 637.483 128.733 643.083 119.4C648.683 109.933 654.216 99.8667 659.683 89.2C665.283 78.4 671.35 67.5334 677.883 56.6C684.416 45.6667 691.95 35.4 700.483 25.8C702.216 23.9334 703.95 22 705.683 20C707.55 17.8667 709.35 16.0667 711.083 14.6C706.55 13.9334 701.883 13.4667 697.083 13.2C692.283 12.8 687.55 12.6 682.883 12.6C675.95 12.6 669.35 12.9334 663.083 13.6C656.95 14.1334 650.816 14.9334 644.683 16C638.416 17.2 631.416 19.0667 623.683 21.6C615.95 24.1334 608.416 27.4667 601.083 31.6C593.883 35.6 587.683 40.4667 582.483 46.2C577.416 51.9334 574.283 58.5334 573.083 66C572.95 66.6667 572.816 67.4 572.683 68.2C572.683 68.8667 572.683 69.5334 572.683 70.2C572.683 76.3334 574.75 81.4 578.883 85.4C583.15 89.4 588.083 91.4 593.683 91.4C597.816 91.4 601.816 90.3334 605.683 88.2C609.55 85.9334 613.016 83 616.083 79.4C619.15 75.6667 621.416 71.6 622.883 67.2C623.016 65.8667 623.55 65.2 624.483 65.2C625.283 65.2 625.683 65.9334 625.683 67.4C625.55 73.2667 623.816 78.3334 620.483 82.6C617.283 86.8667 613.216 90.1334 608.283 92.4C603.35 94.5334 598.35 95.6 593.283 95.6C588.083 95.6 583.15 94.5334 578.483 92.4C573.816 90.1334 570.016 86.8667 567.083 82.6C564.15 78.2 562.683 72.8 562.683 66.4C562.683 58.9334 564.483 52.3334 568.083 46.6C571.816 40.8667 576.75 35.8667 582.883 31.6C589.016 27.2 595.683 23.5334 602.883 20.6C610.083 17.5334 617.283 15.1334 624.483 13.4C631.683 11.5334 638.216 10.1334 644.083 9.20005C650.083 8.26671 656.283 7.53337 662.683 7.00004C669.216 6.46671 675.816 6.20004 682.483 6.20004C688.216 6.20004 693.95 6.46671 699.683 7.00004C705.416 7.53337 711.016 8.33338 716.483 9.40004C718.75 7.66671 721.083 6.13338 723.483 4.80004C725.883 3.46671 728.55 2.26671 731.483 1.20004C733.35 0.400046 734.75 4.673e-05 735.683 4.673e-05C736.483 4.673e-05 736.883 0.26671 736.883 0.800036C736.883 1.73337 735.816 2.86671 733.683 4.20004C732.616 4.73337 731.283 5.66671 729.683 7.00004C728.083 8.33337 726.35 9.86671 724.483 11.6C733.15 13.7334 740.95 16.9334 747.883 21.2C755.483 25.7334 760.883 30.5334 764.083 35.6C767.416 40.6667 769.083 45.8667 769.083 51.2C769.083 57.3334 767.216 63.4667 763.483 69.6C759.75 75.6 754.883 81.2 748.883 86.4C742.883 91.6 736.283 96.1334 729.083 100C721.883 103.733 714.75 106.467 707.683 108.2C700.883 109.933 694.016 111.2 687.083 112C680.15 112.8 673.95 113.2 668.483 113.2C667.55 113.2 666.55 113.2 665.483 113.2C664.55 113.2 663.616 113.133 662.683 113C658.15 119.4 653.483 125.667 648.683 131.8C643.883 137.8 638.483 143.667 632.483 149.4C625.15 156.333 617.15 161.6 608.483 165.2C599.816 168.8 590.95 170.6 581.883 170.6ZM665.483 108.6C670.55 108.733 676.216 108.333 682.483 107.4C688.75 106.467 695.016 105.067 701.283 103.2C711.683 100 721.016 95.4 729.283 89.4C737.683 83.4 744.283 76.7334 749.083 69.4C754.016 62.0667 756.483 54.8667 756.483 47.8C756.483 43.5334 755.416 39.4667 753.283 35.6C751.283 31.7334 747.95 28.2667 743.283 25.2C740.216 23.2 736.75 21.4667 732.883 20C729.016 18.5334 724.95 17.3334 720.683 16.4C713.883 26 707.483 36 701.483 46.4C695.616 56.8 689.75 67.2667 683.883 77.8C678.15 88.3334 672.016 98.6 665.483 108.6ZM737.363 162.8C735.896 162.8 734.096 162.467 731.963 161.8C729.963 161.133 728.163 159.933 726.563 158.2C725.096 156.333 724.363 153.6 724.363 150C724.363 146.533 725.496 142.533 727.763 138C730.029 133.467 732.029 129.467 733.763 126C732.296 126 731.563 125.4 731.563 124.2C731.696 123.8 732.296 122.533 733.363 120.4C734.429 118.267 735.696 115.733 737.163 112.8C738.629 109.867 740.029 107.067 741.363 104.4C742.829 101.6 743.963 99.4667 744.763 98C746.363 95.0667 748.896 93.6 752.363 93.6H764.763C762.496 95.3334 760.429 97.2667 758.563 99.4C756.829 101.4 754.629 105.133 751.963 110.6C751.963 110.6 751.496 111.533 750.563 113.4C749.629 115.267 748.429 117.667 746.963 120.6C745.629 123.4 744.229 126.267 742.763 129.2C741.429 132.133 740.296 134.6 739.363 136.6C737.629 140.333 736.496 143.333 735.963 145.6C735.429 147.733 735.163 149.733 735.163 151.6C735.163 156 736.629 158.2 739.563 158.2C742.763 158.2 746.629 155.6 751.163 150.4C754.896 146 758.563 140.733 762.163 134.6C765.763 128.467 769.163 122.133 772.363 115.6C775.696 109.067 778.629 103.2 781.163 98C782.629 95.0667 785.229 93.6 788.963 93.6H799.963C797.029 96 794.029 99.6 790.963 104.4C788.029 109.2 784.763 115.333 781.163 122.8C780.229 124.8 779.029 127.333 777.563 130.4C776.096 133.467 774.763 136.733 773.563 140.2C772.496 143.667 771.963 147.133 771.963 150.6C771.963 155.267 773.629 157.6 776.963 157.6C781.496 157.6 785.896 154.467 790.163 148.2C794.429 141.933 798.629 133.933 802.763 124.2C803.829 124.2 804.429 124.267 804.563 124.4C804.829 124.533 805.029 125.067 805.163 126C803.696 129.6 801.896 133.533 799.763 137.8C797.763 141.933 795.429 145.933 792.763 149.8C790.229 153.667 787.363 156.8 784.163 159.2C781.096 161.6 777.696 162.8 773.963 162.8C770.629 162.8 767.896 161.6 765.763 159.2C763.629 156.667 762.563 153.133 762.563 148.6C762.563 145 763.229 141.133 764.563 137C762.296 141 759.696 145 756.763 149C753.829 153 750.696 156.333 747.363 159C744.029 161.533 740.696 162.8 737.363 162.8ZM815.052 163.8C809.585 163.8 805.718 162.133 803.452 158.8C801.185 155.467 800.052 151.4 800.052 146.6C800.052 143.267 800.385 140.133 801.052 137.2C801.852 134.267 802.985 130.933 804.452 127.2H804.052C802.985 127.2 802.452 126.667 802.452 125.6C802.452 125.067 802.985 123.533 804.052 121C805.252 118.467 806.718 115.4 808.452 111.8C810.318 108.2 812.185 104.533 814.052 100.8C816.052 97.0667 817.852 93.7334 819.452 90.8C822.118 85.8667 825.052 80.8 828.252 75.6C831.452 70.2667 834.585 65.2 837.652 60.4C840.852 55.6 843.518 51.6667 845.652 48.6C850.452 41.9334 854.918 38.6 859.052 38.6H860.052C861.252 38.6 862.585 38.8 864.052 39.2C865.652 39.6 867.118 39.6667 868.452 39.4C866.452 41.5334 863.385 45.4 859.252 51C855.252 56.4667 850.852 62.7334 846.052 69.8C844.052 72.7334 841.518 76.6667 838.452 81.6C835.518 86.5334 832.385 92.0667 829.052 98.2C825.718 104.333 822.585 110.6 819.652 117C816.852 123.267 814.518 129.4 812.652 135.4C810.785 141.267 809.852 146.533 809.852 151.2C809.852 154.267 810.385 156.4 811.452 157.6C812.518 158.8 813.852 159.4 815.452 159.4C817.452 159.4 819.785 158.267 822.452 156C825.252 153.6 828.052 150.533 830.852 146.8C833.785 142.933 836.452 138.733 838.852 134.2C841.252 129.533 843.185 124.867 844.652 120.2C846.252 115.4 847.052 111 847.052 107C847.052 103.133 846.318 100.333 844.852 98.6C843.518 96.8667 841.718 96 839.452 96C838.518 96 837.585 96.2667 836.652 96.8C835.718 97.2 834.918 97.4 834.252 97.4C833.585 97.4 833.252 97.0667 833.252 96.4C833.252 95.7334 833.918 95 835.252 94.2C836.718 93.4 838.852 93 841.652 93C844.185 93 846.718 93.6667 849.252 95C851.918 96.3334 854.118 98.5334 855.852 101.6C857.585 104.533 858.452 108.4 858.452 113.2C858.452 118.933 857.118 124.8 854.452 130.8C851.785 136.667 848.318 142.133 844.052 147.2C839.785 152.133 835.052 156.133 829.852 159.2C824.785 162.267 819.852 163.8 815.052 163.8ZM880.481 163.8C875.015 163.8 871.148 162.133 868.881 158.8C866.615 155.467 865.481 151.4 865.481 146.6C865.481 143.267 865.815 140.133 866.481 137.2C867.281 134.267 868.415 130.933 869.881 127.2H869.481C868.415 127.2 867.881 126.667 867.881 125.6C867.881 125.067 868.415 123.533 869.481 121C870.681 118.467 872.148 115.4 873.881 111.8C875.748 108.2 877.615 104.533 879.481 100.8C881.481 97.0667 883.281 93.7334 884.881 90.8C887.548 85.8667 890.481 80.8 893.681 75.6C896.881 70.2667 900.015 65.2 903.081 60.4C906.281 55.6 908.948 51.6667 911.081 48.6C915.881 41.9334 920.348 38.6 924.481 38.6H925.481C926.681 38.6 928.015 38.8 929.481 39.2C931.081 39.6 932.548 39.6667 933.881 39.4C931.881 41.5334 928.815 45.4 924.681 51C920.681 56.4667 916.281 62.7334 911.481 69.8C909.481 72.7334 906.948 76.6667 903.881 81.6C900.948 86.5334 897.815 92.0667 894.481 98.2C891.148 104.333 888.015 110.6 885.081 117C882.281 123.267 879.948 129.4 878.081 135.4C876.215 141.267 875.281 146.533 875.281 151.2C875.281 154.267 875.815 156.4 876.881 157.6C877.948 158.8 879.281 159.4 880.881 159.4C882.881 159.4 885.215 158.267 887.881 156C890.681 153.6 893.481 150.533 896.281 146.8C899.215 142.933 901.881 138.733 904.281 134.2C906.681 129.533 908.615 124.867 910.081 120.2C911.681 115.4 912.481 111 912.481 107C912.481 103.133 911.748 100.333 910.281 98.6C908.948 96.8667 907.148 96 904.881 96C903.948 96 903.015 96.2667 902.081 96.8C901.148 97.2 900.348 97.4 899.681 97.4C899.015 97.4 898.681 97.0667 898.681 96.4C898.681 95.7334 899.348 95 900.681 94.2C902.148 93.4 904.281 93 907.081 93C909.615 93 912.148 93.6667 914.681 95C917.348 96.3334 919.548 98.5334 921.281 101.6C923.015 104.533 923.881 108.4 923.881 113.2C923.881 118.933 922.548 124.8 919.881 130.8C917.215 136.667 913.748 142.133 909.481 147.2C905.215 152.133 900.481 156.133 895.281 159.2C890.215 162.267 885.281 163.8 880.481 163.8ZM939.311 162.8C934.378 162.8 930.911 161.4 928.911 158.6C926.911 155.667 925.911 152.333 925.911 148.6C925.911 146.6 926.111 144.6 926.511 142.6C927.044 140.467 927.644 138.533 928.311 136.8L941.711 102.6C942.111 101.533 942.311 100.6 942.311 99.8C942.311 98.4667 941.978 97.3334 941.311 96.4C940.644 95.3334 940.178 94.6 939.911 94.2L950.911 93.8C952.911 93.6667 954.311 93.9334 955.111 94.6C956.044 95.1334 956.511 95.8 956.511 96.6C956.511 97.4 956.044 98.8667 955.111 101C953.778 104.2 951.978 108.2 949.711 113C947.444 117.8 945.178 122.733 942.911 127.8C940.778 132.867 938.911 137.6 937.311 142C935.844 146.4 935.111 149.8 935.111 152.2C935.111 153.933 935.511 155.4 936.311 156.6C937.244 157.8 938.778 158.4 940.911 158.4C943.711 158.4 946.444 157.333 949.111 155.2C951.911 152.933 954.511 150.067 956.911 146.6C959.311 143.133 961.511 139.4 963.511 135.4C965.644 131.4 967.444 127.667 968.911 124.2C970.511 124.2 971.311 124.8 971.311 126C969.978 129.333 968.244 133.133 966.111 137.4C963.978 141.667 961.511 145.733 958.711 149.6C956.044 153.333 953.044 156.467 949.711 159C946.511 161.533 943.044 162.8 939.311 162.8ZM957.111 81.4C955.378 81.4 953.844 80.7334 952.511 79.4C951.311 78.0667 950.711 76.4667 950.711 74.6C950.711 72.3334 951.644 70.3334 953.511 68.6C955.378 66.7334 957.444 65.8 959.711 65.8C961.578 65.8 963.178 66.4 964.511 67.6C965.844 68.8 966.511 70.3334 966.511 72.2C966.511 74.6 965.578 76.7334 963.711 78.6C961.844 80.4667 959.644 81.4 957.111 81.4ZM949.667 164.4C954.467 154.667 959.067 145.067 963.467 135.6C967.867 126 972.401 116.867 977.067 108.2C979.734 103.4 982.001 100.067 983.867 98.2C985.734 96.2 988.201 95.2 991.267 95.2C992.334 95.2 993.467 95.4 994.667 95.8C995.867 96.0667 997.067 96.2 998.267 96.2C999.067 96.2 999.667 96.1334 1000.07 96C998.201 97.0667 995.734 99.7334 992.667 104C989.734 108.133 986.734 112.933 983.667 118.4C980.601 123.867 977.867 129 975.467 133.8C978.001 130.733 980.667 127.667 983.467 124.6C986.267 121.533 989.334 118.6 992.667 115.8C995.867 113 999.667 110.133 1004.07 107.2C1008.6 104.133 1013 101.6 1017.27 99.6C1021.53 97.6 1024.93 96.6 1027.47 96.6C1028.4 96.6 1029.07 96.6667 1029.47 96.8C1029.47 96.8 1028.73 98.1334 1027.27 100.8C1025.8 103.333 1023.93 106.733 1021.67 111C1019.53 115.133 1017.33 119.6 1015.07 124.4C1012.8 129.067 1010.73 133.6 1008.87 138C1007.13 142.267 1006 145.867 1005.47 148.8C1005.07 150.533 1004.87 152.133 1004.87 153.6C1004.87 155.733 1005.27 157.133 1006.07 157.8C1006.87 158.467 1007.73 158.8 1008.67 158.8C1011.2 158.8 1013.8 157.667 1016.47 155.4C1019.13 153.133 1021.67 150.267 1024.07 146.8C1026.6 143.2 1028.93 139.4 1031.07 135.4C1033.2 131.4 1035 127.667 1036.47 124.2C1038.07 124.2 1038.87 124.8 1038.87 126C1037.4 129.6 1035.53 133.6 1033.27 138C1031.13 142.267 1028.67 146.333 1025.87 150.2C1023.2 154.067 1020.2 157.267 1016.87 159.8C1013.53 162.333 1009.93 163.6 1006.07 163.6C1003.4 163.6 1000.6 162.667 997.667 160.8C994.867 158.933 993.467 155.467 993.467 150.4C993.467 148.933 993.601 147.4 993.867 145.8C994.134 144.067 994.601 142.2 995.267 140.2C996.334 137.533 997.601 134.667 999.067 131.6C1000.53 128.533 1002.93 124.333 1006.27 119C1007.2 117.533 1007.73 116.4 1007.87 115.6C1008.13 114.8 1008.27 114.133 1008.27 113.6C1008.27 112 1007.53 111.2 1006.07 111.2C1004.87 111.2 1003.07 111.867 1000.67 113.2C998.401 114.533 995.534 116.867 992.067 120.2C988.734 123.4 984.734 127.933 980.067 133.8C975.534 139.667 970.267 148.333 964.267 159.8C963.334 161.533 962.267 162.467 961.067 162.6C960.001 162.733 958.467 162.867 956.467 163C955.134 163.133 953.867 163.2 952.667 163.2C951.467 163.333 950.467 163.733 949.667 164.4ZM1022.65 226.6C1009.98 226.6 1003.65 221.4 1003.65 211C1003.65 206.067 1005.38 201.667 1008.85 197.8C1012.31 193.933 1016.45 190.6 1021.25 187.8C1027.91 183.8 1034.45 180.6 1040.85 178.2C1047.25 175.8 1053.38 173.667 1059.25 171.8C1065.11 170.067 1070.58 168.133 1075.65 166C1076.85 162.533 1077.85 158.733 1078.65 154.6C1079.45 150.333 1080.05 146.2 1080.45 142.2C1080.85 138.2 1081.05 134.733 1081.05 131.8C1081.05 128.733 1080.85 126.733 1080.45 125.8C1078.98 128.6 1076.98 132.067 1074.45 136.2C1072.05 140.333 1069.18 144.467 1065.85 148.6C1062.65 152.6 1059.25 155.933 1055.65 158.6C1052.05 161.267 1048.38 162.6 1044.65 162.6C1043.31 162.6 1042.05 162.4 1040.85 162C1037.11 160.4 1034.38 158.133 1032.65 155.2C1031.05 152.267 1030.25 148.933 1030.25 145.2C1030.25 139.2 1031.98 132.733 1035.45 125.8C1038.91 118.867 1043.05 112.533 1047.85 106.8C1051.71 102.133 1056.25 98.4 1061.45 95.6C1066.65 92.8 1071.91 91.4 1077.25 91.4C1083.38 91.4 1089.11 93.4667 1094.45 97.6C1096.45 99.2 1097.45 100.933 1097.45 102.8C1097.45 104.8 1096.65 105.8 1095.05 105.8C1093.71 105.8 1092.78 104.933 1092.25 103.2C1090.38 98.2667 1087.38 95.8 1083.25 95.8C1079.91 95.8 1076.11 97.2667 1071.85 100.2C1067.58 103 1063.58 106.533 1059.85 110.8C1056.65 114.4 1053.51 118.533 1050.45 123.2C1047.51 127.867 1045.05 132.467 1043.05 137C1041.18 141.533 1040.25 145.467 1040.25 148.8C1040.25 151.067 1040.78 153 1041.85 154.6C1042.91 156.2 1044.58 157 1046.85 157C1049.91 157 1053.11 155.533 1056.45 152.6C1059.91 149.667 1063.18 146.067 1066.25 141.8C1069.45 137.533 1072.18 133.2 1074.45 128.8C1076.85 124.4 1078.51 120.733 1079.45 117.8C1080.38 114.733 1081.65 112.867 1083.25 112.2C1084.85 111.4 1086.45 111 1088.05 111C1089.65 111 1090.98 110.6 1092.05 109.8C1092.58 112.733 1092.91 115.733 1093.05 118.8C1093.31 121.733 1093.45 124.733 1093.45 127.8C1093.45 133.933 1093.05 139.533 1092.25 144.6C1091.58 149.667 1090.38 155.067 1088.65 160.8C1093.45 157.867 1097.58 154.2 1101.05 149.8C1104.65 145.267 1107.58 140.733 1109.85 136.2C1112.25 131.533 1114.18 127.533 1115.65 124.2C1117.25 124.2 1118.05 124.8 1118.05 126C1116.31 129.6 1114.11 134 1111.45 139.2C1108.91 144.4 1105.65 149.467 1101.65 154.4C1097.78 159.2 1092.91 162.933 1087.05 165.6C1084.78 172 1081.51 178.733 1077.25 185.8C1073.11 192.867 1068.18 199.467 1062.45 205.6C1056.71 211.867 1050.45 216.933 1043.65 220.8C1036.85 224.667 1029.85 226.6 1022.65 226.6ZM1017.85 222.6C1020.78 222.6 1023.85 221.933 1027.05 220.6C1030.38 219.4 1033.51 217.933 1036.45 216.2C1039.38 214.467 1041.65 213 1043.25 211.8C1046.31 209.4 1049.45 206.4 1052.65 202.8C1055.85 199.2 1058.65 195.733 1061.05 192.4C1063.31 189.2 1065.65 185.8 1068.05 182.2C1070.45 178.733 1072.38 175.267 1073.85 171.8L1065.65 174.4C1061.25 175.733 1056.38 177.333 1051.05 179.2C1045.85 181.2 1040.65 183.4 1035.45 185.8C1030.25 188.2 1025.51 190.8 1021.25 193.6C1017.51 196.133 1014.45 199.467 1012.05 203.6C1009.51 207.733 1008.25 211.333 1008.25 214.4C1008.25 216.667 1009.05 218.6 1010.65 220.2C1012.11 221.8 1014.51 222.6 1017.85 222.6Z" fill="#469BD1"/>
</svg>
