<svg width="1033" height="591" viewBox="0 0 1033 591" fill="none" xmlns="http://www.w3.org/2000/svg">
<path d="M290.371 480.509C258.25 480.509 245.402 475.37 240.262 458.668C235.123 443.25 235.123 385.435 235.123 308.348V282.652C235.123 205.565 235.123 147.75 240.262 132.333C245.402 115.631 258.25 111.776 290.371 110.491V102.783C263.389 102.783 181.16 102.783 151.609 102.783C122.058 102.783 95.077 102.783 68.0957 102.783V110.491C100.216 110.491 113.065 115.631 118.204 132.333C123.343 147.75 123.343 205.565 123.343 282.652V308.348C123.343 385.435 123.343 443.25 118.204 458.668C113.065 475.37 100.216 479.224 68.0957 480.509V488.217C95.077 488.217 123.343 488.217 151.609 488.217C179.876 488.217 263.389 488.217 290.371 488.217V480.509ZM205.572 468.946C194.009 466.376 188.869 461.237 185.015 450.959C179.876 436.826 179.876 381.581 179.876 308.348V283.937C179.876 210.704 179.876 155.459 185.015 141.326C188.869 131.048 194.009 125.909 205.572 123.339V467.661V468.946Z" fill="#B22222"/>
<path d="M512.645 488.217C480.525 488.217 448.404 488.217 418.853 488.217C389.302 488.217 361.036 488.217 332.77 488.217V480.509C364.89 480.509 377.739 475.37 382.878 458.667C388.017 443.25 388.017 386.72 388.017 309.633V283.937C388.017 206.85 388.017 149.035 382.878 134.902C377.739 118.2 363.606 114.346 330.2 113.061V105.352H507.506C593.589 105.352 620.571 101.498 620.571 101.498C624.425 146.465 625.71 169.591 630.849 204.28H626.995C609.007 143.896 589.735 118.2 507.506 118.2C425.277 118.2 467.677 118.2 447.119 124.624C445.835 165.737 445.835 206.85 445.835 285.222H486.949C552.475 285.222 557.614 271.089 558.899 226.122H566.608C566.608 246.678 566.608 267.235 566.608 290.361C566.608 313.487 566.608 334.043 566.608 354.6H558.899C558.899 309.633 552.475 298.07 486.949 296.785H445.835V309.633C445.835 386.72 445.835 444.535 449.689 457.383C454.828 475.37 465.107 477.939 512.645 480.509V488.217Z" fill="black"/>
<path d="M657.83 480.509C689.951 480.509 702.799 475.369 707.939 458.667C713.078 443.25 713.078 386.719 713.078 309.632V283.937C713.078 206.85 713.078 149.035 707.939 134.902C702.799 118.2 688.666 114.346 655.261 113.061V105.352C678.388 105.352 706.654 105.352 728.496 105.352C750.338 105.352 782.458 105.352 813.294 105.352C903.232 105.352 964.904 141.326 964.904 210.704C964.904 280.082 890.384 321.196 812.009 321.196C733.635 321.196 801.731 321.196 791.452 321.196V317.341C868.542 317.341 903.232 272.374 903.232 215.843C903.232 159.313 867.257 122.054 806.87 122.054C746.483 122.054 773.465 124.624 773.465 124.624C773.465 165.737 773.465 209.419 773.465 287.791V310.917C773.465 388.004 773.465 445.819 777.319 458.667C782.458 476.654 792.737 479.224 840.276 481.793V489.502C808.155 489.502 776.034 489.502 746.483 489.502C716.932 489.502 688.666 489.502 660.4 489.502V481.793L657.83 480.509Z" fill="black"/>
</svg>
