<svg width="6921" height="2426" viewBox="0 0 6921 2426" fill="none" xmlns="http://www.w3.org/2000/svg">
<path d="M1657.99 1014.16C1680.3 985.123 1825.45 857.017 1867.06 838.032C1876.93 833.528 1883.84 834.119 1893.62 838.339C2019.05 1049.83 2063.15 1306.64 2005.49 1547.58C1940.61 1777.99 1783.26 1971.68 1577.54 2088.46C1308.64 2241.11 942.586 2218.64 682.645 2059.42C450.507 1917.23 265.191 1607.94 282.095 1333.4L283.012 1334.71C314.502 1380.11 334.005 1456.48 369.138 1505.04C386.77 1529.42 400.045 1565.72 421.371 1589.27C540.123 1735.74 683.558 1810.97 864.985 1846.07C1049.65 1884.91 1252.06 1812.9 1402.23 1706.44C1446.21 1675.27 1532.01 1592.68 1561.54 1545.54C1649.87 1404.52 1717.23 1175.48 1657.99 1014.16Z" fill="#DB7923"/>
<path d="M895.499 556.49C1057.15 555.567 1205.75 601.897 1327.62 716.667C1417.21 801.034 1471.79 885.83 1499.37 1007.25L1504.08 1028.1L1507.02 1028.58C1510.15 1016.53 1511.19 1001.67 1519.37 996.476C1534.61 1015.36 1532.93 1063.15 1541.83 1087.96C1547.14 1102.77 1512.01 1115.25 1510.66 1135.08L1508.53 1139.76L1502.39 1140.09C1493.25 1130.75 1491.55 1102.06 1481.88 1081.68L1481.35 1080.55C1477.84 1074.28 1467.01 1044.66 1463.55 1035.59C1428.68 944.355 1297.78 848.287 1208.73 813.73C1091.49 768.236 966.937 775.206 852.081 826.036C719.065 884.902 650.415 960.625 596.848 1094.71C558.284 1191.24 543.342 1306.99 585.394 1402.88C630.999 1506.87 653.141 1579.91 754.064 1644.36C778.261 1663.6 803.023 1677.29 829.384 1692.52C852.582 1705.93 926.925 1721.59 935.124 1741.98L930.588 1746.7C882.79 1764.06 727.94 1726.29 682.526 1703.83C633.603 1679.63 534.78 1613.35 495.739 1573.82C397.206 1471.9 328.903 1330.61 322.834 1189.11C315.679 1022.24 365.622 863.43 483.458 742.86C600.366 623.24 724.462 557.64 895.499 556.49Z" fill="#DB7923"/>
<path d="M1817.36 745.444C1798.18 772.112 1773.42 797.498 1753.4 824.84C1729.97 856.828 1702.67 884.387 1675.4 914.831C1647.53 1021.13 1648.27 920.348 1637.95 911.784C1618.74 894.796 1634.25 856.104 1640.42 837.238C1658.36 782.327 1704.31 745.233 1740.3 702.249C1746.98 694.265 1754.14 692.016 1764.22 691.77L1768.49 696.166C1783.1 714.032 1797.51 723.389 1817.36 745.444Z" fill="#B38925"/>
<path d="M1625.86 924.733C1637.69 937.836 1637.49 950.968 1631.16 966.389C1616.55 1001.88 1596.6 1035.67 1578.03 1069.28L1573.68 1069.97C1570.54 1054.52 1616.89 945.631 1625.86 924.733Z" fill="#ACC67F" fill-opacity="0.0196078"/>
<path d="M5976.6 649.449C6016.99 644.049 6077.07 642.161 6081.8 694.039C6086.33 743.678 6082.75 789.897 6083.21 839.435L6083.17 1306.17C6083.31 1358.91 6078.95 1460.22 6086.93 1507.09C6108.69 1509.75 6171.7 1514.04 6180.42 1529.44C6226.63 1609.87 6112.87 1579.31 6093.75 1608.35C6067.84 1647.72 6091.21 1770.45 6084.01 1819.96C6078.07 1860.77 6094.36 1934.54 6066.35 1965.7C6025.42 1984.46 5989.04 1962.15 5988.29 1916.37C5987.68 1879.34 5989.69 1842.26 5991.03 1805.25C5989.45 1746.57 6000.23 1689.65 5995.92 1632.65C5995.29 1624.44 5981.84 1601.88 5977.07 1593.75C5931.69 1589.87 5647.55 1605.01 5619.01 1579.8C5597.96 1539.81 5640.64 1460.5 5656.32 1419.6C5690.02 1329.53 5725.15 1240 5761.68 1151.03C5777.76 1112.14 5798.84 1065.39 5815.64 1026.89C5849.04 950.337 5924.65 697.687 5976.6 649.449ZM5728.73 1510.11C5774.75 1519.85 5954.93 1522.35 5989.71 1500.15C5998.77 1454.63 5987.03 1417.16 5988.93 1373.81C5993.06 1280.11 5986.19 1186.32 5991.35 1092.93C5993.61 1052.2 5995.25 1014.74 5995.19 974.183C5995.92 947.348 5992.97 904.905 5990.06 878.456C5988.13 860.879 5988.6 847.192 5976.31 835.214L5968.4 835.714C5927.12 973.763 5874.12 1087.58 5824.85 1221.36C5817.66 1240.89 5803.96 1273.68 5798.43 1291.68C5763.44 1368.68 5736.71 1424.93 5728.73 1510.11Z" fill="#DB7923"/>
<path d="M5968.4 835.714C5965.28 823.293 5981.61 786.333 5992.57 777.929C6021.32 782.453 6006.96 860.587 5990.06 878.456C5988.13 860.879 5988.6 847.192 5976.31 835.214L5968.4 835.714Z" fill="#E69041"/>
<path d="M3243.22 983.69C3244.09 983.729 3246.92 983.915 3247.52 984.067C3299.07 997.191 3385.13 1016.1 3417.01 1062.36C3474.44 1145.7 3471.62 1272.1 3471.83 1368.78C3471.93 1410.8 3472.37 1459.77 3467.1 1499.11C3364.13 1508.83 3224.49 1494.09 3115.68 1502.42C3114.33 1562.01 3114.74 1621.62 3116.94 1681.2C3119.32 1740.63 3123.12 1836.98 3169.83 1879.19C3205.5 1911.4 3262.09 1904.42 3306.48 1902.44C3406.24 1825.08 3349.92 1758.64 3378.79 1711.32C3387.17 1704.06 3390.88 1704.38 3402.21 1703.41L3463.17 1704.14C3466.19 1789.48 3454.45 1934.07 3354.03 1968.03C3265.4 2004.09 3079.8 1987.19 3050.15 1873.7C3001.75 1688.41 3028.49 1451.85 3023.28 1259.75C3022.45 1229.49 3038.39 1134.21 3050.95 1108.64C3090.9 1027.32 3166.42 1009.07 3243.22 983.69ZM3120.08 1422.18C3172.43 1422.92 3224.8 1423.17 3277.17 1422.93C3298.42 1423.53 3359.78 1429.06 3372.77 1417.05C3399.38 1350.81 3381.61 1205.51 3357.37 1137.55C3337.73 1082.52 3285.7 1065.86 3231.06 1071.48C3192.54 1080.84 3172.36 1088.51 3150.81 1125.25C3105.86 1201.87 3113.46 1335.97 3120.08 1422.18Z" fill="#09090A" fill-opacity="0.988235"/>
<path d="M4180.63 1217.83C4187.77 1151.75 4196.18 1090.01 4250.93 1046.08C4285.12 1018.66 4368.74 984.709 4410.96 989.458C4456.52 994.584 4545.06 1028.72 4571.59 1067.74C4624.13 1144.98 4613.63 1298.21 4614.13 1390.36C4614.28 1416.82 4614.49 1464.14 4611.45 1486.97C4610.71 1492.42 4609.83 1497.84 4608.77 1503.22C4502.76 1500.88 4371.57 1500.72 4264.99 1503.86C4264.27 1606.02 4246.73 1795.94 4316.81 1875.9C4349.95 1913.72 4445.33 1920.04 4479.73 1880.48C4516.98 1839.49 4525.58 1765.85 4527.56 1711.64C4563.15 1701.2 4574.82 1702.82 4612.12 1706.34C4608.19 1795.08 4616.88 1874.63 4543.96 1940.11C4500.48 1979.15 4436.34 1990.88 4380.39 1986.07C4211.09 1971.5 4187.98 1858.9 4180.5 1721.88L4180.63 1217.83ZM4411.17 1423.09C4436 1423.38 4502.23 1429.11 4517.9 1415.49C4545.92 1372.04 4529.69 1119.89 4470.25 1090.3C4446.82 1078.64 4418.22 1070.09 4391.55 1068.52C4246.13 1095.13 4264.8 1266.03 4264.7 1377.37C4264.69 1387.33 4265.82 1405 4270.77 1413.52C4295.44 1428.21 4379.72 1423.38 4411.17 1423.09Z" fill="#09090A" fill-opacity="0.988235"/>
<path d="M6476.53 710.88C6519.47 706.228 6568.75 708.13 6610.31 721.736C6691.18 748.216 6724.39 823.522 6732.02 904.098C6740.49 993.469 6740.55 1102.41 6714.18 1189.17C6706.6 1214.11 6651.32 1256.98 6642.52 1281.25C6645.52 1288.53 6668.78 1301.28 6677.11 1307.21C6789.53 1387.09 6761.23 1543.36 6764.64 1663.9C6766.84 1741.73 6750.56 1846.45 6707.4 1913.44C6567.45 2050.35 6285.19 1999.68 6273.3 1775.78C6271.98 1751.02 6263.78 1697.21 6275.48 1683.32C6295.24 1676.47 6335.39 1680.44 6357.1 1682.3C6355.52 1748.16 6368.56 1815.05 6409.33 1868.16C6464.43 1924.66 6591.38 1923.55 6633.82 1856.71C6685.98 1762.51 6665.7 1631.4 6668.29 1529.22C6673.08 1339.85 6597.7 1331.37 6441.29 1317.93C6439.37 1285.88 6439.9 1278.18 6443.2 1246.33C6503.59 1219.23 6549.6 1252.68 6596.18 1209.12C6604.97 1200.9 6629.78 1168.66 6632.7 1156.93C6644.97 1093.7 6645.67 1021.69 6644.14 956.877C6640.87 817.639 6592.15 785.171 6466.86 787.975C6382.12 847.959 6379.03 909.548 6376.62 1004.14C6347.9 1004.52 6322.46 1003.6 6293.79 1002.32C6293.55 999.732 6293.35 997.14 6293.19 994.546C6285.35 867.342 6326.41 721.009 6476.53 710.88Z" fill="#171718"/>
<path d="M3978.72 1015.53C4004.83 1010.47 4043.96 1008.39 4071.13 1006.33C4059.86 1042.13 4064.18 1081.36 4055.65 1118.05C4051.52 1135.81 4046.9 1153.4 4042.26 1171.03C4038.93 1222.79 4026.19 1244.85 4015.92 1293.39C4001.41 1361.9 3986.48 1430.11 3971.45 1498.52C3948 1592.52 3939.28 1695.06 3914.89 1788.24C3900.8 1842.08 3889.51 1913.1 3873.88 1963.95C3853.2 1979.91 3794.35 1971.62 3767.68 1969.38C3761.43 1947.22 3749.87 1924.17 3745.35 1901.69C3728.05 1815.43 3714.84 1730.69 3694.6 1644.81C3680.81 1586.27 3674.1 1522.35 3660.19 1463.23C3647.93 1401.38 3627.44 1338.88 3617.63 1276.75C3604.72 1194.97 3572.64 1091.42 3572.42 1010.6C3594.81 1010.08 3617.2 1009.34 3639.58 1008.39C3648.99 1008.55 3650.37 1008.63 3659.1 1012.04C3666.89 1020.29 3703.88 1215.94 3707.45 1237.56C3741.84 1445.62 3794.12 1646.48 3812.04 1857C3841.85 1765.74 3846.11 1680.66 3864.17 1593.12L3937.59 1234.84C3946.62 1192.07 3977.31 1055.34 3978.72 1015.53Z" fill="#09090A"/>
<path d="M5182.11 713.134C5220.64 712.128 5260.08 709.36 5298.39 711.707C5511.54 724.764 5482.27 962.858 5480.6 1114.94C5479.87 1180.43 5420.88 1244.68 5373.77 1283.22C5411.4 1299.16 5441.4 1310.53 5466.72 1344.47C5457.27 1340.94 5453.1 1339.65 5444.82 1333.92C5432.01 1352.96 5439.96 1678.77 5437.25 1723.23C5434.95 1760.88 5443.23 1860.76 5442.83 1905.83C5449.24 1907.13 5449.19 1905.99 5455.89 1903.68C5429.96 1934.38 5408.31 1956.66 5368.16 1969.36C5217.87 2016.91 5053.29 1973.69 5027.55 1798.43C5032.31 1773.45 5035.6 1738.53 5039.92 1711.61C5065.66 1707.78 5080.92 1705.59 5106.16 1697.83C5097 1851.25 5203.59 1969.2 5351.87 1883.18C5424.15 1832.09 5418.01 1695.13 5417.67 1619.03C5417.34 1538.47 5426.38 1436.5 5379.89 1370.65C5346.74 1323.7 5241.67 1322.82 5189.99 1313.95C5179.54 1299.85 5185.89 1260.04 5187.39 1240.65C5261 1252.82 5325.49 1239.73 5375.24 1182.41C5395.8 1084.87 5404.71 977.163 5382.27 879.351C5365.04 804.241 5294.49 771.413 5223.02 791.378C5151.02 811.483 5134.22 873.124 5129.13 940.78C5127.78 958.354 5126.6 978.053 5119.16 993.896C5112.33 1008.44 5055.2 1004.99 5044.38 997.798C5034.28 977.37 5050.29 880.911 5056.13 854.026C5072.84 776.89 5122.39 751.659 5182.11 713.134Z" fill="#09090A" fill-opacity="0.988235"/>
<path d="M2563.59 680.228C2574.17 680.123 2603.35 685.544 2615.2 687.472C2618.22 952.214 2611.4 1221.68 2614.54 1486.77C2616.08 1618.35 2610.19 1760.4 2618.83 1890.91C2714.49 1895.78 2835.49 1900.11 2930.96 1895.93L2918.56 1972.25C2910.81 1971.73 2903 1971.7 2895.25 1971.56L2661.44 1972.98C2619.96 1973.09 2559.09 1975.14 2519.77 1969.51C2511.91 1903.05 2513.78 1835.7 2513.98 1768.8L2514.07 1536.84L2514.87 685.899C2531.15 685.559 2547.48 682.665 2563.59 680.228Z" fill="#171718"/>
<path d="M4780.84 632.45C4813.28 630.452 4841.74 631.476 4874.21 632.391C4871 734.83 4873.47 844.254 4873.33 947.27L4872.9 1627.41L4873.56 1847.92C4873.68 1879.94 4875.33 1942.16 4871.28 1971.66C4838.78 1972.9 4816.1 1972.21 4783.57 1970.32C4784.17 1906.52 4781.86 1839.76 4781.66 1775.53L4781.77 1330.13C4781.89 1102.22 4785.67 859.937 4780.84 632.45Z" fill="#171718"/>
<path d="M1237.68 451.99C1265.8 455.097 1307.74 457.995 1334.37 464.533C1403.68 481.536 1579.02 533.516 1620.61 590.76C1621.31 608.809 1630.14 631.422 1633.75 649.564C1623.86 677.819 1586.95 741.405 1567.95 763.994C1508.97 663.569 1412.53 584.338 1310.32 531.439C1280.7 516.108 1247.67 501.838 1219.57 485.269C1217.51 476.816 1208.59 475.658 1198.93 461.033C1202.8 455.78 1227.1 453.998 1237.68 451.99Z" fill="#DB7923"/>
<path d="M5455.89 1903.68C5449.19 1905.99 5449.24 1907.13 5442.82 1905.83C5443.23 1860.76 5434.95 1760.88 5437.25 1723.23C5439.96 1678.77 5432.01 1352.96 5444.82 1333.92C5453.1 1339.65 5457.27 1340.94 5466.72 1344.47C5543.02 1422.31 5522.8 1818.81 5455.89 1903.68Z" fill="#171718"/>
<path d="M4180.5 1721.88C4180.93 1723.35 4165.09 1669.97 4165.98 1679.39C4161.23 1628.96 4157.12 1575.22 4165.45 1524.97C4165.35 1525.59 4180.01 1513.99 4177.1 1507.16C4184.7 1429.49 4162.44 1289.62 4180.63 1217.83L4180.5 1721.88Z" fill="#09090A" fill-opacity="0.196078"/>
<path d="M5027.55 1798.43C5022.52 1771.34 5013.79 1721.31 5019.88 1694.63C5024.84 1672.86 5079.67 1676.71 5095.51 1683.64C5104.07 1687.4 5102.56 1689.17 5106.16 1697.83C5080.91 1705.59 5065.66 1707.78 5039.92 1711.61C5035.6 1738.53 5032.31 1773.45 5027.55 1798.43Z" fill="#09090A" fill-opacity="0.984314"/>
<path d="M1219.57 485.269C1209.09 484.104 1197.07 475.615 1188 474.036C1169.28 470.783 1140.73 472.2 1123.86 462.572L1125.45 458.527C1150.92 449.07 1210.13 447.34 1237.68 451.99C1227.1 453.998 1202.8 455.78 1198.93 461.033C1208.59 475.658 1217.51 476.816 1219.57 485.269Z" fill="#DB7923"/>
<path d="M1611.57 608.438C1611.97 605.013 1614.03 601.922 1617.2 600.574C1629.31 595.427 1619.38 593.468 1683.31 515.887C1821.74 346.801 2058.81 307.895 2248.42 217.743C2277.9 203.722 2433.98 108.961 2467.08 98.0569C2469.8 97.1601 2472.54 98.486 2473.33 101.242C2484.46 140.213 2401.01 284.428 2386.3 316.181C2295.01 513.239 2177.76 652.612 1995.64 770.237C1975.39 783.325 1921.72 816.474 1890.75 836.368C1890.35 836.627 1889.91 836.851 1889.47 837.034C1858.39 849.879 1868.04 845.471 1858.25 849.944C1816.64 868.928 1671.48 997.034 1649.17 1026.07C1631.5 1045.98 1564.1 1124.37 1537.16 1128.31C1535.65 1128.53 1534.15 1128.88 1532.83 1129.64C1515.91 1139.42 1497.18 1145.99 1486.54 1154.34C1487.05 1146.84 1498.9 1110.61 1499.06 1103.1C1499.51 1082.36 1501.31 1055.44 1502.08 1041.15C1502.16 1039.62 1505.76 1023.54 1506.35 1022.12C1506.38 1022.04 1506.4 1021.97 1506.42 1021.89C1513.01 991.137 1512.3 993.185 1515.22 980.105C1516.67 973.087 1519.09 967.212 1520.06 960.117C1528.5 898.585 1544.23 838.056 1558.7 777.744C1558.99 776.535 1559.57 775.417 1560.32 774.432C1577.9 751.594 1572.76 712.018 1592.41 655.903C1598.6 638.199 1609.73 624.088 1611.57 608.438ZM1622.35 978.3C1640.2 956.077 1850.39 704.881 1870.19 685.234C1933.45 622.428 2058.13 526.467 2101.96 451.288C2049.39 479.901 1780.87 670.075 1759.68 708.077C1617.05 936.644 1629.9 973.489 1622.35 978.3ZM1567.75 1081.42C1568.67 1081.28 1569.48 1080.71 1569.94 1079.89C1588.3 1046.71 1607.93 1013.34 1622.35 978.3C1617.15 969.007 1616.97 960.173 1617.47 952.794C1617.91 946.152 1613.24 945.538 1610.66 951.671C1595.99 986.452 1565.87 1059.84 1564.75 1079.04C1564.65 1080.66 1566.14 1081.68 1567.75 1081.42Z" fill="#839546"/>
</svg>
