<svg width="3449" height="768" viewBox="0 0 3449 768" fill="none" xmlns="http://www.w3.org/2000/svg">
<path d="M220.132 765C111.503 765 0 742.01 0 571.307V38.5086C0 21.8407 13.7942 8.04664 30.4621 8.04664H80.4658C97.1338 8.04664 110.928 21.8407 110.928 38.5086V571.307C110.928 636.83 120.699 661.544 220.132 661.544H409.801C421.871 661.544 432.216 671.315 432.216 683.385C432.216 683.96 432.216 683.96 432.216 684.534V730.515C432.791 742.01 424.745 752.356 413.824 755.804C349.452 763.276 284.504 766.15 220.132 765ZM606.368 758.103H552.34C536.247 756.954 523.603 743.734 523.603 727.641V37.9339C523.028 21.8408 535.098 8.0466 551.191 7.47185C551.766 7.47185 552.34 7.47185 552.34 7.47185H606.368C622.461 7.47185 635.68 20.6913 635.105 36.7844C635.105 37.3592 635.105 37.9339 635.105 37.9339V727.641C635.68 743.734 623.035 757.528 606.368 758.103ZM1165.03 371.292C1220.78 340.83 1255.27 281.63 1253.54 217.833V202.889C1254.12 68.396 1153.54 0.574791 955.819 0.574791C903.516 3.50718e-05 851.214 2.87383 798.911 8.04664C775.346 8.62139 756.379 28.163 756.954 51.728C756.954 52.8775 756.954 54.6018 756.954 55.7513V708.674C754.08 731.664 770.173 752.93 793.163 755.804C794.888 755.804 796.612 756.379 798.911 756.379C852.363 763.276 906.39 766.15 960.417 765C1157.56 765 1258.14 691.431 1258.14 546.593V529.35C1259.29 463.253 1223.08 402.329 1165.03 371.292ZM869.606 101.732H880.526C904.091 100.582 929.955 99.4328 955.244 99.4328C1091.46 99.4328 1142.04 127.596 1142.04 202.314V217.833C1142.04 289.102 1098.93 323.588 1009.27 323.588H869.606V101.732ZM1145.49 546.593C1145.49 633.381 1093.76 666.717 959.842 666.717C939.151 666.717 917.31 665.567 896.619 664.418L869.031 663.268V417.848H1008.7C1099.51 417.848 1145.49 455.781 1145.49 530.5V546.593ZM1577.13 765C1427.12 765 1357 703.501 1357 571.307V193.693C1357 61.4989 1427.12 0 1577.13 0C1631.16 0 1725.99 1.72427 1769.1 5.74756C1781.17 8.04658 1789.22 18.3922 1789.22 30.4621V79.3163C1789.79 91.3862 1780.59 101.732 1768.52 102.307C1767.95 102.307 1767.95 102.307 1767.37 102.307H1578.85C1478.85 102.307 1469.65 127.021 1469.65 192.543V317.265H1758.75C1775.42 317.265 1789.22 331.06 1789.22 347.727V385.087C1789.22 401.754 1775.42 415.549 1758.75 415.549H1468.5V569.008C1468.5 634.531 1477.7 659.245 1577.71 659.245H1767.37C1779.44 659.245 1789.79 669.016 1789.79 681.086C1789.79 681.661 1789.79 681.661 1789.79 682.235V732.239C1789.79 744.309 1781.74 754.655 1770.25 756.954C1724.27 765 1601.27 765 1577.13 765ZM2420.3 719.594L2249.59 434.515C2343.85 404.053 2397.31 330.485 2397.31 229.902V223.005C2397.31 77.5921 2298.45 0.574791 2111.65 0.574791C2059.35 0.574791 1982.91 3.44854 1938.08 8.62134C1923.71 10.3456 1904.17 14.9436 1904.17 41.3824V727.066C1904.17 743.16 1916.81 756.954 1933.48 757.528H1986.36C2002.45 756.379 2015.09 743.16 2015.09 727.066V451.184C2058.78 452.908 2081.77 453.483 2111.65 453.483H2130.05L2302.47 740.286C2309.37 752.93 2323.16 760.402 2337.53 758.103H2400.18C2413.4 758.678 2424.32 748.332 2424.32 735.113C2424.32 734.538 2424.32 734.538 2424.32 733.963C2424.9 729.365 2423.17 724.193 2420.3 719.594ZM2111.65 354.624C2090.96 354.624 2053.6 354.624 2015.09 352.9V105.755C2041.53 104.031 2085.79 104.031 2111.65 104.031C2237.52 104.031 2286.38 137.367 2286.38 223.005V229.902C2286.95 320.714 2239.25 354.624 2111.65 354.624ZM2746.76 0.574791C2568.01 0.574791 2469.73 113.802 2469.73 319.564V446.011C2469.73 651.773 2568.01 765 2746.76 765C2925.51 765 3022.64 651.773 3022.64 446.011V319.564C3022.64 113.802 2924.36 0.574791 2746.76 0.574791ZM2909.41 446.011C2909.41 591.424 2855.96 662.119 2746.18 662.119C2636.41 662.119 2582.38 590.849 2582.38 446.011V319.564C2582.38 174.151 2635.83 103.456 2746.18 103.456C2856.54 103.456 2909.41 171.852 2909.41 319.564V446.011Z" fill="#004987"/>
<path d="M3277.25 767.3C3182.41 767.3 3105.97 690.858 3105.97 596.023C3105.97 501.188 3182.41 424.746 3277.25 424.746C3372.08 424.746 3448.52 501.188 3448.52 596.023C3448.52 690.283 3372.08 766.725 3277.25 767.3Z" fill="#83AE30"/>
</svg>
