<svg width="14171" height="3998" viewBox="0 0 14171 3998" fill="none" xmlns="http://www.w3.org/2000/svg">
<path d="M8238.05 1448.8H8608.18V2241.93H8238.05L8187.09 2027.87C8185.84 2022.64 8183 2017.76 8179.1 2014.06C7763.98 1620.41 7410.93 1783.64 7280.56 1919.54C7277.26 1922.98 7274.62 1926.74 7272.5 1931.01C7190.79 2095.43 7182.01 2424.48 7783.33 2474.59C8392.46 2525.35 8657.54 2763.64 8713.94 2876.44C8777.39 2989.25 8859.88 3293.11 8682.22 3606.13C8504.55 3919.16 8114.68 3990.36 7941.95 3986.84C7679.69 4029.14 7339.16 3842.31 7201.68 3743.61V3933.96H6831.55V3077.37H7201.68C7320.12 3610.36 7836.2 3651.96 8079.43 3606.13C8587.04 3384.05 8238.05 2971.62 8153.46 2961.05C8085.78 2952.59 7624.7 2872.92 7402.62 2834.14C7243.99 2816.52 6907.7 2673.4 6831.55 2241.93C6756.11 1814.42 7041.28 1538.49 7197.39 1451.17C7200.31 1449.54 7203.38 1448.3 7206.59 1447.36C7778.99 1280.96 8132.6 1519.7 8238.05 1660.3V1448.8Z" fill="black"/>
<path d="M9612.81 507.608H9126.36L9136.93 1438.22H8724.5V1829.5H9136.93V3553.26H8724.5V3944.54H10025.2V3553.26H9612.81V1829.5H10025.2V1438.22H9612.81V507.608Z" fill="black"/>
<path d="M10723.3 2294.81C10791 1601.08 11812.5 1533.4 12447 2009.28L12185.4 1601.15C12183.6 1598.29 12181.5 1595.77 12179 1593.46C11971.5 1399.27 11396.2 1084.47 10723.3 1353.62C10046.5 1624.35 9891.36 2319.49 9898.41 2633.22C10101.5 2793.96 10363.7 2869.4 10469.5 2887.02C11129.4 3022.38 11660.9 2471.06 11844.2 2178.48C11252 2516.89 10850.2 2397.04 10723.3 2294.81Z" fill="black"/>
<path d="M9898.36 2834.14C10211.4 3003.35 10360.1 3045.65 10395.4 3045.65C10590 3494.03 11040.5 3655.48 11241.4 3680.16C11867.5 3756.3 12298.9 3422.83 12436.4 3246.58C12411 3381.94 12242.5 3577.93 12161.4 3659.01C11949.9 3845.84 11368.3 4156.04 10733.8 3902.24C10099.3 3648.43 9912.46 3084.42 9898.36 2834.14Z" fill="black"/>
<path d="M1.68513 1.25058L474.935 1.08562C553.078 1.06362 646.06 -1.63089 722.091 1.55298C751.526 9.65286 811.467 7.86027 844.608 8.03073L845.719 2494.96L845.203 3208.63C845.125 3272.8 840.651 3493.08 848.715 3548.38C879.672 3569.26 870.73 3551.56 880.045 3584.94L1267.36 3585.34C1266.95 3640.86 1260.73 3898.04 1269.02 3933.94C1218.93 3929.52 1129.87 3932.02 1078.18 3932.05L736.091 3932.24L274.709 3932.11C188.34 3932.05 86.8043 3929.52 1.34057 3933.96L1.49339 3585.14L252.678 3584.77C282.884 3584.75 361.027 3583.27 388.427 3586.96C408.024 3585.5 409.425 3588.64 422.88 3577.82L424.098 3549.99C419.579 3286.69 423.714 3011.38 423.708 2747.33L423.681 1179.34L423.381 635.406C423.681 581.467 428.471 390.496 420.463 351.228L391.012 344.844C390.906 330.882 390.678 329.04 385.443 316.096C303.91 308.463 90.7948 314.012 0 314.292C5.54226 222.152 1.7346 95.8867 1.68513 1.25058Z" fill="black"/>
<path d="M3849.37 2707.24C3849.37 3419.78 3257.54 3997.41 2527.47 3997.41C1797.41 3997.41 1205.58 3419.78 1205.58 2707.24C1205.58 1994.7 1797.41 1417.07 2527.47 1417.07C3257.54 1417.07 3849.37 1994.7 3849.37 2707.24ZM1676.9 2707.24C1676.9 3165.73 2057.71 3537.41 2527.47 3537.41C2997.23 3537.41 3378.05 3165.73 3378.05 2707.24C3378.05 2248.76 2997.23 1877.08 2527.47 1877.08C2057.71 1877.08 1676.9 2248.76 1676.9 2707.24Z" fill="black"/>
<path d="M6789.26 2707.24C6789.26 3419.78 6197.43 3997.41 5467.36 3997.41C4737.3 3997.41 4145.47 3419.78 4145.47 2707.24C4145.47 1994.7 4737.3 1417.07 5467.36 1417.07C6197.43 1417.07 6789.26 1994.7 6789.26 2707.24ZM4616.79 2707.24C4616.79 3165.73 4997.6 3537.41 5467.36 3537.41C5937.12 3537.41 6317.94 3165.73 6317.94 2707.24C6317.94 2248.76 5937.12 1877.08 5467.36 1877.08C4997.6 1877.08 4616.79 2248.76 4616.79 2707.24Z" fill="black"/>
<path d="M3724.15 1.25058L4197.4 1.08562C4275.55 1.06362 4368.53 -1.63089 4444.56 1.55298C4473.99 9.65286 4533.94 7.86027 4567.08 8.03073L4568.19 2494.96L4567.67 3208.63C4567.59 3272.8 4571.18 3489.8 4571.18 3548.38C4571.18 3577.82 4571.18 3553.26 4571.18 3577.82C4570.78 3633.35 4568.48 3932.24 4568.48 3932.24C4568.48 3932.24 4568.48 3932.24 4505.03 3932.24H4458.56L3997.18 3932.11C3910.81 3932.05 3809.27 3929.52 3723.81 3933.96L3723.96 3585.14L3975.15 3584.77C4005.35 3584.75 4083.5 3583.27 4110.9 3586.96C4130.49 3585.5 4131.89 3588.64 4145.35 3577.82L4146.57 3549.99C4142.05 3286.69 4146.18 3011.38 4146.18 2747.33L4146.15 1179.34L4145.85 635.406C4146.15 581.467 4150.94 390.496 4142.93 351.228L4113.48 344.844C4113.37 330.882 4113.15 329.04 4107.91 316.096C4026.38 308.463 3813.26 314.012 3722.47 314.292C3728.01 222.152 3724.2 95.8867 3724.15 1.25058Z" fill="black"/>
<path d="M12552.7 1818.93V1448.8H13430.5V1713.18C13565.8 1391.69 13980.4 1360.67 14170.7 1385.35V1787.2C13646.2 1719.52 13430.5 2220.78 13430.5 2474.59V3553.26H13832.3V3944.54H12552.7V3553.26H12965.2V1818.93H12552.7Z" fill="black"/>
</svg>
