<svg width="22567" height="4055" viewBox="0 0 22567 4055" fill="none" xmlns="http://www.w3.org/2000/svg">
<path d="M14702.4 1589.03C14761.4 1426.18 15188.1 326.365 15263.4 252.202C15333.5 183.216 15695 212.795 15806.7 215.113C15844.3 393.456 15829.6 1081.43 15830.3 1301.29L15831.8 1853.41C15832.3 1969.5 15837.7 2126.59 15821.7 2237.35C15681.6 2235.32 15535 2248.23 15397.7 2228.02C15358.7 2222.28 15322.8 2176.58 15323.7 2138.27C15327.5 1971.88 15328.2 1806.74 15326.8 1640.09C15319.7 1471.37 15343.7 1275.69 15338.5 1093.04C15202.5 1504.88 15052.3 1839.86 14883.4 2233.14C14447.6 2274.67 14498.7 2237.32 14344.3 1870.65C14245.2 1635.03 14148.4 1323.18 14022.1 1107.64C14059.3 1347.49 14043.1 1969.63 14044.5 2237.37C13880.6 2238.65 13716.7 2238.09 13552.8 2235.69C13542.5 1746.92 13555.2 1254.41 13550.5 765.206C13548.8 585.731 13549 402.708 13554.2 223.387C13620.1 217.522 13698.6 217.032 13765.7 215.004C13865.1 212.563 13996.4 209.284 14093.1 221.258C14210.1 337.3 14558.3 1340.05 14702.4 1589.03Z" fill="#F3302F"/>
<path d="M17880.3 214.267C18222.8 211.8 18509.2 185.699 18842.3 280.974C19489.4 466.023 19738.1 1197.38 19407.8 1761.92C19372 1823.1 19272 1954.24 19211.3 1986.83C18793.4 2314.81 18260.1 2243.22 17752.9 2232.33C17740.6 1802.33 17756.2 1351.25 17749.8 918.676C17748.3 813.011 17744.2 295.419 17760.9 234.311C17789.3 212.951 17842.9 215.821 17880.3 214.267ZM18237.7 1860.13C18500.3 1860.48 18656.2 1878.7 18876.9 1701.8C18999.2 1558.03 19058.9 1371.24 19042.7 1183.15C19001 656.112 18675.2 600.586 18233.5 596.032C18243.5 1015.48 18232.8 1440.28 18237.7 1860.13Z" fill="#F3302F"/>
<path d="M21169 213.125C21328.6 204.45 21557.3 209.686 21717.6 212.434C21783.5 314.853 22003.3 1010.45 22056.1 1163.27L22297.2 1849.6C22336.3 1963.62 22396.8 2122.3 22413.1 2237.79C22279.4 2235.75 22137.4 2244.09 22007.6 2238.76C21781.4 2229.48 21889.6 2048.2 21791.8 1923.23C21772.2 1898.26 21730.8 1903.59 21694.8 1901.58C21487.8 1898.3 21280.7 1900.22 21073.8 1907.32C21031.1 2088.34 21021.5 2273.77 20788.5 2242.27C20692.7 2229.33 20528.1 2231.77 20430.3 2236.3C20552.8 1973.01 20619.3 1647.62 20717.6 1373.03C20844.9 1017.92 20984.5 669.05 21095.4 307.909C21107.7 267.942 21129.7 230.97 21169 213.125ZM21201.1 1527.38C21281.6 1523.89 21364.8 1519.15 21445.2 1518.24C21514.9 1521.14 21601.4 1522.45 21669.3 1531.71C21594.9 1353.18 21535.6 1172.19 21480.2 987.023C21470.6 955.209 21449.7 869.312 21435.4 844.768C21374 977.083 21353.4 1097.14 21307.2 1233.64C21272.9 1335.12 21231.1 1423.09 21201.1 1527.38Z" fill="#F3302F"/>
<path d="M3246.43 643.303C3523.97 613.265 3691.23 742.784 3845.98 949.505L3855.24 674.118C3952.69 669.021 4034.12 665.325 4131.8 667.491C4116.47 818.305 4126.77 1026.43 4125.94 1182.99C4124.13 1533.75 4135.64 1889.01 4120.44 2239.42C4032.25 2238.61 3947.17 2233.87 3859.24 2229.12C3855.4 2139.45 3850.16 2049.84 3843.52 1960.32L3772.39 2041.25C3662.07 2160.51 3559.74 2226.37 3397.11 2251.18C2574.3 2376.95 2215.88 1249.65 2831.84 777.895C2957.1 681.952 3095.07 663.125 3246.43 643.303ZM3402.94 2028.59C4066.23 1868.52 3990.77 865.029 3281.08 875.031C2712.52 929.939 2639.22 1764.41 3122.18 1986.18C3225.29 2033.52 3292.55 2030.96 3402.94 2028.59Z" fill="#2A2A2A"/>
<path d="M2156.97 247.795C2189.31 246.318 2248.06 250.71 2282.32 252.189L2283.89 2239.19C2205.46 2234.92 2096.28 2239.01 2015.26 2239.84C2004.4 1865.68 2018.03 1484.06 2012.9 1109.27C2011.74 1024.66 2021.83 938.618 2000.8 856.13C1972.15 867.787 1955.78 931.176 1943.9 959.364C1763.27 1388.12 1551.59 1809.28 1362.52 2234.44L1210.64 2241.56C1134.5 2131.96 1063.55 1971.49 1005.79 1848.31C924.25 1678.49 844.363 1507.87 766.146 1336.48C695.901 1179.39 604.027 957.805 519.414 814.773C516.304 944.104 520.994 1076 524.213 1205.54C521.139 1547.06 531.582 1902.88 521.622 2241.41C445.542 2238 341.768 2243.11 263.782 2244.64C249.422 1586.06 275.053 907.93 255.375 257.698C340.718 253.686 426.184 252.968 511.581 255.546C580.415 341.09 664.735 548.675 715.788 659.175L1062.86 1412.3C1124.7 1547.95 1199.28 1731.47 1271.29 1857.59C1338.63 1736.43 1406.82 1576.74 1464.95 1448.78L1797.17 707.67C1860.15 567.761 1937.21 380.72 2018.35 255.687C2051.76 251.241 2120.74 249.67 2156.97 247.795Z" fill="#2A2A2A"/>
<path d="M16188.8 212.411C16585.2 207.606 16991.9 209.443 17388.6 211.567C17411.5 336.701 17410.4 463.657 17402.3 590.037C17350.9 595.653 17198.9 590.634 17141.6 590.268C16987.1 588.976 16832.6 590.174 16678.2 593.866C16698.5 715.219 16696.1 890.123 16678.2 1012.28C16765.7 1004.02 17231.7 991.44 17288.7 1025.99C17324.9 1096.49 17312.6 1301.53 17311.3 1391.55L16670.7 1388.68C16682 1448.77 16684.5 1543.48 16688 1607.01C16692.6 1681.77 16684.1 1783.35 16679.9 1860.1C16760.1 1850.6 17322.5 1844.73 17382.8 1876.32C17425.1 1937.56 17408.5 2144.88 17405.4 2227.37C17311.7 2240.17 17075.4 2231.62 16968.9 2230.9L16184.6 2229.16C16164.4 2059.46 16172.7 1613.83 16174.9 1421.31C16179.4 1042.24 16160.7 581.775 16188.8 212.411Z" fill="#F3302F"/>
<path d="M7434.83 654.459C7475.4 647.095 7543.44 646.371 7585.05 648.786C8132.07 680.556 8293.42 1073.57 8272.59 1547.69C8090.08 1534.6 7822.96 1542.74 7635.24 1542.15C7459.81 1541.59 7178.37 1534.49 7010.55 1550.84C7046.27 1694.77 7081 1849 7206.8 1941.86C7411.41 2092.88 7732.87 2073.55 7893.36 1869.48C7958.96 1747.69 8092.23 1785.05 8217.49 1790.2C8072.6 2271.8 7413.17 2395.41 7043.36 2106.53C6627.66 1781.82 6653 990.271 7134.17 736.8C7232.74 684.886 7325.76 667.792 7434.83 654.459ZM7025.39 1347.01L7567.33 1349.35C7639.26 1350 7954.19 1362.24 7996.18 1334.3C8006.89 1280.05 7975.71 1182.17 7953.59 1131.2C7866.93 931.734 7663.62 839.687 7454.26 852.905C7197 898.983 7036.2 1084.29 7025.39 1347.01Z" fill="#2A2A2A"/>
<path d="M10045.5 654.065C10602.6 579.353 10952.3 1006.32 10885.9 1542.88C10489.4 1529.79 10035.8 1540.62 9636.13 1540.95L9636.67 1549.59C9670.13 2059 10215.6 2214.92 10532 1847.6C10590.7 1767.19 10736.2 1791.27 10831.4 1787.62C10735 2049.91 10544.8 2202.41 10265.8 2246.5C9815.08 2317.75 9440.99 2053.67 9381.09 1595.3C9350.07 1357.65 9379.93 1122.81 9529.91 924.59C9672.8 735.705 9816.07 685.736 10045.5 654.065ZM10206.4 1351.58C10276.8 1352.5 10578.3 1366.81 10618 1334.47C10631.3 1290.22 10603.5 1197.85 10587.5 1154.23C10511.7 947.614 10290.3 841.409 10079.1 852.226C9843.25 888.328 9710.29 1035.7 9636.78 1260.78C9632.88 1272.7 9634.21 1294.71 9636 1307.23C9649.46 1328.87 9657.55 1346.93 9688.73 1349.76C9853.94 1364.75 10040.7 1345.94 10206.4 1351.58Z" fill="#2A2A2A"/>
<path d="M5462.61 125.842L5717.61 121.114C5728.51 521.527 5716.86 951.393 5720.28 1356.53C5865.13 1162.9 6116.84 893.386 6284.56 709.099C6351.23 635.853 6575.47 665.418 6680.5 674.673C6431.09 911.971 6204.05 1191.41 5953.37 1431.83C6037.26 1556.9 6242.33 1761.63 6351.25 1877.86C6454.52 1999.81 6569.43 2109.09 6674.87 2234.01C6571.5 2236.27 6441.78 2240.21 6341.32 2226.22C6287 2189.39 6130.3 2004.81 6082 1949.89C5963.57 1813.31 5842.64 1678.88 5719.35 1546.66C5717.25 1777.45 5722.49 2018.93 5710.79 2248.25C5633.93 2237.19 5543.38 2238.44 5464.84 2237.41C5455.65 1752.07 5463.67 1254 5456.12 767.34C5454.72 678.185 5448.73 190.281 5462.61 125.842Z" fill="#2A2A2A"/>
<path d="M19921.3 214.389C20029.6 213.664 20150.6 209.746 20257 221.902C20277.6 315.255 20291.9 2153.64 20273 2221.88C20249.4 2241.36 20210.2 2236.84 20178.6 2236.67C20060 2237.4 19901.7 2242.43 19787.3 2229.92C19765 2064.46 19771.8 286.2 19799.1 234.227C19832.2 212.428 19880.7 215.568 19921.3 214.389Z" fill="#F3302F"/>
<path d="M12539.8 654.15C12906.7 610.57 13178.2 744.449 13228.9 1129.58C13141.9 1136.08 13054.7 1140.23 12967.5 1142.03C12943.8 1058.39 12918.4 948.763 12837.3 896.602C12657.1 780.642 12273.5 849.793 12322.6 1130.04C12360 1309.03 12596.9 1342.8 12746.4 1376.51C12928.4 1413.37 13210.5 1492.23 13239.5 1716.04C13283.8 2056.66 13073 2194.31 12779.3 2247.47C12465.4 2265.7 12146.5 2207.15 12072.3 1837.94C12067.3 1812.85 12066.4 1796.8 12081.4 1777.37C12132.5 1760.16 12236.8 1763.07 12294.8 1762.24C12403.6 1995.13 12571.6 2136.69 12851.1 2008.11C12905.1 1983.25 12954.9 1923.79 12987.2 1873.86C12987.2 1828.47 12981.2 1768.03 12977.8 1721.57C12819.5 1495.5 12400.9 1552.71 12181.6 1394.87C12015.1 1275.01 12031.9 1010.53 12141.6 857.434C12241 718.754 12377.1 678.837 12539.8 654.15Z" fill="#2A2A2A"/>
<path d="M20399.3 2760.14C20519.6 2746.55 20699.8 2753.87 20797.2 2828.99C21142.1 3094.96 21081.2 3727.3 20619 3825.28C20475.7 3833.91 20343.4 3836.82 20216.7 3754.15C19970.5 3593.51 19949.3 3179.91 20093.5 2946.88C20158 2842.68 20282.8 2783.9 20399.3 2760.14ZM20572.9 3645.88C20666.3 3591.64 20727.4 3533.51 20756.1 3426.39C20788.3 3306.29 20780.2 3151.2 20716.9 3041.97C20689.7 2995.02 20648.8 2962.23 20602.3 2935.54C20540.5 2932.84 20478.1 2928.38 20416.4 2935.13C20324.5 2993.2 20272.3 3055.93 20247.8 3163.11C20221.5 3278.2 20229.6 3430.93 20294.3 3532.71C20330.2 3589.23 20385.5 3631.64 20451.4 3646.63C20492.1 3655.87 20532.2 3651.87 20572.9 3645.88Z" fill="#2A2A2A"/>
<path d="M19224.5 2759.62C19586.7 2714.26 19820.4 2893.6 19831.9 3265.49C19840.6 3548.56 19730.4 3770.65 19435 3821.98C19309.7 3832.18 19146.3 3833.14 19043.8 3753.74C18698.2 3485.97 18749.6 2854.09 19224.5 2759.62ZM19389.5 3654.39C19484.7 3605.42 19544.9 3554.94 19578.7 3450.09C19617.1 3330.96 19610.3 3168.6 19552.3 3056.6C19523 2999.9 19479.5 2965.48 19425.3 2933.78C19369.8 2933.13 19313.2 2930.51 19257.9 2936.01C18949.3 3070.37 19004.7 3715.55 19389.5 3654.39Z" fill="#2A2A2A"/>
<path d="M16527.5 3595.82C16600.9 3329.45 16657.1 3050.06 16740.1 2788.08C16749.7 2757.86 16911.5 2766.11 16943.9 2766.73C16929.5 2816.72 16914.4 2907.87 16903.7 2961.61C16836.6 3249.66 16762.5 3536.06 16681.5 3820.53C16594.7 3819.39 16517.1 3815.11 16430.7 3809.45C16379.6 3560.15 16311.1 3325.64 16259.4 3060.08C16193.3 3195.3 16098.2 3630.53 16039.5 3816.95L15811.7 3814.43C15743.1 3667.41 15564.8 2935.91 15546 2768.39C15735.2 2754.75 15724.4 2747.85 15747.9 2823.62C15826.6 3077.25 15866.4 3332.43 15961 3582.51C15988.6 3426.92 15988.6 3371.83 16144 2768.94C16200.5 2766.68 16280.5 2758.12 16328.9 2785.23C16398 2867.69 16510.2 3464.28 16527.5 3595.82Z" fill="#2A2A2A"/>
<path d="M22057.3 2769.66C22151.7 2764.47 22255.8 2766.37 22351 2766.13C22336.6 3065.32 22351.3 3496.29 22348.6 3814.02C22285 3814.38 22223 3813.19 22160.1 3823.25C22154.7 3612.45 22152.7 3401.56 22153.9 3190.68C22153.8 3126.45 22149.1 3066.56 22144.3 3002.72C22043.2 3260.4 21992.9 3538.99 21878.8 3808.73C21819.8 3818.87 21751.9 3822.11 21691.6 3826.34C21618.3 3696.88 21472.8 3137.22 21440.2 2988.82C21414.4 3223.93 21420.6 3572.16 21424.2 3815.19L21235.2 3816.17L21230.1 2766.76C21291.7 2765.46 21506.2 2748.94 21534.8 2810.44C21645.7 3048.53 21669.9 3329.61 21806.4 3557.72C21829.3 3421.07 21995.4 2906.34 22057.3 2769.66Z" fill="url(#paint0_linear_217_2928)"/>
<path d="M8681.23 268.165C8724.68 263.237 8804.26 263.963 8850.59 263.076C8854.63 393.077 8853.67 523.184 8847.76 653.11C8975.46 665.411 9132.81 662.928 9263.38 663.922C9254.93 736.224 9256.61 807.445 9256.92 880.123C9154.67 868.912 8976.44 880.538 8858.01 876.912L8855.28 1541.71C8855.15 1655.42 8852.04 1783.82 8861.25 1896.4C8876.58 2084.1 9168.83 1976.63 9253.71 2040.83L9252.13 2081.13C9251.35 2130.45 9255 2188.95 9257.03 2238.99C9034.03 2219.51 8673.5 2301.36 8606.84 1973.82C8576.78 1826.27 8589.17 1629.63 8589.17 1474.41C8589.75 1276.79 8587.59 1079.18 8582.66 881.622L8377.95 881.952L8373.26 680.214L8586.53 662.918C8584.82 580.657 8575.69 362.521 8590.08 290.483C8609.95 270.544 8651.53 271.026 8681.23 268.165Z" fill="#2A2A2A"/>
<path d="M13636.4 2765.56C13915.1 2765.56 13874.2 2749.15 13915.1 2796.87C14096.1 3008.3 14198.9 3317.57 14368.7 3534.94C14374.3 3305.64 14368.3 2999.53 14365.3 2767.54H14525.8C14525.8 2920.04 14511.3 3329.07 14525.8 3824.47L14296.4 3823.15C14203.5 3669.33 14104.4 3482.01 13828.5 3015.36C13822 3289.53 13832.8 3538.26 13819.3 3823.46C13747 3818.61 13698.2 3822.27 13625.6 3827.4C13601.3 3574.89 13623.3 3018.63 13636.4 2765.56Z" fill="#2A2A2A"/>
<path d="M17904.6 2763.64C18257 2772.19 18682.4 2691.79 18619.5 3191.88C18618.9 3196.52 18617.2 3201.21 18614.6 3205.09C18573.1 3266.75 18500.7 3328.32 18445.1 3377.05C18521.1 3480.88 18674 3709.9 18711.5 3822.58C18621.3 3827.97 18587.7 3824.42 18500.9 3800.69C18426.6 3705.65 18288.6 3451.49 18204.1 3406C18094.9 3409.55 18119.5 3727.36 18118.9 3815.7C18054 3813.16 17968.6 3812.59 17905.9 3823.25C17909.3 3474.04 17904.1 3114.26 17904.6 2763.64ZM18126 3231.74C18220.7 3232.72 18276 3232.57 18356.6 3181.97C18358.3 3180.92 18359.8 3179.56 18361 3177.98C18385.7 3145.09 18407.4 3100.06 18402.3 3057.95C18399 3031.18 18384.2 3009.88 18363 2993.98C18296 2943.77 18210.1 2945.55 18130.4 2947.73C18125 3042.67 18124.8 3136.73 18126 3231.74Z" fill="#2A2A2A"/>
<path d="M5129.19 642.187C5169.06 637.332 5189.16 634.068 5216.52 660.539C5237.56 724.79 5224.36 835.215 5221.3 909.336C5088.1 915.315 4950.44 922.092 4850.91 1023.18C4706.98 1169.35 4737.38 1602.75 4737.9 1802.29C4738.52 1950.29 4737.9 2098.3 4736 2246.29C4651.73 2233.7 4541.46 2259.49 4488.05 2216.03L4485.72 2174.84C4479.98 1965.08 4485.61 1739.97 4483.93 1528.35C4481.7 1246.06 4475.37 953.494 4483.49 672.204C4574.25 669.421 4645.76 668.575 4736.83 672.549C4739.32 747.45 4737.72 828.416 4737.64 903.808C4743.24 895.243 4748.97 886.761 4754.83 878.362C4860.25 727.371 4952.15 673.462 5129.19 642.187Z" fill="#2A2A2A"/>
<path d="M11852.3 641.303L11865.2 642.034C11894.4 673.685 11879.2 850.221 11877.4 904.07C11396.1 904.485 11410.4 1173.45 11405.1 1569.06C11402.3 1782.98 11413.5 2024.75 11394.7 2236.48C11322.4 2228.58 11231.4 2230.39 11157.2 2229.89L11151.6 2070.78C11148.5 1604.91 11147.8 1139.03 11149.4 673.156L11405 675.41L11404.9 892.252C11562.7 712.863 11621.4 676.32 11852.3 641.303Z" fill="#2A2A2A"/>
<path d="M14837.6 2766.55L15435 2765.23C15428.6 2809.92 15426.9 2896.79 15424.6 2944.8C15299.9 2941.4 15175.6 2944.34 15051 2946.44L15053.5 3176.67C15175.1 3181.31 15292.3 3180.04 15414 3178.93V3360.8C15349.5 3360.8 15118.1 3367.32 15054 3367.32C15051.9 3368.7 15054.4 3419.88 15054 3426.28L15052.7 3636.85C15179 3638.41 15305.2 3640.98 15431.5 3644.51C15426.1 3697.5 15427 3765.33 15426.4 3819.83C15282.5 3807.53 14992.2 3816.38 14837.3 3816.9L14837.6 2766.55Z" fill="url(#paint1_linear_217_2928)"/>
<path d="M17288.7 2760.09C17449.3 2744.16 17550.4 2772.2 17701.3 2813.14C17681.7 2870.41 17659 2929.68 17638.3 2986.85C17558 2964.02 17261.6 2856.01 17256.3 3053.36C17265.2 3116.83 17372 3175.12 17423.2 3197.53C17650.9 3297.34 17810.6 3455.52 17647.1 3702.87C17591.1 3787.66 17488.5 3809.43 17390.7 3822.73C17235.2 3828.34 17193.1 3822.66 17041.7 3785.3C17032 3730.62 17029 3637.74 17025.5 3579.56C17144.3 3621.74 17225.4 3651.54 17351.1 3664.92C17356.4 3665.48 17362.1 3664.69 17367.1 3662.75C17642 3555.62 17400.2 3415.48 17253.2 3344.63C16963.2 3204.84 16953.2 2841.88 17288.7 2760.09Z" fill="#2A2A2A"/>
<defs>
<linearGradient id="paint0_linear_217_2928" x1="22200.2" y1="2724.25" x2="21364.1" y2="3846.27" gradientUnits="userSpaceOnUse">
<stop stop-color="#111011" stop-opacity="0.980392"/>
<stop offset="1" stop-color="#2C2C2C"/>
</linearGradient>
<linearGradient id="paint1_linear_217_2928" x1="15535.9" y1="2990.09" x2="14715.7" y2="3594.32" gradientUnits="userSpaceOnUse">
<stop stop-color="#181818" stop-opacity="0.984314"/>
<stop offset="1" stop-color="#2E2E2E"/>
</linearGradient>
</defs>
</svg>
