<svg width="3755" height="1492" viewBox="0 0 3755 1492" fill="none" xmlns="http://www.w3.org/2000/svg">
<path d="M121.624 177.975C147.155 127.848 219.252 72.904 272.17 57.7882C347.825 36.1788 452.716 39.291 522.812 77.1458C587.317 111.981 633.655 157.363 677.365 215.606C682.266 222.139 698.926 245.62 701.407 251.881C725.591 286.562 745.174 328.028 762.181 366.692C828.849 518.285 832.219 683.574 803.281 845.376C785.623 943.111 756.33 1038.38 716.018 1129.15C708.969 1116.76 703.189 1090.33 693.289 1073.11C657.336 1010.58 594.741 965.249 535.945 925.697C525.607 918.745 501.185 903.478 490.448 900.209C489.003 894.683 381.602 838.524 370.709 832.247C196.989 732.183 63.7669 569.949 73.4058 360.862C76.2805 298.499 88.4358 224.816 121.624 177.975Z" fill="url(#paint0_linear_217_2954)"/>
<path d="M121.625 177.975C147.156 127.848 219.252 72.904 272.171 57.7882C347.826 36.1788 452.717 39.291 522.813 77.1458C587.318 111.981 633.656 157.363 677.366 215.606C682.267 222.139 698.927 245.62 701.408 251.881L697.9 258.456C683.474 260.619 667.266 265.095 652.85 265.733C588.511 268.58 524.139 269.023 460.545 258.17C379.195 244.287 301.093 229.317 225.913 193.786C219.719 190.859 214.519 186.255 208.128 183.752C194.264 179.554 154.241 166.117 145.413 155.48L146.652 149.677C138.466 154.058 133.119 171.393 121.625 177.975Z" fill="url(#paint1_linear_217_2954)"/>
<path d="M2115.04 822.772C2168.15 750.092 2221.48 711.666 2315.74 712.702C2528.38 715.04 2509.15 926.334 2509.15 1076.76L2508.76 1317.88C2462.34 1317.59 2415.91 1317.55 2369.49 1317.76C2368.16 1234.38 2369.9 1150.21 2369.17 1066.75C2370.6 1013.24 2369.39 969.117 2363.82 915.852C2353.99 821.931 2246.9 794.201 2182.12 854.138C2125.11 906.885 2132.38 998.643 2132.4 1072.62L2132.51 1223.48L2132.56 1317.44C2087.29 1317.41 2042.03 1317.61 1996.76 1318.04C1995.13 1233.9 1997.52 1149.49 1996.55 1064.76C1995.54 976.126 2015.52 825.153 1886.32 823.48C1787.77 822.207 1757.57 916.165 1759.69 998.943C1760.43 1027.92 1759.52 1060.09 1759.52 1089.57L1759.69 1317.73L1621.16 1317.61L1621.49 726.795C1665.49 728.035 1714.94 726.353 1759.75 726.838C1759.61 756.507 1759.17 786.499 1760.42 816.12C1802.28 753.622 1851.95 722.818 1926.48 713.671C2010.43 704.581 2083.15 743.872 2115.04 822.772Z" fill="#222222"/>
<path d="M1036.62 483.651C1083.05 430.415 1142.3 394.794 1213.86 390.414C1275.97 386.614 1328.66 390.391 1378.17 433.117C1419.52 468.799 1441.15 527.67 1444.42 580.855C1445.66 600.992 1446.02 643.043 1442.57 662.273C1421.82 806.774 1269.85 905.275 1143.03 950.5C1106.29 963.605 1070.08 973.755 1033.69 988.632C1003.58 1000.78 974.399 1015.13 946.393 1031.57C949.069 1023.25 951.626 1027.59 951.702 1017.93C939.677 999.086 859.876 1001.84 839.656 1004.64C867.234 834.618 924.975 616.872 1036.62 483.651Z" fill="url(#paint2_linear_217_2954)"/>
<path d="M1036.62 483.651C1083.05 430.415 1142.3 394.794 1213.86 390.414C1275.97 386.614 1328.66 390.391 1378.17 433.117C1419.52 468.799 1441.15 527.67 1444.42 580.855C1445.65 600.992 1446.02 643.043 1442.57 662.273C1441.54 659.717 1440.18 648.964 1439.13 648.337C1350.35 595.665 1258.36 549.988 1157.37 523.873C1119.52 514.08 1062.97 519.768 1036.62 483.651Z" fill="url(#paint3_linear_217_2954)"/>
<path d="M3444.41 713.676C3490.54 707.732 3552.48 720.58 3589 750.468C3678.15 823.438 3663.48 954.658 3663.5 1058.33L3663.55 1317.46L3527.24 1317.93C3524.56 1201.19 3529.24 1082.93 3526.81 966.399C3525.17 887.675 3493.79 818.634 3405.26 823.561C3363.49 825.89 3340.4 838.101 3312.1 868.459C3295.2 888.231 3283.6 911.96 3278.36 937.433C3270.74 972.766 3272.96 1047.96 3272.97 1086.32L3273.11 1317.53L3137.56 1317.87C3136.04 1249.03 3137.27 1175.35 3137.26 1106.2L3137.44 726.282C3181.87 727.403 3229.13 726.619 3273.77 726.61C3271.84 750.263 3272.82 793.973 3272.61 819.385C3320.61 753.499 3361.48 723.588 3444.41 713.676Z" fill="#222222"/>
<path d="M490.444 900.209C501.182 903.479 525.603 918.745 535.941 925.697C594.738 965.249 657.332 1010.58 693.285 1073.12C703.186 1090.33 708.966 1116.76 716.015 1129.15C703.984 1156.34 693.675 1174.41 677.98 1199.74C673.46 1207.05 653.786 1238.97 648.401 1243.22C617.006 1296.94 509.21 1401.47 446.624 1410.84C412.542 1422.5 360.677 1429.18 326.575 1415.17C323.477 1414.84 321.078 1414.25 318.168 1413.3C234.062 1385.81 196.852 1288.72 212.212 1206.75C213.677 1198.93 214.786 1191.98 217.307 1184.45C221.377 1163.87 231.293 1135.47 242.589 1117.82C243.472 1110.84 263.703 1080.34 268.95 1073.18C324.411 997.579 406.028 939.367 490.444 900.209Z" fill="url(#paint4_linear_217_2954)"/>
<path d="M490.446 900.209C501.183 903.479 525.605 918.745 535.943 925.697C594.739 965.249 657.334 1010.58 693.287 1073.12C703.187 1090.33 708.967 1116.76 716.016 1129.15C703.986 1156.34 693.676 1174.41 677.981 1199.74C668.741 1199.58 653.888 1180.99 647.385 1173.71C627.536 1151.49 607.887 1131.87 582.942 1115.24C553.368 1095.58 519.811 1082.7 484.671 1077.52C430.341 1069.3 391.05 1078.98 339.85 1094.01C322.417 1099.13 240.036 1140.63 235.883 1140.01C239.158 1132.71 242.959 1125.98 242.591 1117.82C243.474 1110.84 263.704 1080.34 268.951 1073.18C324.412 997.579 406.03 939.367 490.446 900.209Z" fill="url(#paint5_linear_217_2954)"/>
<path d="M242.587 1117.82C242.955 1125.98 239.154 1132.71 235.879 1140.01C240.032 1140.63 322.413 1099.13 339.846 1094.01C391.045 1078.98 430.336 1069.3 484.666 1077.52C519.806 1082.7 553.364 1095.58 582.938 1115.24C607.882 1131.87 627.532 1151.49 647.381 1173.71C653.883 1180.99 668.737 1199.58 677.977 1199.74C673.457 1207.05 653.784 1238.97 648.398 1243.22L645.404 1242.61C650.138 1233.99 657.491 1224.54 663.423 1216.47C654.297 1210.58 643.018 1198.12 634.966 1190.19C601.527 1157.26 581.559 1133.27 537.241 1114.75C456.455 1081.01 377.412 1094.46 300.525 1130.43C274.784 1142.47 253.196 1157.3 225.825 1168.86C223.507 1174.05 222.317 1179.58 219.417 1185.9L217.305 1184.45C221.374 1163.87 231.29 1135.47 242.587 1117.82Z" fill="#27A050"/>
<path d="M326.578 1415.17L329.742 1413.17C336.74 1413.24 340.033 1415.39 346.85 1417.12C351.965 1419.18 355.13 1417.15 359.385 1413.82C370.421 1405.21 372.789 1412.34 384.054 1413.98C389.512 1414.78 402.303 1407.51 408.683 1409.2C411.921 1410.05 411.43 1416.01 417.079 1414.82C428.909 1413.15 434.319 1407.97 446.627 1410.84C412.545 1422.5 360.68 1429.18 326.578 1415.17Z" fill="#B0BC26"/>
<path d="M2808.12 713.719C2882.16 704.567 2967.36 730.929 3024.43 777.97C3016.22 793.465 2975.14 845.181 2961.68 865.162C2922.02 834.642 2878.16 814.681 2827.95 817.023C2800.11 818.321 2778.99 817.841 2756.69 839.384C2743.92 851.72 2740.41 865.627 2739.99 882.771C2738.42 947.312 2851 952.354 2897.83 970.552C2932.82 982.236 2965.28 998.439 2992.07 1024.47C3056.9 1087.46 3051.92 1205.26 2987.76 1267.27C2931.95 1321.21 2866.53 1331.26 2792.55 1330.82C2720.42 1328.59 2641.11 1302.25 2589.77 1250.46C2611.27 1224.7 2637.63 1191.22 2656.85 1163.75C2716.09 1209.14 2756.44 1232.95 2834.06 1225.56C2878.29 1221.35 2914.32 1193.83 2907.65 1146.06C2898.94 1083.64 2807.03 1079.21 2760 1062.6C2726.47 1050.76 2695.87 1040.3 2667.68 1017.52C2598.99 966.608 2594.23 855.868 2645.65 791.198C2686.02 740.428 2744.32 720.385 2808.12 713.719Z" fill="#222222"/>
<path d="M946.398 1031.57C974.404 1015.13 1003.58 1000.78 1033.7 988.632C1042.26 1013.78 1053.52 1045.34 1058.92 1070.96C1074.38 1119.51 1074.86 1161.82 1076.15 1211.93C1078.43 1300.17 1037.96 1419.55 932.928 1422.76C791.759 1427.08 801.941 1235.97 821.737 1140.76C822.427 1108.1 834.02 1038.22 839.662 1004.64C859.882 1001.84 939.682 999.085 951.708 1017.93C951.632 1027.59 949.074 1023.25 946.398 1031.57Z" fill="url(#paint6_linear_217_2954)"/>
<path d="M839.659 1004.64C859.878 1001.84 939.679 999.085 951.705 1017.93C951.629 1027.59 949.071 1023.25 946.395 1031.57C940.772 1037.26 922.563 1048.64 915.029 1054.2C893.768 1069.89 863.401 1095.3 847.202 1115.54C838.808 1123.18 829.434 1134.11 821.734 1140.76C822.424 1108.1 834.017 1038.22 839.659 1004.64Z" fill="#C308E8"/>
<path d="M946.397 1031.57C974.402 1015.13 1003.58 1000.78 1033.7 988.632C1042.26 1013.78 1053.52 1045.34 1058.91 1070.96L1056.79 1073.49C1053.82 1067.27 1051.59 1055.2 1046.95 1054.34C1037.11 1052.52 1019.82 1060.09 1009.24 1061.76C970.143 1067.96 924.085 1078.91 885.238 1083.23C877.894 1090.69 856.006 1115.91 847.203 1115.54C863.402 1095.3 893.77 1069.89 915.031 1054.2C922.564 1048.64 940.774 1037.26 946.397 1031.57Z" fill="url(#paint7_linear_217_2954)"/>
<defs>
<linearGradient id="paint0_linear_217_2954" x1="386.375" y1="1076.78" x2="483.478" y2="185.355" gradientUnits="userSpaceOnUse">
<stop stop-color="#2C38DA"/>
<stop offset="1" stop-color="#10ADE7"/>
</linearGradient>
<linearGradient id="paint1_linear_217_2954" x1="411.487" y1="250.617" x2="455.562" y2="54.9991" gradientUnits="userSpaceOnUse">
<stop stop-color="#1AA9E4"/>
<stop offset="1" stop-color="#2CC6EA"/>
</linearGradient>
<linearGradient id="paint2_linear_217_2954" x1="1227.52" y1="544.591" x2="1047.04" y2="1071.71" gradientUnits="userSpaceOnUse">
<stop stop-color="#F44F5D"/>
<stop offset="1" stop-color="#C309E8"/>
</linearGradient>
<linearGradient id="paint3_linear_217_2954" x1="1302.17" y1="395.93" x2="1236.98" y2="572.21" gradientUnits="userSpaceOnUse">
<stop stop-color="#FF603D"/>
<stop offset="1" stop-color="#F34D61"/>
</linearGradient>
<linearGradient id="paint4_linear_217_2954" x1="429.344" y1="1419.98" x2="442.225" y2="1093.69" gradientUnits="userSpaceOnUse">
<stop stop-color="#B1C23D"/>
<stop offset="1" stop-color="#29AA73"/>
</linearGradient>
<linearGradient id="paint5_linear_217_2954" x1="520.354" y1="909.984" x2="459.14" y2="1189.28" gradientUnits="userSpaceOnUse">
<stop stop-color="#006B1E"/>
<stop offset="1" stop-color="#20AE52"/>
</linearGradient>
<linearGradient id="paint6_linear_217_2954" x1="965.451" y1="1414.54" x2="923.875" y2="1066.13" gradientUnits="userSpaceOnUse">
<stop stop-color="#FFC149"/>
<stop offset="1" stop-color="#F96C62"/>
</linearGradient>
<linearGradient id="paint7_linear_217_2954" x1="958.306" y1="1006.79" x2="969.822" y2="1067.45" gradientUnits="userSpaceOnUse">
<stop stop-color="#D3373C"/>
<stop offset="1" stop-color="#EA5C50"/>
</linearGradient>
</defs>
</svg>
