<svg width="7468" height="2501" viewBox="0 0 7468 2501" fill="none" xmlns="http://www.w3.org/2000/svg">
<path fill-rule="evenodd" clip-rule="evenodd" d="M858.251 53.0841C467.39 83.2956 135.063 109.731 119.958 111.619C76.5287 121.06 36.8761 149.383 17.994 189.036L1 223.024L2.88822 1042.51L4.77643 1862L29.3233 1912.98C44.429 1941.3 138.84 2073.48 242.692 2207.54C448.508 2475.67 463.613 2488.88 541.03 2498.33C563.689 2500.21 735.517 2492.66 918.674 2481.33C1103.72 2470 1402.06 2451.12 1579.55 2441.68C2340.5 2394.47 2300.85 2398.25 2346.17 2360.49C2400.92 2315.17 2395.26 2390.7 2399.04 1393.72C2400.92 549.685 2399.04 493.039 2385.82 468.492C2372.6 438.28 2346.17 419.398 1998.73 175.818C1766.48 11.5433 1749.49 3.99043 1645.64 2.10221C1602.21 0.213994 1247.22 24.7608 858.251 53.0841ZM1736.27 160.712C1770.26 175.818 2010.06 341.981 2044.05 374.081C2053.49 383.522 2057.27 392.963 2051.6 396.74C2042.16 406.181 556.136 494.927 512.707 487.374C493.825 485.486 465.501 474.157 448.508 462.827C380.532 415.622 212.48 277.782 212.48 268.341C212.48 241.906 206.816 241.906 867.692 192.812C994.202 185.259 1203.79 170.154 1330.31 158.824C1604.1 138.054 1685.29 138.054 1736.27 160.712ZM2208.33 587.45C2219.66 598.779 2229.1 619.549 2232.87 640.32C2234.76 659.202 2236.65 1010.41 2234.76 1418.27C2232.87 2116.91 2230.98 2162.22 2217.77 2181.11C2210.21 2194.32 2195.11 2207.54 2181.89 2211.32C2149.79 2224.53 593.9 2313.28 561.801 2303.84C546.695 2300.06 525.924 2286.85 516.483 2275.52L497.601 2256.63L495.713 1501.35C493.825 970.758 495.713 736.619 501.378 715.848C505.154 700.743 518.372 681.861 527.813 674.308C541.03 664.867 633.553 657.314 950.773 638.432C1173.58 627.102 1519.13 606.332 1715.5 593.114C2187.56 564.791 2185.67 564.791 2208.33 587.45Z" fill="black"/>
<path fill-rule="evenodd" clip-rule="evenodd" d="M1791.03 846.136C1706.06 851.8 1630.53 859.353 1622.98 865.018C1596.54 878.235 1581.43 900.894 1577.66 925.441C1575.77 949.988 1583.32 953.764 1668.29 965.093L1704.17 968.87V1303.08C1704.17 1501.35 1702.28 1631.63 1696.62 1627.86C1692.84 1624.08 1583.32 1454.14 1451.15 1253.99C1318.97 1050.06 1209.46 883.9 1207.57 883.9C1205.68 882.012 1120.71 885.788 1016.86 893.341C890.347 900.894 820.483 910.335 807.266 917.888C784.607 929.217 758.172 970.758 758.172 997.193C758.172 1014.19 788.383 1023.63 850.695 1023.63H884.682V1982.84L829.924 1999.84C790.272 2011.17 775.166 2018.72 767.613 2035.71C756.284 2062.15 756.284 2084.81 769.501 2084.81C773.278 2084.81 862.024 2081.03 963.988 2073.48C1164.14 2062.15 1186.8 2056.48 1207.57 2014.94C1215.12 2003.61 1220.79 1990.4 1220.79 1984.73C1220.79 1982.84 1192.46 1973.4 1160.36 1965.85C1126.37 1958.3 1092.39 1948.85 1084.83 1948.85C1071.62 1945.08 1071.62 1920.53 1071.62 1584.43V1223.78L1309.53 1595.76C1558.78 1986.62 1588.99 2031.94 1628.64 2050.82C1675.85 2075.37 1796.69 2058.37 1857.11 2018.72L1876 2007.39L1877.88 1474.91L1879.77 940.547L1921.31 932.994C1970.41 923.553 1993.07 900.894 1993.07 861.241C1993.07 836.695 1991.18 834.806 1968.52 836.695C1955.3 836.695 1874.11 842.359 1791.03 846.136Z" fill="black"/>
<path d="M3657.74 704.898V1795.81H3481.96L2967.93 1052.73H2958.88V1795.81H2761.26V704.898H2938.1L3451.6 1448.51H3461.18V704.898H3657.74ZM4221.44 1811.79C4141.54 1811.79 4072.29 1794.21 4013.7 1759.05C3955.1 1723.9 3909.65 1674.71 3877.33 1611.5C3845.37 1548.29 3829.39 1474.43 3829.39 1389.91C3829.39 1305.4 3845.37 1231.35 3877.33 1167.79C3909.65 1104.22 3955.1 1054.86 4013.7 1019.71C4072.29 984.551 4141.54 966.972 4221.44 966.972C4301.34 966.972 4370.59 984.551 4429.18 1019.71C4487.77 1054.86 4533.05 1104.22 4565.01 1167.79C4597.33 1231.35 4613.48 1305.4 4613.48 1389.91C4613.48 1474.43 4597.33 1548.29 4565.01 1611.5C4533.05 1674.71 4487.77 1723.9 4429.18 1759.05C4370.59 1794.21 4301.34 1811.79 4221.44 1811.79ZM4222.5 1657.31C4265.83 1657.31 4302.05 1645.42 4331.17 1621.62C4360.29 1597.48 4381.95 1565.16 4396.15 1524.68C4410.71 1484.2 4417.99 1439.1 4417.99 1389.38C4417.99 1339.31 4410.71 1294.03 4396.15 1253.55C4381.95 1212.71 4360.29 1180.22 4331.17 1156.07C4302.05 1131.92 4265.83 1119.85 4222.5 1119.85C4178.11 1119.85 4141.18 1131.92 4111.71 1156.07C4082.59 1180.22 4060.75 1212.71 4046.19 1253.55C4031.99 1294.03 4024.88 1339.31 4024.88 1389.38C4024.88 1439.1 4031.99 1484.2 4046.19 1524.68C4060.75 1565.16 4082.59 1597.48 4111.71 1621.62C4141.18 1645.42 4178.11 1657.31 4222.5 1657.31ZM5185.71 977.626V1126.77H4715.36V977.626H5185.71ZM4831.48 781.603H5024.31V1549.71C5024.31 1575.64 5028.21 1595.52 5036.02 1609.37C5044.19 1622.87 5054.85 1632.1 5067.99 1637.07C5081.12 1642.04 5095.68 1644.53 5111.66 1644.53C5123.74 1644.53 5134.75 1643.64 5144.69 1641.87C5154.99 1640.09 5162.8 1638.49 5168.13 1637.07L5200.62 1787.82C5190.32 1791.37 5175.58 1795.27 5156.41 1799.54C5137.59 1803.8 5114.5 1806.28 5087.16 1806.99C5038.87 1808.41 4995.36 1801.13 4956.66 1785.15C4917.95 1768.82 4887.23 1743.61 4864.5 1709.52C4842.13 1675.42 4831.12 1632.81 4831.48 1581.67V781.603ZM5346.97 1795.81V977.626H5539.8V1795.81H5346.97ZM5443.92 861.504C5413.38 861.504 5387.1 851.383 5365.08 831.141C5343.06 810.545 5332.06 785.864 5332.06 757.1C5332.06 727.981 5343.06 703.3 5365.08 683.059C5387.1 662.462 5413.38 652.164 5443.92 652.164C5474.81 652.164 5501.09 662.462 5522.75 683.059C5544.77 703.3 5555.78 727.981 5555.78 757.1C5555.78 785.864 5544.77 810.545 5522.75 831.141C5501.09 851.383 5474.81 861.504 5443.92 861.504ZM6094.97 1811.79C6015.07 1811.79 5945.83 1794.21 5887.23 1759.05C5828.64 1723.9 5783.18 1674.71 5750.87 1611.5C5718.91 1548.29 5702.93 1474.43 5702.93 1389.91C5702.93 1305.4 5718.91 1231.35 5750.87 1167.79C5783.18 1104.22 5828.64 1054.86 5887.23 1019.71C5945.83 984.551 6015.07 966.972 6094.97 966.972C6174.87 966.972 6244.12 984.551 6302.72 1019.71C6361.31 1054.86 6406.59 1104.22 6438.55 1167.79C6470.86 1231.35 6487.02 1305.4 6487.02 1389.91C6487.02 1474.43 6470.86 1548.29 6438.55 1611.5C6406.59 1674.71 6361.31 1723.9 6302.72 1759.05C6244.12 1794.21 6174.87 1811.79 6094.97 1811.79ZM6096.04 1657.31C6139.36 1657.31 6175.58 1645.42 6204.7 1621.62C6233.82 1597.48 6255.49 1565.16 6269.69 1524.68C6284.25 1484.2 6291.53 1439.1 6291.53 1389.38C6291.53 1339.31 6284.25 1294.03 6269.69 1253.55C6255.49 1212.71 6233.82 1180.22 6204.7 1156.07C6175.58 1131.92 6139.36 1119.85 6096.04 1119.85C6051.65 1119.85 6014.72 1131.92 5985.24 1156.07C5956.12 1180.22 5934.28 1212.71 5919.73 1253.55C5905.52 1294.03 5898.42 1339.31 5898.42 1389.38C5898.42 1439.1 5905.52 1484.2 5919.73 1524.68C5934.28 1565.16 5956.12 1597.48 5985.24 1621.62C6014.72 1645.42 6051.65 1657.31 6096.04 1657.31ZM6843.51 1316.4V1795.81H6650.68V977.626H6834.99V1116.65H6844.57C6863.4 1070.84 6893.4 1034.44 6934.6 1007.46C6976.14 980.467 7027.46 966.972 7088.54 966.972C7145 966.972 7194.18 979.046 7236.09 1003.19C7278.35 1027.34 7311.02 1062.32 7334.1 1108.13C7357.54 1153.94 7369.08 1209.51 7368.72 1274.86V1795.81H7175.9V1304.69C7175.9 1250 7161.69 1207.21 7133.28 1176.31C7105.23 1145.42 7066.34 1129.97 7016.63 1129.97C6982.89 1129.97 6952.88 1137.43 6926.61 1152.34C6900.68 1166.9 6880.26 1188.03 6865.35 1215.73C6850.79 1243.43 6843.51 1276.99 6843.51 1316.4Z" fill="black"/>
</svg>
