<svg width="5374" height="988" viewBox="0 0 5374 988" fill="none" xmlns="http://www.w3.org/2000/svg">
<path d="M1929.98 9.41546C2016.73 5.71827 2105.15 8.50194 2192.02 7.1845C2206.83 6.95986 2222.31 7.10755 2237.06 8.13954C2242.62 177.37 2237.23 371.965 2237.41 543.27L2238.07 780.315C2238.19 821.104 2239.89 877.406 2236.85 916.303C2177.76 917.445 2103.81 919.917 2045.54 917.363C2042.06 756.617 2047.35 594.518 2045.45 433.635C2044.95 391.068 2042.89 350.664 2039.47 308.262C2037.02 305.609 2033.07 304.502 2029.63 303.208C2022.88 368.722 2014.08 415.114 2004.58 479.114L1961.38 765.633C1952.89 819.908 1945.1 860.343 1938.58 916.456C1913.74 916.76 1772.66 922.922 1761.65 911.94C1746.09 896.415 1664.77 300.889 1652.78 297.056C1639.45 335.761 1644.16 480.489 1643.1 527.054C1640.22 653.875 1647.65 791.613 1643.08 917.466C1584.2 917.276 1509.49 919.021 1451.77 915.76L1452.77 338.255L1451.69 123.16C1451.67 94.4107 1450.41 37.8532 1453.55 10.2171C1498.34 5.73637 1562.61 7.15102 1609.06 7.28514C1654.67 7.41681 1714.08 6.0741 1758.54 9.384C1778.12 134.026 1802.35 260.961 1823.68 385.424C1827.13 405.539 1825.98 439.592 1836.62 456.949L1841.07 459.073C1852.48 454.841 1859.65 426.956 1861.58 415.739C1884.94 280.331 1904.91 144.531 1929.98 9.41546Z" fill="#70C41B"/>
<path d="M2029.62 303.209C2030.56 295.854 2030.15 288.143 2034.6 283.665C2038.8 290.754 2038.82 299.98 2039.46 308.262C2037.01 305.61 2033.06 304.502 2029.62 303.209Z" fill="#BCF87F"/>
<path d="M961.431 472.953C965.046 460.045 967.789 447.027 970.05 433.817C989.515 319.833 1012.3 206.611 1029.29 92.2021C1033.01 67.1053 1037.11 36.1924 1047.12 13.2579C1064.15 5.01158 1311.82 8.34371 1347.77 9.84227L1347.57 915.011C1298.67 915.918 1206.17 916.788 1160.09 913.696C1156.06 867.392 1160.33 785.821 1159.57 735.615C1157.32 588.139 1162.56 439.006 1160.81 291.505L1159.84 287.959C1137.43 307.282 1118.43 475.018 1113 511.285L1071.78 771.757C1065.14 814.92 1057.72 874.38 1047.91 915.141C990.296 914.994 932.69 915.277 875.085 915.978C857.083 836.135 848.795 760.965 835.378 680.915C820.444 591.791 801.342 503.808 791.747 413.644C789.904 396.311 772.314 298.38 762.329 290.707C744.799 308.4 754.193 492.348 753.434 528.277C750.735 656.239 756.394 787.549 753.239 915.554C690.614 914.19 633.019 915.559 570.46 915.858C566.741 886.471 569.207 829.244 569.419 796.982L570.573 574.907L570.492 224.165C570.199 156.822 567.673 76.0895 570.758 9.62855C652.995 7.64793 789.406 5.10722 870.488 11.4299C891.038 102.26 902.909 203.325 920.922 295.79C934.176 363.813 934.75 405.445 961.431 472.953Z" fill="#2F2F2F"/>
<path d="M194.355 1.74827C204.949 0.223734 219.104 0.205041 230.036 0.054028C421.781 -2.5946 477.725 92.2291 482.376 264.899C427.618 266.845 339.49 269.989 285.129 265.271C284.57 239.785 286.516 204.311 270.033 184.593C263.095 176.176 253.021 170.976 242.156 170.202C229.557 169.299 216.968 174.226 207.6 182.562C197.396 191.66 191.239 204.467 190.496 218.137C186.494 290.027 370.528 387.418 417.712 449.331C479.635 530.581 496.34 583.096 490.058 683.274C478.32 870.391 398.179 934.345 217.876 924.493L217.353 924.487C165.449 923.727 98.8769 904.006 62.8327 865.196C-5.63498 791.483 -1.04465 671.058 0.8586 577.352C65.1679 578.64 129.487 579.385 193.809 579.586C193.964 612.75 192.422 647.251 195.734 680.22C197.891 701.679 203.962 728.871 221.583 743.065C228.743 748.83 237.558 751.526 246.699 750.51C260.948 748.917 273.125 740.489 281.793 729.338C294.689 712.743 298.178 690.159 297.01 669.612C288.123 513.268 27.2997 458.396 3.05522 263.796C-4.57394 202.559 7.87853 125.62 46.555 76.0306C83.0751 29.2056 137.085 8.87937 194.355 1.74827Z" fill="#2F2F2F"/>
<path d="M2595.16 532.63C2634.32 529.31 2672.2 530.103 2711.44 531.304C2717.72 633.688 2713.75 770.719 2713.71 875.396C2689.54 875.972 2663.62 877.075 2639.59 876.581C2638.43 836.347 2638.57 798.324 2639.03 758.172C2639.23 741.071 2639.92 698.065 2637.34 682.089C2632.93 680.193 2628.09 676.454 2624.09 673.623C2600.61 735.664 2585.72 797.58 2565.27 860.213C2557.17 885.025 2505.5 878.618 2484.72 876.081C2463.05 824.044 2419.71 676.742 2411.25 620.809C2398.26 713.851 2407.59 785.815 2401.39 875.113C2383.5 875.999 2348.03 879.482 2333.07 871.706C2327.81 861.316 2330.34 568.375 2330.36 532.353C2367.23 531.174 2413.92 528.669 2449.77 532.032C2468.88 593.823 2495.87 752.477 2529.33 794.222C2543.89 733.876 2558.92 673.65 2574.44 613.549C2580.59 589.362 2587.46 554.741 2595.16 532.63Z" fill="#70C41B"/>
<path d="M2624.09 673.623C2624.62 662.853 2624.2 648.17 2629.23 639.068L2631.97 640.209C2637.21 653.952 2636.81 667.407 2637.34 682.09C2632.93 680.193 2628.09 676.454 2624.09 673.623Z" fill="#EDFBDC"/>
<path d="M4193.57 133.544C4231.98 133.546 4270.39 133.865 4308.8 134.502C4308.09 246.345 4310.3 364.88 4306.67 475.872C4281.53 477.212 4261.66 478.521 4236.44 476.773C4232.62 429.697 4236.34 355.753 4234.32 302.812C4233.28 269.121 4235.23 254.569 4241.48 222.321C4235.56 233.095 4223.7 251.323 4218.32 267.432C4196.48 332.781 4183.81 413.086 4154.24 474.056C4150.94 480.865 4082.27 479.996 4079.56 473.249C4049.34 397.75 4038.53 294.865 3998.45 224.903C4000.68 295.276 4005.28 407.533 4000.23 476.59C3978.93 480.119 3952.39 479.457 3930.61 479.072C3926.17 448.35 3927.59 385.935 3927.44 352.174C3926.66 279.489 3926.77 206.797 3927.8 134.115C3967.13 133.645 4006.47 133.731 4045.8 134.372C4067.3 200.863 4079.91 269.467 4098.36 336.866C4104.68 359.934 4108.75 378.554 4120.39 400.021C4154.23 321.893 4166.18 213.718 4193.57 133.544Z" fill="#2F2F2F"/>
<path d="M3172.76 605.067C3210.6 602.034 3217.55 612.381 3248.89 628.221C3249.09 628.319 3267.51 614.582 3270.21 613.571C3288.44 606.773 3315.59 610.099 3334.91 611.131C3338.14 654.414 3335.87 704.19 3336.26 747.923C3336.69 795.553 3337.76 848.737 3332.03 895.404C3323.68 946.507 3274.06 978.638 3226.7 984.975C3153.23 994.799 3070.62 982.442 3057.6 895.741C3067.57 887.818 3105.81 889.921 3119.98 890.095C3150.83 924.265 3179.89 948.925 3231.76 921.526C3252.16 910.75 3271.17 870.402 3255.25 847.72C3248.3 848.296 3234.43 861.729 3225.36 865.713C3143.11 902.42 3058.47 854.611 3053.24 762.644C3048.35 676.666 3081.56 611.81 3172.76 605.067Z" fill="#70C41B"/>
<path d="M3185.21 655.017C3271.22 644.648 3296.28 792.216 3204.14 826.266C3116.34 827.772 3096.72 693.251 3185.21 655.017Z" fill="#FAF9F9"/>
<path d="M4864.8 110.258C4892.33 110.29 4914.68 110.449 4942.09 112.736C4942.4 231.09 4944.58 359.719 4940.47 477.474C4918.26 479.014 4894.02 478.515 4871.61 478.501C4866.34 470.438 4860.11 458.471 4855.26 449.811C4828.92 488.098 4783.11 488.336 4741.85 482.412C4721.52 475.326 4703.83 465.636 4689.82 449.019C4643.11 394.14 4647.05 282.82 4703.09 235.323C4746.73 198.326 4822.34 195.748 4861.45 241.034C4863.68 197.478 4864.8 153.872 4864.8 110.258Z" fill="#2F2F2F"/>
<path d="M4790.44 257.502C4887.46 253.574 4890.02 408.369 4813.86 436.603C4804.17 436.543 4789.01 436.923 4780 433.14C4732.68 413.252 4725.97 345.64 4741.72 303.024C4750.66 278.817 4767.64 267.103 4790.44 257.502Z" fill="#FAF9F9"/>
<path d="M2730.34 208.564C2806.68 190.721 2882.88 238.71 2899.97 315.397C2917.07 392.083 2868.5 468.03 2791.86 484.466C2716.19 500.69 2641.63 452.765 2624.75 377.067C2607.87 301.37 2654.99 226.178 2730.34 208.564Z" fill="#2F2F2F"/>
<path d="M2751.51 257.12C2846.67 255.512 2844.45 410.233 2775.96 436.458C2766.29 436.699 2751.66 437.465 2742.76 433.598C2698.2 414.359 2693.2 352.501 2703.7 311.281C2710.9 282.998 2725.3 268.118 2751.51 257.12Z" fill="#FAF9F9"/>
<path d="M2432.01 129.486C2517.91 124.039 2567.86 144.745 2587.82 232.38C2563.38 233.673 2542.78 234.721 2518.24 234.069C2510.83 222.715 2498.97 203.327 2489.03 194.901C2478.15 185.513 2463.9 181.005 2449.61 182.425C2427.63 184.402 2405.83 203.718 2410.86 225.763C2424.32 284.679 2521.83 273.178 2561.33 312.36C2579.47 327.022 2592.42 351.39 2593.81 376.223C2598.05 451.866 2530.6 479.88 2471 485.555C2395.23 487.808 2328.81 463.585 2319.23 380.017C2342.52 379.356 2360.6 379.807 2383.75 380.862C2395.93 393.346 2422.72 429.984 2438.03 431.853C2529.46 443.015 2550.56 363.364 2453.33 337.374C2409.56 325.677 2339.99 305.593 2332.97 249.795C2324.24 180.319 2366.67 139.387 2432.01 129.486Z" fill="#2F2F2F"/>
<path d="M4505.43 607.446C4592.38 595.964 4650.79 641.789 4662.93 729.843C4665.62 749.335 4663.13 764.632 4639.93 765.274C4581.63 766.893 4525.06 762.002 4466.76 768.925C4503.79 904.636 4570.02 793.477 4606 790.156C4617.19 790.347 4636.39 790.145 4647.28 792.303C4650.94 793.026 4651.48 796.911 4653.01 800.851C4652.86 802.774 4652.23 807.583 4651.39 809.29C4591.57 931.187 4399.06 902.012 4395.48 757.9C4393.57 681.051 4424.74 620.499 4505.43 607.446Z" fill="#70C41B"/>
<path d="M4516.77 654.756C4540.82 652.142 4574.79 670.748 4579.99 694.712C4575.67 717.976 4554.94 714.612 4535.42 715.471C4530.8 715.661 4526.16 715.824 4521.53 715.965C4503.77 716.487 4489.99 718.829 4476.46 706.032C4468.33 683.54 4499.06 663.298 4516.77 654.756Z" fill="#FAF9F9"/>
<path d="M3481.98 607.534C3633.59 589.09 3625.85 669.95 3627.14 786.321C3627.73 816.512 3628.55 846.699 3629.6 876.88C3597.12 878.434 3568.84 881.689 3543.71 859.214C3497.17 892.829 3438.75 897.388 3398.96 850.606C3388.96 832.51 3386.04 809.481 3388.83 788.929C3399.12 712.993 3535.26 718.237 3550.21 707.717C3561.32 681.323 3516.01 607.746 3463.97 697.848C3446.33 698.131 3422.3 699.196 3405.28 697.294C3396.96 691.545 3399.19 694.305 3394.85 685.209C3394.56 649.235 3449.52 614.946 3481.98 607.534Z" fill="#70C41B"/>
<path d="M3521.87 762.362C3532.26 761.324 3540.1 761.155 3549 766.568C3566.5 792.369 3532.51 829.315 3503.16 833.331C3471.73 829.896 3453.61 811.85 3475.19 781.587C3486.93 765.117 3503.27 764.492 3521.87 762.362Z" fill="#FAF9F9"/>
<path d="M2859.6 607.093C3014.02 593.263 3006.09 667.189 3003.12 788.108C3002.45 814.99 3005.35 848.486 3007.19 875.575C2974.83 877.287 2951.26 885.139 2927.99 858.561C2875.36 889.443 2817.61 902.458 2775.51 846.601C2763.67 826.185 2759.09 789.483 2772.12 769.138C2805.92 716.394 2873.72 723.258 2924.07 710.216C2945.44 686.67 2911.15 656.304 2887.49 656.049C2867.89 655.837 2849.64 683.203 2835.89 697.234C2816.4 697.902 2783.89 704.771 2774.56 685.719C2773.48 677.177 2775.61 670.101 2780.46 663.015C2803.69 629.003 2821.15 616.625 2859.6 607.093Z" fill="#70C41B"/>
<path d="M2888.43 762.177C2960.99 756.292 2926.9 821.245 2886.69 833.825C2831.14 833.189 2823.62 775.246 2888.43 762.177Z" fill="#FAF9F9"/>
<path d="M5235.78 209.644C5238.47 209.393 5241.16 209.2 5243.86 209.067C5338.04 204.463 5374.56 237.028 5371.2 331.982C5369.57 378.038 5371.2 432.887 5373.04 478.965C5351.39 479.739 5334.85 479.437 5313.43 478.569C5304.62 470.716 5301.01 465.804 5293.99 456.612C5290.5 459.57 5286.91 462.388 5283.2 465.059C5259.28 482.746 5229.28 490.089 5199.91 485.449C5172.64 481.114 5157.93 469.085 5142.48 447.625C5097.93 349.963 5205.61 321.968 5275.34 316.806C5288.59 315.825 5297.73 310.32 5301.45 297.29C5299.02 283.766 5290.66 277.661 5282.18 268.207C5253.71 236.44 5225.34 274.756 5204.53 296.88C5189.18 297.599 5164.08 299.575 5149.74 297.308C5141.76 290.594 5143.56 293.679 5140.83 283.922C5147.06 244.57 5198.69 215.042 5235.78 209.644Z" fill="#2F2F2F"/>
<path d="M5264.54 361.912C5308.85 358.184 5306.53 387.49 5284.66 418.049C5275.19 431.278 5263.53 435.296 5247.57 436.686C5190.06 433.167 5197.01 372.916 5264.54 361.912Z" fill="#FAF9F9"/>
<path d="M4472.19 209.527C4583.57 200.943 4622.85 260.897 4622.74 364.385C4560.22 364.153 4497.7 364.649 4435.19 365.876C4437.09 425.866 4456.27 438.549 4514.05 435.837C4526.1 427.854 4544.27 407.11 4554.48 396.074L4583.36 396.805L4618.86 398.585C4600.27 448.124 4570.32 470.99 4520.18 481.842C4335.79 521.756 4295.71 238.183 4472.19 209.527Z" fill="#2F2F2F"/>
<path d="M4479.48 257.411C4506.53 255.16 4537.91 272.586 4545.49 299.215C4544.2 309.27 4545.59 305.938 4539.59 313.981C4531.46 319.754 4518.09 318.303 4507.74 318.246L4490.51 318.396C4475.55 318.488 4447.09 321.364 4436.75 311.126C4433.95 289.602 4462.16 266.663 4479.48 257.411Z" fill="#FAF9F9"/>
<path d="M3467.63 209.566C3469.85 209.42 3472.08 209.286 3474.29 209.164C3619.94 201.162 3605.41 278.726 3606.14 389.77C3606.61 419.124 3607.74 448.465 3609.53 477.769C3571.03 479.38 3554.25 484.839 3525.15 455.25C3520.18 460.158 3514.9 464.732 3509.33 468.941C3469.89 498.195 3408.22 487.84 3378.96 447.771C3370.59 431.026 3366.09 403.969 3371.13 387.818C3392.56 319.198 3475.39 330.304 3527.09 310.416C3533.13 308.091 3534.99 301.133 3536.25 295.401C3533.19 282.085 3524.69 276.674 3516.24 267.536C3487.03 235.938 3460.18 273.562 3439.22 296.931C3424.87 297.399 3397.53 299.155 3384.52 296.526C3376.94 290.24 3378.83 293.241 3376.51 283.591C3381.86 246.917 3433.06 215.463 3467.63 209.566Z" fill="#2F2F2F"/>
<path d="M3495.72 361.796C3503.43 361.23 3520.27 359.119 3525.62 364.251C3550.62 388.211 3519.53 432.665 3490.36 436.552C3487.03 436.505 3482.12 436.108 3479.04 436.263C3448.28 437.811 3433.53 406.777 3452.48 382.477C3465.18 366.198 3476.5 364.949 3495.72 361.796Z" fill="#FAF9F9"/>
<path d="M4227.55 607.452C4318.5 596.904 4351.73 633.845 4348.83 723.095C4347.2 773.344 4349.98 825.234 4347.03 876.184C4322.4 877.308 4299.35 879.89 4274.8 877.178C4267 815.007 4278.67 730.843 4266.14 677.236C4241.72 649.685 4224.83 649.071 4194.94 667.395C4194.54 667.786 4194.14 668.178 4193.74 668.574C4155 707.162 4165.31 817.751 4165.23 873.249C4141.03 877.276 4116.42 878.325 4091.95 876.374C4089.08 848.008 4090.14 805.6 4090.12 776.468L4090.32 610.973C4129.52 609.174 4162.18 597.725 4174.76 642.067C4193.23 618.869 4200.17 614.125 4227.55 607.452Z" fill="#70C41B"/>
<path d="M3045.01 209.601C3120.32 204.894 3179.99 227.411 3192.03 308.583C3169.45 309.628 3146.57 309.555 3123.96 309.698C3113.6 286.354 3091.6 253.495 3064.14 257.441C2964.76 271.719 3014.38 536.282 3118.79 397.377C3128.34 383.454 3177.07 390.657 3193.42 391.753C3158.79 520.599 2958.14 517.898 2937.81 384.117C2924.91 299.224 2952.95 224.019 3045.01 209.601Z" fill="#2F2F2F"/>
<path d="M3687.91 612.913C3739.06 609.332 3842.52 611.582 3895.73 612.288C3903.02 667.216 3883.24 681.187 3849.86 720.449C3820.85 754.58 3786.39 790.124 3764.42 829.266C3800.1 831.048 3835.45 827.44 3871.35 829.168C3900.61 830.576 3915.88 857.48 3892.44 874.912C3868.79 877.526 3689.2 883.15 3677.56 873.978C3673.81 864.338 3674.69 850.568 3674.68 839.939C3693.87 801.732 3783.36 709.912 3814.22 666.814C3769.74 661.673 3729.86 664.602 3686.28 660.962C3683.42 642.524 3680.08 630.237 3687.91 612.913Z" fill="#70C41B"/>
<path d="M3669.21 111.102C3696.59 110.321 3718.6 111.667 3745.94 113.365C3742.33 157.327 3744.33 223.605 3744.06 269.372C3743.81 311.131 3742.13 379.205 3745.83 418.816C3752.18 424.938 3767.05 436.163 3774.46 442.049C3774 457.989 3773.56 466.155 3770.74 481.795C3733.05 488.121 3674.8 488.229 3673.02 436.892C3669.34 329.82 3664.88 218.097 3669.21 111.102Z" fill="#2F2F2F"/>
<path d="M5006.11 213.854C5029.89 213.476 5056.31 214.302 5080.3 214.528C5080.59 296.665 5082.77 396.531 5079.07 477.736L5006.03 480.562C5001.57 413.056 5001.48 281.422 5006.11 213.854Z" fill="#2F2F2F"/>
<path d="M3952.34 610.164L4026.45 610.24C4027.77 637.638 4027.77 866.028 4024.15 875.092C3998.22 877.119 3978.15 878.716 3952.11 878.118C3949.18 802.286 3949.4 685.947 3952.34 610.164Z" fill="#70C41B"/>
<path d="M3241.46 213.75L3315.56 214.04C3315.67 294.066 3318.04 396.714 3312.49 475.574C3285.67 477.938 3269.42 478.583 3242.52 478.025C3237.15 416.149 3240.78 278.55 3241.46 213.75Z" fill="#2F2F2F"/>
<path d="M3261.65 110.523C3322.27 105.87 3339.88 150.727 3290.01 187.726C3259.65 202.227 3209.39 147.185 3261.65 110.523Z" fill="#2F2F2F"/>
<path d="M5027.84 110.467C5085.1 106.397 5104.52 151.457 5054.18 186.495C5021.74 202.302 4972.08 143.234 5027.84 110.467Z" fill="#2F2F2F"/>
<path d="M3974.25 508.704C3987.62 503.281 4002.88 505.623 4014.03 514.801C4025.18 523.984 4030.43 538.537 4027.72 552.742C4025.01 566.946 4014.77 578.532 4001.03 582.939C3980.85 589.411 3959.18 578.727 3951.97 558.752C3944.76 538.776 3954.61 516.665 3974.25 508.704Z" fill="#70C41B"/>
</svg>
