<svg width="8204" height="5522" viewBox="0 0 8204 5522" fill="none" xmlns="http://www.w3.org/2000/svg">
<path fill-rule="evenodd" clip-rule="evenodd" d="M3045.58 5184.82V5495.17H3377.97C3379.1 5274.7 3380.69 4792.38 3377.97 4626.86C3375.26 4461.34 3280.74 4344.21 3233.82 4306.33C3172.2 4254.32 2976.04 4160.82 2684.34 4202.88C2392.64 4244.94 2284.67 4478.18 2267.15 4589.55L2608.03 4669.26C2619.33 4606.51 2677.9 4480.33 2821.71 4477.62C2965.52 4474.91 3018.44 4566.94 3026.92 4613.29V4782.88C2934.21 4780.06 2714.87 4776.1 2579.2 4782.88C2443.52 4789.67 2348.56 4860.33 2318.04 4894.81C2183.72 5054.91 2224.76 5265.65 2262.07 5351.02C2294.86 5416.03 2420.47 5540.62 2660.61 5518.91C2900.75 5497.2 2989.05 5287.14 3003.19 5184.82H3045.58ZM3026.92 4946.99V5058.92C2985.56 5166.1 2858.73 5225.68 2800.49 5242.08C2777.87 5243.77 2715.01 5241.06 2644.46 5216.64C2573.91 5192.22 2566.45 5112.62 2571.54 5075.88C2597.32 4982.26 2674.99 4950.94 2710.6 4946.99H3026.92Z" fill="black"/>
<path d="M3003.19 5184.82H3045.58V5495.17H3377.97C3379.1 5274.7 3380.69 4792.38 3377.97 4626.86C3375.26 4461.34 3280.74 4344.21 3233.82 4306.33C3172.2 4254.32 2976.04 4160.82 2684.34 4202.88C2392.64 4244.94 2284.67 4478.18 2267.15 4589.55L2608.03 4669.26C2619.33 4606.51 2677.9 4480.33 2821.71 4477.62C2965.52 4474.91 3018.44 4566.94 3026.92 4613.29V4782.88C2934.21 4780.06 2714.87 4776.1 2579.2 4782.88C2443.52 4789.67 2348.56 4860.33 2318.04 4894.81C2183.72 5054.91 2224.76 5265.65 2262.07 5351.02C2294.86 5416.03 2420.47 5540.62 2660.61 5518.91C2900.75 5497.2 2989.05 5287.14 3003.19 5184.82ZM3003.19 5184.82L3026.92 5058.92M3026.92 5058.92V4946.99H2710.6C2674.99 4950.94 2597.32 4982.26 2571.54 5075.88C2566.45 5112.62 2573.91 5192.22 2644.46 5216.64C2715.01 5241.06 2777.87 5243.77 2800.49 5242.08C2858.73 5225.68 2985.56 5166.1 3026.92 5058.92Z" stroke="black"/>
<path fill-rule="evenodd" clip-rule="evenodd" d="M3150.73 2210.18V2520.53H3483.11C3484.24 2300.06 3485.83 1817.74 3483.11 1652.22C3480.4 1486.7 3385.88 1369.57 3338.96 1331.69C3277.34 1279.69 3081.18 1186.18 2789.48 1228.24C2497.79 1270.3 2389.81 1503.55 2372.29 1614.91L2713.17 1694.62C2724.47 1631.87 2783.04 1505.7 2926.85 1502.98C3070.67 1500.27 3123.58 1592.3 3132.06 1638.66V1808.25C3039.35 1805.42 2820.01 1801.46 2684.34 1808.25C2548.66 1815.03 2453.7 1885.69 2423.18 1920.18C2288.86 2080.27 2329.9 2291.02 2367.21 2376.38C2400 2441.39 2525.61 2565.98 2765.75 2544.27C3005.89 2522.57 3094.19 2312.5 3108.33 2210.18H3150.73ZM3132.06 1972.35V2084.28C3090.7 2191.46 2963.87 2251.05 2905.63 2267.44C2883.01 2269.14 2820.15 2266.42 2749.6 2242C2679.05 2217.58 2671.59 2137.99 2676.68 2101.24C2702.46 2007.63 2780.13 1976.31 2815.74 1972.35H3132.06Z" fill="black"/>
<path d="M3108.33 2210.18H3150.73V2520.53H3483.11C3484.24 2300.06 3485.83 1817.74 3483.11 1652.22C3480.4 1486.7 3385.88 1369.57 3338.96 1331.69C3277.34 1279.69 3081.18 1186.18 2789.48 1228.24C2497.79 1270.3 2389.81 1503.55 2372.29 1614.91L2713.17 1694.62C2724.47 1631.87 2783.04 1505.7 2926.85 1502.98C3070.67 1500.27 3123.58 1592.3 3132.06 1638.66V1808.25C3039.35 1805.42 2820.01 1801.46 2684.34 1808.25C2548.66 1815.03 2453.7 1885.69 2423.18 1920.18C2288.86 2080.27 2329.9 2291.02 2367.21 2376.38C2400 2441.39 2525.61 2565.98 2765.75 2544.27C3005.89 2522.57 3094.19 2312.5 3108.33 2210.18ZM3108.33 2210.18L3132.06 2084.28M3132.06 2084.28V1972.35H2815.74C2780.13 1976.31 2702.46 2007.63 2676.68 2101.24C2671.59 2137.99 2679.05 2217.58 2749.6 2242C2820.15 2266.42 2883.01 2269.14 2905.63 2267.44C2963.87 2251.05 3090.7 2191.46 3132.06 2084.28Z" stroke="black"/>
<path d="M977.362 1416.09L1355.55 1332.99C1321.63 1058.93 1089.29 933.887 977.362 905.622C821.906 870.007 455.029 836.767 231.168 988.722C7.3071 1140.68 46.3132 1429.66 93.7988 1555.16C130.431 1762.74 582.788 1873.42 804.388 1902.82C874.485 1909.6 1012.65 1959.12 1004.51 2102.94C996.365 2246.75 780.639 2261.22 673.793 2250.48C464.849 2221.99 386.621 2053.19 373.625 1972.35L0.523438 2050.36C22.2312 2394.98 367.972 2527.48 538.129 2550.66H880.704C1005.64 2547.27 1275.51 2482.48 1355.55 2250.48C1435.59 2018.48 1364.03 1857.6 1318.25 1806.15C1254.48 1651.49 931.016 1574.38 777.253 1555.16C515.404 1500.89 452.147 1461.88 427.885 1332.99C418.84 1284.94 455.359 1185.45 673.793 1171.88C892.227 1158.31 967.187 1329.03 977.362 1416.09Z" fill="black" stroke="black"/>
<path d="M2101.77 3893.82V5482.9H1596.38L1018.08 4234.7H965.504L992.638 5482.9H648.367V3893.82H1189.36L1735.45 5094.53H1781.24L1755.8 3893.82H2101.77Z" fill="black" stroke="black"/>
<path d="M2715.5 4950.38H3027.74V5052.61C3027.74 5059.01 3026.46 5065.36 3023.63 5071.1C2974.66 5170.09 2856.55 5226.15 2802.17 5242.08C2732.08 5249.43 2588.5 5234.95 2574.93 5118.27C2561.63 5003.92 2656.94 4959.5 2709.17 4950.86C2711.27 4950.51 2713.37 4950.38 2715.5 4950.38Z" stroke="black"/>
<path d="M5084.88 1248.19V1032.81C5021.11 1176.63 4854.8 1236.32 4779.61 1248.19H4567.62V1533.11H4732.13V2230.98C4732.13 2241.7 4732.81 2252.42 4735.88 2262.7C4750.07 2310.32 4798.97 2402.74 4913.59 2489.6C5042.48 2587.29 5333.05 2538.79 5441.02 2503.17L5398.62 2177.56L5327.4 2206.39C5177.37 2244.2 5110.23 2180.67 5089.98 2133.36C5085.79 2123.57 5084.88 2112.82 5084.88 2102.16V1533.11H5410.5V1248.19H5084.88Z" fill="black" stroke="black"/>
<path d="M4236.92 0.203606C4247.24 53.0721 4257.29 80.3245 4277.22 128.752C4347.09 244.639 4447.96 323.099 4579.13 356.003C4594 359.732 4616.08 365.403 4629.92 370.424C4792.34 405.864 4903.93 434.262 5003.72 585.964C5032.54 629.796 5057.93 711.882 5058.34 764.658C5081.96 886.768 5009.6 1031.68 4905.98 1097.99C4779.77 1183.69 4568.41 1181.48 4438.54 1104.98C4414.8 1093.59 4386.31 1072.88 4366.45 1055.5C4309.41 1017.47 4244.85 925.816 4228.63 859.614C4214.09 818.864 4205.23 780.994 4205.1 737.731C4215.53 749.981 4231.48 770.103 4243.32 779.39C4311.19 835.624 4428.98 925.107 4509.74 842.179C4582.36 705.264 4420.98 595.752 4341.29 511.674C4212.25 375.531 4144.68 175.477 4236.92 0.203606Z" fill="url(#paint0_linear_231_48)"/>
<path d="M4007.97 3902.3H3641.65V4226.22H3483.93V4514.53H3641.65L3656.91 5199.68C3658.04 5260.17 3696.26 5400.47 3840.07 5477.81C3983.89 5555.14 4242.57 5510.03 4353.93 5477.81L4318.32 5157.28C4089.37 5230.2 4011.36 5164.06 4011.36 5077.57V4514.53H4338.67V4226.22H4007.97V3902.3Z" fill="black" stroke="black"/>
<path d="M1966.1 929.361H1599.78V1253.28H1442.06V1541.59H1599.78L1615.05 2226.74C1616.18 2287.22 1654.39 2427.53 1798.2 2504.87C1942.02 2582.2 2200.7 2537.09 2312.07 2504.87L2276.45 2184.34C2047.5 2257.26 1969.49 2191.12 1969.49 2104.63V1541.59H2296.8V1253.28H1966.1V929.361Z" fill="black" stroke="black"/>
<path d="M4481.25 4174.35C4604.07 4173.63 4726.88 4173.8 4849.68 4174.83L4850.02 5032.8C4849.89 5172.27 4854.64 5341.25 4849.04 5478.09C4727.79 5479.74 4601.12 5477.8 4479.43 5477.46L4481.25 4174.35Z" fill="black" stroke="black" stroke-width="3.34961"/>
<rect x="4478.25" y="3785.79" width="375.493" height="246.51" fill="black" stroke="black"/>
<path d="M5562.65 4194.56C5923.46 4155.09 6248.24 4414.5 6289.71 4774.88L5973.92 4825.11C5980.37 4768.64 5973.87 4683.52 5933.56 4608.73C5892.67 4532.87 5817.05 4467.75 5685.29 4453.93C5553.55 4440.12 5461.69 4486.95 5400.45 4551.16C5339.27 4615.3 5308.7 4696.72 5299.29 4752.19L5299.29 4752.2L5299.29 4752.21C5289.45 4813.89 5297.64 4910.54 5332.99 4998.02C5368.36 5085.51 5431.04 5164.13 5530.39 5189.13C5629.39 5214.04 5705.13 5201.49 5762.21 5175.89C5819.26 5150.31 5857.57 5111.75 5881.81 5084.85L5881.87 5084.78L5881.93 5084.7C5906.04 5050.79 5957.83 4952.4 5973.5 4828.57L6290.08 4778.21C6329.75 5138.72 6070.82 5463.8 5710.37 5505.6C5347.61 5547.65 5019.72 5287.03 4978.84 4924.17C4937.96 4561.3 5199.65 4234.26 5562.65 4194.56Z" fill="black" stroke="black" stroke-width="3.34961"/>
<path d="M4036.81 1251.59H3699.32L3695.93 2523.52H4062.25C4061.68 2387.28 4060.89 2062.57 4062.25 1853.64C4063.6 1644.7 4329.64 1636.56 4462.48 1658.61V1251.59H4335.29C4183.34 1251.59 4098.99 1522.93 4075.81 1658.61H4036.81V1251.59Z" fill="black" stroke="black"/>
<path d="M6357.17 1230.86C6471.53 1229.75 6599.63 1227.66 6713.16 1233.06L6712.87 2535.56C6592.67 2536.62 6472.53 2536.72 6352.33 2535.83C6352.14 2425.73 6355.71 2287.59 6350.63 2180.65L6350.39 2175.57L6347.57 2179.8C6321.76 2218.47 6297.96 2260.36 6276 2301.33C6205.94 2431.74 6104.94 2533.04 5955.95 2562.36L5955.95 2562.36C5942.67 2564.98 5929.33 2567.46 5915.93 2569.78C5894.57 2568.93 5887.14 2567.65 5864.43 2568.93C5860.65 2568.93 5859.13 2568.93 5858.84 2568.95C5858.84 2568.95 5858.73 2568.95 5858.6 2568.98C5858.56 2568.98 5858.47 2569 5858.35 2569.04C5858.29 2569.07 5858.14 2569.13 5858.06 2569.18C5857.94 2569.26 5857.68 2569.5 5857.52 2569.7C5857.05 2569.73 5856.53 2569.76 5855.97 2569.79C5843.4 2569.36 5840.66 2568.76 5838.06 2568.12C5835.18 2567.42 5832.4 2566.66 5820.09 2565.94C5811.8 2564.53 5805.63 2564.16 5799.57 2563.46C5793.52 2562.77 5787.36 2561.73 5778.8 2559C5758.06 2546.49 5742.39 2544.01 5719.35 2538.64C5698.91 2533.62 5684.84 2528.99 5671.42 2524.28C5658.22 2519.65 5645.58 2514.93 5628.15 2509.7L5626.16 2501.8L5626.03 2501.28L5625.62 2500.93C5610.99 2488.61 5595.06 2478.71 5578.08 2470.2C5578.16 2469.89 5578.18 2469.5 5578.02 2469.07C5577.73 2468.31 5577.08 2468 5576.71 2467.9C5576.34 2467.79 5575.96 2467.78 5575.66 2467.8C5575.39 2467.81 5575.1 2467.85 5574.77 2467.91C5573.55 2464.4 5572.13 2461.85 5570.54 2459.82C5568.75 2457.52 5566.8 2455.95 5564.94 2454.45C5563.07 2452.95 5561.27 2451.52 5559.5 2449.41C5557.73 2447.32 5555.95 2444.52 5554.26 2440.29C5551.98 2434.58 5549.72 2429.54 5547.51 2424.57C5545.31 2419.62 5543.17 2414.74 5541.07 2409.29C5539.63 2403.85 5539.6 2403.73 5539.29 2402.91C5539.05 2402.24 5538.52 2400.85 5535.96 2392.36C5527.2 2363.36 5527.37 2366.18 5522.01 2343.52C5516.33 2319.5 5513.51 2305.01 5512.1 2290.51C5510.68 2276 5510.68 2261.45 5510.68 2237.28C5510.68 2227.29 5510.66 2223.2 5510.64 2221.79C5510.63 2221.47 5510.62 2221.2 5510.61 2221.04C5510.6 2221.02 5510.6 2220.96 5510.58 2220.89C5510.58 2220.86 5510.57 2220.8 5510.54 2220.73C5510.54 2220.72 5510.54 2220.72 5510.54 2220.71C5510.54 2220.36 5510.54 2219.96 5510.54 2219.5C5510.56 2215.78 5510.6 2208.23 5510.69 2193.59V2193.58C5510.68 2175.23 5510.69 2165.39 5510.69 2144.64C5510.69 2112.77 5512.7 2046.83 5514.75 1980.22C5516.81 1913.64 5518.91 1846.39 5519.1 1811.96C5521.04 1617.93 5521.9 1423.89 5521.7 1229.86C5639.2 1229.34 5756.7 1229.71 5874.21 1230.99L5874.09 1786.07C5874.06 1819.74 5873.04 1881.31 5873.48 1941.56C5873.91 2000.82 5875.75 2059.11 5881.41 2088.55L5881.68 2089.93C5889.71 2129.59 5909.18 2166.03 5937.63 2194.75V2194.75C6023.73 2282.09 6170.75 2264.48 6249.96 2178.56L6249.96 2178.56C6302.88 2121.19 6354.2 2036.51 6354.68 1956.16C6355.07 1893.86 6354.91 1831.77 6354.65 1769.64L6354.38 1707.49C6353.74 1548.61 6354.67 1389.73 6357.17 1230.86Z" fill="black" stroke="black" stroke-width="3.34961"/>
<path d="M7192.64 4184.87C7372.95 4154.54 7563.24 4282.39 7594.93 4464.2C7622.5 4622.69 7618.24 4788.99 7619.01 4950V4950C7620.43 5140.08 7620.67 5330.15 7619.73 5520.23L7244.68 5519.67L7245.39 4965.76V4965.76C7245.5 4866.25 7249.65 4762.08 7238.03 4663.19V4663.19L7237.77 4661.11C7226.44 4573.21 7158.66 4510.39 7068.67 4508.35H7068.66C6991.4 4507.17 6916.99 4537.1 6862.12 4591.38C6800.07 4652.62 6775.33 4718.05 6774.97 4803.07C6773.2 5041.8 6773.14 5280.54 6774.78 5519.27C6655.26 5517.98 6535.68 5517.75 6416.15 5518.58L6416.51 4198.27C6534.02 4199.65 6651.53 4200.24 6769.05 4200.02L6768.16 4578.97L6771.41 4579.56C6808.92 4478.39 6855.31 4386.3 6921.75 4316.22C6988.15 4246.17 7074.64 4198.05 7192.55 4184.88L7192.59 4184.88L7192.64 4184.87Z" fill="black" stroke="black" stroke-width="3.34961"/>
<path d="M7716.24 1230.5C7830.71 1223.59 7920.32 1253.57 7989.66 1307.57C8059.03 1361.6 8108.22 1439.78 8141.63 1529.45C8208.21 1708.19 8211.91 1932.16 8187.97 2099.99L7852.69 2030.6C7872.63 1938.28 7870.15 1847.34 7853.77 1770.99C7837.31 1694.27 7806.76 1632.08 7770.6 1598.1C7741.56 1566.61 7698.74 1552.18 7657.23 1546.86C7616.98 1541.71 7577.74 1545.09 7552.93 1549.97L7550.58 1550.45C7492.43 1561.38 7448.79 1594.49 7417.89 1631.35C7386.99 1668.2 7368.75 1708.88 7361.4 1735.17L7361.4 1735.18C7348.99 1781.03 7335.24 1855.99 7334.31 1931.94C7333.39 2007.81 7345.25 2085.07 7384.42 2135.18C7462.41 2234.95 7570.91 2252.95 7615.67 2249.44C7701.82 2248.02 7759.29 2211.5 7796.06 2166.39C7832.16 2122.1 7848.28 2069.56 7852.17 2033.91L8187.49 2103.31C8171.69 2212.61 8159.82 2285.05 8107.64 2384.99L8106.39 2387.37C8010.01 2570.71 7809.04 2644.26 7616.19 2570.22H7616.19C7456.99 2508.13 7381.99 2346.35 7317.54 2196.13L7314.99 2190.2L7314.33 2196.62C7309.69 2242.09 7310.55 2308.48 7311.28 2364.58C7311.47 2379.42 7311.65 2393.55 7311.72 2406.38L7311.75 2411.8L7312.45 2788.08V2788.08C7312.68 2847.45 7312.45 2906.81 7311.88 2966.17L6955.37 2964.96L6956.01 1260.58C7075.34 1259.16 7194.6 1259.48 7313.87 1261.54C7314.36 1309.12 7313.19 1359.72 7312.01 1410.17C7310.47 1476.57 7308.93 1542.72 7311.22 1601.22L7311.43 1606.45L7314.3 1602.07C7334.02 1571.95 7348.17 1541.98 7362.27 1512.12C7383.1 1468.01 7403.86 1424.07 7442.4 1379.63L7444.25 1377.52C7521.72 1289.53 7598.45 1241.71 7716.24 1230.5Z" fill="black" stroke="black" stroke-width="3.34961"/>
<defs>
<linearGradient id="paint0_linear_231_48" x1="4318.59" y1="1024.05" x2="4725.91" y2="304.74" gradientUnits="userSpaceOnUse">
<stop stop-color="#BA4D3E"/>
<stop offset="1" stop-color="#FC3230"/>
</linearGradient>
</defs>
</svg>
