<svg width="609" height="500" viewBox="0 0 609 500" fill="none" xmlns="http://www.w3.org/2000/svg">
<rect width="609" height="500" fill="#1AA2CA"/>
<path d="M175.392 289C174.892 289 174.517 288.792 174.267 288.375L141.767 223.75C140.6 221.333 139.392 219.125 138.142 217.125C136.892 215.125 135.684 213.333 134.517 211.75C133.85 210.917 132.725 210.25 131.142 209.75C129.559 209.167 128.267 208.875 127.267 208.875C126.934 208.875 126.767 208.333 126.767 207.25C126.767 206.25 126.934 205.583 127.267 205.25L143.017 205.875L156.142 205.25C156.309 205.583 156.35 206.292 156.267 207.375C156.267 208.375 156.142 208.875 155.892 208.875C154.559 208.875 153.184 209.208 151.767 209.875C150.35 210.458 149.642 211.333 149.642 212.5C149.642 215 150.6 218.083 152.517 221.75L178.392 273C178.642 273.417 178.975 273.542 179.392 273.375C179.809 273.125 180.1 272.792 180.267 272.375L190.642 250.75L177.517 223.75C176.35 221.333 175.142 219.125 173.892 217.125C172.642 215.125 171.434 213.333 170.267 211.75C169.6 210.917 168.475 210.25 166.892 209.75C165.309 209.167 164.017 208.875 163.017 208.875C162.684 208.875 162.517 208.25 162.517 207C162.517 206.167 162.684 205.583 163.017 205.25L178.767 205.875L191.767 205.25C191.934 205.583 191.975 206.292 191.892 207.375C191.892 208.375 191.767 208.875 191.517 208.875C190.184 208.875 188.809 209.167 187.392 209.75C186.059 210.333 185.392 211.25 185.392 212.5C185.392 213.583 185.6 214.917 186.017 216.5C186.517 218 187.267 219.75 188.267 221.75L196.517 238.625L205.267 220.25C206.434 217.833 207.017 215.417 207.017 213C207.017 211.583 206.1 210.542 204.267 209.875C202.517 209.208 200.975 208.875 199.642 208.875C199.309 208.875 199.142 208.333 199.142 207.25C199.142 206.25 199.309 205.583 199.642 205.25C202.975 205.417 205.684 205.583 207.767 205.75C209.934 205.917 211.434 205.958 212.267 205.875L225.267 205.25C225.434 205.583 225.475 206.292 225.392 207.375C225.392 208.375 225.267 208.875 225.017 208.875C224.517 208.875 223.684 209.042 222.517 209.375C221.35 209.625 220.184 210.042 219.017 210.625C217.85 211.125 216.975 211.708 216.392 212.375C215.642 213.292 214.642 214.833 213.392 217C212.225 219.083 210.809 221.833 209.142 225.25L199.517 245L213.142 273C213.559 273.75 214.059 273.542 214.642 272.375L237.017 221C237.767 219.333 238.309 217.833 238.642 216.5C238.975 215.167 239.142 214.042 239.142 213.125C239.142 211.708 238.267 210.667 236.517 210C234.85 209.25 233.35 208.875 232.017 208.875C231.684 208.875 231.517 208.333 231.517 207.25C231.517 206.25 231.684 205.583 232.017 205.25C235.35 205.417 238.059 205.583 240.142 205.75C242.309 205.833 243.85 205.875 244.767 205.875C247.184 205.875 249.434 205.792 251.517 205.625C253.6 205.458 255.475 205.333 257.142 205.25C257.309 205.917 257.392 206.542 257.392 207.125C257.392 208.292 257.225 208.875 256.892 208.875C256.059 208.875 254.725 209.208 252.892 209.875C251.059 210.458 249.684 211.292 248.767 212.375C246.434 215.208 244.017 219.417 241.517 225L215.017 285C213.85 287.667 212.225 289 210.142 289C209.642 289 209.267 288.792 209.017 288.375L193.767 257.125L180.267 285C179.017 287.667 177.392 289 175.392 289ZM309.892 289C309.392 289 309.017 288.792 308.767 288.375L276.267 223.75C275.1 221.333 273.892 219.125 272.642 217.125C271.392 215.125 270.184 213.333 269.017 211.75C268.35 210.917 267.225 210.25 265.642 209.75C264.059 209.167 262.767 208.875 261.767 208.875C261.434 208.875 261.267 208.333 261.267 207.25C261.267 206.25 261.434 205.583 261.767 205.25L277.517 205.875L290.642 205.25C290.809 205.583 290.85 206.292 290.767 207.375C290.767 208.375 290.642 208.875 290.392 208.875C289.059 208.875 287.684 209.208 286.267 209.875C284.85 210.458 284.142 211.333 284.142 212.5C284.142 215 285.1 218.083 287.017 221.75L312.892 273C313.142 273.417 313.475 273.542 313.892 273.375C314.309 273.125 314.6 272.792 314.767 272.375L325.142 250.75L312.017 223.75C310.85 221.333 309.642 219.125 308.392 217.125C307.142 215.125 305.934 213.333 304.767 211.75C304.1 210.917 302.975 210.25 301.392 209.75C299.809 209.167 298.517 208.875 297.517 208.875C297.184 208.875 297.017 208.25 297.017 207C297.017 206.167 297.184 205.583 297.517 205.25L313.267 205.875L326.267 205.25C326.434 205.583 326.475 206.292 326.392 207.375C326.392 208.375 326.267 208.875 326.017 208.875C324.684 208.875 323.309 209.167 321.892 209.75C320.559 210.333 319.892 211.25 319.892 212.5C319.892 213.583 320.1 214.917 320.517 216.5C321.017 218 321.767 219.75 322.767 221.75L331.017 238.625L339.767 220.25C340.934 217.833 341.517 215.417 341.517 213C341.517 211.583 340.6 210.542 338.767 209.875C337.017 209.208 335.475 208.875 334.142 208.875C333.809 208.875 333.642 208.333 333.642 207.25C333.642 206.25 333.809 205.583 334.142 205.25C337.475 205.417 340.184 205.583 342.267 205.75C344.434 205.917 345.934 205.958 346.767 205.875L359.767 205.25C359.934 205.583 359.975 206.292 359.892 207.375C359.892 208.375 359.767 208.875 359.517 208.875C359.017 208.875 358.184 209.042 357.017 209.375C355.85 209.625 354.684 210.042 353.517 210.625C352.35 211.125 351.475 211.708 350.892 212.375C350.142 213.292 349.142 214.833 347.892 217C346.725 219.083 345.309 221.833 343.642 225.25L334.017 245L347.642 273C348.059 273.75 348.559 273.542 349.142 272.375L371.517 221C372.267 219.333 372.809 217.833 373.142 216.5C373.475 215.167 373.642 214.042 373.642 213.125C373.642 211.708 372.767 210.667 371.017 210C369.35 209.25 367.85 208.875 366.517 208.875C366.184 208.875 366.017 208.333 366.017 207.25C366.017 206.25 366.184 205.583 366.517 205.25C369.85 205.417 372.559 205.583 374.642 205.75C376.809 205.833 378.35 205.875 379.267 205.875C381.684 205.875 383.934 205.792 386.017 205.625C388.1 205.458 389.975 205.333 391.642 205.25C391.809 205.917 391.892 206.542 391.892 207.125C391.892 208.292 391.725 208.875 391.392 208.875C390.559 208.875 389.225 209.208 387.392 209.875C385.559 210.458 384.184 211.292 383.267 212.375C380.934 215.208 378.517 219.417 376.017 225L349.517 285C348.35 287.667 346.725 289 344.642 289C344.142 289 343.767 288.792 343.517 288.375L328.267 257.125L314.767 285C313.517 287.667 311.892 289 309.892 289ZM424.517 289.25C422.517 289.25 420.392 289.083 418.142 288.75C415.892 288.5 414.017 288.208 412.517 287.875C409.434 287.292 407.184 286.833 405.767 286.5C404.434 286.083 403.184 285.792 402.017 285.625C400.934 280.458 400.142 276.25 399.642 273C399.142 269.667 398.892 267.25 398.892 265.75C398.892 265.25 399.559 265 400.892 265C402.392 265 403.434 265.375 404.017 266.125C406.934 278.125 413.85 284.125 424.767 284.125C428.934 284.125 432.475 282.875 435.392 280.375C438.309 277.875 439.767 274.333 439.767 269.75C439.767 268.25 439.434 266.417 438.767 264.25C438.184 262.083 436.809 260.208 434.642 258.625C432.975 257.375 431.6 256.458 430.517 255.875C429.434 255.208 428.35 254.625 427.267 254.125C426.184 253.542 424.809 252.75 423.142 251.75L418.142 248.75C415.559 247.167 412.975 245.375 410.392 243.375C407.809 241.292 405.642 238.875 403.892 236.125C402.225 233.375 401.392 230.25 401.392 226.75C401.392 222.333 402.517 218.5 404.767 215.25C407.1 211.917 410.1 209.333 413.767 207.5C417.517 205.667 421.559 204.75 425.892 204.75C427.725 204.75 429.434 204.875 431.017 205.125C432.684 205.292 434.059 205.5 435.142 205.75C437.642 206.333 439.392 206.792 440.392 207.125C441.475 207.458 442.934 207.833 444.767 208.25C445.767 212.583 446.267 218.542 446.267 226.125C446.267 226.708 445.85 227 445.017 227C442.934 227 441.85 226.583 441.767 225.75C441.35 223.25 440.434 220.792 439.017 218.375C437.6 215.958 435.684 213.958 433.267 212.375C430.85 210.708 427.975 209.875 424.642 209.875C421.225 209.875 418.559 210.542 416.642 211.875C414.725 213.125 413.35 214.75 412.517 216.75C411.767 218.667 411.392 220.708 411.392 222.875C411.392 224.958 411.892 227.042 412.892 229.125C413.892 231.208 415.35 232.958 417.267 234.375C419.85 236.292 422.434 238.083 425.017 239.75C427.684 241.417 430.434 243.125 433.267 244.875C435.934 246.542 438.6 248.417 441.267 250.5C443.934 252.5 446.142 254.792 447.892 257.375C449.725 259.958 450.642 262.958 450.642 266.375C450.642 270.792 449.434 274.75 447.017 278.25C444.6 281.667 441.392 284.375 437.392 286.375C433.475 288.292 429.184 289.25 424.517 289.25ZM469.767 289.875C467.767 289.875 466.017 289.167 464.517 287.75C463.1 286.333 462.392 284.625 462.392 282.625C462.392 280.625 463.1 278.917 464.517 277.5C465.934 276 467.684 275.25 469.767 275.25C471.934 275.25 473.684 276 475.017 277.5C476.35 278.917 477.017 280.625 477.017 282.625C477.017 284.625 476.309 286.333 474.892 287.75C473.475 289.167 471.767 289.875 469.767 289.875Z" fill="white"/>
<line x1="119" y1="330.5" x2="490.034" y2="330.5" stroke="white" stroke-width="5"/>
</svg>
