<svg width="33217" height="4329" viewBox="0 0 33217 4329" fill="none" xmlns="http://www.w3.org/2000/svg">
<g clip-path="url(#clip0_233_78)">
<path d="M745.396 3168.65V3070.47L973.032 3021.37C1077.18 2997.57 1142.64 2970.79 1169.42 2941.04C1199.18 2911.29 1214.06 2850.3 1214.06 2758.06V312.402H888.227C760.274 312.402 644.225 346.618 540.078 415.049C435.93 480.504 348.149 569.762 276.734 682.822C205.319 792.906 153.245 913.404 120.513 1044.32H0C17.8538 963.984 32.732 873.238 44.6345 772.08C59.5127 667.946 68.4396 563.812 71.4152 459.677C74.3908 352.568 68.4396 254.385 53.5614 165.127H2999.44C2984.56 254.385 2978.61 352.568 2981.59 459.677C2984.56 563.812 2993.49 667.946 3008.37 772.08C3023.24 873.238 3038.12 963.984 3053 1044.32H2932.49C2899.76 913.404 2847.68 792.906 2776.27 682.822C2704.85 569.762 2617.07 480.504 2512.92 415.049C2411.75 346.618 2295.7 312.402 2164.77 312.402H1838.94V2758.06C1838.94 2850.3 1853.82 2911.29 1883.58 2941.04C1913.33 2970.79 1978.8 2997.57 2079.97 3021.37L2307.6 3070.47V3168.65H745.396ZM4548.7 3168.65V3092.78L4691.53 3039.23C4733.19 3024.35 4762.95 3002.04 4780.8 2972.28C4801.63 2939.55 4812.05 2902.36 4812.05 2860.71V1927.97C4812.05 1797.06 4777.83 1697.38 4709.39 1628.95C4643.92 1557.55 4547.21 1521.84 4419.26 1521.84C4291.31 1521.84 4191.63 1562.01 4120.21 1642.34C4051.77 1719.7 4017.55 1819.37 4017.55 1941.36L3950.6 1472.75H4013.09C4102.36 1431.1 4191.63 1386.47 4280.9 1338.87C4373.14 1288.29 4465.39 1236.22 4557.63 1182.67C4572.51 1173.74 4590.36 1167.79 4611.19 1164.81C4632.02 1158.86 4651.36 1155.89 4669.22 1155.89C4880.49 1155.89 5044.15 1209.44 5160.2 1316.55C5276.25 1420.69 5334.27 1573.91 5334.27 1776.23V2891.95C5334.27 2933.6 5347.66 2966.33 5374.44 2990.13C5404.2 3013.94 5430.98 3030.3 5454.78 3039.23L5597.61 3092.78V3168.65H4548.7ZM3231.98 3168.65V3092.78L3374.82 3039.23C3416.47 3024.35 3446.23 3002.04 3464.08 2972.28C3484.91 2939.55 3495.33 2902.36 3495.33 2860.71V455.215C3495.33 392.734 3484.91 351.081 3464.08 330.254C3443.25 309.427 3413.5 294.551 3374.82 285.625L3231.98 249.922V169.59C3401.6 145.788 3545.91 123.473 3664.94 102.646C3783.96 81.8198 3907.45 47.6043 4035.41 0L4080.04 35.7033C4059.21 68.4308 4042.85 119.01 4030.94 187.441C4022.02 255.872 4017.55 330.254 4017.55 410.586V2891.95C4017.55 2933.6 4030.94 2966.33 4057.72 2990.13C4087.48 3013.94 4114.26 3030.3 4138.07 3039.23L4280.9 3092.78V3168.65H3231.98ZM6737.19 3204.35C6546.75 3204.35 6377.14 3159.72 6228.36 3070.47C6082.55 2981.21 5966.5 2860.71 5880.21 2708.97C5796.89 2557.23 5755.23 2389.13 5755.23 2204.67C5755.23 1996.4 5799.87 1813.42 5889.14 1655.73C5981.38 1498.04 6104.87 1374.57 6259.6 1285.31C6417.31 1196.05 6594.36 1151.42 6790.75 1151.42C6948.46 1151.42 7085.34 1188.62 7201.39 1263C7320.42 1334.4 7412.66 1434.07 7478.13 1562.01C7543.59 1686.97 7576.32 1828.3 7576.32 1985.98C7576.32 2015.74 7567.39 2042.51 7549.54 2066.32C7534.66 2087.14 7509.37 2097.56 7473.66 2097.56H6027.5V1936.89L6996.07 1896.73C7037.73 1896.73 7058.56 1865.49 7058.56 1803.01C7058.56 1645.32 7031.78 1521.84 6978.22 1432.59C6924.66 1340.35 6853.24 1294.24 6763.97 1294.24C6627.09 1294.24 6519.97 1368.62 6442.6 1517.38C6365.24 1666.14 6326.56 1861.02 6326.56 2102.02C6326.56 2268.63 6356.31 2409.96 6415.82 2525.99C6475.34 2642.03 6554.19 2729.8 6652.39 2789.3C6750.58 2848.81 6857.71 2878.56 6973.76 2878.56C7149.32 2878.56 7324.88 2804.18 7500.44 2655.42L7576.32 2726.82C7457.3 2890.46 7327.86 3010.96 7188 3088.32C7048.15 3165.67 6897.88 3204.35 6737.19 3204.35ZM10478.3 3235.59L9420.47 459.677C9405.59 420.999 9386.25 391.247 9362.45 370.42C9338.64 346.618 9298.47 328.766 9241.93 316.865L8996.44 263.31V165.127H10603.3V263.31L10375.6 312.402C10274.5 333.229 10209 362.982 10179.3 401.66C10149.5 437.363 10149.5 493.893 10179.3 571.25L10799.7 2427.81L11442.4 531.084C11463.2 471.579 11458.8 425.462 11429 392.734C11402.2 357.031 11359.1 333.229 11299.6 321.328L10987.1 263.31V165.127H12402.1V263.31L12120.9 321.328C12085.2 327.279 12053.9 339.18 12027.1 357.031C12000.3 371.907 11981 394.222 11969.1 423.974C11960.2 450.752 11963.1 486.455 11978 531.084L12620.8 2454.59L13308.1 513.232C13326 462.653 13320 426.95 13290.3 406.123C13260.5 382.321 13181.7 355.543 13053.7 325.791L12777 263.31V165.127H14022.3V263.31L13741.1 325.791C13684.6 337.692 13635.5 358.519 13593.8 388.271C13552.1 415.049 13522.4 453.727 13504.5 504.306L12504.7 3235.59H12290.5L11460.3 1057.7L10692.6 3235.59H10478.3ZM15573.8 3235.59L14515.9 459.677C14501.1 420.999 14481.7 391.247 14457.9 370.42C14434.1 346.618 14393.9 328.766 14337.4 316.865L14091.9 263.31V165.127H15698.8V263.31L15471.1 312.402C15370 333.229 15304.5 362.982 15274.7 401.66C15245 437.363 15245 493.893 15274.7 571.25L15895.2 2427.81L16537.9 531.084C16558.7 471.579 16554.3 425.462 16524.5 392.734C16497.7 357.031 16454.6 333.229 16395.1 321.328L16082.6 263.31V165.127H17497.5V263.31L17216.3 321.328C17180.6 327.279 17149.4 339.18 17122.6 357.031C17095.8 371.907 17076.5 394.222 17064.6 423.974C17055.6 450.752 17058.6 486.455 17073.5 531.084L17716.2 2454.59L18403.6 513.232C18421.5 462.653 18415.5 426.95 18385.8 406.123C18356 382.321 18277.1 355.543 18149.2 325.791L17872.5 263.31V165.127H19117.8V263.31L18836.6 325.791C18780 337.692 18730.9 358.519 18689.3 388.271C18647.6 415.049 18617.9 453.727 18600 504.306L17600.2 3235.59H17385.9L16555.7 1057.7L15788 3235.59H15573.8ZM20338.3 3217.74C20082.4 3217.74 19862.2 3186.5 19677.7 3124.02C19493.2 3058.56 19347.4 2999.06 19240.3 2945.51C19264.1 2814.59 19274.5 2679.22 19271.5 2539.38C19271.5 2396.57 19253.7 2255.25 19218 2115.41H19374.2C19389.1 2299.87 19435.2 2465 19512.5 2610.79C19592.9 2753.6 19701.5 2866.66 19838.4 2949.97C19978.2 3030.3 20144.9 3070.47 20338.3 3070.47C20424.6 3070.47 20513.8 3054.1 20606.1 3021.37C20698.3 2985.67 20775.7 2929.14 20838.2 2851.78C20903.6 2774.43 20936.4 2673.27 20936.4 2548.31C20936.4 2438.22 20912.6 2347.48 20865 2276.07C20820.3 2204.67 20738.5 2139.21 20619.5 2079.71C20503.4 2017.22 20338.3 1950.28 20124 1878.88C19853.3 1786.64 19646.4 1676.56 19503.6 1548.62C19360.8 1417.71 19289.4 1233.24 19289.4 995.224C19289.4 840.51 19326.6 697.698 19401 566.787C19478.3 432.9 19591.4 325.791 19740.2 245.459C19891.9 162.152 20076.4 120.498 20293.6 120.498C20412.7 120.498 20509.4 132.399 20583.8 156.201C20661.1 180.003 20726.6 205.293 20780.2 232.07C20824.8 252.897 20865 272.236 20900.7 290.088C20936.4 304.964 20973.6 312.402 21012.3 312.402L21155.1 285.625L21168.5 294.55C21162.5 324.303 21158.1 360.006 21155.1 401.66C21152.1 443.314 21150.6 481.992 21150.6 517.695C21150.6 609.928 21156.6 700.673 21168.5 789.931C21183.4 876.214 21196.7 947.62 21208.7 1004.15C21223.5 1057.7 21231 1084.48 21231 1084.48H21110.5C21065.8 911.917 21001.8 766.129 20918.5 647.119C20838.2 525.133 20744.5 431.413 20637.3 365.957C20530.2 300.501 20412.7 267.773 20284.7 267.773C20168.7 267.773 20069 293.063 19985.7 343.642C19905.3 394.222 19844.3 458.19 19802.7 535.547C19761 612.903 19740.2 693.235 19740.2 776.542C19740.2 880.676 19759.5 965.471 19798.2 1030.93C19836.9 1096.38 19909.8 1155.89 20016.9 1209.44C20127 1263 20284.7 1323.99 20490 1392.42C20707.3 1463.83 20878.4 1541.18 21003.3 1624.49C21128.3 1707.8 21217.6 1803.01 21271.1 1910.12C21324.7 2017.22 21351.5 2145.16 21351.5 2293.92C21351.5 2481.37 21308.3 2645 21222 2784.84C21138.7 2921.7 21021.2 3028.81 20869.4 3106.17C20717.7 3180.55 20540.6 3217.74 20338.3 3217.74ZM23003.7 3168.65V3070.47L23231.3 3021.37C23335.5 2997.57 23400.9 2970.79 23427.7 2941.04C23457.5 2911.29 23472.3 2850.3 23472.3 2758.06V575.713C23472.3 480.504 23457.5 418.024 23427.7 388.271C23400.9 358.519 23335.5 333.229 23231.3 312.402L23003.7 263.31V165.127H24561.4C24793.5 165.127 25009.2 203.805 25208.6 281.162C25408 358.519 25580.6 465.628 25726.4 602.49C25875.2 736.376 25989.7 892.577 26070.1 1071.09C26153.4 1249.61 26195 1441.51 26195 1646.81C26195 1864 26154.9 2064.83 26074.5 2249.29C25997.2 2433.76 25887.1 2595.91 25744.2 2735.75C25601.4 2872.61 25431.8 2979.72 25235.4 3057.08C25039 3131.46 24824.8 3168.65 24592.7 3168.65H23003.7ZM24498.9 3021.37C24704.2 3021.37 24881.3 2964.84 25030.1 2851.78C25181.8 2738.72 25299.4 2579.55 25382.7 2374.26C25466 2165.99 25507.7 1922.02 25507.7 1642.34C25507.7 1377.54 25466 1145.47 25382.7 946.132C25299.4 743.815 25181.8 586.126 25030.1 473.066C24881.3 360.006 24704.2 303.476 24498.9 303.476H24097.2V2758.06C24097.2 2844.35 24131.4 2909.8 24199.9 2954.43C24268.3 2999.06 24368 3021.37 24498.9 3021.37ZM27146.5 3199.89C27030.4 3199.89 26927.8 3170.14 26838.5 3110.63C26749.2 3048.15 26679.3 2967.82 26628.7 2869.64C26578.1 2768.48 26552.8 2659.88 26552.8 2543.85C26552.8 2490.29 26557.3 2453.1 26566.2 2432.27C26578.1 2408.47 26596 2392.11 26619.8 2383.18L27539.3 2039.54C27592.8 2018.71 27627 1996.4 27641.9 1972.6C27659.8 1948.79 27668.7 1914.58 27668.7 1869.95V1704.82C27668.7 1573.91 27637.4 1474.24 27575 1405.81C27515.4 1334.4 27423.2 1298.7 27298.2 1298.7C27214.9 1298.7 27148 1316.55 27097.4 1352.25C27046.8 1384.98 27021.5 1422.17 27021.5 1463.83C27021.5 1484.65 27027.4 1505.48 27039.3 1526.31C27051.2 1544.16 27064.6 1563.5 27079.5 1584.32C27103.3 1614.08 27122.7 1645.32 27137.5 1678.05C27152.4 1707.8 27159.9 1740.53 27159.9 1776.23C27159.9 1847.64 27133.1 1904.17 27079.5 1945.82C27028.9 1984.5 26965 2003.84 26887.6 2003.84C26807.2 2003.84 26744.8 1981.52 26700.1 1936.89C26655.5 1892.26 26633.2 1829.78 26633.2 1749.45C26633.2 1639.37 26671.9 1539.7 26749.2 1450.44C26829.6 1358.21 26930.7 1285.31 27052.7 1231.76C27177.7 1178.2 27304.2 1151.42 27432.1 1151.42C27566 1151.42 27689.5 1173.74 27802.6 1218.37C27918.6 1260.02 28012.4 1325.48 28083.8 1414.74C28155.2 1503.99 28190.9 1621.52 28190.9 1767.3V2735.75C28190.9 2792.28 28196.9 2841.37 28208.8 2883.02C28220.7 2921.7 28253.4 2941.04 28307 2941.04C28351.6 2941.04 28414.1 2929.14 28494.4 2905.34V3016.91C28434.9 3052.61 28357.6 3091.29 28262.3 3132.95C28167.1 3174.6 28080.8 3195.43 28003.5 3195.43C27943.9 3195.43 27891.9 3183.53 27847.2 3159.72C27805.6 3135.92 27772.8 3095.76 27749 3039.23C27725.2 2979.72 27711.8 2902.36 27708.9 2807.16V2740.21L27833.8 2842.86C27765.4 2899.39 27692.5 2955.92 27615.1 3012.45C27540.7 3066 27463.4 3110.63 27383 3146.33C27305.7 3182.04 27226.8 3199.89 27146.5 3199.89ZM27396.4 2932.12C27438.1 2932.12 27475.3 2924.68 27508 2909.8C27540.7 2894.93 27577.9 2874.1 27619.6 2847.32C27652.3 2823.52 27668.7 2781.87 27668.7 2722.36V2191.28C27668.7 2182.35 27665.7 2176.4 27659.8 2173.43C27656.8 2167.48 27650.8 2167.48 27641.9 2173.43L27110.8 2365.33C27092.9 2371.28 27079.5 2383.18 27070.6 2401.03C27064.6 2418.88 27061.7 2451.61 27061.7 2499.22C27061.7 2570.62 27076.5 2639.05 27106.3 2704.51C27136.1 2769.97 27176.2 2825.01 27226.8 2869.64C27280.4 2911.29 27336.9 2932.12 27396.4 2932.12ZM28674.5 3168.65V3092.78L28817.4 3039.23C28897.7 3006.5 28937.9 2946.99 28937.9 2860.71V1584.32C28937.9 1521.84 28927.5 1480.19 28906.6 1459.36C28885.8 1438.54 28856.1 1423.66 28817.4 1414.74L28674.5 1379.03V1298.7C28844.2 1274.9 28988.5 1252.58 29107.5 1231.76C29226.5 1210.93 29350 1176.71 29478 1129.11L29522.6 1164.81C29501.8 1197.54 29485.4 1248.12 29473.5 1316.55C29464.6 1384.98 29460.1 1459.36 29460.1 1539.7V2891.95C29460.1 2933.6 29473.5 2966.33 29500.3 2990.13C29530 3013.94 29556.8 3030.3 29580.6 3039.23L29723.5 3092.78V3168.65H28674.5ZM29192.3 736.376C29100.1 736.376 29021.2 705.136 28955.7 642.656C28893.3 577.2 28862 498.356 28862 406.123C28862 313.89 28893.3 236.533 28955.7 174.053C29021.2 108.597 29100.1 75.8692 29192.3 75.8692C29284.6 75.8692 29361.9 108.597 29424.4 174.053C29489.9 236.533 29522.6 313.89 29522.6 406.123C29522.6 498.356 29489.9 577.2 29424.4 642.656C29361.9 705.136 29284.6 736.376 29192.3 736.376ZM29860.2 3168.65V3092.78L30003 3039.23C30044.7 3024.35 30074.4 3002.04 30092.3 2972.28C30113.1 2939.55 30123.5 2902.36 30123.5 2860.71V455.215C30123.5 392.734 30113.1 351.081 30092.3 330.254C30071.5 309.427 30041.7 294.551 30003 285.625L29860.2 249.922V169.59C30029.8 145.788 30174.1 123.473 30293.1 102.646C30412.2 81.8198 30535.7 47.6043 30663.6 0L30708.2 35.7033C30687.4 68.4308 30671 119.01 30659.1 187.441C30650.2 255.872 30645.8 330.254 30645.8 410.586V2891.95C30645.8 2933.6 30659.1 2966.33 30685.9 2990.13C30715.7 3013.94 30742.5 3030.3 30766.3 3039.23L30909.1 3092.78V3168.65H29860.2ZM31268.9 4329C31164.7 4329 31085.9 4297.76 31032.3 4235.28C30978.7 4172.8 30951.9 4105.86 30951.9 4034.45C30951.9 3954.12 30975.8 3884.2 31023.4 3824.69C31073.9 3768.16 31137.9 3739.9 31215.3 3739.9C31262.9 3739.9 31303.1 3747.34 31335.8 3762.21C31368.5 3777.09 31395.3 3796.43 31416.1 3820.23C31437 3841.06 31454.8 3855.93 31469.7 3864.86C31484.6 3873.79 31499.5 3878.25 31514.3 3878.25C31559 3878.25 31600.6 3835.11 31639.3 3748.82L31920.5 3124.02L31201.9 1396.88C31190 1370.11 31173.6 1350.77 31152.8 1338.87C31132 1323.99 31103.7 1312.09 31068 1303.16L30929.6 1271.92V1196.05H32032.1V1271.92L31938.4 1294.24C31890.8 1306.14 31852.1 1326.97 31822.3 1356.72C31792.6 1386.47 31788.1 1431.1 31808.9 1490.6L32264.2 2673.27H32143.7L32674.8 1450.44C32692.7 1408.78 32695.7 1377.54 32683.8 1356.72C32674.8 1332.92 32645.1 1316.55 32594.5 1307.63L32393.6 1271.92V1196.05H33214.9V1271.92L33031.9 1325.48C32993.2 1337.38 32965 1350.77 32947.1 1365.64C32929.3 1377.54 32914.4 1396.88 32902.5 1423.66L31800 3860.4C31743.5 3988.33 31684 4085.03 31621.5 4150.48C31562 4218.92 31502.4 4265.03 31442.9 4288.83C31383.4 4315.61 31325.4 4329 31268.9 4329Z" fill="black"/>
</g>
<defs>
<clipPath id="clip0_233_78">
<rect width="33217" height="4329" fill="white"/>
</clipPath>
</defs>
</svg>
