<svg width="173" height="57" viewBox="0 0 173 57" fill="none" xmlns="http://www.w3.org/2000/svg">
<rect width="170.5" height="53.5" transform="translate(1 1.29492)" fill="white"/>
<path d="M21.9881 31.9302L25.1081 24.9302H26.7081L29.8381 31.9302H28.1381L25.5781 25.7502H26.2181L23.6481 31.9302H21.9881ZM23.5481 30.4302L23.9781 29.2002H27.5781L28.0181 30.4302H23.5481ZM30.5644 31.9302V24.9302H32.1844V31.9302H30.5644Z" fill="black"/>
<path d="M40.1374 32.8529L37.9816 29.7571L35.8664 32.8529H33.5L36.7984 28.3146L33.6621 23.9302H36.0123L38.0627 26.8234L40.0725 23.9302H42.3093L39.1973 28.2416L42.52 32.8529H40.1374Z" fill="black"/>
<path d="M46.462 32.4149C45.902 32.4149 45.3654 32.3416 44.852 32.1949C44.3387 32.0416 43.9254 31.8449 43.612 31.6049L44.162 30.3849C44.462 30.5983 44.8154 30.7749 45.222 30.9149C45.6354 31.0483 46.052 31.1149 46.472 31.1149C46.792 31.1149 47.0487 31.0849 47.242 31.0249C47.442 30.9583 47.5887 30.8683 47.682 30.7549C47.7754 30.6416 47.822 30.5116 47.822 30.3649C47.822 30.1783 47.7487 30.0316 47.602 29.9249C47.4554 29.8116 47.262 29.7216 47.022 29.6549C46.782 29.5816 46.5154 29.5149 46.222 29.4549C45.9354 29.3883 45.6454 29.3083 45.352 29.2149C45.0654 29.1216 44.802 29.0016 44.562 28.8549C44.322 28.7083 44.1254 28.5149 43.972 28.2749C43.8254 28.0349 43.752 27.7283 43.752 27.3549C43.752 26.9549 43.8587 26.5916 44.072 26.2649C44.292 25.9316 44.6187 25.6683 45.052 25.4749C45.492 25.2749 46.042 25.1749 46.702 25.1749C47.142 25.1749 47.5754 25.2283 48.002 25.3349C48.4287 25.4349 48.8054 25.5883 49.132 25.7949L48.632 27.0249C48.3054 26.8383 47.9787 26.7016 47.652 26.6149C47.3254 26.5216 47.0054 26.4749 46.692 26.4749C46.3787 26.4749 46.122 26.5116 45.922 26.5849C45.722 26.6583 45.5787 26.7549 45.492 26.8749C45.4054 26.9883 45.362 27.1216 45.362 27.2749C45.362 27.4549 45.4354 27.6016 45.582 27.7149C45.7287 27.8216 45.922 27.9083 46.162 27.9749C46.402 28.0416 46.6654 28.1083 46.952 28.1749C47.2454 28.2416 47.5354 28.3183 47.822 28.4049C48.1154 28.4916 48.382 28.6083 48.622 28.7549C48.862 28.9016 49.0554 29.0949 49.202 29.3349C49.3554 29.5749 49.432 29.8783 49.432 30.2449C49.432 30.6383 49.322 30.9983 49.102 31.3249C48.882 31.6516 48.552 31.9149 48.112 32.1149C47.6787 32.3149 47.1287 32.4149 46.462 32.4149ZM53.649 32.4149C52.6557 32.4149 51.879 32.1383 51.319 31.5849C50.759 31.0316 50.479 30.2416 50.479 29.2149V25.2949H52.099V29.1549C52.099 29.8216 52.2357 30.3016 52.509 30.5949C52.7823 30.8883 53.1657 31.0349 53.659 31.0349C54.1523 31.0349 54.5357 30.8883 54.809 30.5949C55.0823 30.3016 55.219 29.8216 55.219 29.1549V25.2949H56.819V29.2149C56.819 30.2416 56.539 31.0316 55.979 31.5849C55.419 32.1383 54.6423 32.4149 53.649 32.4149ZM58.4198 32.2949V25.2949H59.7598L62.7398 30.2349H62.0298L64.9598 25.2949H66.2898L66.3098 32.2949H64.7898L64.7798 27.6249H65.0598L62.7198 31.5549H61.9898L59.5998 27.6249H59.9398V32.2949H58.4198ZM67.9706 32.2949V25.2949H69.3106L72.2906 30.2349H71.5806L74.5106 25.2949H75.8406L75.8606 32.2949H74.3406L74.3306 27.6249H74.6106L72.2706 31.5549H71.5406L69.1506 27.6249H69.4906V32.2949H67.9706ZM77.5214 32.2949V25.2949H79.1414V32.2949H77.5214ZM82.2527 32.2949V26.6149H80.0127V25.2949H86.1127V26.6149H83.8727V32.2949H82.2527Z" fill="black"/>
<path d="M45 34.2949V45.0483L1 54.7949V1.29492L45 12.7949V22.7949" stroke="url(#paint0_linear_225_31)" stroke-width="2"/>
<path d="M94.5 35.1689L94.5 20.9209" stroke="black"/>
<path d="M127.5 34.2949V45.0483L171.5 54.7949V1.29492L127.5 12.7949V22.7949" stroke="url(#paint1_linear_225_31)" stroke-width="2"/>
<path d="M102.41 32.2949L105.53 25.2949H107.13L110.26 32.2949H108.56L106 26.1149H106.64L104.07 32.2949H102.41ZM103.97 30.7949L104.4 29.5649H108L108.44 30.7949H103.97ZM110.986 32.2949V25.2949H112.606V32.2949H110.986Z" fill="black"/>
<path d="M120.555 33.2177L118.4 30.1219L116.284 33.2177H113.918L117.216 28.6793L114.08 24.2949H116.43L118.481 27.1881L120.49 24.2949H122.727L119.615 28.6064L122.938 33.2177H120.555Z" fill="black"/>
<path d="M129.38 25.6597H131V32.6597H129.38V25.6597ZM126.2 32.6597H124.58V25.6597H126.2V32.6597ZM129.5 29.7897H126.08V28.4197H129.5V29.7897ZM131.736 32.6597L134.856 25.6597H136.456L139.586 32.6597H137.886L135.326 26.4797H135.966L133.396 32.6597H131.736ZM133.296 31.1597L133.726 29.9297H137.326L137.766 31.1597H133.296ZM143.565 32.7797C143.025 32.7797 142.521 32.693 142.055 32.5197C141.595 32.3397 141.195 32.0863 140.855 31.7597C140.515 31.433 140.248 31.0497 140.055 30.6097C139.868 30.1697 139.775 29.6863 139.775 29.1597C139.775 28.633 139.868 28.1497 140.055 27.7097C140.248 27.2697 140.515 26.8863 140.855 26.5597C141.201 26.233 141.605 25.983 142.065 25.8097C142.525 25.6297 143.028 25.5397 143.575 25.5397C144.181 25.5397 144.728 25.6463 145.215 25.8597C145.708 26.0663 146.121 26.373 146.455 26.7797L145.415 27.7397C145.175 27.4663 144.908 27.263 144.615 27.1297C144.321 26.9897 144.001 26.9197 143.655 26.9197C143.328 26.9197 143.028 26.973 142.755 27.0797C142.481 27.1863 142.245 27.3397 142.045 27.5397C141.845 27.7397 141.688 27.9763 141.575 28.2497C141.468 28.523 141.415 28.8263 141.415 29.1597C141.415 29.493 141.468 29.7963 141.575 30.0697C141.688 30.343 141.845 30.5797 142.045 30.7797C142.245 30.9797 142.481 31.133 142.755 31.2397C143.028 31.3463 143.328 31.3997 143.655 31.3997C144.001 31.3997 144.321 31.333 144.615 31.1997C144.908 31.0597 145.175 30.8497 145.415 30.5697L146.455 31.5297C146.121 31.9363 145.708 32.2463 145.215 32.4597C144.728 32.673 144.178 32.7797 143.565 32.7797ZM148.999 31.0597L148.909 29.1897L152.259 25.6597H154.059L151.039 28.9097L150.139 29.8697L148.999 31.0597ZM147.549 32.6597V25.6597H149.159V32.6597H147.549ZM152.339 32.6597L149.849 29.6097L150.909 28.4597L154.229 32.6597H152.339Z" fill="black"/>
<defs>
<linearGradient id="paint0_linear_225_31" x1="45" y1="28.0449" x2="1" y2="28.0449" gradientUnits="userSpaceOnUse">
<stop stop-color="#3DD8D8"/>
<stop offset="1" stop-color="#F746A9"/>
</linearGradient>
<linearGradient id="paint1_linear_225_31" x1="127.5" y1="28.0449" x2="171.5" y2="28.0449" gradientUnits="userSpaceOnUse">
<stop stop-color="#3DD8D8"/>
<stop offset="1" stop-color="#F746A9"/>
</linearGradient>
</defs>
</svg>
