<svg width="709" height="798" viewBox="0 0 709 798" fill="none" xmlns="http://www.w3.org/2000/svg">
<path d="M58.1137 214.155L167.58 154.457L148.245 218.807L145.298 248.72C143.04 271.641 142.717 294.709 144.334 317.684L145.635 336.176C147.365 360.74 153.003 384.873 162.339 407.666L164.995 414.151C182.148 456.028 209.647 492.882 244.927 521.274L277.258 548.802L225.59 534.145C195.823 522.559 168.382 505.729 144.571 484.458L135.354 476.224L111.25 450.645C97.4428 435.993 86.1642 419.155 77.8733 400.819C60.6507 362.73 52.7583 321.094 54.8485 279.354L58.1137 214.155Z" fill="url(#paint0_linear_472_15)"/>
<path d="M336.564 47.7246L447.459 104.732L383.256 124.84L356.799 139.18C336.527 150.168 317.217 162.84 299.073 177.062L284.47 188.508C265.071 203.714 248.221 221.911 234.558 242.412L230.67 248.244C205.566 285.909 190.43 329.312 186.674 374.399L181.981 416.564L165.156 365.633C158.069 334.528 156.633 302.405 160.918 270.794L162.575 258.555L170.267 224.284C174.673 204.652 182.309 185.886 192.864 168.749C214.789 133.15 244.886 103.274 280.669 81.5926L336.564 47.7246Z" fill="url(#paint1_linear_472_15)"/>
<path d="M655.417 212.673L660.435 337.11L611.254 291.259L585.712 275.35C566.141 263.162 545.577 252.638 524.238 243.892L507.063 236.853C484.247 227.501 460.083 221.841 435.484 220.082L428.484 219.582C383.287 216.352 338.007 224.608 296.869 243.58L257.817 260.299L293.895 220.568C317.502 199.072 344.782 181.983 374.438 170.115L385.919 165.52L419.573 155.299C438.85 149.445 458.966 146.823 479.103 147.539C520.932 149.027 561.806 160.437 598.342 180.825L655.417 212.673Z" fill="url(#paint2_linear_472_15)"/>
<path d="M657.985 566.546L551.491 631.382L567.735 566.185L569.252 536.165C570.415 513.163 569.636 490.105 566.925 467.233L564.743 448.825C561.845 424.37 555.062 400.533 544.648 378.21L541.686 371.858C522.555 330.846 493.328 295.34 456.735 268.657L423.127 242.699L475.436 254.882C505.722 265.041 533.935 280.545 558.733 300.66L568.333 308.447L593.629 332.85C608.119 346.829 620.189 363.111 629.345 381.033C648.365 418.259 658.234 459.473 658.137 501.264L657.985 566.546Z" fill="url(#paint3_linear_472_15)"/>
<path d="M345.741 746.058L238.104 683.132L303.305 666.53L330.503 653.642C351.341 643.768 371.311 632.161 390.2 618.942L405.404 608.303C425.6 594.169 443.413 576.912 458.169 557.181L462.368 551.567C489.48 515.315 506.952 472.798 513.151 427.98L520.127 386.131L534.161 437.898C539.548 469.34 539.237 501.495 533.243 532.828L530.923 544.959L521.381 578.762C515.916 598.126 507.272 616.452 495.803 632.992C471.977 667.352 440.301 695.554 403.394 715.267L345.741 746.058Z" fill="url(#paint4_linear_472_15)"/>
<path d="M49.3457 556.953L53.3781 432.48L99.1 481.771L123.419 499.487C142.054 513.062 161.799 525.046 182.446 535.314L199.064 543.579C221.141 554.558 244.829 561.953 269.238 565.488L276.183 566.494C321.026 572.988 366.786 568.032 409.194 552.089L449.357 538.243L410.488 575.257C385.383 594.985 356.933 610.055 326.493 619.744L314.708 623.496L280.402 631.252C260.75 635.695 240.495 636.853 220.464 634.682C178.854 630.17 138.916 615.83 103.956 592.85L49.3457 556.953Z" fill="url(#paint5_linear_472_15)"/>
<path d="M367.969 414.442H309.117L308.803 382.076H358.214C366.92 382.076 374.054 380.976 379.614 378.776C385.175 376.472 389.318 373.172 392.046 368.878C394.878 364.479 396.295 359.136 396.295 352.853C396.295 345.73 394.931 339.969 392.203 335.57C389.581 331.17 385.437 327.976 379.771 325.985C374.211 323.995 367.026 323 358.214 323H325.482V514.839H278.274V286.078H358.214C371.536 286.078 383.444 287.334 393.934 289.848C404.529 292.362 413.499 296.186 420.843 301.317C428.185 306.45 433.798 312.945 437.68 320.8C441.561 328.551 443.502 337.769 443.502 348.453C443.502 357.88 441.352 366.573 437.05 374.534C432.854 382.495 426.192 388.989 417.066 394.017C408.043 399.044 396.242 401.82 381.659 402.344L367.969 414.442ZM365.924 514.839H296.213L314.624 478.074H365.924C374.211 478.074 380.978 476.764 386.223 474.146C391.468 471.423 395.35 467.757 397.869 463.148C400.386 458.539 401.644 453.249 401.644 447.279C401.644 440.575 400.491 434.762 398.183 429.839C395.98 424.916 392.413 421.145 387.482 418.527C382.552 415.803 376.047 414.442 367.969 414.442H322.493L322.807 382.076H379.456L390.314 394.802C404.268 394.593 415.492 397.054 423.989 402.187C432.591 407.215 438.835 413.761 442.716 421.826C446.702 429.892 448.695 438.533 448.695 447.75C448.695 462.414 445.495 474.774 439.096 484.83C432.697 494.781 423.307 502.269 410.928 507.298C398.655 512.325 383.654 514.839 365.924 514.839Z" fill="#848688"/>
<path d="M375.488 390.066L375.462 390.088L355.128 406.928C331.645 426.379 318.057 455.261 318.057 485.726V491.521C318.057 497.855 315.067 503.817 309.989 507.611C306.509 510.214 302.275 511.621 297.926 511.621H291.646C285.816 511.621 280.112 509.933 275.224 506.763C269.567 503.094 265.306 497.636 263.122 491.264L262.814 490.362C261.639 486.938 261.041 483.343 261.041 479.725V467.651C261.041 460.528 261.765 453.423 263.198 446.447L264.564 439.803C266.091 432.377 268.684 425.208 272.263 418.521C278.542 406.788 287.695 396.834 298.868 389.587L299.094 389.44L316.883 377.903L364.384 354.797L373.709 351.774C379.716 349.825 385.194 346.524 389.717 342.123C393.748 338.201 396.931 333.496 399.068 328.297L405.862 311.773C407.467 307.868 408.293 303.689 408.293 299.47V274.203C408.293 273.819 408.604 273.508 408.988 273.508C409.218 273.508 409.432 273.621 409.563 273.81L416.657 284.162C418.812 287.308 420.202 290.913 420.716 294.69L422.178 305.443V322.693C422.178 330.05 420.961 337.356 418.576 344.315L417.452 347.594C416.779 349.558 415.966 351.471 415.016 353.318C412.284 358.635 408.473 363.325 403.828 367.093L375.488 390.066Z" fill="#373435"/>
<path d="M263.122 491.264C265.306 497.636 269.567 503.094 275.224 506.763C280.112 509.933 285.816 511.621 291.646 511.621H297.926C302.275 511.621 306.509 510.214 309.989 507.611C315.067 503.817 318.057 497.855 318.057 491.521V485.726C318.057 455.261 331.645 426.379 355.128 406.928L375.462 390.088L375.488 390.066L403.828 367.093C408.473 363.325 412.284 358.635 415.016 353.318C415.966 351.471 416.779 349.558 417.452 347.594L418.576 344.315C420.961 337.356 422.178 330.05 422.178 322.693V305.443L420.716 294.69C420.202 290.913 418.812 287.308 416.657 284.162L409.563 273.81C409.432 273.621 409.218 273.508 408.988 273.508C408.604 273.508 408.293 273.819 408.293 274.203V299.47C408.293 303.689 407.467 307.868 405.862 311.773M263.122 491.264L260.073 492.307M263.122 491.264L262.814 490.362C261.639 486.938 261.041 483.343 261.041 479.725V467.651C261.041 460.528 261.765 453.423 263.198 446.447L264.564 439.803C266.091 432.377 268.684 425.208 272.263 418.521C278.542 406.788 287.695 396.834 298.868 389.587M298.868 389.587L297.113 386.888M298.868 389.587L299.094 389.44L316.883 377.903L364.384 354.797L373.709 351.774C379.716 349.825 385.194 346.524 389.717 342.123C393.748 338.201 396.931 333.496 399.068 328.297L405.862 311.773M405.862 311.773L402.88 310.55" stroke="white" stroke-width="0.5"/>
<defs>
<linearGradient id="paint0_linear_472_15" x1="96.6813" y1="366.823" x2="231.761" y2="553.651" gradientUnits="userSpaceOnUse">
<stop stop-color="#FFF100"/>
<stop offset="1" stop-color="#FF8900"/>
</linearGradient>
<linearGradient id="paint1_linear_472_15" x1="231.602" y1="165.23" x2="152.977" y2="381.867" gradientUnits="userSpaceOnUse">
<stop stop-color="#FFF100"/>
<stop offset="1" stop-color="#FF8900"/>
</linearGradient>
<linearGradient id="paint2_linear_472_15" x1="501.274" y1="179.451" x2="273.726" y2="217.885" gradientUnits="userSpaceOnUse">
<stop stop-color="#FFF100"/>
<stop offset="1" stop-color="#FF8900"/>
</linearGradient>
<linearGradient id="paint3_linear_472_15" x1="612.18" y1="415.885" x2="468.348" y2="235.686" gradientUnits="userSpaceOnUse">
<stop stop-color="#FFF100"/>
<stop offset="1" stop-color="#FF8900"/>
</linearGradient>
<linearGradient id="paint4_linear_472_15" x1="456.93" y1="634.409" x2="547.177" y2="422.335" gradientUnits="userSpaceOnUse">
<stop stop-color="#FFF100"/>
<stop offset="1" stop-color="#FF8900"/>
</linearGradient>
<linearGradient id="paint5_linear_472_15" x1="200.67" y1="601.248" x2="430.415" y2="579.443" gradientUnits="userSpaceOnUse">
<stop stop-color="#FFF100"/>
<stop offset="1" stop-color="#FF8900"/>
</linearGradient>
</defs>
</svg>
