<svg width="4912" height="1798" viewBox="0 0 4912 1798" fill="none" xmlns="http://www.w3.org/2000/svg">
<g clip-path="url(#clip0_220_2)">
<path d="M22.7006 426.905L303.531 273.474L253.925 438.857L242.599 554.005C239.31 587.445 238.839 621.101 241.193 654.619L248.226 754.732C251.999 808.438 264.302 861.201 284.678 911.034L301.099 951.197C342.342 1052.07 408.469 1140.85 493.313 1209.26L501.946 1216.22L584.889 1286.95L452.339 1249.29L409.412 1232.56C361.435 1213.85 317.208 1186.68 278.838 1152.33L220.845 1100.44L159.021 1034.71C123.593 997.039 94.6548 953.763 73.3833 906.634C29.2026 808.746 8.95746 701.749 14.321 594.481L22.7006 426.905Z" fill="url(#paint0_linear_220_2)"/>
<path d="M736.863 0L1021.36 146.512L856.646 198.189L755.012 253.376C725.476 269.417 697.337 287.915 670.896 308.676L592.042 370.597C549.678 403.863 512.884 443.67 483.044 488.518L459.079 524.542C398.692 615.311 362.28 719.899 353.243 828.551L352.327 839.565L340.289 947.932L297.125 817.037L286.902 772.087C275.481 721.872 273.168 670.015 280.071 618.976L290.505 541.842L310.239 453.763C321.542 403.311 341.129 355.081 368.207 311.037C424.453 219.546 501.671 142.764 593.468 87.042L736.863 0Z" fill="url(#paint1_linear_220_2)"/>
<path d="M1554.88 423.328L1567.77 743.14L1441.61 625.3L1343.5 564.085C1314.96 546.284 1284.99 530.916 1253.88 518.142L1161.19 480.08C1111.35 459.613 1058.56 447.221 1004.81 443.371L961.747 440.289C852.993 432.501 744.046 452.398 645.075 498.124L635.071 502.746L534.891 545.709L627.441 443.599L661.503 412.529C699.539 377.832 743.494 350.248 791.285 331.088L863.516 302.127L949.863 275.859C999.309 260.817 1050.91 254.08 1102.57 255.92C1209.88 259.747 1314.74 289.074 1408.48 341.477L1554.88 423.328Z" fill="url(#paint2_linear_220_2)"/>
<path d="M1561.41 1333.27L1288.21 1499.9L1329.88 1332.36L1335.72 1216.8C1337.41 1183.23 1336.28 1149.6 1332.33 1116.23L1320.54 1016.56C1314.21 963.098 1299.41 910.984 1276.69 862.175L1258.37 822.845C1212.38 724.051 1142.1 638.52 1054.09 574.238L1045.14 567.699L958.922 500.984L1093.11 532.291L1136.79 546.964C1185.61 563.367 1231.07 588.401 1271.04 620.871L1331.43 669.95L1396.32 732.655C1433.5 768.592 1464.47 810.438 1487.95 856.501C1536.74 952.177 1562.06 1058.09 1561.8 1165.49L1561.41 1333.27Z" fill="url(#paint3_linear_220_2)"/>
<path d="M760.436 1793.92L484.32 1632.2L651.577 1589.52L756.044 1539.92C786.413 1525.51 815.512 1508.57 843.034 1489.26L925.122 1431.7C969.229 1400.78 1008.12 1363.02 1040.35 1319.86L1066.22 1285.18C1131.44 1197.82 1173.47 1095.35 1188.39 987.337L1189.9 976.392L1207.79 868.83L1243.79 1001.88L1251.56 1047.33C1260.24 1098.09 1259.74 1150 1250.08 1200.59L1235.48 1277.06L1211 1363.94C1196.98 1413.71 1174.81 1460.81 1145.39 1503.32C1084.27 1591.63 1003.01 1664.12 908.33 1714.78L760.436 1793.92Z" fill="url(#paint4_linear_220_2)"/>
<path d="M0 1308.32L10.3341 988.403L127.631 1115.09L221.037 1183.26C248.201 1203.1 276.984 1220.59 307.081 1235.58L396.772 1280.27C445.001 1304.31 496.747 1320.5 550.07 1328.23L592.807 1334.44C700.705 1350.09 810.802 1338.15 912.823 1299.73L923.139 1295.85L1026.17 1260.26L926.459 1355.39L890.236 1383.92C849.785 1415.76 803.949 1440.08 754.898 1455.71L680.754 1479.37L592.738 1499.29C542.33 1510.71 490.377 1513.69 438.993 1508.11C332.242 1496.5 229.781 1459.64 140.092 1400.58L0 1308.32Z" fill="url(#paint5_linear_220_2)"/>
<path d="M825.706 968.313H665.781L664.925 880.238H799.196C822.859 880.238 842.24 877.245 857.349 871.262C872.457 864.99 883.721 856.013 891.13 844.324C898.83 832.354 902.679 817.819 902.679 800.717C902.679 781.334 898.972 765.658 891.558 753.688C884.434 741.719 873.17 733.023 857.777 727.611C842.668 722.194 823.14 719.485 799.196 719.485H710.251V1241.51H581.969V619.013H799.196C835.401 619.013 867.757 622.434 896.263 629.272C925.054 636.115 949.43 646.521 969.387 660.487C989.338 674.452 1004.59 692.124 1015.14 713.498C1025.69 734.591 1030.96 759.676 1030.96 788.747C1030.96 814.397 1025.12 838.056 1013.43 859.72C1002.03 881.379 983.925 899.05 959.121 912.731C934.607 926.411 902.537 933.967 862.909 935.392L825.706 968.313ZM820.15 1241.51H630.716L680.747 1141.46H820.15C842.668 1141.46 861.056 1137.9 875.309 1130.78C889.562 1123.36 900.113 1113.39 906.952 1100.85C913.796 1088.31 917.217 1073.91 917.217 1057.67C917.217 1039.42 914.081 1023.6 907.807 1010.21C901.824 996.814 892.128 986.555 878.731 979.427C865.333 972.019 847.658 968.313 825.706 968.313H702.129L702.984 880.238H856.926L886.43 914.869C924.342 914.299 954.844 920.999 977.937 934.965C1001.31 948.645 1018.28 966.459 1028.82 988.408C1039.65 1010.35 1045.07 1033.87 1045.07 1058.95C1045.07 1098.85 1036.37 1132.49 1018.99 1159.85C1001.6 1186.93 976.083 1207.3 942.444 1220.98C909.09 1234.67 868.327 1241.51 820.15 1241.51Z" fill="#848688"/>
<path d="M860.554 930.637L860.526 930.665L807.432 975.859C744.496 1029.43 708.236 1107.91 708.236 1190.55V1207.53C708.236 1226.01 699.644 1243.43 684.986 1254.69C674.592 1262.67 661.848 1267.01 648.74 1267.01H633.162C616.214 1267.01 599.652 1262 585.551 1252.6C569.674 1242.01 557.771 1226.44 551.737 1208.32L550.564 1204.81C547.276 1194.95 545.602 1184.62 545.602 1174.24V1140.68C545.602 1120.69 547.575 1100.76 551.493 1081.16L555.26 1062.35C559.386 1041.71 566.473 1021.65 576.196 1002.99C593.443 969.862 618.886 941.435 649.954 920.723L697.943 888.736L815.72 829.862C822.555 826.441 829.628 823.516 836.881 821.097L850.863 816.439C866.588 811.197 880.882 802.363 892.601 790.646C902.83 780.419 910.869 768.224 916.241 754.801L934.74 708.564C938.741 698.567 940.792 687.898 940.792 677.129V606.791C940.792 603.135 943.759 600.173 947.415 600.173C949.627 600.173 951.697 601.277 952.925 603.121L972.223 632.059C978.294 641.164 982.195 651.538 983.63 662.391L987.672 692.943V740.873C987.672 761.731 984.31 782.457 977.71 802.248L974.689 811.316C972.831 816.894 970.577 822.334 967.942 827.6C960.275 842.936 949.512 856.524 936.336 867.5L860.554 930.637Z" fill="#373435" stroke="white" stroke-width="0.5"/>
<path d="M1872.02 1538.78C1872.02 1536.43 1871.67 1534.34 1870.95 1532.47C1870.28 1530.54 1869.02 1528.81 1867.16 1527.26C1865.31 1525.63 1862.69 1524.05 1859.33 1522.48C1855.98 1520.91 1851.62 1519.3 1846.29 1517.63C1840.34 1515.7 1834.7 1513.54 1829.35 1511.14C1824.07 1508.73 1819.4 1505.95 1815.31 1502.77C1811.29 1499.53 1808.11 1495.78 1805.77 1491.51C1803.5 1487.26 1802.35 1482.31 1802.35 1476.67C1802.35 1471.2 1803.54 1466.26 1805.96 1461.82C1808.35 1457.32 1811.72 1453.48 1816.03 1450.3C1820.35 1447.05 1825.45 1444.57 1831.34 1442.81C1837.28 1441.08 1843.8 1440.22 1850.88 1440.22C1860.53 1440.22 1868.96 1441.95 1876.17 1445.43C1883.38 1448.92 1888.95 1453.69 1892.92 1459.75C1896.94 1465.81 1898.94 1472.74 1898.94 1480.54H1872.11C1872.11 1476.7 1871.31 1473.34 1869.69 1470.45C1868.14 1467.52 1865.72 1465.21 1862.48 1463.53C1859.3 1461.85 1855.29 1461.01 1850.42 1461.01C1845.75 1461.01 1841.85 1461.73 1838.71 1463.17C1835.6 1464.55 1833.26 1466.44 1831.69 1468.84C1830.14 1471.17 1829.35 1473.82 1829.35 1476.75C1829.35 1478.98 1829.89 1480.99 1830.98 1482.79C1832.12 1484.58 1833.8 1486.27 1836.02 1487.82C1838.24 1489.39 1840.97 1490.85 1844.21 1492.23C1847.45 1493.62 1851.2 1494.97 1855.46 1496.29C1862.6 1498.46 1868.87 1500.88 1874.28 1503.59C1879.73 1506.27 1884.3 1509.32 1887.97 1512.66C1891.62 1516.03 1894.39 1519.84 1896.25 1524.09C1898.11 1528.36 1899.03 1533.19 1899.03 1538.6C1899.03 1544.29 1897.92 1549.39 1895.7 1553.89C1893.49 1558.4 1890.27 1562.2 1886.08 1565.32C1881.87 1568.44 1876.86 1570.82 1871.04 1572.44C1865.21 1574.05 1858.7 1574.86 1851.51 1574.86C1845.03 1574.86 1838.64 1574.02 1832.32 1572.34C1826.02 1570.61 1820.29 1567.99 1815.13 1564.51C1810.03 1561.04 1805.96 1556.6 1802.88 1551.19C1799.83 1545.8 1798.3 1539.41 1798.3 1532.02H1825.39C1825.39 1536.11 1826.02 1539.55 1827.28 1542.37C1828.54 1545.2 1830.32 1547.48 1832.6 1549.21C1834.93 1550.96 1837.7 1552.22 1840.88 1552.99C1844.12 1553.77 1847.67 1554.17 1851.51 1554.17C1856.18 1554.17 1860.02 1553.51 1863.03 1552.19C1866.09 1550.87 1868.33 1549.04 1869.78 1546.69C1871.29 1544.35 1872.02 1541.71 1872.02 1538.78ZM1941.71 1434.72V1573.07H1915.78V1434.72H1941.71ZM2003.1 1475.67L1960.8 1523.92L1938.1 1546.87L1928.65 1528.15L1946.66 1505.29L1971.95 1475.67H2003.1ZM1976.19 1573.07L1947.38 1528.06L1965.29 1512.4L2006.07 1573.07H1976.19ZM2041.64 1475.67V1573.07H2015.61V1475.67H2041.64ZM2014 1450.3C2014 1446.52 2015.32 1443.4 2017.96 1440.93C2020.59 1438.47 2024.14 1437.24 2028.58 1437.24C2032.96 1437.24 2036.48 1438.47 2039.1 1440.93C2041.81 1443.4 2043.16 1446.52 2043.16 1450.3C2043.16 1454.08 2041.81 1457.19 2039.1 1459.65C2036.48 1462.11 2032.96 1463.34 2028.58 1463.34C2024.14 1463.34 2020.59 1462.11 2017.96 1459.65C2015.32 1457.19 2014 1454.08 2014 1450.3ZM2088.44 1496.47V1573.07H2062.52V1475.67H2086.82L2088.44 1496.47ZM2084.66 1520.94H2077.64C2077.64 1513.75 2078.57 1507.27 2080.43 1501.51C2082.29 1495.69 2084.9 1490.74 2088.27 1486.66C2091.62 1482.51 2095.61 1479.36 2100.24 1477.21C2104.92 1474.98 2110.15 1473.88 2115.91 1473.88C2120.45 1473.88 2124.64 1474.54 2128.42 1475.86C2132.2 1477.18 2135.44 1479.28 2138.14 1482.16C2140.89 1485.05 2143 1488.85 2144.44 1493.59C2145.94 1498.33 2146.68 1504.13 2146.68 1510.96V1573.07H2120.58V1510.87C2120.58 1506.55 2119.98 1503.19 2118.78 1500.79C2117.58 1498.4 2115.82 1496.7 2113.47 1495.75C2111.19 1494.72 2108.36 1494.22 2105.01 1494.22C2101.53 1494.22 2098.5 1494.91 2095.92 1496.29C2093.4 1497.67 2091.3 1499.59 2089.62 1502.05C2087.99 1504.45 2086.77 1507.27 2085.92 1510.51C2085.09 1513.75 2084.66 1517.23 2084.66 1520.94ZM2267.23 1464.43L2231.59 1573.07H2202.87L2251.57 1442.02H2269.84L2267.23 1464.43ZM2296.85 1573.07L2261.11 1464.43L2258.23 1442.02H2276.68L2325.66 1573.07H2296.85ZM2295.22 1524.28V1545.43H2226.01V1524.28H2295.22ZM2358.69 1496.47V1573.07H2332.77V1475.67H2357.08L2358.69 1496.47ZM2354.91 1520.94H2347.89C2347.89 1513.75 2348.83 1507.27 2350.69 1501.51C2352.55 1495.69 2355.16 1490.74 2358.52 1486.66C2361.87 1482.51 2365.87 1479.36 2370.49 1477.21C2375.18 1474.98 2380.39 1473.88 2386.14 1473.88C2390.71 1473.88 2394.89 1474.54 2398.67 1475.86C2402.45 1477.18 2405.69 1479.28 2408.4 1482.16C2411.15 1485.05 2413.25 1488.85 2414.69 1493.59C2416.18 1498.33 2416.94 1504.13 2416.94 1510.96V1573.07H2390.83V1510.87C2390.83 1506.55 2390.23 1503.19 2389.04 1500.79C2387.84 1498.4 2386.05 1496.7 2383.72 1495.75C2381.44 1494.72 2378.62 1494.22 2375.25 1494.22C2371.78 1494.22 2368.75 1494.91 2366.17 1496.29C2363.65 1497.67 2361.55 1499.59 2359.86 1502.05C2358.25 1504.45 2357.02 1507.27 2356.17 1510.51C2355.32 1513.75 2354.91 1517.23 2354.91 1520.94ZM2484.37 1475.67V1494.03H2427.66V1475.67H2484.37ZM2441.7 1451.65H2467.62V1543.72C2467.62 1546.54 2467.99 1548.7 2468.7 1550.21C2469.48 1551.7 2470.62 1552.76 2472.12 1553.36C2473.63 1553.89 2475.52 1554.17 2477.79 1554.17C2479.42 1554.17 2480.85 1554.11 2482.11 1553.99C2483.43 1553.8 2484.55 1553.62 2485.44 1553.45L2485.53 1572.53C2483.32 1573.25 2480.91 1573.82 2478.33 1574.23C2475.75 1574.66 2472.91 1574.86 2469.79 1574.86C2464.09 1574.86 2459.09 1573.94 2454.84 1572.08C2450.64 1570.16 2447.4 1567.09 2445.11 1562.89C2442.84 1558.69 2441.7 1553.17 2441.7 1546.33V1451.65ZM2526.49 1475.67V1573.07H2500.49V1475.67H2526.49ZM2498.86 1450.3C2498.86 1446.52 2500.18 1443.4 2502.82 1440.93C2505.46 1438.47 2508.99 1437.24 2513.45 1437.24C2517.83 1437.24 2521.33 1438.47 2523.97 1440.93C2526.68 1443.4 2528.03 1446.52 2528.03 1450.3C2528.03 1454.08 2526.68 1457.19 2523.97 1459.65C2521.33 1462.11 2517.83 1463.34 2513.45 1463.34C2508.99 1463.34 2505.46 1462.11 2502.82 1459.65C2500.18 1457.19 2498.86 1454.08 2498.86 1450.3ZM2600.51 1551.1V1507.72C2600.51 1504.6 2599.98 1501.93 2598.97 1499.72C2597.95 1497.43 2596.36 1495.66 2594.19 1494.4C2592.1 1493.14 2589.37 1492.51 2586 1492.51C2583.13 1492.51 2580.64 1493.02 2578.54 1494.03C2576.43 1495 2574.81 1496.41 2573.66 1498.27C2572.53 1500.07 2571.96 1502.2 2571.96 1504.66H2546.04C2546.04 1500.52 2546.99 1496.58 2548.91 1492.86C2550.83 1489.15 2553.63 1485.87 2557.29 1483.06C2560.94 1480.18 2565.31 1477.93 2570.34 1476.3C2575.44 1474.69 2581.15 1473.88 2587.44 1473.88C2595.01 1473.88 2601.73 1475.14 2607.6 1477.66C2613.49 1480.18 2618.11 1483.95 2621.48 1488.99C2624.89 1494.03 2626.61 1500.35 2626.61 1507.9V1549.58C2626.61 1554.91 2626.93 1559.3 2627.59 1562.71C2628.25 1566.08 2629.22 1569.01 2630.48 1571.53V1573.07H2604.29C2603.03 1570.42 2602.06 1567.12 2601.39 1563.16C2600.8 1559.15 2600.51 1555.12 2600.51 1551.1ZM2603.91 1513.75L2604.1 1528.42H2589.61C2586.18 1528.42 2583.22 1528.81 2580.68 1529.59C2578.17 1530.38 2576.11 1531.48 2574.48 1532.93C2572.86 1534.31 2571.67 1535.92 2570.88 1537.78C2570.16 1539.64 2569.79 1541.68 2569.79 1543.91C2569.79 1546.12 2570.32 1548.13 2571.33 1549.93C2572.34 1551.67 2573.82 1553.05 2575.74 1554.08C2577.66 1555.03 2579.92 1555.51 2582.5 1555.51C2586.4 1555.51 2589.78 1554.74 2592.67 1553.17C2595.54 1551.62 2597.77 1549.7 2599.32 1547.41C2600.95 1545.14 2601.79 1542.97 2601.84 1540.93L2608.69 1551.91C2607.73 1554.37 2606.41 1556.92 2604.73 1559.56C2603.1 1562.2 2601.04 1564.69 2598.52 1567.03C2596 1569.32 2592.96 1571.21 2589.43 1572.71C2585.88 1574.14 2581.69 1574.86 2576.83 1574.86C2570.64 1574.86 2565.03 1573.63 2559.99 1571.18C2555.01 1568.66 2551.05 1565.2 2548.1 1560.82C2545.22 1556.38 2543.78 1551.34 2543.78 1545.7C2543.78 1540.61 2544.75 1536.08 2546.67 1532.11C2548.59 1528.15 2551.4 1524.81 2555.12 1522.13C2558.9 1519.36 2563.62 1517.29 2569.25 1515.91C2574.91 1514.48 2581.44 1513.75 2588.89 1513.75H2603.91ZM2708.25 1475.67H2731.75V1569.82C2731.75 1578.7 2729.78 1586.23 2725.81 1592.42C2721.91 1598.66 2716.44 1603.37 2709.42 1606.55C2702.4 1609.79 2694.24 1611.41 2684.94 1611.41C2680.86 1611.41 2676.54 1610.87 2671.98 1609.79C2667.48 1608.7 2663.16 1607.03 2659.01 1604.74C2654.92 1602.47 2651.51 1599.59 2648.75 1596.11L2660.18 1580.8C2663.19 1584.28 2666.66 1586.98 2670.63 1588.9C2674.59 1590.88 2678.97 1591.88 2683.76 1591.88C2688.45 1591.88 2692.41 1591.01 2695.66 1589.27C2698.9 1587.58 2701.39 1585.1 2703.12 1581.79C2704.86 1578.55 2705.73 1574.63 2705.73 1570.01V1498.18L2708.25 1475.67ZM2642.73 1525.54V1523.65C2642.73 1516.21 2643.61 1509.45 2645.41 1503.4C2647.27 1497.27 2649.88 1492.04 2653.25 1487.64C2656.68 1483.26 2660.81 1479.88 2665.68 1477.47C2670.53 1475.08 2676.04 1473.88 2682.15 1473.88C2688.63 1473.88 2694.05 1475.08 2698.45 1477.47C2702.83 1479.88 2706.42 1483.29 2709.25 1487.73C2712.06 1492.11 2714.26 1497.3 2715.81 1503.31C2717.44 1509.25 2718.7 1515.77 2719.59 1522.83V1526.98C2718.7 1533.75 2717.35 1540.07 2715.55 1545.87C2713.75 1551.7 2711.37 1556.8 2708.44 1561.19C2705.5 1565.51 2701.83 1568.87 2697.45 1571.27C2693.14 1573.66 2687.97 1574.86 2681.96 1574.86C2675.97 1574.86 2670.53 1573.63 2665.68 1571.18C2660.87 1568.72 2656.77 1565.26 2653.34 1560.82C2649.92 1556.38 2647.27 1551.16 2645.41 1545.17C2643.61 1539.16 2642.73 1532.62 2642.73 1525.54ZM2668.64 1523.65V1525.54C2668.64 1529.56 2669.03 1533.31 2669.81 1536.8C2670.59 1540.27 2671.79 1543.35 2673.42 1546.06C2675.1 1548.7 2677.17 1550.78 2679.63 1552.27C2682.15 1553.71 2685.11 1554.43 2688.54 1554.43C2693.29 1554.43 2697.16 1553.45 2700.16 1551.47C2703.15 1549.42 2705.41 1546.63 2706.9 1543.09C2708.4 1539.55 2709.28 1535.48 2709.51 1530.85V1519.06C2709.39 1515.28 2708.88 1511.9 2707.99 1508.88C2707.08 1505.83 2705.82 1503.21 2704.21 1501.05C2702.58 1498.9 2700.48 1497.21 2697.9 1496.01C2695.31 1494.81 2692.26 1494.22 2688.72 1494.22C2685.3 1494.22 2682.33 1495 2679.82 1496.57C2677.34 1498.06 2675.28 1500.13 2673.59 1502.77C2671.98 1505.41 2670.75 1508.53 2669.9 1512.13C2669.06 1515.68 2668.64 1519.52 2668.64 1523.65ZM2779.28 1475.67V1573.07H2753.27V1475.67H2779.28ZM2751.64 1450.3C2751.64 1446.52 2752.96 1443.4 2755.61 1440.93C2758.25 1438.47 2761.8 1437.24 2766.24 1437.24C2770.61 1437.24 2774.12 1438.47 2776.76 1440.93C2779.46 1443.4 2780.82 1446.52 2780.82 1450.3C2780.82 1454.08 2779.46 1457.19 2776.76 1459.65C2774.12 1462.11 2770.61 1463.34 2766.24 1463.34C2761.8 1463.34 2758.25 1462.11 2755.61 1459.65C2752.96 1457.19 2751.64 1454.08 2751.64 1450.3ZM2826.09 1496.47V1573.07H2800.17V1475.67H2824.48L2826.09 1496.47ZM2822.31 1520.94H2815.3C2815.3 1513.75 2816.23 1507.27 2818.09 1501.51C2819.95 1495.69 2822.56 1490.74 2825.91 1486.66C2829.27 1482.51 2833.27 1479.36 2837.89 1477.21C2842.56 1474.98 2847.79 1473.88 2853.55 1473.88C2858.11 1473.88 2862.29 1474.54 2866.07 1475.86C2869.85 1477.18 2873.09 1479.28 2875.78 1482.16C2878.55 1485.05 2880.65 1488.85 2882.1 1493.59C2883.59 1498.33 2884.34 1504.13 2884.34 1510.96V1573.07H2858.23V1510.87C2858.23 1506.55 2857.64 1503.19 2856.44 1500.79C2855.24 1498.4 2853.46 1496.7 2851.12 1495.75C2848.85 1494.72 2846.02 1494.22 2842.66 1494.22C2839.18 1494.22 2836.14 1494.91 2833.56 1496.29C2831.04 1497.67 2828.95 1499.59 2827.26 1502.05C2825.65 1504.45 2824.42 1507.27 2823.57 1510.51C2822.73 1513.75 2822.31 1517.23 2822.31 1520.94ZM2965.72 1475.67H2989.21V1569.82C2989.21 1578.7 2987.23 1586.23 2983.28 1592.42C2979.38 1598.66 2973.91 1603.37 2966.89 1606.55C2959.87 1609.79 2951.71 1611.41 2942.4 1611.41C2938.33 1611.41 2934.01 1610.87 2929.45 1609.79C2924.95 1608.7 2920.61 1607.03 2916.48 1604.74C2912.39 1602.47 2908.98 1599.59 2906.22 1596.11L2917.65 1580.8C2920.65 1584.28 2924.13 1586.98 2928.1 1588.9C2932.06 1590.88 2936.44 1591.88 2941.23 1591.88C2945.92 1591.88 2949.88 1591.01 2953.13 1589.27C2956.36 1587.58 2958.86 1585.1 2960.59 1581.79C2962.32 1578.55 2963.2 1574.63 2963.2 1570.01V1498.18L2965.72 1475.67ZM2900.18 1525.54V1523.65C2900.18 1516.21 2901.09 1509.45 2902.88 1503.4C2904.74 1497.27 2907.35 1492.04 2910.72 1487.64C2914.15 1483.26 2918.28 1479.88 2923.15 1477.47C2928 1475.08 2933.49 1473.88 2939.62 1473.88C2946.1 1473.88 2951.53 1475.08 2955.9 1477.47C2960.28 1479.88 2963.89 1483.29 2966.71 1487.73C2969.53 1492.11 2971.73 1497.3 2973.28 1503.31C2974.91 1509.25 2976.17 1515.77 2977.06 1522.83V1526.98C2976.17 1533.75 2974.82 1540.07 2973.02 1545.87C2971.21 1551.7 2968.84 1556.8 2965.91 1561.19C2962.95 1565.51 2959.3 1568.87 2954.92 1571.27C2950.61 1573.66 2945.44 1574.86 2939.43 1574.86C2933.43 1574.86 2928 1573.63 2923.15 1571.18C2918.34 1568.72 2914.22 1565.26 2910.81 1560.82C2907.39 1556.38 2904.74 1551.16 2902.88 1545.17C2901.09 1539.16 2900.18 1532.62 2900.18 1525.54ZM2926.11 1523.65V1525.54C2926.11 1529.56 2926.5 1533.31 2927.28 1536.8C2928.06 1540.27 2929.26 1543.35 2930.87 1546.06C2932.57 1548.7 2934.64 1550.78 2937.1 1552.27C2939.62 1553.71 2942.58 1554.43 2946.01 1554.43C2950.74 1554.43 2954.62 1553.45 2957.62 1551.47C2960.62 1549.42 2962.86 1546.63 2964.37 1543.09C2965.88 1539.55 2966.74 1535.48 2966.98 1530.85V1519.06C2966.86 1515.28 2966.35 1511.9 2965.45 1508.88C2964.56 1505.83 2963.29 1503.21 2961.67 1501.05C2960.05 1498.9 2957.95 1497.21 2955.37 1496.01C2952.79 1494.81 2949.73 1494.22 2946.19 1494.22C2942.77 1494.22 2939.8 1495 2937.27 1496.57C2934.81 1498.06 2932.75 1500.13 2931.06 1502.77C2929.45 1505.41 2928.22 1508.53 2927.37 1512.13C2926.53 1515.68 2926.11 1519.52 2926.11 1523.65ZM3075.91 1502.96L3101.13 1486.66C3104.84 1484.2 3107.33 1481.83 3108.59 1479.55C3109.85 1477.27 3110.48 1474.72 3110.48 1471.89C3110.48 1469.07 3109.44 1466.47 3107.33 1464.06C3105.23 1461.6 3102.29 1460.38 3098.51 1460.38C3095.81 1460.38 3093.52 1461.01 3091.66 1462.27C3089.8 1463.46 3088.39 1465.09 3087.44 1467.14C3086.53 1469.16 3086.09 1471.45 3086.09 1473.97C3086.09 1476.67 3086.81 1479.42 3088.25 1482.25C3089.68 1485.01 3091.63 1487.95 3094.09 1491.07C3096.56 1494.12 3099.28 1497.46 3102.29 1501.05L3164.14 1573.07H3134.7L3084.29 1514.74C3080.01 1509.45 3076.3 1504.63 3073.12 1500.25C3069.94 1495.81 3067.45 1491.48 3065.65 1487.29C3063.85 1483.09 3062.95 1478.76 3062.95 1474.32C3062.95 1467.48 3064.42 1461.51 3067.35 1456.41C3070.31 1451.25 3074.44 1447.27 3079.78 1444.45C3085.12 1441.56 3091.4 1440.13 3098.59 1440.13C3105.38 1440.13 3111.27 1441.54 3116.24 1444.35C3121.22 1447.12 3125.06 1450.77 3127.76 1455.34C3130.53 1459.9 3131.9 1464.91 3131.9 1470.36C3131.9 1474.45 3131.16 1478.22 3129.65 1481.71C3128.15 1485.12 3126.09 1488.3 3123.45 1491.25C3120.81 1494.12 3117.77 1496.8 3114.35 1499.26L3085.64 1519.69C3083.41 1521.73 3081.73 1523.74 3080.6 1525.72C3079.44 1527.7 3078.68 1529.59 3078.25 1531.39C3077.83 1533.12 3077.62 1534.82 3077.62 1536.43C3077.62 1539.92 3078.37 1543.03 3079.88 1545.8C3081.37 1548.55 3083.47 1550.71 3086.18 1552.27C3088.88 1553.83 3092.03 1554.62 3095.62 1554.62C3100.54 1554.62 3105.32 1553.54 3109.94 1551.37C3114.57 1549.21 3118.7 1546.12 3122.36 1542.09C3126.03 1538.03 3128.93 1533.19 3131.1 1527.61C3133.25 1522.04 3134.34 1515.87 3134.34 1509.16H3156.3C3156.3 1515.87 3155.64 1522.27 3154.32 1528.33C3153 1534.34 3150.88 1539.92 3147.92 1545.07C3144.99 1550.17 3141.09 1554.71 3136.23 1558.65C3135.86 1558.96 3135.36 1559.41 3134.7 1560.01C3134.1 1560.56 3133.59 1560.98 3133.16 1561.27C3127.4 1565.89 3121.4 1569.35 3115.17 1571.62C3108.92 1573.85 3101.95 1574.96 3094.27 1574.96C3085.52 1574.96 3077.93 1573.37 3071.5 1570.18C3065.14 1567 3060.21 1562.62 3056.74 1557.04C3053.31 1551.47 3051.61 1545.07 3051.61 1537.87C3051.61 1532.59 3052.62 1528 3054.66 1524.09C3056.77 1520.15 3059.64 1516.47 3063.31 1513.12C3066.97 1509.76 3071.17 1506.36 3075.91 1502.96ZM3311.6 1495.38V1516.44H3243.18V1495.38H3311.6ZM3251.19 1442.02V1573.07H3224.17V1442.02H3251.19ZM3330.86 1442.02V1573.07H3303.94V1442.02H3330.86ZM3405.3 1551.1V1507.72C3405.3 1504.6 3404.8 1501.93 3403.78 1499.72C3402.75 1497.43 3401.17 1495.66 3399 1494.4C3396.9 1493.14 3394.18 1492.51 3390.81 1492.51C3387.93 1492.51 3385.44 1493.02 3383.34 1494.03C3381.24 1495 3379.61 1496.41 3378.47 1498.27C3377.34 1500.07 3376.77 1502.2 3376.77 1504.66H3350.84C3350.84 1500.52 3351.8 1496.58 3353.73 1492.86C3355.64 1489.15 3358.44 1485.87 3362.1 1483.06C3365.75 1480.18 3370.1 1477.93 3375.14 1476.3C3380.24 1474.69 3385.96 1473.88 3392.26 1473.88C3399.81 1473.88 3406.53 1475.14 3412.42 1477.66C3418.3 1480.18 3422.93 1483.95 3426.29 1488.99C3429.7 1494.03 3431.42 1500.35 3431.42 1507.9V1549.58C3431.42 1554.91 3431.74 1559.3 3432.4 1562.71C3433.06 1566.08 3434.01 1569.01 3435.29 1571.53V1573.07H3409.08C3407.82 1570.42 3406.87 1567.12 3406.21 1563.16C3405.61 1559.15 3405.3 1555.12 3405.3 1551.1ZM3408.73 1513.75L3408.91 1528.42H3394.41C3391 1528.42 3388.02 1528.81 3385.5 1529.59C3382.98 1530.38 3380.9 1531.48 3379.29 1532.93C3377.68 1534.31 3376.46 1535.92 3375.7 1537.78C3374.97 1539.64 3374.61 1541.68 3374.61 1543.91C3374.61 1546.12 3375.11 1548.13 3376.14 1549.93C3377.15 1551.67 3378.63 1553.05 3380.55 1554.08C3382.47 1555.03 3384.72 1555.51 3387.3 1555.51C3391.2 1555.51 3394.59 1554.74 3397.48 1553.17C3400.35 1551.62 3402.58 1549.7 3404.13 1547.41C3405.76 1545.14 3406.59 1542.97 3406.65 1540.93L3413.51 1551.91C3412.54 1554.37 3411.22 1556.92 3409.54 1559.56C3407.91 1562.2 3405.84 1564.69 3403.32 1567.03C3400.8 1569.32 3397.77 1571.21 3394.24 1572.71C3390.69 1574.14 3386.49 1574.86 3381.62 1574.86C3375.45 1574.86 3369.84 1573.63 3364.8 1571.18C3359.81 1568.66 3355.86 1565.2 3352.91 1560.82C3350.04 1556.38 3348.59 1551.34 3348.59 1545.7C3348.59 1540.61 3349.54 1536.08 3351.47 1532.11C3353.38 1528.15 3356.21 1524.81 3359.93 1522.13C3363.71 1519.36 3368.43 1517.29 3374.07 1515.91C3379.71 1514.48 3386.25 1513.75 3393.69 1513.75H3408.73ZM3478.77 1475.67V1573.07H3452.75V1475.67H3478.77ZM3451.13 1450.3C3451.13 1446.52 3452.45 1443.4 3455.1 1440.93C3457.72 1438.47 3461.27 1437.24 3465.71 1437.24C3470.09 1437.24 3473.61 1438.47 3476.25 1440.93C3478.94 1443.4 3480.29 1446.52 3480.29 1450.3C3480.29 1454.08 3478.94 1457.19 3476.25 1459.65C3473.61 1462.11 3470.09 1463.34 3465.71 1463.34C3461.27 1463.34 3457.72 1462.11 3455.1 1459.65C3452.45 1457.19 3451.13 1454.08 3451.13 1450.3ZM3526.12 1496.92V1573.07H3500.19V1475.67H3524.59L3526.12 1496.92ZM3555.47 1475.04L3555.01 1499.09C3553.75 1498.9 3552.23 1498.75 3550.43 1498.63C3548.68 1498.46 3547.1 1498.36 3545.65 1498.36C3542 1498.36 3538.81 1498.84 3536.11 1499.79C3533.47 1500.7 3531.26 1502.05 3529.44 1503.84C3527.71 1505.64 3526.39 1507.84 3525.49 1510.42C3524.65 1513 3524.17 1515.93 3524.05 1519.24L3518.82 1517.63C3518.82 1511.31 3519.45 1505.54 3520.71 1500.25C3521.98 1494.91 3523.81 1490.25 3526.2 1486.31C3528.68 1482.34 3531.67 1479.28 3535.2 1477.12C3538.75 1474.95 3542.81 1473.88 3547.36 1473.88C3548.8 1473.88 3550.27 1474 3551.78 1474.23C3553.27 1474.41 3554.5 1474.69 3555.47 1475.04ZM3619.92 1475.67V1494.03H3563.21V1475.67H3619.92ZM3577.25 1451.65H3603.17V1543.72C3603.17 1546.54 3603.54 1548.7 3604.26 1550.21C3605.03 1551.7 3606.19 1552.76 3607.68 1553.36C3609.18 1553.89 3611.07 1554.17 3613.34 1554.17C3614.97 1554.17 3616.42 1554.11 3617.68 1553.99C3619 1553.8 3620.1 1553.62 3621 1553.45L3621.09 1572.53C3618.88 1573.25 3616.46 1573.82 3613.9 1574.23C3611.32 1574.66 3608.46 1574.86 3605.34 1574.86C3599.64 1574.86 3594.66 1573.94 3590.39 1572.08C3586.2 1570.16 3582.96 1567.09 3580.67 1562.89C3578.39 1558.69 3577.25 1553.17 3577.25 1546.33V1451.65ZM3660.62 1496.92V1573.07H3634.68V1475.67H3659.08L3660.62 1496.92ZM3689.97 1475.04L3689.5 1499.09C3688.24 1498.9 3686.72 1498.75 3684.93 1498.63C3683.17 1498.46 3681.59 1498.36 3680.15 1498.36C3676.49 1498.36 3673.31 1498.84 3670.61 1499.79C3667.96 1500.7 3665.75 1502.05 3663.94 1503.84C3662.2 1505.64 3660.88 1507.84 3659.99 1510.42C3659.14 1513 3658.67 1515.93 3658.55 1519.24L3653.32 1517.63C3653.32 1511.31 3653.95 1505.54 3655.21 1500.25C3656.47 1494.91 3658.3 1490.25 3660.7 1486.31C3663.17 1482.34 3666.17 1479.28 3669.7 1477.12C3673.25 1474.95 3677.29 1473.88 3681.85 1473.88C3683.3 1473.88 3684.77 1474 3686.26 1474.23C3687.77 1474.41 3689 1474.69 3689.97 1475.04ZM3751.71 1551.1V1507.72C3751.71 1504.6 3751.21 1501.93 3750.19 1499.72C3749.16 1497.43 3747.58 1495.66 3745.42 1494.4C3743.31 1493.14 3740.59 1492.51 3737.22 1492.51C3734.34 1492.51 3731.85 1493.02 3729.76 1494.03C3727.65 1495 3726.03 1496.41 3724.89 1498.27C3723.75 1500.07 3723.18 1502.2 3723.18 1504.66H3697.25C3697.25 1500.52 3698.21 1496.58 3700.14 1492.86C3702.06 1489.15 3704.84 1485.87 3708.51 1483.06C3712.17 1480.18 3716.51 1477.93 3721.56 1476.3C3726.66 1474.69 3732.35 1473.88 3738.67 1473.88C3746.23 1473.88 3752.94 1475.14 3758.83 1477.66C3764.71 1480.18 3769.34 1483.95 3772.68 1488.99C3776.11 1494.03 3777.82 1500.35 3777.82 1507.9V1549.58C3777.82 1554.91 3778.15 1559.3 3778.82 1562.71C3779.48 1566.08 3780.43 1569.01 3781.69 1571.53V1573.07H3755.49C3754.23 1570.42 3753.28 1567.12 3752.62 1563.16C3752.02 1559.15 3751.71 1555.12 3751.71 1551.1ZM3755.14 1513.75L3755.32 1528.42H3740.82C3737.41 1528.42 3734.43 1528.81 3731.91 1529.59C3729.39 1530.38 3727.31 1531.48 3725.7 1532.93C3724.08 1534.31 3722.88 1535.92 3722.09 1537.78C3721.38 1539.64 3721.02 1541.68 3721.02 1543.91C3721.02 1546.12 3721.52 1548.13 3722.55 1549.93C3723.56 1551.67 3725.04 1553.05 3726.96 1554.08C3728.88 1555.03 3731.13 1555.51 3733.71 1555.51C3737.61 1555.51 3741.01 1554.74 3743.88 1553.17C3746.77 1551.62 3748.98 1549.7 3750.54 1547.41C3752.17 1545.14 3753 1542.97 3753.06 1540.93L3759.9 1551.91C3758.95 1554.37 3757.63 1556.92 3755.95 1559.56C3754.32 1562.2 3752.25 1564.69 3749.73 1567.03C3747.21 1569.32 3744.18 1571.21 3740.65 1572.71C3737.1 1574.14 3732.91 1574.86 3728.04 1574.86C3721.86 1574.86 3716.25 1573.63 3711.2 1571.18C3706.22 1568.66 3702.26 1565.2 3699.32 1560.82C3696.45 1556.38 3695 1551.34 3695 1545.7C3695 1540.61 3695.96 1536.08 3697.88 1532.11C3699.8 1528.15 3702.62 1524.81 3706.35 1522.13C3710.12 1519.36 3714.84 1517.29 3720.48 1515.91C3726.12 1514.48 3732.66 1513.75 3740.1 1513.75H3755.14ZM3823.2 1496.47V1573.07H3797.27V1475.67H3821.58L3823.2 1496.47ZM3819.41 1520.94H3812.39C3812.39 1513.75 3813.32 1507.27 3815.18 1501.51C3817.04 1495.69 3819.65 1490.74 3823.02 1486.66C3826.38 1482.51 3830.36 1479.36 3834.99 1477.21C3839.67 1474.98 3844.9 1473.88 3850.66 1473.88C3855.22 1473.88 3859.39 1474.54 3863.17 1475.86C3866.94 1477.18 3870.18 1479.28 3872.89 1482.16C3875.65 1485.05 3877.75 1488.85 3879.19 1493.59C3880.69 1498.33 3881.45 1504.13 3881.45 1510.96V1573.07H3855.33V1510.87C3855.33 1506.55 3854.73 1503.19 3853.53 1500.79C3852.33 1498.4 3850.56 1496.7 3848.21 1495.75C3845.94 1494.72 3843.11 1494.22 3839.76 1494.22C3836.28 1494.22 3833.25 1494.91 3830.67 1496.29C3828.15 1497.67 3826.05 1499.59 3824.37 1502.05C3822.74 1504.45 3821.51 1507.27 3820.67 1510.51C3819.84 1513.75 3819.41 1517.23 3819.41 1520.94ZM3953.83 1546.15C3953.83 1544.29 3953.27 1542.62 3952.2 1541.12C3951.12 1539.61 3949.11 1538.23 3946.16 1536.97C3943.28 1535.64 3939.11 1534.45 3933.65 1533.37C3928.74 1532.3 3924.14 1530.94 3919.89 1529.32C3915.68 1527.64 3912.02 1525.63 3908.9 1523.3C3905.83 1520.94 3903.43 1518.19 3901.7 1515.01C3899.96 1511.77 3899.09 1508.08 3899.09 1503.94C3899.09 1499.85 3899.96 1496.01 3901.7 1492.42C3903.49 1488.82 3906.04 1485.64 3909.35 1482.88C3912.71 1480.05 3916.78 1477.87 3921.59 1476.3C3926.45 1474.69 3931.92 1473.88 3937.97 1473.88C3946.44 1473.88 3953.7 1475.23 3959.76 1477.93C3965.89 1480.62 3970.56 1484.35 3973.8 1489.08C3977.1 1493.77 3978.76 1499.12 3978.76 1505.1H3952.83C3952.83 1502.58 3952.29 1500.35 3951.21 1498.36C3950.18 1496.32 3948.57 1494.72 3946.34 1493.59C3944.2 1492.39 3941.37 1491.79 3937.88 1491.79C3935.01 1491.79 3932.52 1492.29 3930.41 1493.32C3928.31 1494.28 3926.7 1495.6 3925.55 1497.27C3924.46 1498.9 3923.93 1500.7 3923.93 1502.68C3923.93 1504.19 3924.23 1505.54 3924.83 1506.73C3925.5 1507.87 3926.54 1508.92 3927.98 1509.88C3929.43 1510.83 3931.29 1511.74 3933.56 1512.57C3935.9 1513.35 3938.79 1514.08 3942.21 1514.74C3949.23 1516.18 3955.5 1518.07 3961.02 1520.41C3966.55 1522.69 3970.93 1525.81 3974.17 1529.78C3977.41 1533.68 3979.03 1538.81 3979.03 1545.17C3979.03 1549.48 3978.07 1553.45 3976.15 1557.04C3974.23 1560.64 3971.46 1563.79 3967.87 1566.49C3964.26 1569.13 3959.94 1571.21 3954.9 1572.71C3949.93 1574.14 3944.3 1574.86 3938.06 1574.86C3929 1574.86 3921.31 1573.25 3915.02 1570.01C3908.78 1566.77 3904.03 1562.65 3900.79 1557.67C3897.61 1552.63 3896.03 1547.48 3896.03 1542.19H3920.59C3920.72 1545.74 3921.62 1548.58 3923.3 1550.74C3925.04 1552.91 3927.23 1554.46 3929.87 1555.43C3932.58 1556.38 3935.48 1556.86 3938.6 1556.86C3941.96 1556.86 3944.76 1556.41 3946.97 1555.51C3949.2 1554.56 3950.88 1553.3 3952.01 1551.73C3953.21 1550.11 3953.83 1548.26 3953.83 1546.15ZM4021.78 1494.4V1610.52H3995.86V1475.67H4019.89L4021.78 1494.4ZM4083.45 1523.3V1525.18C4083.45 1532.26 4082.61 1538.83 4080.93 1544.89C4079.3 1550.96 4076.91 1556.23 4073.73 1560.73C4070.55 1565.17 4066.58 1568.66 4061.85 1571.18C4057.17 1573.63 4051.77 1574.86 4045.64 1574.86C4039.69 1574.86 4034.53 1573.66 4030.16 1571.27C4025.78 1568.87 4022.09 1565.51 4019.09 1561.19C4016.14 1556.8 4013.78 1551.73 4011.98 1545.97C4010.17 1540.2 4008.8 1534.03 4007.83 1527.43V1522.48C4008.8 1515.4 4010.17 1508.92 4011.98 1503.03C4013.78 1497.1 4016.14 1491.97 4019.09 1487.64C4022.09 1483.26 4025.74 1479.88 4030.06 1477.47C4034.46 1475.08 4039.59 1473.88 4045.46 1473.88C4051.65 1473.88 4057.07 1475.04 4061.76 1477.38C4066.49 1479.73 4070.45 1483.09 4073.64 1487.47C4076.87 1491.85 4079.3 1497.07 4080.93 1503.12C4082.61 1509.19 4083.45 1515.91 4083.45 1523.3ZM4057.44 1525.18V1523.3C4057.44 1519.15 4057.08 1515.34 4056.35 1511.86C4055.69 1508.31 4054.61 1505.23 4053.11 1502.58C4051.68 1499.95 4049.76 1497.9 4047.35 1496.47C4045.01 1494.97 4042.17 1494.22 4038.81 1494.22C4035.26 1494.22 4032.23 1494.78 4029.71 1495.94C4027.25 1497.07 4025.24 1498.72 4023.67 1500.88C4022.12 1503.03 4020.95 1505.62 4020.17 1508.62C4019.38 1511.62 4018.91 1515.01 4018.73 1518.79V1531.3C4019.03 1535.74 4019.86 1539.73 4021.24 1543.28C4022.63 1546.75 4024.76 1549.52 4027.64 1551.56C4030.52 1553.59 4034.3 1554.62 4038.97 1554.62C4042.4 1554.62 4045.29 1553.86 4047.62 1552.36C4049.96 1550.8 4051.85 1548.67 4053.29 1545.97C4054.8 1543.28 4055.84 1540.15 4056.44 1536.61C4057.1 1533.06 4057.44 1529.26 4057.44 1525.18ZM4126.93 1434.81V1573.07H4100.92V1434.81H4126.93ZM4200.93 1551.1V1507.72C4200.93 1504.6 4200.42 1501.93 4199.4 1499.72C4198.37 1497.43 4196.79 1495.66 4194.62 1494.4C4192.54 1493.14 4189.8 1492.51 4186.44 1492.51C4183.56 1492.51 4181.08 1493.02 4178.97 1494.03C4176.87 1495 4175.25 1496.41 4174.1 1498.27C4172.96 1500.07 4172.4 1502.2 4172.4 1504.66H4146.48C4146.48 1500.52 4147.43 1496.58 4149.35 1492.86C4151.27 1489.15 4154.06 1485.87 4157.72 1483.06C4161.38 1480.18 4165.73 1477.93 4170.78 1476.3C4175.88 1474.69 4181.58 1473.88 4187.88 1473.88C4195.44 1473.88 4202.17 1475.14 4208.04 1477.66C4213.92 1480.18 4218.55 1483.95 4221.91 1488.99C4225.32 1494.03 4227.04 1500.35 4227.04 1507.9V1549.58C4227.04 1554.91 4227.37 1559.3 4228.03 1562.71C4228.69 1566.08 4229.66 1569.01 4230.92 1571.53V1573.07H4204.72C4203.46 1570.42 4202.49 1567.12 4201.83 1563.16C4201.23 1559.15 4200.93 1555.12 4200.93 1551.1ZM4204.35 1513.75L4204.54 1528.42H4190.05C4186.62 1528.42 4183.64 1528.81 4181.12 1529.59C4178.6 1530.38 4176.55 1531.48 4174.92 1532.93C4173.3 1534.31 4172.1 1535.92 4171.32 1537.78C4170.6 1539.64 4170.23 1541.68 4170.23 1543.91C4170.23 1546.12 4170.75 1548.13 4171.77 1549.93C4172.78 1551.67 4174.25 1553.05 4176.17 1554.08C4178.1 1555.03 4180.35 1555.51 4182.93 1555.51C4186.84 1555.51 4190.22 1554.74 4193.11 1553.17C4195.98 1551.62 4198.21 1549.7 4199.76 1547.41C4201.39 1545.14 4202.22 1542.97 4202.28 1540.93L4209.13 1551.91C4208.16 1554.37 4206.84 1556.92 4205.17 1559.56C4203.54 1562.2 4201.48 1564.69 4198.96 1567.03C4196.44 1569.32 4193.4 1571.21 4189.86 1572.71C4186.31 1574.14 4182.12 1574.86 4177.25 1574.86C4171.07 1574.86 4165.47 1573.63 4160.42 1571.18C4155.45 1568.66 4151.48 1565.2 4148.54 1560.82C4145.66 1556.38 4144.22 1551.34 4144.22 1545.7C4144.22 1540.61 4145.19 1536.08 4147.11 1532.11C4149.03 1528.15 4151.84 1524.81 4155.55 1522.13C4159.33 1519.36 4164.05 1517.29 4169.69 1515.91C4175.33 1514.48 4181.88 1513.75 4189.33 1513.75H4204.35ZM4272.42 1496.47V1573.07H4246.48V1475.67H4270.78L4272.42 1496.47ZM4268.64 1520.94H4261.61C4261.61 1513.75 4262.54 1507.27 4264.4 1501.51C4266.25 1495.69 4268.87 1490.74 4272.23 1486.66C4275.59 1482.51 4279.59 1479.36 4284.2 1477.21C4288.89 1474.98 4294.11 1473.88 4299.87 1473.88C4304.43 1473.88 4308.6 1474.54 4312.37 1475.86C4316.16 1477.18 4319.4 1479.28 4322.1 1482.16C4324.87 1485.05 4326.97 1488.85 4328.4 1493.59C4329.91 1498.33 4330.66 1504.13 4330.66 1510.96V1573.07H4304.56V1510.87C4304.56 1506.55 4303.96 1503.19 4302.74 1500.79C4301.54 1498.4 4299.78 1496.7 4297.44 1495.75C4295.16 1494.72 4292.34 1494.22 4288.98 1494.22C4285.49 1494.22 4282.46 1494.91 4279.88 1496.29C4277.36 1497.67 4275.26 1499.59 4273.58 1502.05C4271.97 1504.45 4270.72 1507.27 4269.9 1510.51C4269.05 1513.75 4268.64 1517.23 4268.64 1520.94ZM4398.09 1475.67V1494.03H4341.37V1475.67H4398.09ZM4355.41 1451.65H4381.35V1543.72C4381.35 1546.54 4381.7 1548.7 4382.42 1550.21C4383.2 1551.7 4384.34 1552.76 4385.85 1553.36C4387.34 1553.89 4389.23 1554.17 4391.51 1554.17C4393.13 1554.17 4394.57 1554.11 4395.83 1553.99C4397.15 1553.8 4398.26 1553.62 4399.17 1553.45L4399.26 1572.53C4397.03 1573.25 4394.64 1573.82 4392.05 1574.23C4389.47 1574.66 4386.62 1574.86 4383.5 1574.86C4377.79 1574.86 4372.82 1573.94 4368.56 1572.08C4364.35 1570.16 4361.11 1567.09 4358.84 1562.89C4356.55 1558.69 4355.41 1553.17 4355.41 1546.33V1451.65ZM4536.37 1529.59H4563.27C4562.73 1538.41 4560.31 1546.24 4555.99 1553.08C4551.73 1559.93 4545.75 1565.26 4538.07 1569.1C4530.45 1572.94 4521.26 1574.86 4510.52 1574.86C4502.12 1574.86 4494.59 1573.42 4487.92 1570.55C4481.27 1567.61 4475.56 1563.4 4470.82 1557.95C4466.14 1552.48 4462.57 1545.87 4460.12 1538.15C4457.64 1530.41 4456.41 1521.73 4456.41 1512.13V1503.03C4456.41 1493.43 4457.67 1484.77 4460.19 1477.03C4462.77 1469.22 4466.45 1462.6 4471.18 1457.13C4475.99 1451.68 4481.72 1447.47 4488.37 1444.54C4495.04 1441.59 4502.48 1440.13 4510.71 1440.13C4521.64 1440.13 4530.83 1442.11 4538.34 1446.06C4545.91 1450.02 4551.75 1455.49 4555.9 1462.45C4560.09 1469.41 4562.62 1477.33 4563.45 1486.21H4536.45C4536.15 1480.93 4535.09 1476.46 4533.3 1472.8C4531.5 1469.07 4528.76 1466.29 4525.11 1464.43C4521.51 1462.51 4516.7 1461.54 4510.71 1461.54C4506.21 1461.54 4502.27 1462.39 4498.91 1464.06C4495.54 1465.75 4492.73 1468.3 4490.44 1471.71C4488.17 1475.14 4486.45 1479.45 4485.31 1484.67C4484.24 1489.84 4483.7 1495.9 4483.7 1502.87V1512.13C4483.7 1518.91 4484.21 1524.88 4485.22 1530.04C4486.25 1535.14 4487.8 1539.46 4489.91 1543C4492.07 1546.49 4494.82 1549.12 4498.19 1550.93C4501.62 1552.67 4505.72 1553.54 4510.52 1553.54C4516.16 1553.54 4520.82 1552.63 4524.47 1550.84C4528.13 1549.04 4530.93 1546.37 4532.85 1542.82C4534.83 1539.29 4536 1534.88 4536.37 1529.59ZM4606.75 1434.81V1573.07H4580.74V1434.81H4606.75ZM4655.54 1475.67V1573.07H4629.56V1475.67H4655.54ZM4627.9 1450.3C4627.9 1446.52 4629.24 1443.4 4631.86 1440.93C4634.52 1438.47 4638.07 1437.24 4642.48 1437.24C4646.9 1437.24 4650.39 1438.47 4653.01 1440.93C4655.73 1443.4 4657.06 1446.52 4657.06 1450.3C4657.06 1454.08 4655.73 1457.19 4653.01 1459.65C4650.39 1462.11 4646.9 1463.34 4642.48 1463.34C4638.07 1463.34 4634.52 1462.11 4631.86 1459.65C4629.24 1457.19 4627.9 1454.08 4627.9 1450.3ZM4702.36 1496.47V1573.07H4676.42V1475.67H4700.75L4702.36 1496.47ZM4698.59 1520.94H4691.56C4691.56 1513.75 4692.48 1507.27 4694.36 1501.51C4696.2 1495.69 4698.82 1490.74 4702.18 1486.66C4705.54 1482.51 4709.54 1479.36 4714.14 1477.21C4718.83 1474.98 4724.07 1473.88 4729.82 1473.88C4734.37 1473.88 4738.56 1474.54 4742.33 1475.86C4746.1 1477.18 4749.37 1479.28 4752.08 1482.16C4754.79 1485.05 4756.91 1488.85 4758.38 1493.59C4759.85 1498.33 4760.59 1504.13 4760.59 1510.96V1573.07H4734.51V1510.87C4734.51 1506.55 4733.91 1503.19 4732.72 1500.79C4731.52 1498.4 4729.73 1496.7 4727.38 1495.75C4725.13 1494.72 4722.28 1494.22 4718.92 1494.22C4715.47 1494.22 4712.44 1494.91 4709.86 1496.29C4707.29 1497.67 4705.22 1499.59 4703.51 1502.05C4701.9 1504.45 4700.71 1507.27 4699.83 1510.51C4699.01 1513.75 4698.59 1517.23 4698.59 1520.94ZM4807.69 1475.67V1573.07H4781.65V1475.67H4807.69ZM4780.05 1450.3C4780.05 1446.52 4781.38 1443.4 4784 1440.93C4786.67 1438.47 4790.21 1437.24 4794.62 1437.24C4798.99 1437.24 4802.54 1438.47 4805.16 1440.93C4807.87 1443.4 4809.2 1446.52 4809.2 1450.3C4809.2 1454.08 4807.87 1457.19 4805.16 1459.65C4802.54 1462.11 4798.99 1463.34 4794.62 1463.34C4790.21 1463.34 4786.67 1462.11 4784 1459.65C4781.38 1457.19 4780.05 1454.08 4780.05 1450.3ZM4869.36 1554.62C4872.54 1554.62 4875.34 1554.02 4877.82 1552.82C4880.26 1551.56 4882.19 1549.81 4883.57 1547.59C4885.05 1545.31 4885.78 1542.65 4885.83 1539.57H4910.25C4910.16 1546.43 4908.32 1552.51 4904.73 1557.86C4901.14 1563.14 4896.31 1567.3 4890.24 1570.36C4884.17 1573.37 4877.41 1574.86 4869.91 1574.86C4862.33 1574.86 4855.75 1573.6 4850.09 1571.08C4844.53 1568.56 4839.84 1565.08 4836.16 1560.64C4832.43 1556.14 4829.63 1550.93 4827.74 1544.98C4825.9 1538.98 4824.98 1532.56 4824.98 1525.72V1523.11C4824.98 1516.21 4825.9 1509.79 4827.74 1503.84C4829.63 1497.86 4832.43 1492.63 4836.16 1488.19C4839.84 1483.69 4844.53 1480.18 4850.09 1477.66C4855.66 1475.14 4862.23 1473.88 4869.73 1473.88C4877.69 1473.88 4884.68 1475.41 4890.7 1478.47C4896.77 1481.53 4901.51 1485.91 4904.91 1491.6C4908.41 1497.24 4910.16 1503.94 4910.25 1511.68H4885.83C4885.78 1508.44 4885.09 1505.5 4883.76 1502.87C4882.52 1500.22 4880.63 1498.12 4878.19 1496.57C4875.76 1494.94 4872.81 1494.12 4869.27 1494.12C4865.5 1494.12 4862.37 1494.94 4859.98 1496.57C4857.59 1498.12 4855.75 1500.28 4854.41 1503.03C4853.08 1505.73 4852.16 1508.82 4851.61 1512.31C4851.15 1515.74 4850.92 1519.33 4850.92 1523.11V1525.72C4850.92 1529.5 4851.15 1533.12 4851.61 1536.61C4852.12 1540.1 4852.99 1543.19 4854.32 1545.87C4855.7 1548.58 4857.59 1550.71 4859.98 1552.27C4862.37 1553.83 4865.5 1554.62 4869.36 1554.62Z" fill="#5B4A46"/>
<path d="M1932.45 644.778H1837.32L1837.93 574.574H1932.45C1956.05 574.574 1975.96 569.271 1992.17 558.672C2008.36 547.87 2020.58 532.171 2028.76 511.565C2037.17 490.964 2041.38 466.064 2041.38 436.86V415.558C2041.38 393.157 2038.97 373.455 2034.17 356.454C2029.56 339.452 2022.67 325.151 2013.46 313.55C2004.26 301.949 1992.97 293.248 1979.55 287.448C1966.15 281.448 1950.75 278.446 1933.34 278.446H1835.52V207.941H1933.34C1962.56 207.941 1989.27 212.941 2013.46 222.943C2037.88 232.743 2058.99 246.845 2076.78 265.246C2094.58 283.647 2108.29 305.65 2117.89 331.251C2127.69 356.654 2132.6 384.955 2132.6 416.159V436.86C2132.6 467.862 2127.69 496.165 2117.89 521.769C2108.29 547.369 2094.58 569.373 2076.78 587.776C2059.18 605.976 2038.07 620.075 2013.46 630.077C1989.06 639.876 1962.06 644.778 1932.45 644.778ZM1888.34 207.941V644.778H1798.3V207.941H1888.34ZM2198.02 207.941H2360.95C2394.37 207.941 2423.07 212.941 2447.08 222.943C2471.28 232.943 2489.88 247.744 2502.9 267.346C2515.89 286.947 2522.39 311.049 2522.39 339.652C2522.39 363.055 2518.4 383.157 2510.39 399.957C2502.59 416.558 2491.5 430.46 2477.09 441.66C2462.89 452.662 2446.17 461.46 2426.97 468.064L2398.47 483.064H2256.83L2256.23 412.858H2361.57C2377.36 412.858 2390.46 410.059 2400.87 404.458C2411.27 398.857 2419.07 391.057 2424.28 381.055C2429.67 371.055 2432.38 359.454 2432.38 346.252C2432.38 332.25 2429.78 320.151 2424.57 309.949C2419.38 299.749 2411.47 291.947 2400.87 286.548C2390.27 281.146 2376.96 278.446 2360.95 278.446H2288.03V644.778H2198.02V207.941ZM2442.27 644.778L2342.65 450.061L2437.77 449.462L2538.6 640.58V644.778H2442.27ZM2590.52 603.075C2590.52 590.273 2594.91 579.572 2603.72 570.973C2612.72 562.369 2624.62 558.07 2639.42 558.07C2654.23 558.07 2666.03 562.369 2674.83 570.973C2683.84 579.572 2688.34 590.273 2688.34 603.075C2688.34 615.877 2683.84 626.578 2674.83 635.177C2666.03 643.78 2654.23 648.08 2639.42 648.08C2624.62 648.08 2612.72 643.78 2603.72 635.177C2594.91 626.578 2590.52 615.877 2590.52 603.075ZM3094.04 453.061H2981.83L2981.22 391.257H3075.44C3092.05 391.257 3105.66 389.157 3116.26 384.955C3126.86 380.556 3134.76 374.255 3139.97 366.055C3145.36 357.654 3148.06 347.452 3148.06 335.452C3148.06 321.851 3145.47 310.849 3140.26 302.448C3135.27 294.049 3127.35 287.947 3116.55 284.147C3105.95 280.346 3092.24 278.446 3075.44 278.446H3013.03V644.778H2923.01V207.941H3075.44C3100.85 207.941 3123.56 210.341 3143.56 215.14C3163.76 219.943 3180.86 227.242 3194.88 237.042C3208.87 246.845 3219.58 259.244 3226.99 274.246C3234.37 289.047 3238.08 306.649 3238.08 327.051C3238.08 345.053 3233.98 361.654 3225.79 376.856C3217.79 392.057 3205.08 404.458 3187.67 414.059C3170.46 423.66 3147.95 428.959 3120.16 429.96L3094.04 453.061ZM3090.14 644.778H2957.21L2992.32 574.574H3090.14C3105.95 574.574 3118.86 572.072 3128.86 567.073C3138.86 561.873 3146.26 554.869 3151.06 546.068C3155.87 537.271 3158.26 527.168 3158.26 515.768C3158.26 502.966 3156.07 491.866 3151.66 482.466C3147.46 473.062 3140.66 465.866 3131.25 460.863C3121.85 455.662 3109.45 453.061 3094.04 453.061H3007.33L3007.93 391.257H3115.95L3136.66 415.558C3163.27 415.159 3184.68 419.86 3200.87 429.66C3217.27 439.261 3229.18 451.762 3236.59 467.163C3244.18 482.563 3247.99 499.067 3247.99 516.67C3247.99 544.67 3241.89 568.274 3229.67 587.472C3217.48 606.473 3199.58 620.779 3175.96 630.376C3152.56 639.977 3123.96 644.778 3090.14 644.778ZM3485.35 571.571V426.96C3485.35 416.558 3483.64 407.658 3480.25 400.257C3476.85 392.656 3471.55 386.756 3464.35 382.556C3457.34 378.355 3448.24 376.255 3437.05 376.255C3427.44 376.255 3419.13 377.956 3412.12 381.357C3405.13 384.556 3399.72 389.257 3395.93 395.456C3392.12 401.458 3390.23 408.558 3390.23 416.758H3303.81C3303.81 402.957 3307 389.856 3313.41 377.456C3319.8 365.055 3329.11 354.153 3341.31 344.753C3353.51 335.153 3368.02 327.652 3384.82 322.251C3401.83 316.849 3420.83 314.15 3441.84 314.15C3467.05 314.15 3489.45 318.35 3509.06 326.751C3528.66 335.153 3544.07 347.753 3555.27 364.554C3566.67 381.357 3572.37 402.358 3572.37 427.56V566.471C3572.37 584.272 3573.48 598.876 3575.67 610.276C3577.87 621.478 3581.08 631.277 3585.27 639.679V644.778H3497.94C3493.75 635.977 3490.56 624.977 3488.35 611.775C3486.34 598.375 3485.35 584.975 3485.35 571.571ZM3496.75 447.061L3497.35 495.967H3449.04C3437.64 495.967 3427.73 497.264 3419.33 499.867C3410.93 502.465 3404.03 506.167 3398.63 510.968C3393.22 515.566 3389.23 520.969 3386.62 527.168C3384.22 533.371 3383.02 540.168 3383.02 547.571C3383.02 554.97 3384.73 561.67 3388.12 567.671C3391.52 573.474 3396.42 578.073 3402.83 581.471C3409.23 584.672 3416.73 586.272 3425.34 586.272C3438.33 586.272 3449.64 583.674 3459.25 578.473C3468.85 573.272 3476.25 566.871 3481.45 559.27C3486.86 551.669 3489.65 544.472 3489.85 537.671L3512.65 574.275C3509.46 582.474 3505.06 590.976 3499.45 599.773C3494.04 608.575 3487.15 616.875 3478.74 624.678C3470.35 632.28 3460.24 638.58 3448.44 643.578C3436.65 648.379 3422.63 650.779 3406.42 650.779C3385.82 650.779 3367.12 646.677 3350.31 638.478C3333.7 630.077 3320.51 618.576 3310.7 603.976C3301.1 589.174 3296.29 572.371 3296.29 553.572C3296.29 536.567 3299.5 521.47 3305.9 508.268C3312.3 495.066 3321.71 483.965 3334.1 474.962C3346.72 465.765 3362.42 458.862 3381.22 454.263C3400.03 449.462 3421.83 447.061 3446.64 447.061H3496.75ZM3725.41 390.957V644.778H3638.99V320.151H3720.31L3725.41 390.957ZM3823.23 318.051L3821.74 398.157C3817.53 397.557 3812.43 397.057 3806.44 396.658C3800.63 396.057 3795.33 395.758 3790.52 395.758C3778.32 395.758 3767.72 397.357 3758.72 400.558C3749.91 403.558 3742.51 408.058 3736.52 414.059C3730.71 420.059 3726.32 427.361 3723.31 435.96C3720.51 444.561 3718.91 454.363 3718.51 465.365L3701.1 459.961C3701.1 438.962 3703.21 419.66 3707.4 402.057C3711.61 384.256 3717.71 368.754 3725.72 355.554C3733.91 342.352 3743.93 332.151 3755.72 324.951C3767.52 317.75 3781.03 314.15 3796.22 314.15C3801.03 314.15 3805.93 314.55 3810.93 315.35C3815.94 315.951 3820.04 316.849 3823.23 318.051ZM4049.79 573.971V183.938H4136.81V644.778H4058.5L4049.79 573.971ZM3844.54 486.366V480.066C3844.54 455.263 3847.34 432.76 3852.95 412.559C3858.54 392.157 3866.74 374.656 3877.54 360.053C3888.36 345.452 3901.65 334.151 3917.46 326.151C3933.27 318.151 3951.27 314.15 3971.48 314.15C3990.49 314.15 4007.08 318.151 4021.29 326.151C4035.68 334.151 4047.9 345.552 4057.9 360.354C4068.1 374.956 4076.31 392.257 4082.5 412.259C4088.71 432.06 4093.21 453.762 4096 477.367V491.167C4093.21 513.768 4088.71 534.769 4082.5 554.17C4076.31 573.571 4068.1 590.576 4057.9 605.176C4047.9 619.579 4035.68 630.776 4021.29 638.777C4006.88 646.779 3990.09 650.779 3970.88 650.779C3950.68 650.779 3932.67 646.677 3916.86 638.478C3901.25 630.279 3888.05 618.779 3877.25 603.976C3866.65 589.174 3858.54 571.773 3852.95 551.77C3847.34 531.766 3844.54 509.97 3844.54 486.366ZM3930.96 480.066V486.366C3930.96 499.766 3931.96 512.269 3933.96 523.866C3936.17 535.468 3939.66 545.769 3944.47 554.773C3949.46 563.569 3955.87 570.472 3963.67 575.475C3971.68 580.276 3981.38 582.671 3992.77 582.671C4007.59 582.671 4019.78 579.374 4029.39 572.771C4038.99 565.97 4046.3 556.672 4051.29 544.872C4056.5 533.068 4059.5 519.465 4060.3 504.065V464.762C4059.7 452.161 4057.9 440.862 4054.89 430.86C4052.09 420.66 4047.9 411.959 4042.29 404.758C4036.9 397.557 4030.09 391.957 4021.89 387.955C4013.88 383.956 4004.39 381.955 3993.38 381.955C3982.17 381.955 3972.57 384.556 3964.57 389.756C3956.58 394.757 3950.06 401.658 3945.07 410.458C3940.26 419.259 3936.67 429.66 3934.27 441.66C3932.07 453.462 3930.96 466.261 3930.96 480.066ZM4353.78 650.779C4328.57 650.779 4305.97 646.779 4285.95 638.777C4265.95 630.578 4248.96 619.275 4234.94 604.873C4221.14 590.475 4210.54 573.773 4203.14 554.773C4195.73 535.569 4192.03 515.166 4192.03 493.567V481.565C4192.03 456.962 4195.53 434.461 4202.54 414.059C4209.54 393.656 4219.55 375.955 4232.55 360.953C4245.74 345.953 4261.75 334.452 4280.56 326.45C4299.36 318.25 4320.57 314.15 4344.18 314.15C4367.18 314.15 4387.58 317.951 4405.39 325.551C4423.2 333.151 4438.1 343.953 4450.1 357.953C4462.3 371.955 4471.5 388.756 4477.71 408.359C4483.91 427.76 4487 449.361 4487 473.164V509.17H4228.95V451.562H4402.09V444.962C4402.09 432.96 4399.89 422.259 4395.48 412.858C4391.28 403.257 4384.88 395.658 4376.28 390.057C4367.67 384.456 4356.67 381.656 4343.27 381.656C4331.87 381.656 4322.07 384.157 4313.86 389.157C4305.66 394.157 4298.96 401.157 4293.76 410.159C4288.76 419.159 4284.95 429.76 4282.36 441.962C4279.96 453.962 4278.76 467.163 4278.76 481.565V493.567C4278.76 506.567 4280.56 518.569 4284.15 529.568C4287.96 540.568 4293.26 550.068 4300.05 558.07C4307.06 566.071 4315.47 572.27 4325.27 576.675C4335.27 581.076 4346.57 583.274 4359.18 583.274C4374.79 583.274 4389.29 580.276 4402.69 574.275C4416.3 568.071 4427.99 558.769 4437.79 546.371L4479.81 591.974C4473.01 601.773 4463.69 611.177 4451.9 620.176C4440.3 629.176 4426.3 636.579 4409.89 642.378C4393.48 647.979 4374.79 650.779 4353.78 650.779ZM4594.13 183.938V229.543C4594.13 242.544 4591.63 255.945 4586.64 269.745C4581.83 283.548 4575.33 296.648 4567.13 309.049C4558.92 321.25 4549.92 331.652 4540.12 340.252L4499.61 316.849C4507.01 305.049 4513.32 292.248 4518.51 278.446C4523.72 264.446 4526.32 248.244 4526.32 229.843V183.938H4594.13ZM4773.61 555.071C4773.61 548.868 4771.81 543.272 4768.18 538.269C4764.59 533.27 4757.88 528.667 4748.08 524.469C4738.47 520.068 4724.58 516.067 4706.36 512.467C4689.95 508.866 4674.68 504.369 4660.46 498.966C4646.44 493.365 4634.25 486.665 4623.85 478.866C4613.64 471.062 4605.64 461.861 4599.85 451.261C4594.04 440.461 4591.14 428.159 4591.14 414.359C4591.14 400.758 4594.04 387.955 4599.85 375.955C4605.83 363.955 4614.33 353.352 4625.33 344.153C4636.55 334.752 4650.16 327.45 4666.17 322.251C4682.36 316.849 4700.57 314.15 4720.76 314.15C4748.95 314.15 4773.19 318.65 4793.38 327.652C4813.8 336.652 4829.39 349.053 4840.2 364.854C4851.2 380.456 4856.71 398.257 4856.71 418.259H4770.29C4770.29 409.858 4768.5 402.358 4764.87 395.758C4761.46 388.957 4756.08 383.656 4748.68 379.856C4741.46 375.855 4732.07 373.856 4720.48 373.856C4710.87 373.856 4702.55 375.556 4695.56 378.955C4688.57 382.155 4683.14 386.556 4679.37 392.157C4675.78 397.557 4673.94 403.558 4673.94 410.159C4673.94 415.159 4674.95 419.66 4676.98 423.66C4679.18 427.46 4682.68 430.96 4687.46 434.161C4692.25 437.361 4698.45 440.361 4706.04 443.161C4713.86 445.762 4723.47 448.161 4734.88 450.363C4758.29 455.161 4779.17 461.46 4797.57 469.264C4816.01 476.865 4830.59 487.267 4841.4 500.465C4852.21 513.469 4857.59 530.571 4857.59 551.77C4857.59 566.172 4854.41 579.374 4847.98 591.372C4841.58 603.374 4832.38 613.877 4820.38 622.876C4808.38 631.677 4793.98 638.58 4777.19 643.578C4760.59 648.379 4741.87 650.779 4721.08 650.779C4690.87 650.779 4665.25 645.381 4644.27 634.579C4623.44 623.777 4607.62 610.078 4596.84 593.473C4586.24 576.675 4580.94 559.472 4580.94 541.869H4662.86C4663.27 553.669 4666.26 563.174 4671.87 570.371C4677.67 577.572 4684.98 582.773 4693.76 585.973C4702.78 589.174 4712.48 590.774 4722.88 590.774C4734.05 590.774 4743.39 589.275 4750.79 586.272C4758.2 583.076 4763.76 578.873 4767.58 573.672C4771.58 568.274 4773.61 562.07 4773.61 555.071Z" fill="#848688"/>
<path d="M1789.54 763.166H1983.43C2023.18 763.166 2057.34 769.116 2085.91 781.017C2114.71 792.918 2136.85 810.53 2152.32 833.854C2167.8 857.177 2175.53 885.858 2175.53 919.891C2175.53 947.739 2170.77 971.66 2161.25 991.65C2151.96 1011.4 2138.75 1027.95 2121.61 1041.28C2104.71 1054.37 2084.83 1064.84 2061.98 1072.69L2028.06 1090.54H1859.53L1858.81 1007H1984.14C2002.95 1007 2018.54 1003.67 2030.92 997.007C2043.3 990.344 2052.58 981.06 2058.77 969.159C2065.2 957.258 2068.41 943.454 2068.41 927.745C2068.41 911.085 2065.31 896.687 2059.12 884.547C2052.94 872.412 2043.53 863.127 2030.92 856.703C2018.3 850.275 2002.47 847.065 1983.43 847.065H1896.66V1282.97H1789.54V763.166ZM2080.19 1282.97L1961.65 1051.27L2074.84 1050.56L2194.81 1277.97V1282.97H2080.19ZM2460.12 1195.86V1023.78C2460.12 1011.41 2458.1 1000.81 2454.05 992.009C2450 982.963 2443.69 975.942 2435.12 970.948C2426.79 965.949 2415.96 963.448 2402.63 963.448C2391.2 963.448 2381.32 965.471 2372.99 969.518C2364.66 973.325 2358.23 978.917 2353.71 986.297C2349.19 993.439 2346.93 1001.89 2346.93 1011.64H2244.09C2244.09 995.223 2247.9 979.634 2255.52 964.878C2263.13 950.121 2274.2 937.149 2288.72 925.961C2303.24 914.538 2320.5 905.613 2340.5 899.189C2360.73 892.76 2383.35 889.546 2408.34 889.546C2438.34 889.546 2465 894.544 2488.33 904.541C2511.65 914.538 2529.98 929.534 2543.31 949.523C2556.88 969.518 2563.67 994.51 2563.67 1024.5V1189.79C2563.67 1210.97 2564.98 1228.35 2567.59 1241.92C2570.22 1255.24 2574.02 1266.9 2579.02 1276.9V1282.97H2475.11C2470.11 1272.5 2466.31 1259.41 2463.69 1243.7C2461.31 1227.75 2460.12 1211.81 2460.12 1195.86ZM2473.69 1047.7L2474.4 1105.89H2416.91C2403.34 1105.89 2391.56 1107.44 2381.56 1110.53C2371.57 1113.63 2363.35 1118.03 2356.93 1123.75C2350.5 1129.22 2345.74 1135.65 2342.64 1143.02C2339.78 1150.4 2338.35 1158.5 2338.35 1167.3C2338.35 1176.11 2340.38 1184.08 2344.42 1191.22C2348.47 1198.12 2354.3 1203.6 2361.92 1207.64C2369.54 1211.45 2378.47 1213.36 2388.7 1213.36C2404.17 1213.36 2417.63 1210.26 2429.05 1204.07C2440.48 1197.89 2449.29 1190.27 2455.47 1181.23C2461.9 1172.18 2465.23 1163.61 2465.47 1155.52L2492.61 1199.07C2488.8 1208.83 2483.57 1218.95 2476.9 1229.42C2470.47 1239.89 2462.26 1249.77 2452.26 1259.05C2442.26 1268.1 2430.24 1275.6 2416.2 1281.54C2402.15 1287.26 2385.49 1290.11 2366.21 1290.11C2341.69 1290.11 2319.43 1285.23 2299.44 1275.48C2279.68 1265.48 2263.97 1251.79 2252.3 1234.42C2240.88 1216.8 2235.16 1196.82 2235.16 1174.44C2235.16 1154.21 2238.97 1136.24 2246.59 1120.53C2254.21 1104.82 2265.4 1091.62 2280.15 1080.91C2295.15 1069.96 2313.84 1061.74 2336.22 1056.27C2358.59 1050.56 2384.54 1047.7 2414.05 1047.7H2473.69ZM2871.1 1198.72V734.605H2974.66V1282.97H2881.46L2871.1 1198.72ZM2626.87 1094.47V1086.97C2626.87 1057.46 2630.2 1030.69 2636.87 1006.65C2643.53 982.37 2653.29 961.544 2666.15 944.171C2679 926.793 2694.83 913.347 2713.64 903.829C2732.44 894.305 2753.87 889.546 2777.91 889.546C2800.52 889.546 2820.28 894.305 2837.18 903.829C2854.32 913.347 2868.85 926.913 2880.75 944.525C2892.89 961.903 2902.65 982.49 2910.03 1006.29C2917.4 1029.85 2922.76 1055.67 2926.09 1083.76V1100.18C2922.76 1127.08 2917.4 1152.07 2910.03 1175.16C2902.65 1198.24 2892.89 1218.47 2880.75 1235.85C2868.85 1252.99 2854.32 1266.31 2837.18 1275.83C2820.04 1285.35 2800.05 1290.11 2777.2 1290.11C2753.15 1290.11 2731.73 1285.23 2712.92 1275.48C2694.35 1265.72 2678.64 1252.03 2665.79 1234.42C2653.17 1216.8 2643.53 1196.1 2636.87 1172.3C2630.2 1148.5 2626.87 1122.55 2626.87 1094.47ZM2729.7 1086.97V1094.47C2729.7 1110.42 2730.9 1125.29 2733.28 1139.1C2735.89 1152.9 2740.06 1165.16 2745.77 1175.87C2751.73 1186.34 2759.34 1194.55 2768.63 1200.5C2778.15 1206.21 2789.69 1209.07 2803.26 1209.07C2820.88 1209.07 2835.4 1205.14 2846.82 1197.29C2858.25 1189.2 2866.94 1178.13 2872.89 1164.09C2879.08 1150.04 2882.65 1133.86 2883.6 1115.53V1068.77C2882.89 1053.77 2880.75 1040.32 2877.17 1028.42C2873.84 1016.28 2868.85 1005.93 2862.18 997.366C2855.75 988.794 2847.66 982.131 2837.9 977.372C2828.38 972.612 2817.07 970.23 2803.98 970.23C2790.64 970.23 2779.22 973.325 2769.7 979.515C2760.17 985.465 2752.44 993.673 2746.49 1004.15C2740.77 1014.62 2736.49 1026.99 2733.63 1041.28C2731.02 1055.32 2729.7 1070.55 2729.7 1086.97ZM3163.55 896.687V1282.97H3060.35V896.687H3163.55ZM3053.92 796.013C3053.92 781.017 3059.16 768.638 3069.63 758.88C3080.11 749.122 3094.15 744.243 3111.77 744.243C3129.15 744.243 3143.08 749.122 3153.55 758.88C3164.26 768.638 3169.62 781.017 3169.62 796.013C3169.62 811.004 3164.26 823.383 3153.55 833.141C3143.08 842.899 3129.15 847.778 3111.77 847.778C3094.15 847.778 3080.11 842.899 3069.63 833.141C3059.16 823.383 3053.92 811.004 3053.92 796.013ZM3457.06 1195.86V1023.78C3457.06 1011.41 3455.03 1000.81 3450.99 992.009C3446.94 982.963 3440.63 975.942 3432.06 970.948C3423.73 965.949 3412.9 963.448 3399.57 963.448C3388.14 963.448 3378.26 965.471 3369.93 969.518C3361.6 973.325 3355.17 978.917 3350.65 986.297C3346.13 993.439 3343.87 1001.89 3343.87 1011.64H3241.03C3241.03 995.223 3244.84 979.634 3252.45 964.878C3260.08 950.121 3271.14 937.149 3285.67 925.961C3300.19 914.538 3317.44 905.613 3337.44 899.189C3357.67 892.76 3380.29 889.546 3405.28 889.546C3435.28 889.546 3461.94 894.544 3485.27 904.541C3508.6 914.538 3526.92 929.534 3540.26 949.523C3553.83 969.518 3560.61 994.51 3560.61 1024.5V1189.79C3560.61 1210.97 3561.92 1228.35 3564.54 1241.92C3567.15 1255.24 3570.96 1266.9 3575.96 1276.9V1282.97H3472.06C3467.06 1272.5 3463.25 1259.41 3460.63 1243.7C3458.25 1227.75 3457.06 1211.81 3457.06 1195.86ZM3470.63 1047.7L3471.34 1105.89H3413.85C3400.28 1105.89 3388.5 1107.44 3378.5 1110.53C3368.5 1113.63 3360.29 1118.03 3353.86 1123.75C3347.44 1129.22 3342.68 1135.65 3339.58 1143.02C3336.73 1150.4 3335.3 1158.5 3335.3 1167.3C3335.3 1176.11 3337.32 1184.08 3341.37 1191.22C3345.42 1198.12 3351.25 1203.6 3358.86 1207.64C3366.48 1211.45 3375.41 1213.36 3385.64 1213.36C3401.12 1213.36 3414.56 1210.26 3425.99 1204.07C3437.42 1197.89 3446.23 1190.27 3452.42 1181.23C3458.84 1172.18 3462.18 1163.61 3462.42 1155.52L3489.55 1199.07C3485.74 1208.83 3480.5 1218.95 3473.84 1229.42C3467.41 1239.89 3459.2 1249.77 3449.2 1259.05C3439.2 1268.1 3427.19 1275.6 3413.14 1281.54C3399.09 1287.26 3382.43 1290.11 3363.15 1290.11C3338.63 1290.11 3316.37 1285.23 3296.38 1275.48C3276.62 1265.48 3260.91 1251.79 3249.24 1234.42C3237.82 1216.8 3232.1 1196.82 3232.1 1174.44C3232.1 1154.21 3235.91 1136.24 3243.53 1120.53C3251.15 1104.82 3262.33 1091.62 3277.09 1080.91C3292.09 1069.96 3310.78 1061.74 3333.15 1056.27C3355.53 1050.56 3381.48 1047.7 3411 1047.7H3470.63ZM3740.57 979.156V1282.97H3637.73V896.687H3734.14L3740.57 979.156ZM3725.58 1076.26H3697.72C3697.72 1047.7 3701.42 1022 3708.79 999.15C3716.17 976.061 3726.53 956.426 3739.86 940.244C3753.19 923.818 3769.02 911.324 3787.35 902.757C3805.91 893.951 3826.63 889.546 3849.48 889.546C3867.57 889.546 3884.12 892.167 3899.11 897.4C3914.11 902.637 3926.96 910.97 3937.67 922.393C3948.63 933.815 3956.96 948.93 3962.67 967.733C3968.62 986.537 3971.6 1009.5 3971.6 1036.64V1282.97H3868.05V1036.28C3868.05 1019.14 3865.67 1005.81 3860.9 996.294C3856.14 986.771 3849.12 980.108 3839.84 976.3C3830.79 972.254 3819.6 970.23 3806.27 970.23C3792.47 970.23 3780.44 972.966 3770.21 978.443C3760.21 983.915 3751.88 991.535 3745.21 1001.29C3738.79 1010.81 3733.91 1022 3730.57 1034.85C3727.24 1047.7 3725.58 1061.51 3725.58 1076.26ZM4209.41 1209.78C4222.02 1209.78 4233.21 1207.41 4242.97 1202.65C4252.73 1197.65 4260.35 1190.75 4265.82 1181.94C4271.54 1172.89 4274.51 1162.3 4274.75 1150.16H4371.52C4371.28 1177.3 4364.02 1201.45 4349.74 1222.64C4335.45 1243.58 4316.29 1260.12 4292.25 1272.26C4268.2 1284.16 4241.3 1290.11 4211.55 1290.11C4181.55 1290.11 4155.37 1285.11 4133 1275.12C4110.85 1265.12 4092.41 1251.32 4077.65 1233.7C4062.89 1215.85 4051.82 1195.15 4044.44 1171.58C4037.06 1147.79 4033.37 1122.32 4033.37 1095.18V1084.83C4033.37 1057.46 4037.06 1031.99 4044.44 1008.43C4051.82 984.633 4062.89 963.926 4077.65 946.314C4092.41 928.462 4110.85 914.538 4133 904.541C4155.13 894.544 4181.08 889.546 4210.83 889.546C4242.49 889.546 4270.23 895.616 4294.03 907.756C4318.07 919.891 4336.88 937.269 4350.45 959.879C4364.26 982.251 4371.28 1008.79 4371.52 1039.49H4274.75C4274.51 1026.64 4271.77 1014.98 4266.54 1004.5C4261.54 994.032 4254.16 985.7 4244.4 979.515C4234.88 973.086 4223.09 969.876 4209.05 969.876C4194.05 969.876 4181.79 973.086 4172.27 979.515C4162.75 985.7 4155.37 994.271 4150.13 1005.22C4144.89 1015.93 4141.21 1028.18 4139.06 1041.99C4137.16 1055.55 4136.21 1069.84 4136.21 1084.83V1095.18C4136.21 1110.18 4137.16 1124.58 4139.06 1138.38C4140.97 1152.19 4144.54 1164.45 4149.77 1175.16C4155.25 1185.87 4162.75 1194.31 4172.27 1200.5C4181.79 1206.69 4194.17 1209.78 4209.41 1209.78ZM4608.96 1290.11C4578.98 1290.11 4552.07 1285.35 4528.27 1275.83C4504.47 1266.07 4484.23 1252.63 4467.57 1235.49C4451.14 1218.35 4438.53 1198.48 4429.72 1175.87C4420.91 1153.02 4416.51 1128.74 4416.51 1103.04V1088.76C4416.51 1059.48 4420.67 1032.71 4429 1008.43C4437.34 984.154 4449.24 963.094 4464.71 945.242C4480.42 927.391 4499.47 913.706 4521.84 904.183C4544.22 894.425 4569.46 889.546 4597.54 889.546C4624.92 889.546 4649.2 894.071 4670.4 903.116C4691.56 912.156 4709.31 925.009 4723.57 941.669C4738.11 958.33 4749.05 978.324 4756.46 1001.65C4763.81 1024.74 4767.49 1050.44 4767.49 1078.76V1121.6H4460.43V1053.06H4666.45V1045.2C4666.45 1030.92 4663.83 1018.19 4658.58 1007C4653.62 995.577 4645.98 986.537 4635.77 979.869C4625.52 973.206 4612.41 969.876 4596.47 969.876C4582.9 969.876 4571.24 972.851 4561.48 978.802C4551.72 984.748 4543.75 993.08 4537.55 1003.79C4531.6 1014.5 4527.08 1027.11 4523.99 1041.64C4521.13 1055.91 4519.7 1071.62 4519.7 1088.76V1103.04C4519.7 1118.51 4521.84 1132.79 4526.13 1145.88C4530.65 1158.97 4536.96 1170.28 4545.05 1179.8C4553.39 1189.31 4563.38 1196.7 4575.05 1201.93C4586.95 1207.17 4600.4 1209.78 4615.4 1209.78C4633.98 1209.78 4651.23 1206.21 4667.18 1199.07C4683.37 1191.7 4697.26 1180.63 4708.95 1165.87L4758.94 1220.14C4750.84 1231.8 4739.76 1242.99 4725.73 1253.7C4711.94 1264.41 4695.24 1273.21 4675.74 1280.12C4656.24 1286.78 4633.98 1290.11 4608.96 1290.11Z" fill="#FFB600"/>
</g>
<defs>
<linearGradient id="paint0_linear_220_2" x1="121.639" y1="819.267" x2="468.993" y2="1298.82" gradientUnits="userSpaceOnUse">
<stop stop-color="#FFF100"/>
<stop offset="1" stop-color="#FF8900"/>
</linearGradient>
<linearGradient id="paint1_linear_220_2" x1="467.586" y1="301.992" x2="265.241" y2="858.528" gradientUnits="userSpaceOnUse">
<stop stop-color="#FFF100"/>
<stop offset="1" stop-color="#FF8900"/>
</linearGradient>
<linearGradient id="paint2_linear_220_2" x1="1159.45" y1="337.939" x2="575.645" y2="436.377" gradientUnits="userSpaceOnUse">
<stop stop-color="#FFF100"/>
<stop offset="1" stop-color="#FF8900"/>
</linearGradient>
<linearGradient id="paint3_linear_220_2" x1="1443.91" y1="946.07" x2="1074.11" y2="483.614" gradientUnits="userSpaceOnUse">
<stop stop-color="#FFF100"/>
<stop offset="1" stop-color="#FF8900"/>
</linearGradient>
<linearGradient id="paint4_linear_220_2" x1="1045.67" y1="1506.95" x2="1277.93" y2="962.2" gradientUnits="userSpaceOnUse">
<stop stop-color="#FFF100"/>
<stop offset="1" stop-color="#FF8900"/>
</linearGradient>
<linearGradient id="paint5_linear_220_2" x1="388.205" y1="1422.18" x2="977.592" y2="1366.32" gradientUnits="userSpaceOnUse">
<stop stop-color="#FFF100"/>
<stop offset="1" stop-color="#FF8900"/>
</linearGradient>
<clipPath id="clip0_220_2">
<rect width="4912" height="1798" fill="white"/>
</clipPath>
</defs>
</svg>
