<svg width="8023" height="3393" viewBox="0 0 8023 3393" fill="none" xmlns="http://www.w3.org/2000/svg">
<path d="M7477.09 1851.14C7080.07 2468.5 6472.12 2174.02 6330.49 1913.05C6317.39 1888.87 6289.38 1874.69 6263.27 1883.38L5902.44 2003.42C5874.08 2012.85 5860.28 2044.99 5874.28 2071.39C6137.59 2567.82 6661.13 2693.94 6896.89 2693.94C7546.2 2693.94 7869.32 2224.66 7957.37 1991.7C7967.19 1965.72 7951.19 1938.18 7924.33 1931.12L7533.2 1828.43C7511.82 1822.81 7489.05 1832.53 7477.09 1851.14Z" fill="#5D9255" stroke="#5D9255"/>
<path fill-rule="evenodd" clip-rule="evenodd" d="M4677.29 2116.67C4480.97 2250.5 4533.91 2546.82 4745.3 2641.49C4797.46 2664.85 4941.45 2681.91 5134.92 2592.45C5143.49 2588.48 5151.46 2583.17 5158.54 2576.91L5255.01 2491.61C5265.83 2482.06 5282.27 2483.29 5291.04 2494.76C5295.58 2500.74 5300.41 2507.17 5305.44 2513.89C5343.26 2564.36 5393 2630.82 5437.4 2641.49C5505.67 2657.92 5644.75 2667.02 5775.76 2483.69C5788.02 2466.54 5777.15 2444.41 5756.13 2443.11C5714.61 2440.53 5659.55 2436.27 5624.62 2417.96C5600.9 2405.53 5595.47 2376.67 5595.47 2349.9V1709.02C5595.47 1685.6 5592.43 1661.96 5581.31 1641.33C5562.33 1606.03 5532.53 1557.73 5487.43 1514.04C5374.46 1404.56 5198.4 1374.48 5041.23 1382.3C4956.21 1386.54 4855.6 1433.77 4855.6 1433.77C4789.77 1450.23 4687.61 1519.77 4647.4 1648.86C4642.32 1665.19 4639.66 1682.27 4641.08 1699.31C4644.76 1743.48 4662 1804.81 4698.87 1839.75C4718.14 1858.02 4747.03 1863 4770.96 1851.49C4791.71 1841.49 4816.12 1822.47 4837.21 1788.55C4884.08 1713.18 4931.88 1653.44 5002.66 1610.24C5067.89 1570.42 5308.08 1619.64 5223.57 1809.75C5208.07 1844.54 5175.03 1867.5 5139.2 1880.39C4995.63 1932.07 4765.44 2028.52 4677.29 2116.67ZM5249.08 2224.34C5246.59 2249.95 5242.8 2275.59 5233.28 2299.51C5200.25 2382.51 5119.02 2485.77 4977.83 2420.9C4971.33 2416.43 4964.43 2410.59 4957.76 2403.49C4844.82 2283.21 5034.11 2102.64 5194.07 2062.15C5207.77 2058.68 5221.23 2056.35 5234.18 2055.47C5240.46 2055.06 5245.69 2059.92 5246.19 2066.19L5250.13 2115.54C5253.02 2151.76 5252.67 2188.18 5249.08 2224.34Z" fill="#5D9255"/>
<path d="M4977.83 2420.9C5119.02 2485.77 5200.25 2382.51 5233.28 2299.51C5242.8 2275.59 5246.59 2249.95 5249.08 2224.34C5252.67 2188.18 5253.02 2151.76 5250.13 2115.54L5246.19 2066.19C5245.69 2059.92 5240.46 2055.06 5234.18 2055.47C5221.23 2056.35 5207.77 2058.68 5194.07 2062.15C5034.11 2102.64 4844.82 2283.21 4957.76 2403.49C4964.43 2410.59 4971.33 2416.43 4977.83 2420.9ZM4977.83 2420.9L4745.3 2641.49M4745.3 2641.49C4533.91 2546.82 4480.97 2250.5 4677.29 2116.67C4765.44 2028.52 4995.63 1932.07 5139.2 1880.39C5175.03 1867.5 5208.07 1844.54 5223.57 1809.75C5308.08 1619.64 5067.89 1570.42 5002.66 1610.24C4931.88 1653.44 4884.08 1713.18 4837.21 1788.55C4816.12 1822.47 4791.71 1841.49 4770.96 1851.49C4747.03 1863 4718.14 1858.02 4698.87 1839.75C4662 1804.81 4644.76 1743.48 4641.08 1699.31C4639.66 1682.27 4642.32 1665.19 4647.4 1648.86C4687.61 1519.77 4789.77 1450.23 4855.6 1433.77C4855.6 1433.77 4956.21 1386.54 5041.23 1382.3C5198.4 1374.48 5374.46 1404.56 5487.43 1514.04C5532.53 1557.73 5562.33 1606.03 5581.31 1641.33C5592.43 1661.96 5595.47 1685.6 5595.47 1709.02V2349.9C5595.47 2376.67 5600.9 2405.53 5624.62 2417.96C5659.55 2436.27 5714.61 2440.53 5756.13 2443.11C5777.15 2444.41 5788.02 2466.54 5775.76 2483.69C5644.75 2667.02 5505.67 2657.92 5437.4 2641.49C5393 2630.82 5343.26 2564.36 5305.44 2513.89C5300.41 2507.17 5295.58 2500.74 5291.04 2494.76C5282.27 2483.29 5265.83 2482.06 5255.01 2491.61L5158.54 2576.91C5151.46 2583.17 5143.49 2588.48 5134.92 2592.45C4941.45 2681.91 4797.46 2664.85 4745.3 2641.49Z" stroke="#5D9255"/>
<path d="M4098.26 2204.11V1672.74H4355.15C4400.07 1672.74 4436.48 1636.33 4436.48 1591.41C4436.48 1546.48 4400.07 1510.06 4355.15 1510.06H4154.63C4123.5 1510.06 4098.26 1484.82 4098.26 1453.69V1260.26C4098.26 1232.74 4075.95 1210.43 4048.42 1210.43H3923.84C3897.79 1210.43 3876.48 1230.58 3872.05 1256.25C3840.95 1436.73 3716.49 1497.25 3624.02 1508.76C3595 1512.37 3569.77 1535.21 3569.77 1564.46V1622.91C3569.77 1650.43 3592.09 1672.74 3619.61 1672.74H3742.57V1998.15C3742.57 2239.93 3753.5 2541.41 3982.29 2619.56C4080.85 2653.24 4195.02 2647.52 4304.13 2607.49C4435.29 2559.36 4467.16 2466.51 4464.47 2392.75C4463.06 2354.19 4419.14 2340.53 4387.77 2363C4242.14 2468.31 4164.42 2410.5 4124.96 2340.01C4102.06 2299.11 4098.26 2250.98 4098.26 2204.11Z" fill="#5D9255" stroke="#5D9255"/>
<path fill-rule="evenodd" clip-rule="evenodd" d="M2715.02 1452.18C2572.55 1500.59 2282.68 1688.76 2262.82 2054.2C2242.97 2419.64 2530.28 2597.4 2676.42 2640.6C2763.12 2664.8 2981.74 2688.21 3162.62 2588.21C3343.5 2488.21 3446.31 2295.93 3475.11 2212.29C3486.44 2168.79 3502.32 2034.71 3475.11 1846.48C3447.9 1658.24 3294.05 1509.56 3094.6 1452.18C3027.51 1432.88 2857.66 1405.86 2715.02 1452.18ZM2658.95 1789.49C2692.96 1670.93 2788.54 1627.73 2840.01 1625.89C2884.87 1618.08 2921.86 1627.72 2952.82 1646.19C3061.17 1710.87 3091.33 1853.34 3107.11 1978.54C3121.92 2096.13 3126.74 2194.94 3119.42 2241.7C3097.84 2379.57 3014.64 2493.54 2865.75 2474.23C2656.2 2447.07 2632.61 2149.03 2639.72 1937.84C2641.59 1882.42 2647.28 1830.21 2658.95 1789.49Z" fill="#5D9255" stroke="#5D9255"/>
<path d="M1933.57 1345.41C1853.44 1387.58 1759.89 1382.08 1686.85 1344.5C1656.28 1328.77 1661.6 1287.69 1690.09 1268.45C1804.43 1191.22 1817.51 1113.98 1813.53 1070.73C1694.97 1216.87 1580.85 1200.33 1514.68 1162.65C1441.13 1078.06 1455.23 989.847 1498.68 918.85C1560.74 817.456 1692.03 800.5 1810.12 785.248L1812.65 784.921C1900.6 773.557 2007.53 748.308 2103.64 693.896L2095.11 883.232C2087.35 1055.45 2086.13 1265.14 1933.57 1345.41Z" fill="#5D9255" stroke="#5D9255"/>
<path d="M1582.2 1647.02L1528.11 1596.53C1505.88 1575.78 1520.56 1538.53 1550.97 1538.53H1978.09C1992.71 1538.53 2004.56 1550.38 2004.56 1565V2184.6C2004.56 2323.55 2056.75 2457.44 2150.78 2559.73C2166.91 2577.27 2154.47 2605.62 2130.64 2605.62H1503.47C1479.55 2605.62 1467.63 2576.66 1484.62 2559.82C1587.38 2457.96 1645.19 2319.27 1645.19 2174.58V1791.99C1645.19 1737.02 1622.38 1684.52 1582.2 1647.02Z" fill="#5D9255" stroke="#5D9255"/>
<path fill-rule="evenodd" clip-rule="evenodd" d="M463.407 966.53L61.1162 1103.24C37.2318 1111.36 33.9781 1143.8 55.7757 1156.5L127.253 1198.14C165.691 1220.53 189.332 1261.66 189.332 1306.15V2590.79C189.332 2647.56 256.137 2677.98 298.959 2640.7L423.702 2532.1C734.726 2757.83 1030.92 2626.15 1141.52 2532.1C1488.02 2237.42 1459.53 1639.64 1073.51 1478.79C949.817 1427.25 832.273 1444.28 738.294 1478.79C638.52 1515.42 562.042 1580.31 519.286 1639.64V1006.56C519.286 977.599 490.828 957.212 463.407 966.53ZM546.863 1945.7C568.919 1751.58 683.673 1690.8 738.294 1684.67C895.714 1684.67 939.317 1727.87 1007.33 1897.91C1066.05 2044.71 1041.33 2294.96 939.317 2425.48C867.534 2517.3 706.785 2483.38 643.368 2425.48C579.947 2367.58 519.286 2188.35 546.863 1945.7Z" fill="#5D9255"/>
<path d="M738.294 1478.79C638.52 1515.42 562.042 1580.31 519.286 1639.64V1006.56C519.286 977.599 490.828 957.212 463.407 966.53L61.1162 1103.24C37.2318 1111.36 33.9781 1143.8 55.7757 1156.5L127.253 1198.14C165.691 1220.53 189.332 1261.66 189.332 1306.15V2590.79M738.294 1478.79C832.273 1444.28 949.817 1427.25 1073.51 1478.79C1459.53 1639.64 1488.02 2237.42 1141.52 2532.1C1030.92 2626.15 734.726 2757.83 423.702 2532.1L298.959 2640.7M738.294 1478.79V1684.67M298.959 2640.7C256.137 2677.98 189.332 2647.56 189.332 2590.79M298.959 2640.7L271.885 2664.27C239.638 2692.34 189.332 2669.44 189.332 2626.68V2590.79M738.294 1684.67C683.673 1690.8 568.919 1751.58 546.863 1945.7C519.286 2188.35 579.947 2367.58 643.368 2425.48C706.785 2483.38 867.534 2517.3 939.317 2425.48C1041.33 2294.96 1066.05 2044.71 1007.33 1897.91C939.317 1727.87 895.714 1684.67 738.294 1684.67Z" stroke="#5D9255"/>
<path d="M7298.54 1774.63C7141.12 2000.77 6860.96 2023.31 6670.6 1918.71C6640.15 1901.98 6642.49 1859.94 6671 1840.04C6905.36 1676.2 6920.76 1524.92 6906.7 1444.53C6715.65 1717.16 6509.89 1704.34 6386.65 1647.74C6196.39 1464.42 6282.36 1247.83 6405.89 1103.64C6482.58 1014.15 6602.73 984.093 6719.58 968.889C6890.01 946.721 7151.78 889.814 7371.59 743.737L7389.08 1268.01C7394.91 1443.29 7398.7 1630.69 7298.54 1774.63Z" fill="#5D9255" stroke="#5D9255"/>
</svg>
