<svg width="8023" height="2093" viewBox="0 0 8023 2093" fill="none" xmlns="http://www.w3.org/2000/svg">
<path d="M7477.09 1201.14C7080.07 1818.5 6472.12 1524.02 6330.49 1263.05C6317.39 1238.87 6289.38 1224.69 6263.27 1233.38L5902.44 1353.42C5874.08 1362.85 5860.28 1394.99 5874.28 1421.39C6137.59 1917.82 6661.13 2043.94 6896.89 2043.94C7546.2 2043.94 7869.32 1574.66 7957.37 1341.7C7967.19 1315.72 7951.19 1288.18 7924.33 1281.12L7533.2 1178.43C7511.82 1172.81 7489.05 1182.53 7477.09 1201.14Z" fill="#5D9255" stroke="#5D9255"/>
<path fill-rule="evenodd" clip-rule="evenodd" d="M4677.29 1466.67C4480.97 1600.5 4533.91 1896.82 4745.3 1991.49C4797.46 2014.85 4941.45 2031.91 5134.92 1942.45C5143.49 1938.48 5151.46 1933.17 5158.54 1926.91L5255.01 1841.61C5265.83 1832.06 5282.27 1833.29 5291.04 1844.76C5295.58 1850.74 5300.41 1857.17 5305.44 1863.89C5343.26 1914.36 5393 1980.82 5437.4 1991.49C5505.67 2007.92 5644.75 2017.02 5775.76 1833.69C5788.02 1816.54 5777.15 1794.41 5756.13 1793.11C5714.61 1790.53 5659.55 1786.27 5624.62 1767.96C5600.9 1755.53 5595.47 1726.67 5595.47 1699.9V1059.02C5595.47 1035.6 5592.43 1011.96 5581.31 991.33C5562.33 956.033 5532.53 907.734 5487.43 864.04C5374.46 754.556 5198.4 724.477 5041.23 732.301C4956.21 736.537 4855.6 783.774 4855.6 783.774C4789.77 800.229 4687.61 869.771 4647.4 998.864C4642.32 1015.19 4639.66 1032.27 4641.08 1049.31C4644.76 1093.48 4662 1154.81 4698.87 1189.75C4718.14 1208.02 4747.03 1213 4770.96 1201.49C4791.71 1191.49 4816.12 1172.47 4837.21 1138.55C4884.08 1063.18 4931.88 1003.44 5002.66 960.243C5067.89 920.422 5308.08 969.642 5223.57 1159.75C5208.07 1194.54 5175.03 1217.5 5139.2 1230.39C4995.63 1282.07 4765.44 1378.52 4677.29 1466.67ZM5249.08 1574.34C5246.59 1599.95 5242.8 1625.59 5233.28 1649.51C5200.25 1732.51 5119.02 1835.77 4977.83 1770.9C4971.33 1766.43 4964.43 1760.59 4957.76 1753.49C4844.82 1633.21 5034.11 1452.64 5194.07 1412.15C5207.77 1408.68 5221.23 1406.35 5234.18 1405.47C5240.46 1405.06 5245.69 1409.92 5246.19 1416.19L5250.13 1465.54C5253.02 1501.76 5252.67 1538.18 5249.08 1574.34Z" fill="#5D9255"/>
<path d="M4977.83 1770.9C5119.02 1835.77 5200.25 1732.51 5233.28 1649.51C5242.8 1625.59 5246.59 1599.95 5249.08 1574.34C5252.67 1538.18 5253.02 1501.76 5250.13 1465.54L5246.19 1416.19C5245.69 1409.92 5240.46 1405.06 5234.18 1405.47C5221.23 1406.35 5207.77 1408.68 5194.07 1412.15C5034.11 1452.64 4844.82 1633.21 4957.76 1753.49C4964.43 1760.59 4971.33 1766.43 4977.83 1770.9ZM4977.83 1770.9L4745.3 1991.49M4745.3 1991.49C4533.91 1896.82 4480.97 1600.5 4677.29 1466.67C4765.44 1378.52 4995.63 1282.07 5139.2 1230.39C5175.03 1217.5 5208.07 1194.54 5223.57 1159.75C5308.08 969.642 5067.89 920.422 5002.66 960.243C4931.88 1003.44 4884.08 1063.18 4837.21 1138.55C4816.12 1172.47 4791.71 1191.49 4770.96 1201.49C4747.03 1213 4718.14 1208.02 4698.87 1189.75C4662 1154.81 4644.76 1093.48 4641.08 1049.31C4639.66 1032.27 4642.32 1015.19 4647.4 998.864C4687.61 869.771 4789.77 800.229 4855.6 783.774C4855.6 783.774 4956.21 736.537 5041.23 732.301C5198.4 724.477 5374.46 754.556 5487.43 864.04C5532.53 907.734 5562.33 956.033 5581.31 991.33C5592.43 1011.96 5595.47 1035.6 5595.47 1059.02V1699.9C5595.47 1726.67 5600.9 1755.53 5624.62 1767.96C5659.55 1786.27 5714.61 1790.53 5756.13 1793.11C5777.15 1794.41 5788.02 1816.54 5775.76 1833.69C5644.75 2017.02 5505.67 2007.92 5437.4 1991.49C5393 1980.82 5343.26 1914.36 5305.44 1863.89C5300.41 1857.17 5295.58 1850.74 5291.04 1844.76C5282.27 1833.29 5265.83 1832.06 5255.01 1841.61L5158.54 1926.91C5151.46 1933.17 5143.49 1938.48 5134.92 1942.45C4941.45 2031.91 4797.46 2014.85 4745.3 1991.49Z" stroke="#5D9255"/>
<path d="M4098.26 1554.11V1022.74H4355.15C4400.07 1022.74 4436.48 986.326 4436.48 941.406C4436.48 896.482 4400.07 860.064 4355.15 860.064H4154.63C4123.5 860.064 4098.26 834.823 4098.26 803.692V610.264C4098.26 582.741 4075.95 560.431 4048.42 560.431H3923.84C3897.79 560.431 3876.48 580.583 3872.05 606.252C3840.95 786.729 3716.49 847.251 3624.02 858.758C3595 862.371 3569.77 885.214 3569.77 914.457V972.911C3569.77 1000.43 3592.09 1022.74 3619.61 1022.74H3742.57V1348.15C3742.57 1589.93 3753.5 1891.41 3982.29 1969.56C4080.85 2003.24 4195.02 1997.52 4304.13 1957.49C4435.29 1909.36 4467.16 1816.51 4464.47 1742.75C4463.06 1704.19 4419.14 1690.53 4387.77 1713C4242.14 1818.31 4164.42 1760.5 4124.96 1690.01C4102.06 1649.11 4098.26 1600.98 4098.26 1554.11Z" fill="#5D9255" stroke="#5D9255"/>
<path fill-rule="evenodd" clip-rule="evenodd" d="M2715.02 802.177C2572.55 850.585 2282.68 1038.76 2262.82 1404.2C2242.97 1769.64 2530.28 1947.4 2676.42 1990.6C2763.12 2014.8 2981.74 2038.21 3162.62 1938.21C3343.5 1838.21 3446.31 1645.93 3475.11 1562.29C3486.44 1518.79 3502.32 1384.71 3475.11 1196.48C3447.9 1008.24 3294.05 859.555 3094.6 802.177C3027.51 782.877 2857.66 755.857 2715.02 802.177ZM2658.95 1139.49C2692.96 1020.93 2788.54 977.73 2840.01 975.891C2884.87 968.082 2921.86 977.715 2952.82 996.193C3061.17 1060.87 3091.33 1203.34 3107.11 1328.54C3121.92 1446.13 3126.74 1544.94 3119.42 1591.7C3097.84 1729.57 3014.64 1843.54 2865.75 1824.23C2656.2 1797.07 2632.61 1499.03 2639.72 1287.84C2641.59 1232.42 2647.28 1180.21 2658.95 1139.49Z" fill="#5D9255" stroke="#5D9255"/>
<path d="M1933.57 695.414C1853.44 737.583 1759.89 732.077 1686.85 694.502C1656.28 678.775 1661.6 637.687 1690.09 618.447C1804.43 541.22 1817.51 463.977 1813.53 420.734C1694.97 566.874 1580.85 550.329 1514.68 512.645C1441.13 428.063 1455.23 339.847 1498.68 268.85C1560.74 167.456 1692.03 150.5 1810.12 135.248L1812.65 134.921C1900.6 123.557 2007.53 98.3077 2103.64 43.8961L2095.11 233.232C2087.35 405.453 2086.13 615.138 1933.57 695.414Z" fill="#5D9255" stroke="#5D9255"/>
<path d="M1582.2 997.015L1528.11 946.534C1505.88 925.784 1520.56 888.533 1550.97 888.533H1978.09C1992.71 888.533 2004.56 900.384 2004.56 915V1534.6C2004.56 1673.55 2056.75 1807.44 2150.78 1909.73C2166.91 1927.27 2154.47 1955.62 2130.64 1955.62H1503.47C1479.55 1955.62 1467.63 1926.66 1484.62 1909.82C1587.38 1807.96 1645.19 1669.27 1645.19 1524.58V1141.99C1645.19 1087.02 1622.38 1034.52 1582.2 997.015Z" fill="#5D9255" stroke="#5D9255"/>
<path fill-rule="evenodd" clip-rule="evenodd" d="M463.407 316.53L61.1162 453.241C37.2318 461.357 33.9781 493.805 55.7757 506.501L127.253 548.142C165.691 570.532 189.332 611.664 189.332 656.15V1940.79C189.332 1997.56 256.137 2027.98 298.959 1990.7L423.702 1882.1C734.726 2107.83 1030.92 1976.15 1141.52 1882.1C1488.02 1587.42 1459.53 989.635 1073.51 828.788C949.817 777.251 832.273 794.284 738.294 828.788C638.52 865.421 562.042 930.314 519.286 989.635V356.561C519.286 327.599 490.828 307.212 463.407 316.53ZM546.863 1295.7C568.919 1101.58 683.673 1040.8 738.294 1034.67C895.714 1034.67 939.317 1077.87 1007.33 1247.91C1066.05 1394.71 1041.33 1644.96 939.317 1775.48C867.534 1867.3 706.785 1833.38 643.368 1775.48C579.947 1717.58 519.286 1538.35 546.863 1295.7Z" fill="#5D9255"/>
<path d="M738.294 828.788C638.52 865.421 562.042 930.314 519.286 989.635V356.561C519.286 327.599 490.828 307.212 463.407 316.53L61.1162 453.241C37.2318 461.357 33.9781 493.805 55.7757 506.501L127.253 548.142C165.691 570.532 189.332 611.664 189.332 656.15V1940.79M738.294 828.788C832.273 794.284 949.817 777.251 1073.51 828.788C1459.53 989.635 1488.02 1587.42 1141.52 1882.1C1030.92 1976.15 734.726 2107.83 423.702 1882.1L298.959 1990.7M738.294 828.788V1034.67M298.959 1990.7C256.137 2027.98 189.332 1997.56 189.332 1940.79M298.959 1990.7L271.885 2014.27C239.638 2042.34 189.332 2019.44 189.332 1976.68V1940.79M738.294 1034.67C683.673 1040.8 568.919 1101.58 546.863 1295.7C519.286 1538.35 579.947 1717.58 643.368 1775.48C706.785 1833.38 867.534 1867.3 939.317 1775.48C1041.33 1644.96 1066.05 1394.71 1007.33 1247.91C939.317 1077.87 895.714 1034.67 738.294 1034.67Z" stroke="#5D9255"/>
<path d="M7298.54 1124.63C7141.12 1350.77 6860.96 1373.31 6670.6 1268.71C6640.15 1251.98 6642.49 1209.94 6671 1190.04C6905.36 1026.2 6920.76 874.919 6906.7 794.528C6715.65 1067.16 6509.89 1054.34 6386.65 997.738C6196.39 814.421 6282.36 597.831 6405.89 453.637C6482.58 364.148 6602.73 334.093 6719.58 318.889C6890.01 296.721 7151.78 239.814 7371.59 93.7365L7389.08 618.008C7394.91 793.287 7398.7 980.69 7298.54 1124.63Z" fill="#5D9255" stroke="#5D9255"/>
</svg>
