<svg width="2001" height="522" viewBox="0 0 2001 522" fill="none" xmlns="http://www.w3.org/2000/svg">
<path d="M1864.84 299.569C1765.83 453.54 1614.2 380.096 1578.88 315.009C1575.61 308.978 1568.62 305.442 1562.11 307.607L1472.11 337.547C1465.04 339.898 1461.6 347.916 1465.09 354.498C1530.76 478.31 1661.34 509.764 1720.14 509.764C1882.08 509.764 1962.67 392.724 1984.63 334.623C1987.08 328.144 1983.09 321.275 1976.39 319.515L1878.84 293.904C1873.51 292.502 1867.83 294.925 1864.84 299.569Z" fill="#5D9255" stroke="#5D9255"/>
<path fill-rule="evenodd" clip-rule="evenodd" d="M1166.56 365.793C1117.59 399.168 1130.8 473.072 1183.52 496.683C1196.53 502.508 1232.44 506.765 1280.69 484.453C1282.83 483.463 1284.82 482.138 1286.58 480.575L1310.64 459.303C1313.34 456.92 1317.44 457.228 1319.63 460.087C1320.76 461.578 1321.97 463.184 1323.22 464.86C1332.65 477.447 1345.06 494.022 1356.13 496.683C1373.16 500.781 1407.85 503.051 1440.52 457.328C1443.58 453.05 1440.87 447.532 1435.62 447.206C1425.27 446.562 1411.54 445.5 1402.83 440.933C1396.91 437.835 1395.56 430.635 1395.56 423.96V264.123C1395.56 258.282 1394.8 252.386 1392.03 247.24C1387.29 238.437 1379.86 226.391 1368.61 215.494C1340.43 188.188 1296.52 180.686 1257.32 182.638C1236.12 183.694 1211.03 195.475 1211.03 195.475C1194.61 199.579 1169.13 216.923 1159.1 249.119C1157.83 253.191 1157.17 257.452 1157.52 261.701C1158.44 272.716 1162.74 288.013 1171.94 296.727C1176.74 301.283 1183.95 302.526 1189.92 299.654C1195.09 297.161 1201.18 292.417 1206.44 283.958C1218.13 265.161 1230.05 250.262 1247.7 239.487C1263.97 229.556 1323.88 241.831 1302.8 289.244C1298.94 297.923 1290.7 303.647 1281.76 306.864C1245.95 319.751 1188.54 343.808 1166.56 365.793ZM1309.16 392.645C1308.54 399.033 1307.6 405.427 1305.22 411.392C1296.98 432.093 1276.73 457.846 1241.51 441.668C1239.89 440.552 1238.17 439.095 1236.51 437.324C1208.34 407.328 1255.55 362.292 1295.44 352.193C1298.86 351.328 1302.22 350.747 1305.45 350.529C1307.01 350.425 1308.32 351.639 1308.44 353.201L1309.43 365.509C1310.15 374.544 1310.06 383.625 1309.16 392.645Z" fill="#5D9255"/>
<path d="M1241.51 441.668C1276.73 457.846 1296.98 432.093 1305.22 411.392C1307.6 405.427 1308.54 399.033 1309.16 392.645C1310.06 383.625 1310.15 374.544 1309.43 365.509L1308.44 353.201C1308.32 351.639 1307.01 350.425 1305.45 350.529C1302.22 350.747 1298.86 351.328 1295.44 352.193C1255.55 362.292 1208.34 407.328 1236.51 437.324C1238.17 439.095 1239.89 440.552 1241.51 441.668ZM1241.51 441.668L1183.52 496.683M1183.52 496.683C1130.8 473.072 1117.59 399.168 1166.56 365.793C1188.54 343.808 1245.95 319.751 1281.76 306.864C1290.7 303.647 1298.94 297.923 1302.8 289.244C1323.88 241.831 1263.97 229.556 1247.7 239.487C1230.05 250.262 1218.13 265.161 1206.44 283.958C1201.18 292.417 1195.09 297.161 1189.92 299.654C1183.95 302.526 1176.74 301.283 1171.94 296.727C1162.74 288.013 1158.44 272.716 1157.52 261.701C1157.17 257.452 1157.83 253.191 1159.1 249.119C1169.13 216.923 1194.61 199.579 1211.03 195.475C1211.03 195.475 1236.12 183.694 1257.32 182.638C1296.52 180.686 1340.43 188.188 1368.61 215.494C1379.86 226.391 1387.29 238.437 1392.03 247.24C1394.8 252.386 1395.56 258.282 1395.56 264.123V423.96C1395.56 430.635 1396.91 437.835 1402.83 440.933C1411.54 445.5 1425.27 446.562 1435.62 447.206C1440.87 447.532 1443.58 453.05 1440.52 457.328C1407.85 503.051 1373.16 500.781 1356.13 496.683C1345.06 494.022 1332.65 477.447 1323.22 464.86C1321.97 463.184 1320.76 461.578 1319.63 460.087C1317.44 457.227 1313.34 456.92 1310.64 459.303L1286.58 480.575C1284.82 482.138 1282.83 483.463 1280.69 484.453C1232.44 506.765 1196.53 502.508 1183.52 496.683Z" stroke="#5D9255"/>
<path d="M1022.14 387.6V255.075H1086.21C1097.41 255.075 1106.49 245.992 1106.49 234.789C1106.49 223.585 1097.41 214.502 1086.21 214.502H1036.2C1028.43 214.502 1022.14 208.207 1022.14 200.443V152.202C1022.14 145.337 1016.57 139.773 1009.71 139.773H978.634C972.138 139.773 966.822 144.799 965.719 151.201C957.961 196.212 926.92 211.307 903.857 214.177C896.619 215.078 890.328 220.775 890.328 228.068V242.647C890.328 249.511 895.894 255.075 902.757 255.075H933.424V336.233C933.424 396.532 936.151 471.723 993.213 491.214C1017.79 499.612 1046.27 498.188 1073.48 488.203C1106.19 476.199 1114.14 453.043 1113.47 434.646C1113.12 425.03 1102.17 421.623 1094.34 427.227C1058.02 453.491 1038.64 439.074 1028.8 421.494C1023.09 411.294 1022.14 399.289 1022.14 387.6Z" fill="#5D9255" stroke="#5D9255"/>
<path fill-rule="evenodd" clip-rule="evenodd" d="M677.146 200.065C641.615 212.138 569.317 259.07 564.365 350.211C559.413 441.353 631.07 485.686 667.518 496.461C689.143 502.497 743.668 508.335 788.782 483.394C833.894 458.454 859.537 410.5 866.72 389.639C869.546 378.789 873.505 345.351 866.72 298.405C859.934 251.459 821.561 214.375 771.818 200.065C755.084 195.252 712.722 188.513 677.146 200.065ZM663.164 284.193C671.645 254.623 695.484 243.849 708.321 243.39C719.508 241.442 728.735 243.845 736.456 248.453C763.478 264.584 771.002 300.116 774.936 331.341C778.63 360.668 779.833 385.313 778.007 396.975C772.626 431.358 751.875 459.784 714.74 454.969C662.476 448.194 656.594 373.861 658.367 321.19C658.832 307.37 660.251 294.347 663.164 284.193Z" fill="#5D9255" stroke="#5D9255"/>
<path d="M482.248 173.438C462.263 183.955 438.932 182.582 420.715 173.211C413.09 169.288 414.418 159.041 421.524 154.242C450.041 134.982 453.302 115.717 452.31 104.932C422.739 141.38 394.278 137.254 377.774 127.855C359.431 106.76 362.948 84.7587 373.784 67.0518C389.262 41.764 422.006 37.5351 451.458 33.7312L452.089 33.6497C474.026 30.8155 500.694 24.5182 524.666 10.9478L522.538 58.1686C520.602 101.121 520.298 153.417 482.248 173.438Z" fill="#5D9255" stroke="#5D9255"/>
<path d="M394.614 248.658L381.125 236.068C375.58 230.893 379.242 221.603 386.826 221.603H493.354C496.999 221.603 499.954 224.558 499.954 228.203V382.733C499.954 417.387 512.971 450.779 536.424 476.291C540.447 480.667 537.343 487.738 531.399 487.738H374.979C369.013 487.738 366.039 480.513 370.276 476.314C395.907 450.911 410.326 416.32 410.326 380.233V284.814C410.326 271.106 404.636 258.012 394.614 248.658Z" fill="#5D9255" stroke="#5D9255"/>
<path fill-rule="evenodd" clip-rule="evenodd" d="M115.576 78.9436L15.2418 113.039C9.28488 115.064 8.47338 123.156 13.9099 126.323L31.7368 136.708C41.3236 142.292 47.2199 152.551 47.2199 163.646V484.038C47.2199 498.198 63.8816 505.785 74.5618 496.485L105.674 469.4C183.245 525.699 257.118 492.858 284.702 469.4C371.122 395.907 364.017 246.818 267.74 206.702C236.891 193.848 207.574 198.097 184.135 206.702C159.251 215.838 140.177 232.023 129.513 246.818V88.9274C129.513 81.7042 122.415 76.6194 115.576 78.9436ZM136.391 323.152C141.892 274.737 170.512 259.578 184.135 258.049C223.397 258.049 234.272 268.824 251.235 311.231C265.881 347.845 259.716 410.258 234.272 442.809C216.369 465.711 176.277 457.251 160.46 442.809C144.642 428.368 129.513 383.668 136.391 323.152Z" fill="#5D9255"/>
<path d="M184.135 206.702C159.251 215.838 140.177 232.023 129.513 246.818V88.9274C129.513 81.7042 122.415 76.6194 115.576 78.9436L15.2418 113.039C9.28488 115.064 8.47338 123.156 13.9099 126.323L31.7368 136.708C41.3236 142.292 47.2199 152.551 47.2199 163.646V484.038M184.135 206.702C207.574 198.097 236.891 193.848 267.74 206.702C364.017 246.818 371.122 395.907 284.702 469.4C257.118 492.858 183.245 525.699 105.674 469.4L74.5618 496.485M184.135 206.702V258.049M74.5618 496.485C63.8816 505.785 47.2199 498.198 47.2199 484.038M74.5618 496.485L67.8094 502.364C59.7667 509.366 47.2199 503.654 47.2199 492.991V484.038M184.135 258.049C170.512 259.578 141.892 274.737 136.391 323.152C129.513 383.668 144.642 428.368 160.46 442.809C176.277 457.251 216.369 465.711 234.272 442.809C259.716 410.258 265.881 347.845 251.235 311.231C234.272 268.824 223.397 258.049 184.135 258.049Z" stroke="#5D9255"/>
<path d="M1820.31 280.487C1781.05 336.886 1711.18 342.506 1663.7 316.419C1656.11 312.248 1656.69 301.762 1663.8 296.799C1722.25 255.936 1726.09 218.207 1722.59 198.157C1674.94 266.151 1623.62 262.956 1592.88 248.838C1545.43 203.119 1566.87 149.1 1597.68 113.138C1616.81 90.8192 1646.77 83.3234 1675.92 79.5316C1718.42 74.0027 1783.71 59.8102 1838.53 23.3779L1842.9 154.133C1844.35 197.848 1845.29 244.587 1820.31 280.487Z" fill="#5D9255" stroke="#5D9255"/>
</svg>
