<svg width="2177" height="1531" viewBox="0 0 2177 1531" fill="none" xmlns="http://www.w3.org/2000/svg">
<path fill-rule="evenodd" clip-rule="evenodd" d="M975.991 142.059C1055.79 264.159 1265.19 537.586 1464.39 654.494L1711.47 596.306C1721.87 593.855 1732.46 599.615 1736.06 609.684L1750.89 651.208C1754.96 662.613 1748.04 674.993 1736.19 677.501L1545.15 717.948C1587.76 748.908 1691.36 820.039 1777.69 866.553C1784.09 869.998 1786.51 877.967 1783.04 884.351L1778.16 893.351C1774.17 900.704 1765.24 903.768 1757.62 900.305C1672.35 861.526 1513.22 784.484 1464.39 742.945L1189.43 823.704C1275.54 884.043 1461.2 1009.56 1549.35 1053.52C1557.13 1057.41 1560.71 1066.62 1557.32 1074.64L1549.14 1094.02C1546.95 1099.2 1540.94 1101.57 1535.82 1099.23C1433 1052.15 1215.06 944.39 1094.25 856.392C977.723 900.45 747.002 990.177 672.113 1027.98C662.499 1032.83 650.167 1028.73 646.168 1018.73L637.145 996.172C632.553 984.691 637.859 971.634 649.159 966.612L1000.99 810.244C926.318 788.452 768.902 721.986 736.598 630.459L632.485 905.615C630.584 910.638 624.734 912.889 619.956 910.436L601.582 901C596.73 898.509 594.169 893.058 595.348 887.732L675.067 527.587C645.263 452.597 577.58 294.54 545.276 262.236C512.972 229.932 474.131 162.249 458.748 132.445L389.028 141.383C386.389 141.722 384.181 139.435 384.951 136.888C390.202 119.53 410.062 93.3947 458.748 96.8723C468.363 76.0415 497.013 44.1866 534.7 83.4124L824.087 68.0296C820.241 34.0595 830.432 -24.651 901.962 12.2674L935.611 83.4124H1014.03C1017.5 83.4124 1019.9 86.8541 1018.54 90.0478C1010.86 108.005 994.97 135.959 975.991 142.059ZM545.276 132.445C731.406 425.485 1009.96 680.773 1125.97 771.787L1151.64 758.538C1153.58 757.538 1153.83 754.862 1152.12 753.506C857.674 519.646 658.494 230.894 600.819 147.282C593.372 136.486 588.284 129.11 585.655 125.714C567.196 101.871 551.044 120.267 545.276 132.445ZM1075.98 391.065L1046.17 511.243C1000.96 444.155 906.284 282.116 882.213 161.054C881.811 159.036 884.347 157.898 885.653 159.488L1075.98 391.065ZM1142.32 467.979C1169.37 508.931 1292.44 618.602 1359.3 675.847C1362.3 678.414 1360.16 683.156 1356.27 682.528C1261.99 667.313 1151.77 600.744 1106.74 567.966L1142.32 467.979Z" fill="black" stroke="black"/>
<mask id="path-2-outside-1_217_2923" maskUnits="userSpaceOnUse" x="0" y="1182.16" width="2177" height="349" fill="black">
<rect fill="white" y="1182.16" width="2177" height="349"/>
<path d="M4 1220.62H40.6108V1522.19H4V1220.62ZM94.4502 1522.19H24.2436V1485.57H94.4502C111.392 1485.57 126.897 1482.99 140.967 1477.82C155.038 1472.36 167.098 1464.75 177.148 1454.99C187.198 1444.93 194.95 1432.87 200.406 1418.8C205.862 1404.72 208.59 1388.93 208.59 1371.41C208.59 1353.89 205.862 1338.09 200.406 1324.02C194.95 1309.94 187.198 1298.03 177.148 1288.26C167.098 1278.21 155.038 1270.6 140.967 1265.43C126.897 1259.97 111.392 1257.24 94.4502 1257.24H24.2436V1220.62H94.4502C123.739 1220.62 149.725 1226.94 172.41 1239.58C195.094 1252.22 212.897 1269.88 225.818 1292.57C238.74 1314.97 245.201 1341.25 245.201 1371.41C245.201 1401.56 238.74 1427.99 225.818 1450.68C212.897 1473.08 195.094 1490.6 172.41 1503.24C149.725 1515.87 123.739 1522.19 94.4502 1522.19ZM277.37 1423.1C277.37 1403 281.82 1385.19 290.722 1369.68C299.91 1354.18 312.257 1341.97 327.763 1333.07C343.269 1324.16 360.641 1319.71 379.88 1319.71C399.405 1319.71 416.777 1324.16 431.996 1333.07C447.502 1341.97 459.705 1354.18 468.607 1369.68C477.796 1385.19 482.39 1403 482.39 1423.1C482.39 1442.92 477.796 1460.73 468.607 1476.53C459.705 1492.03 447.502 1504.24 431.996 1513.14C416.777 1522.05 399.405 1526.5 379.88 1526.5C360.641 1526.5 343.269 1522.05 327.763 1513.14C312.257 1504.24 299.91 1492.03 290.722 1476.53C281.82 1460.73 277.37 1442.92 277.37 1423.1ZM312.257 1423.1C312.257 1436.89 315.129 1449.1 320.872 1459.72C326.902 1470.35 334.942 1478.82 344.992 1485.14C355.329 1491.17 366.958 1494.19 379.88 1494.19C392.801 1494.19 404.287 1491.17 414.337 1485.14C424.674 1478.82 432.714 1470.35 438.457 1459.72C444.487 1449.1 447.502 1436.89 447.502 1423.1C447.502 1409.32 444.487 1397.11 438.457 1386.49C432.714 1375.57 424.674 1367.1 414.337 1361.07C404.287 1355.04 392.801 1352.02 379.88 1352.02C366.958 1352.02 355.329 1355.04 344.992 1361.07C334.942 1367.1 326.902 1375.57 320.872 1386.49C315.129 1397.11 312.257 1409.32 312.257 1423.1ZM545.231 1423.1C545.231 1436.89 548.103 1449.1 553.845 1459.72C559.875 1470.35 567.915 1478.82 577.966 1485.14C588.303 1491.17 599.932 1494.19 612.853 1494.19C623.478 1494.19 633.384 1492.61 642.573 1489.45C652.049 1486 660.232 1481.55 667.124 1476.09C674.015 1470.35 678.896 1464.32 681.768 1458V1501.08C674.876 1509.12 664.97 1515.44 652.049 1520.04C639.414 1524.35 626.349 1526.5 612.853 1526.5C593.615 1526.5 576.243 1522.05 560.737 1513.14C545.231 1504.24 532.884 1492.03 523.695 1476.53C514.794 1460.73 510.343 1442.92 510.343 1423.1C510.343 1403 514.794 1385.19 523.695 1369.68C532.884 1354.18 545.231 1341.97 560.737 1333.07C576.243 1324.16 593.615 1319.71 612.853 1319.71C626.349 1319.71 639.414 1322.01 652.049 1326.6C664.97 1330.91 674.876 1337.09 681.768 1345.13V1388.21C678.896 1381.6 674.015 1375.57 667.124 1370.12C660.232 1364.66 652.049 1360.35 642.573 1357.19C633.384 1353.74 623.478 1352.02 612.853 1352.02C599.932 1352.02 588.303 1355.04 577.966 1361.07C567.915 1367.1 559.875 1375.57 553.845 1386.49C548.103 1397.11 545.231 1409.32 545.231 1423.1ZM733.256 1186.16H767.713V1522.19H733.256V1186.16ZM840.934 1324.02H884.006L797.863 1405.87L892.62 1522.19H849.549L754.791 1405.87L840.934 1324.02ZM1117.98 1356.76C1113.39 1351.3 1107.36 1344.98 1099.89 1337.8C1092.72 1330.34 1086.26 1322.01 1080.51 1312.82C1075.06 1303.63 1072.33 1293.57 1072.33 1282.66C1072.33 1269.16 1075.49 1257.39 1081.8 1247.33C1088.12 1237.28 1096.74 1229.53 1107.65 1224.07C1118.85 1218.61 1131.62 1215.88 1145.98 1215.88C1161.2 1215.88 1174.12 1219.04 1184.75 1225.36C1195.66 1231.68 1203.98 1240.01 1209.73 1250.35C1215.47 1260.4 1218.34 1271.46 1218.34 1283.52C1218.34 1290.7 1216.91 1297.74 1214.03 1304.63C1211.16 1311.52 1207 1318.42 1201.54 1325.31C1196.09 1331.92 1189.48 1338.38 1181.73 1344.7C1173.98 1350.73 1165.08 1356.76 1155.03 1362.79C1147.27 1367.39 1138.8 1372.13 1129.61 1377.01C1120.43 1381.6 1111.67 1386.92 1103.34 1392.95C1095.3 1398.69 1088.7 1405.44 1083.53 1413.2C1078.36 1420.95 1075.77 1430.29 1075.77 1441.2C1075.77 1452.11 1078.5 1461.59 1083.96 1469.63C1089.7 1477.67 1097.31 1483.85 1106.79 1488.16C1116.26 1492.47 1126.74 1494.62 1138.23 1494.62C1152.01 1494.62 1165.22 1491.6 1177.85 1485.57C1190.78 1479.54 1203.12 1471.5 1214.9 1461.45C1226.67 1451.11 1238.01 1439.48 1248.92 1426.55C1260.12 1413.63 1270.89 1400.13 1281.23 1386.06L1307.93 1402.86C1296.44 1417.79 1284.67 1432.73 1272.61 1447.66C1260.55 1462.31 1247.63 1475.52 1233.85 1487.3C1220.06 1499.07 1205.13 1508.55 1189.05 1515.73C1172.97 1522.91 1155.31 1526.5 1136.07 1526.5C1119.71 1526.5 1104.06 1523.2 1089.13 1516.59C1074.48 1509.7 1062.42 1500.08 1052.95 1487.73C1043.76 1475.09 1039.16 1460.3 1039.16 1443.35C1039.16 1430.72 1041.32 1419.66 1045.62 1410.18C1050.22 1400.7 1055.96 1392.37 1062.85 1385.19C1070.03 1378.01 1077.78 1371.84 1086.11 1366.67C1094.44 1361.5 1102.62 1357.05 1110.66 1353.31C1118.7 1349.29 1125.59 1345.7 1131.34 1342.54C1147.42 1333.35 1160.05 1323.73 1169.24 1313.68C1178.72 1303.34 1183.45 1293.29 1183.45 1283.52C1183.45 1276.05 1181.87 1269.59 1178.72 1264.14C1175.84 1258.68 1171.68 1254.37 1166.23 1251.21C1160.77 1248.05 1154.02 1246.47 1145.98 1246.47C1134.21 1246.47 1125.02 1249.77 1118.42 1256.38C1111.81 1262.99 1108.51 1271.75 1108.51 1282.66C1108.51 1292.43 1112.39 1301.76 1120.14 1310.66C1127.89 1319.57 1136.07 1329.04 1144.69 1339.1L1304.05 1522.19H1262.71L1117.98 1356.76ZM1505.03 1362.79V1342.54H1553.7C1563.75 1342.54 1572.79 1340.82 1580.83 1337.37C1588.87 1333.93 1595.19 1328.9 1599.79 1322.29C1604.38 1315.69 1606.68 1307.65 1606.68 1298.17C1606.68 1283.81 1601.65 1272.75 1591.6 1265C1581.55 1256.96 1568.92 1252.93 1553.7 1252.93H1512.78V1489.88H1558.01C1570.93 1489.88 1582.27 1487.58 1592.03 1482.99C1602.08 1478.39 1609.84 1471.79 1615.29 1463.17C1621.03 1454.55 1623.91 1444.07 1623.91 1431.72C1623.91 1422.53 1622.33 1414.35 1619.17 1407.16C1616.01 1399.98 1611.42 1393.95 1605.39 1389.07C1599.64 1384.19 1592.75 1380.6 1584.71 1378.3C1576.67 1375.72 1567.77 1374.42 1558.01 1374.42H1505.03V1354.18H1558.01C1572.65 1354.18 1586.15 1355.75 1598.49 1358.91C1610.84 1362.07 1621.61 1366.96 1630.8 1373.56C1640.27 1379.88 1647.6 1388.07 1652.76 1398.12C1657.93 1408.17 1660.52 1420.09 1660.52 1433.88C1660.52 1453.69 1655.92 1470.21 1646.73 1483.42C1637.83 1496.34 1625.63 1506.11 1610.12 1512.71C1594.9 1519.03 1577.53 1522.19 1558.01 1522.19H1476.17V1220.62H1553.7C1571.79 1220.62 1587.44 1223.35 1600.65 1228.81C1614.14 1234.27 1624.62 1242.59 1632.09 1253.8C1639.56 1264.71 1643.29 1278.78 1643.29 1296.02C1643.29 1310.09 1639.56 1322.15 1632.09 1332.2C1624.62 1342.26 1614.14 1349.87 1600.65 1355.04C1587.44 1360.21 1571.79 1362.79 1553.7 1362.79H1505.03ZM1738.9 1431.72L1751.82 1397.26H1885.34L1898.26 1431.72H1738.9ZM1817.72 1288.69L1766.89 1408.46L1763.45 1416.21L1718.65 1522.19H1677.73L1817.72 1205.54L1957.7 1522.19H1916.78L1872.85 1418.8L1869.4 1410.18L1817.72 1288.69ZM2128.19 1220.62H2169.11L2068.75 1392.09V1522.19H2032.14V1392.52L1931.79 1220.62H1972.71L2050.23 1360.21L2128.19 1220.62Z"/>
</mask>
<path d="M4 1220.62H40.6108V1522.19H4V1220.62ZM94.4502 1522.19H24.2436V1485.57H94.4502C111.392 1485.57 126.897 1482.99 140.967 1477.82C155.038 1472.36 167.098 1464.75 177.148 1454.99C187.198 1444.93 194.95 1432.87 200.406 1418.8C205.862 1404.72 208.59 1388.93 208.59 1371.41C208.59 1353.89 205.862 1338.09 200.406 1324.02C194.95 1309.94 187.198 1298.03 177.148 1288.26C167.098 1278.21 155.038 1270.6 140.967 1265.43C126.897 1259.97 111.392 1257.24 94.4502 1257.24H24.2436V1220.62H94.4502C123.739 1220.62 149.725 1226.94 172.41 1239.58C195.094 1252.22 212.897 1269.88 225.818 1292.57C238.74 1314.97 245.201 1341.25 245.201 1371.41C245.201 1401.56 238.74 1427.99 225.818 1450.68C212.897 1473.08 195.094 1490.6 172.41 1503.24C149.725 1515.87 123.739 1522.19 94.4502 1522.19ZM277.37 1423.1C277.37 1403 281.82 1385.19 290.722 1369.68C299.91 1354.18 312.257 1341.97 327.763 1333.07C343.269 1324.16 360.641 1319.71 379.88 1319.71C399.405 1319.71 416.777 1324.16 431.996 1333.07C447.502 1341.97 459.705 1354.18 468.607 1369.68C477.796 1385.19 482.39 1403 482.39 1423.1C482.39 1442.92 477.796 1460.73 468.607 1476.53C459.705 1492.03 447.502 1504.24 431.996 1513.14C416.777 1522.05 399.405 1526.5 379.88 1526.5C360.641 1526.5 343.269 1522.05 327.763 1513.14C312.257 1504.24 299.91 1492.03 290.722 1476.53C281.82 1460.73 277.37 1442.92 277.37 1423.1ZM312.257 1423.1C312.257 1436.89 315.129 1449.1 320.872 1459.72C326.902 1470.35 334.942 1478.82 344.992 1485.14C355.329 1491.17 366.958 1494.19 379.88 1494.19C392.801 1494.19 404.287 1491.17 414.337 1485.14C424.674 1478.82 432.714 1470.35 438.457 1459.72C444.487 1449.1 447.502 1436.89 447.502 1423.1C447.502 1409.32 444.487 1397.11 438.457 1386.49C432.714 1375.57 424.674 1367.1 414.337 1361.07C404.287 1355.04 392.801 1352.02 379.88 1352.02C366.958 1352.02 355.329 1355.04 344.992 1361.07C334.942 1367.1 326.902 1375.57 320.872 1386.49C315.129 1397.11 312.257 1409.32 312.257 1423.1ZM545.231 1423.1C545.231 1436.89 548.103 1449.1 553.845 1459.72C559.875 1470.35 567.915 1478.82 577.966 1485.14C588.303 1491.17 599.932 1494.19 612.853 1494.19C623.478 1494.19 633.384 1492.61 642.573 1489.45C652.049 1486 660.232 1481.55 667.124 1476.09C674.015 1470.35 678.896 1464.32 681.768 1458V1501.08C674.876 1509.12 664.97 1515.44 652.049 1520.04C639.414 1524.35 626.349 1526.5 612.853 1526.5C593.615 1526.5 576.243 1522.05 560.737 1513.14C545.231 1504.24 532.884 1492.03 523.695 1476.53C514.794 1460.73 510.343 1442.92 510.343 1423.1C510.343 1403 514.794 1385.19 523.695 1369.68C532.884 1354.18 545.231 1341.97 560.737 1333.07C576.243 1324.16 593.615 1319.71 612.853 1319.71C626.349 1319.71 639.414 1322.01 652.049 1326.6C664.97 1330.91 674.876 1337.09 681.768 1345.13V1388.21C678.896 1381.6 674.015 1375.57 667.124 1370.12C660.232 1364.66 652.049 1360.35 642.573 1357.19C633.384 1353.74 623.478 1352.02 612.853 1352.02C599.932 1352.02 588.303 1355.04 577.966 1361.07C567.915 1367.1 559.875 1375.57 553.845 1386.49C548.103 1397.11 545.231 1409.32 545.231 1423.1ZM733.256 1186.16H767.713V1522.19H733.256V1186.16ZM840.934 1324.02H884.006L797.863 1405.87L892.62 1522.19H849.549L754.791 1405.87L840.934 1324.02ZM1117.98 1356.76C1113.39 1351.3 1107.36 1344.98 1099.89 1337.8C1092.72 1330.34 1086.26 1322.01 1080.51 1312.82C1075.06 1303.63 1072.33 1293.57 1072.33 1282.66C1072.33 1269.16 1075.49 1257.39 1081.8 1247.33C1088.12 1237.28 1096.74 1229.53 1107.65 1224.07C1118.85 1218.61 1131.62 1215.88 1145.98 1215.88C1161.2 1215.88 1174.12 1219.04 1184.75 1225.36C1195.66 1231.68 1203.98 1240.01 1209.73 1250.35C1215.47 1260.4 1218.34 1271.46 1218.34 1283.52C1218.34 1290.7 1216.91 1297.74 1214.03 1304.63C1211.16 1311.52 1207 1318.42 1201.54 1325.31C1196.09 1331.92 1189.48 1338.38 1181.73 1344.7C1173.98 1350.73 1165.08 1356.76 1155.03 1362.79C1147.27 1367.39 1138.8 1372.13 1129.61 1377.01C1120.43 1381.6 1111.67 1386.92 1103.34 1392.95C1095.3 1398.69 1088.7 1405.44 1083.53 1413.2C1078.36 1420.95 1075.77 1430.29 1075.77 1441.2C1075.77 1452.11 1078.5 1461.59 1083.96 1469.63C1089.7 1477.67 1097.31 1483.85 1106.79 1488.16C1116.26 1492.47 1126.74 1494.62 1138.23 1494.62C1152.01 1494.62 1165.22 1491.6 1177.85 1485.57C1190.78 1479.54 1203.12 1471.5 1214.9 1461.45C1226.67 1451.11 1238.01 1439.48 1248.92 1426.55C1260.12 1413.63 1270.89 1400.13 1281.23 1386.06L1307.93 1402.86C1296.44 1417.79 1284.67 1432.73 1272.61 1447.66C1260.55 1462.31 1247.63 1475.52 1233.85 1487.3C1220.06 1499.07 1205.13 1508.55 1189.05 1515.73C1172.97 1522.91 1155.31 1526.5 1136.07 1526.5C1119.71 1526.5 1104.06 1523.2 1089.13 1516.59C1074.48 1509.7 1062.42 1500.08 1052.95 1487.73C1043.76 1475.09 1039.16 1460.3 1039.16 1443.35C1039.16 1430.72 1041.32 1419.66 1045.62 1410.18C1050.22 1400.7 1055.96 1392.37 1062.85 1385.19C1070.03 1378.01 1077.78 1371.84 1086.11 1366.67C1094.44 1361.5 1102.62 1357.05 1110.66 1353.31C1118.7 1349.29 1125.59 1345.7 1131.34 1342.54C1147.42 1333.35 1160.05 1323.73 1169.24 1313.68C1178.72 1303.34 1183.45 1293.29 1183.45 1283.52C1183.45 1276.05 1181.87 1269.59 1178.72 1264.14C1175.84 1258.68 1171.68 1254.37 1166.23 1251.21C1160.77 1248.05 1154.02 1246.47 1145.98 1246.47C1134.21 1246.47 1125.02 1249.77 1118.42 1256.38C1111.81 1262.99 1108.51 1271.75 1108.51 1282.66C1108.51 1292.43 1112.39 1301.76 1120.14 1310.66C1127.89 1319.57 1136.07 1329.04 1144.69 1339.1L1304.05 1522.19H1262.71L1117.98 1356.76ZM1505.03 1362.79V1342.54H1553.7C1563.75 1342.54 1572.79 1340.82 1580.83 1337.37C1588.87 1333.93 1595.19 1328.9 1599.79 1322.29C1604.38 1315.69 1606.68 1307.65 1606.68 1298.17C1606.68 1283.81 1601.65 1272.75 1591.6 1265C1581.55 1256.96 1568.92 1252.93 1553.7 1252.93H1512.78V1489.88H1558.01C1570.93 1489.88 1582.27 1487.58 1592.03 1482.99C1602.08 1478.39 1609.84 1471.79 1615.29 1463.17C1621.03 1454.55 1623.91 1444.07 1623.91 1431.72C1623.91 1422.53 1622.33 1414.35 1619.17 1407.16C1616.01 1399.98 1611.42 1393.95 1605.39 1389.07C1599.64 1384.19 1592.75 1380.6 1584.71 1378.3C1576.67 1375.72 1567.77 1374.42 1558.01 1374.42H1505.03V1354.18H1558.01C1572.65 1354.18 1586.15 1355.75 1598.49 1358.91C1610.84 1362.07 1621.61 1366.96 1630.8 1373.56C1640.27 1379.88 1647.6 1388.07 1652.76 1398.12C1657.93 1408.17 1660.52 1420.09 1660.52 1433.88C1660.52 1453.69 1655.92 1470.21 1646.73 1483.42C1637.83 1496.34 1625.63 1506.11 1610.12 1512.71C1594.9 1519.03 1577.53 1522.19 1558.01 1522.19H1476.17V1220.62H1553.7C1571.79 1220.62 1587.44 1223.35 1600.65 1228.81C1614.14 1234.27 1624.62 1242.59 1632.09 1253.8C1639.56 1264.71 1643.29 1278.78 1643.29 1296.02C1643.29 1310.09 1639.56 1322.15 1632.09 1332.2C1624.62 1342.26 1614.14 1349.87 1600.65 1355.04C1587.44 1360.21 1571.79 1362.79 1553.7 1362.79H1505.03ZM1738.9 1431.72L1751.82 1397.26H1885.34L1898.26 1431.72H1738.9ZM1817.72 1288.69L1766.89 1408.46L1763.45 1416.21L1718.65 1522.19H1677.73L1817.72 1205.54L1957.7 1522.19H1916.78L1872.85 1418.8L1869.4 1410.18L1817.72 1288.69ZM2128.19 1220.62H2169.11L2068.75 1392.09V1522.19H2032.14V1392.52L1931.79 1220.62H1972.71L2050.23 1360.21L2128.19 1220.62Z" fill="black"/>
<path d="M4 1220.62H40.6108V1522.19H4V1220.62ZM94.4502 1522.19H24.2436V1485.57H94.4502C111.392 1485.57 126.897 1482.99 140.967 1477.82C155.038 1472.36 167.098 1464.75 177.148 1454.99C187.198 1444.93 194.95 1432.87 200.406 1418.8C205.862 1404.72 208.59 1388.93 208.59 1371.41C208.59 1353.89 205.862 1338.09 200.406 1324.02C194.95 1309.94 187.198 1298.03 177.148 1288.26C167.098 1278.21 155.038 1270.6 140.967 1265.43C126.897 1259.97 111.392 1257.24 94.4502 1257.24H24.2436V1220.62H94.4502C123.739 1220.62 149.725 1226.94 172.41 1239.58C195.094 1252.22 212.897 1269.88 225.818 1292.57C238.74 1314.97 245.201 1341.25 245.201 1371.41C245.201 1401.56 238.74 1427.99 225.818 1450.68C212.897 1473.08 195.094 1490.6 172.41 1503.24C149.725 1515.87 123.739 1522.19 94.4502 1522.19ZM277.37 1423.1C277.37 1403 281.82 1385.19 290.722 1369.68C299.91 1354.18 312.257 1341.97 327.763 1333.07C343.269 1324.16 360.641 1319.71 379.88 1319.71C399.405 1319.71 416.777 1324.16 431.996 1333.07C447.502 1341.97 459.705 1354.18 468.607 1369.68C477.796 1385.19 482.39 1403 482.39 1423.1C482.39 1442.92 477.796 1460.73 468.607 1476.53C459.705 1492.03 447.502 1504.24 431.996 1513.14C416.777 1522.05 399.405 1526.5 379.88 1526.5C360.641 1526.5 343.269 1522.05 327.763 1513.14C312.257 1504.24 299.91 1492.03 290.722 1476.53C281.82 1460.73 277.37 1442.92 277.37 1423.1ZM312.257 1423.1C312.257 1436.89 315.129 1449.1 320.872 1459.72C326.902 1470.35 334.942 1478.82 344.992 1485.14C355.329 1491.17 366.958 1494.19 379.88 1494.19C392.801 1494.19 404.287 1491.17 414.337 1485.14C424.674 1478.82 432.714 1470.35 438.457 1459.72C444.487 1449.1 447.502 1436.89 447.502 1423.1C447.502 1409.32 444.487 1397.11 438.457 1386.49C432.714 1375.57 424.674 1367.1 414.337 1361.07C404.287 1355.04 392.801 1352.02 379.88 1352.02C366.958 1352.02 355.329 1355.04 344.992 1361.07C334.942 1367.1 326.902 1375.57 320.872 1386.49C315.129 1397.11 312.257 1409.32 312.257 1423.1ZM545.231 1423.1C545.231 1436.89 548.103 1449.1 553.845 1459.72C559.875 1470.35 567.915 1478.82 577.966 1485.14C588.303 1491.17 599.932 1494.19 612.853 1494.19C623.478 1494.19 633.384 1492.61 642.573 1489.45C652.049 1486 660.232 1481.55 667.124 1476.09C674.015 1470.35 678.896 1464.32 681.768 1458V1501.08C674.876 1509.12 664.97 1515.44 652.049 1520.04C639.414 1524.35 626.349 1526.5 612.853 1526.5C593.615 1526.5 576.243 1522.05 560.737 1513.14C545.231 1504.24 532.884 1492.03 523.695 1476.53C514.794 1460.73 510.343 1442.92 510.343 1423.1C510.343 1403 514.794 1385.19 523.695 1369.68C532.884 1354.18 545.231 1341.97 560.737 1333.07C576.243 1324.16 593.615 1319.71 612.853 1319.71C626.349 1319.71 639.414 1322.01 652.049 1326.6C664.97 1330.91 674.876 1337.09 681.768 1345.13V1388.21C678.896 1381.6 674.015 1375.57 667.124 1370.12C660.232 1364.66 652.049 1360.35 642.573 1357.19C633.384 1353.74 623.478 1352.02 612.853 1352.02C599.932 1352.02 588.303 1355.04 577.966 1361.07C567.915 1367.1 559.875 1375.57 553.845 1386.49C548.103 1397.11 545.231 1409.32 545.231 1423.1ZM733.256 1186.16H767.713V1522.19H733.256V1186.16ZM840.934 1324.02H884.006L797.863 1405.87L892.62 1522.19H849.549L754.791 1405.87L840.934 1324.02ZM1117.98 1356.76C1113.39 1351.3 1107.36 1344.98 1099.89 1337.8C1092.72 1330.34 1086.26 1322.01 1080.51 1312.82C1075.06 1303.63 1072.33 1293.57 1072.33 1282.66C1072.33 1269.16 1075.49 1257.39 1081.8 1247.33C1088.12 1237.28 1096.74 1229.53 1107.65 1224.07C1118.85 1218.61 1131.62 1215.88 1145.98 1215.88C1161.2 1215.88 1174.12 1219.04 1184.75 1225.36C1195.66 1231.68 1203.98 1240.01 1209.73 1250.35C1215.47 1260.4 1218.34 1271.46 1218.34 1283.52C1218.34 1290.7 1216.91 1297.74 1214.03 1304.63C1211.16 1311.52 1207 1318.42 1201.54 1325.31C1196.09 1331.92 1189.48 1338.38 1181.73 1344.7C1173.98 1350.73 1165.08 1356.76 1155.03 1362.79C1147.27 1367.39 1138.8 1372.13 1129.61 1377.01C1120.43 1381.6 1111.67 1386.92 1103.34 1392.95C1095.3 1398.69 1088.7 1405.44 1083.53 1413.2C1078.36 1420.95 1075.77 1430.29 1075.77 1441.2C1075.77 1452.11 1078.5 1461.59 1083.96 1469.63C1089.7 1477.67 1097.31 1483.85 1106.79 1488.16C1116.26 1492.47 1126.74 1494.62 1138.23 1494.62C1152.01 1494.62 1165.22 1491.6 1177.85 1485.57C1190.78 1479.54 1203.12 1471.5 1214.9 1461.45C1226.67 1451.11 1238.01 1439.48 1248.92 1426.55C1260.12 1413.63 1270.89 1400.13 1281.23 1386.06L1307.93 1402.86C1296.44 1417.79 1284.67 1432.73 1272.61 1447.66C1260.55 1462.31 1247.63 1475.52 1233.85 1487.3C1220.06 1499.07 1205.13 1508.55 1189.05 1515.73C1172.97 1522.91 1155.31 1526.5 1136.07 1526.5C1119.71 1526.5 1104.06 1523.2 1089.13 1516.59C1074.48 1509.7 1062.42 1500.08 1052.95 1487.73C1043.76 1475.09 1039.16 1460.3 1039.16 1443.35C1039.16 1430.72 1041.32 1419.66 1045.62 1410.18C1050.22 1400.7 1055.96 1392.37 1062.85 1385.19C1070.03 1378.01 1077.78 1371.84 1086.11 1366.67C1094.44 1361.5 1102.62 1357.05 1110.66 1353.31C1118.7 1349.29 1125.59 1345.7 1131.34 1342.54C1147.42 1333.35 1160.05 1323.73 1169.24 1313.68C1178.72 1303.34 1183.45 1293.29 1183.45 1283.52C1183.45 1276.05 1181.87 1269.59 1178.72 1264.14C1175.84 1258.68 1171.68 1254.37 1166.23 1251.21C1160.77 1248.05 1154.02 1246.47 1145.98 1246.47C1134.21 1246.47 1125.02 1249.77 1118.42 1256.38C1111.81 1262.99 1108.51 1271.75 1108.51 1282.66C1108.51 1292.43 1112.39 1301.76 1120.14 1310.66C1127.89 1319.57 1136.07 1329.04 1144.69 1339.1L1304.05 1522.19H1262.71L1117.98 1356.76ZM1505.03 1362.79V1342.54H1553.7C1563.75 1342.54 1572.79 1340.82 1580.83 1337.37C1588.87 1333.93 1595.19 1328.9 1599.79 1322.29C1604.38 1315.69 1606.68 1307.65 1606.68 1298.17C1606.68 1283.81 1601.65 1272.75 1591.6 1265C1581.55 1256.96 1568.92 1252.93 1553.7 1252.93H1512.78V1489.88H1558.01C1570.93 1489.88 1582.27 1487.58 1592.03 1482.99C1602.08 1478.39 1609.84 1471.79 1615.29 1463.17C1621.03 1454.55 1623.91 1444.07 1623.91 1431.72C1623.91 1422.53 1622.33 1414.35 1619.17 1407.16C1616.01 1399.98 1611.42 1393.95 1605.39 1389.07C1599.64 1384.19 1592.75 1380.6 1584.71 1378.3C1576.67 1375.72 1567.77 1374.42 1558.01 1374.42H1505.03V1354.18H1558.01C1572.65 1354.18 1586.15 1355.75 1598.49 1358.91C1610.84 1362.07 1621.61 1366.96 1630.8 1373.56C1640.27 1379.88 1647.6 1388.07 1652.76 1398.12C1657.93 1408.17 1660.52 1420.09 1660.52 1433.88C1660.52 1453.69 1655.92 1470.21 1646.73 1483.42C1637.83 1496.34 1625.63 1506.11 1610.12 1512.71C1594.9 1519.03 1577.53 1522.19 1558.01 1522.19H1476.17V1220.62H1553.7C1571.79 1220.62 1587.44 1223.35 1600.65 1228.81C1614.14 1234.27 1624.62 1242.59 1632.09 1253.8C1639.56 1264.71 1643.29 1278.78 1643.29 1296.02C1643.29 1310.09 1639.56 1322.15 1632.09 1332.2C1624.62 1342.26 1614.14 1349.87 1600.65 1355.04C1587.44 1360.21 1571.79 1362.79 1553.7 1362.79H1505.03ZM1738.9 1431.72L1751.82 1397.26H1885.34L1898.26 1431.72H1738.9ZM1817.72 1288.69L1766.89 1408.46L1763.45 1416.21L1718.65 1522.19H1677.73L1817.72 1205.54L1957.7 1522.19H1916.78L1872.85 1418.8L1869.4 1410.18L1817.72 1288.69ZM2128.19 1220.62H2169.11L2068.75 1392.09V1522.19H2032.14V1392.52L1931.79 1220.62H1972.71L2050.23 1360.21L2128.19 1220.62Z" stroke="black" stroke-width="8" mask="url(#path-2-outside-1_217_2923)"/>
</svg>
