<svg width="2416" height="2500" viewBox="0 0 2416 2500" fill="none" xmlns="http://www.w3.org/2000/svg">
<path d="M496.599 342.103V452.517C456.868 487.813 361.93 508.81 291.247 508.81C220.655 508.81 25.2578 464.644 25.2578 257.12C25.2578 49.5958 211.242 4.88718 286.269 4.88718C361.387 4.88718 441.392 18.6437 487.73 49.5958V146.706C487.73 158.833 471.168 157.747 471.168 146.706C470.082 130.144 425.916 30.8616 315.502 33.0337C196.309 35.4773 115.761 129.148 115.761 252.685C115.761 376.222 194.047 482.292 312.244 478.944C350.617 477.858 390.62 465.73 409.988 449.621L410.44 342.103C410.44 311.241 391.706 300.2 372.972 300.2C360.754 300.2 360.754 282.551 372.972 282.551H534.068C546.195 282.551 546.195 301.286 534.068 300.2C515.424 300.2 496.599 311.241 496.599 342.103ZM1582.73 146.796C1582.73 158.924 1570.6 157.838 1570.6 146.796C1569.43 130.234 1525.35 27.6035 1414.94 29.8661C1295.74 32.2192 1215.11 129.239 1215.11 252.776C1215.11 376.313 1292.4 485.641 1410.5 482.383C1528.61 479.034 1584.9 362.104 1589.34 346.628C1593.77 331.152 1601.46 333.414 1601.46 345.542V436.045C1552.95 471.341 1461.27 508.9 1390.68 508.9C1320.09 508.9 1124.69 464.735 1124.69 257.211C1124.69 49.5958 1310.13 0 1385.16 0C1460.28 0 1536.39 18.7342 1582.82 49.5958L1582.73 146.796ZM2373.1 12.1274C2390.74 12.1274 2390.74 28.6896 2373.1 28.6896C2354.27 28.6896 2335.54 39.731 2335.54 70.5926V438.127C2335.54 468.988 2354.27 480.03 2373.1 480.03C2390.74 480.03 2390.74 502.113 2373.1 502.113H2210.82C2193.17 502.113 2193.17 480.03 2210.82 480.03C2229.65 480.03 2248.38 468.988 2248.38 438.127V70.5926C2248.38 39.6405 2229.65 28.6896 2210.82 28.6896C2193.17 28.6896 2193.17 12.1274 2210.82 12.1274H2373.1ZM1082.7 12.1274C1100.35 12.1274 1100.35 28.6896 1082.7 28.6896C1063.96 28.6896 1045.23 39.731 1045.23 70.5926L1043.06 311.784C1043.06 427.266 949.387 512.158 833.815 512.158C718.242 512.158 628.01 427.266 628.01 311.784V70.5926C628.01 39.6405 609.185 28.6896 590.451 28.6896C572.803 28.6896 572.803 12.1274 590.451 12.1274H753.81C771.458 12.1274 771.458 28.6896 753.81 28.6896C734.985 28.6896 716.251 39.731 716.251 70.5926L716.07 339.931C716.07 421.384 782.68 487.451 864.133 487.451C945.586 487.451 1011.65 404.821 1011.65 323.459L1007.67 70.5926C1007.67 39.6405 988.937 28.6896 970.113 28.6896C952.555 28.6896 952.555 12.1274 970.113 12.1274H1082.7ZM1233.75 1093.46C1331.97 1044.95 1440.06 1019.8 1549.61 1019.97C1656.85 1019.99 1762.7 1044.25 1859.26 1090.92C1955.81 1137.59 2040.57 1205.48 2107.21 1289.51C2173.84 1373.55 2220.63 1471.55 2244.07 1576.2C2267.51 1680.85 2267 1789.44 2242.58 1893.87C2218.16 1998.3 2170.46 2095.86 2103.04 2179.26C2035.62 2262.66 1950.22 2329.75 1853.24 2375.52C1756.25 2421.29 1650.17 2444.55 1542.93 2443.56C1435.69 2442.58 1330.06 2417.37 1233.93 2369.83C1137.81 2417.3 1032.22 2442.44 925.024 2443.38C817.83 2444.32 711.809 2421.04 614.875 2375.26C517.941 2329.49 432.599 2262.41 365.22 2179.04C297.842 2095.66 250.168 1998.14 225.757 1893.76C201.347 1789.38 200.831 1680.83 224.247 1576.22C247.664 1471.61 294.408 1373.64 360.99 1289.63C427.573 1205.62 512.273 1137.73 608.767 1091.04C705.261 1044.34 811.056 1020.05 918.254 1019.97C1031.75 1019.97 1138.54 1046.4 1233.75 1093.46ZM1377.29 1186.95C1487.55 1279.1 1566.92 1402.82 1604.72 1541.45H1457.2C1415.77 1424.4 1337.33 1324.03 1233.75 1255.55C1130.37 1324.08 1052.07 1424.36 1010.66 1541.27L863.228 1541.36C901.502 1402.56 981.112 1278.69 1091.48 1186.23C1035.35 1168.87 976.913 1160.14 918.164 1160.34C835.874 1160.42 754.572 1178.28 679.823 1212.69C605.074 1247.11 538.643 1297.26 485.074 1359.73C431.506 1422.2 392.066 1495.5 369.453 1574.62C346.84 1653.74 341.589 1736.82 354.057 1818.16C366.526 1899.5 396.421 1977.18 441.696 2045.9C486.971 2114.61 546.557 2172.74 616.378 2216.29C686.198 2259.84 764.603 2287.8 846.228 2298.24C927.853 2308.68 1010.77 2301.37 1089.31 2276.79C1017.44 2216.08 958.38 2141.66 915.586 2057.87C872.792 1974.09 847.117 1882.62 840.059 1788.8H1178.72V1930.8L1014.01 1930.71C1056.29 2044.05 1133.37 2141.09 1234.2 2207.92C1335.04 2141.21 1412 2044.11 1453.94 1930.71L1289.23 1930.8V1788.8H1627.89C1620.42 1882.65 1594.32 1974.06 1551.12 2057.71C1507.92 2141.36 1448.49 2215.56 1376.29 2275.98C1461.88 2303.22 1552.68 2309.89 1641.32 2295.46C1729.97 2281.02 1813.97 2245.89 1886.49 2192.92C1959.02 2139.94 2018.03 2070.61 2058.74 1990.55C2099.45 1910.49 2120.71 1821.96 2120.79 1732.15C2120.87 1642.33 2099.77 1553.76 2059.21 1473.63C2018.65 1393.5 1959.76 1324.06 1887.34 1270.95C1814.91 1217.84 1730.98 1182.55 1642.36 1167.96C1553.73 1153.36 1462.92 1159.87 1377.29 1186.95ZM2122.49 146.796C2122.49 158.924 2110.36 157.838 2110.36 146.796C2109.28 130.234 2065.11 27.6035 1954.7 29.8661C1835.51 32.2192 1754.87 129.239 1754.87 252.776C1754.87 376.313 1832.16 485.641 1950.26 482.383C2068.37 479.125 2124.66 362.104 2129.1 346.628C2133.53 331.152 2141.32 333.414 2141.32 345.542V436.045C2092.72 471.341 2001.13 508.9 1930.44 508.9C1859.85 508.9 1664.45 464.735 1664.45 257.211C1664.45 49.5958 1849.9 0 1925.01 0C2000.04 0 2076.24 18.7342 2122.58 49.5958L2122.49 146.796Z" fill="black"/>
</svg>
