<svg width="6278" height="1158" viewBox="0 0 6278 1158" fill="none" xmlns="http://www.w3.org/2000/svg">
<g clip-path="url(#clip0_195_344)">
<path d="M927.315 166.719H830.109L482.608 979.481L479.824 985.476H626.276L724.552 751.882H1042.29L1143.57 979.481L1146.99 987.617H1292.8L928.813 168.86L927.315 166.719ZM983.197 625.128H779.15L876.571 388.965L983.197 625.128Z" fill="black"/>
<path d="M1738.14 863.203C1698.1 864.702 1659.56 858.707 1622.09 844.79C1584.41 831.087 1551.01 810.532 1521.67 783.554C1493.84 757.005 1472.43 725.959 1457.87 690.202C1443.31 654.66 1436.46 617.619 1437.74 579.079C1436.89 540.325 1443.95 503.07 1459.15 467.314C1474.14 431.771 1495.98 400.511 1524.24 374.176C1553.36 346.555 1586.76 325.787 1624.23 311.441C1661.7 297.31 1700.67 290.673 1740.71 291.743C1835.77 294.313 1923.77 320.22 2005.14 369.465L2025.9 381.455V226.44L2017.34 222.586C1927.2 181.262 1832.78 159.209 1733.86 156.212C1675.41 154.927 1619.09 164.776 1564.71 185.759C1510.33 206.956 1462.15 237.573 1419.97 278.04C1378.01 317.008 1345.89 363.042 1323.62 415.927C1301.35 468.812 1290.86 523.839 1292.15 581.22C1292.15 617.833 1296.86 653.804 1306.07 689.132C1315.49 724.46 1329.19 758.075 1347.39 789.763C1365.59 821.452 1387.43 850.357 1413.33 876.264C1439.03 902.385 1467.5 924.653 1499.19 943.066C1571.99 981.392 1649.5 998.949 1731.5 995.952C1810.29 996.808 1886.3 983.747 1960.17 956.341C1982.87 947.991 2005.14 937.714 2026.33 926.152L2033.83 922.298V762.786L2012.2 776.703C1929.34 832.8 1838.13 861.705 1738.14 863.203Z" fill="black"/>
<path d="M2802.94 166.719H2623.31L2310.49 507.154V166.719H2168.75V986.76H2310.49V614.637L2691.39 982.906L2695.25 986.76H2890.09L2447.31 555.757L2802.94 166.719Z" fill="black"/>
<path d="M4113.3 687.863L3906.04 175.283L3902.61 166.719H3777.14L3567.1 687.863L3362.41 175.283L3358.77 166.719H3215.11L3541.2 979.481L3544.62 988.045H3587.87L3839.02 369.053L4084.39 979.481L4087.82 988.045H4131.5L4459.73 172.285L4462.3 166.719H4319.49L4113.3 687.863Z" fill="black"/>
<path d="M4539.84 166.719H4681.36V988.901H4539.84V166.719Z" fill="black"/>
<path d="M6127.66 534.973L6041.16 483.801C6010.76 467.314 5983.78 446.546 5960.23 421.495C5945.03 405.222 5937.11 385.952 5936.68 363.685C5936.68 340.133 5946.74 322.148 5966.65 309.515C5991.7 292.814 6019.54 284.892 6049.73 286.177C6104.54 287.248 6153.14 305.019 6195.54 339.919L6200.03 343.345L6251.42 220.017L6242 214.236C6184.83 175.268 6121.45 155.998 6052.3 156.212C5984.85 153.643 5925.33 174.412 5873.94 218.09C5851.03 238.859 5833.48 263.481 5821.49 291.744C5809.28 320.221 5803.72 349.768 5804.79 380.6C5804.36 424.278 5816.56 463.674 5841.61 499.431C5874.8 540.968 5914.62 574.583 5961.09 600.277L6047.59 652.734C6112.03 692.986 6145.01 735.594 6145.01 777.988C6145.44 804.11 6135.16 825.306 6114.6 841.579C6091.27 860.206 6064.72 868.985 6034.95 868.129C5968.37 865.987 5911.63 840.936 5864.95 793.19L5860.45 788.694L5807.36 916.089L5814.21 921.014C5879.72 971.115 5953.81 996.166 6036.24 995.952C6102.4 997.879 6160.21 976.682 6209.45 932.576C6232.15 911.379 6249.28 886.114 6261.27 857.423C6273.04 828.732 6278.4 798.757 6277.54 767.497C6279.25 673.502 6228.08 595.138 6127.66 534.973Z" fill="black"/>
<path d="M268.494 166.719H259.716V734.11C259.93 759.804 253.078 783.57 239.375 805.195C225.886 827.034 207.473 843.521 184.563 854.654C172.145 859.365 159.512 861.72 146.451 862.148C133.391 862.577 120.544 860.65 108.126 856.796C95.7073 852.942 84.1453 846.947 73.6539 839.238C63.1625 831.316 54.1699 822.11 46.8901 811.404L0 936.016C42.608 978.624 93.9944 1000.68 154.159 1001.96C177.069 1002.39 199.765 999.179 221.604 992.327C245.799 985.048 268.28 974.128 289.049 959.997C309.818 945.651 327.803 928.522 343.433 908.61C358.849 888.698 371.053 867.073 379.832 843.307C388.61 819.754 393.535 795.346 394.819 770.081V166.719H268.494Z" fill="black"/>
<path d="M4974.9 165.855H4833.38V988.038H5215.99V856.789H4974.9V165.855Z" fill="black"/>
<path d="M5470.54 165.855H5329.01V988.038H5711.63V856.789H5470.54V165.855Z" fill="black"/>
</g>
<defs>
<clipPath id="clip0_195_344">
<rect width="6277.63" height="1158" fill="white"/>
</clipPath>
</defs>
</svg>
