<svg width="6278" height="2317" viewBox="0 0 6278 2317" fill="none" xmlns="http://www.w3.org/2000/svg">
<g clip-path="url(#clip0_195_344)">
<path d="M927.311 746.219H830.105L482.604 1558.98L479.82 1564.98H626.272L724.548 1331.38H1042.29L1143.56 1558.98L1146.99 1567.12H1292.8L928.81 748.36L927.311 746.219ZM983.194 1204.63H779.146L876.567 968.465L983.194 1204.63Z" fill="black"/>
<path d="M1738.14 1442.7C1698.11 1444.2 1659.57 1438.21 1622.1 1424.29C1584.41 1410.59 1551.01 1390.03 1521.68 1363.05C1493.84 1336.5 1472.43 1305.46 1457.87 1269.7C1443.31 1234.16 1436.46 1197.12 1437.75 1158.58C1436.89 1119.83 1443.96 1082.57 1459.16 1046.81C1474.15 1011.27 1495.98 980.011 1524.25 953.676C1553.37 926.056 1586.77 905.287 1624.24 890.942C1661.71 876.81 1700.67 870.173 1740.71 871.243C1835.78 873.813 1923.78 899.72 2005.14 948.965L2025.91 960.956V805.94L2017.34 802.086C1927.2 760.763 1832.78 738.709 1733.86 735.712C1675.41 734.427 1619.1 744.276 1564.71 765.259C1510.33 786.456 1462.16 817.074 1419.98 857.54C1378.01 896.509 1345.89 942.542 1323.63 995.427C1301.36 1048.31 1290.87 1103.34 1292.15 1160.72C1292.15 1197.33 1296.86 1233.3 1306.07 1268.63C1315.49 1303.96 1329.19 1337.58 1347.39 1369.26C1365.59 1400.95 1387.43 1429.86 1413.34 1455.76C1439.03 1481.89 1467.51 1504.15 1499.2 1522.57C1571.99 1560.89 1649.5 1578.45 1731.51 1575.45C1810.3 1576.31 1886.31 1563.25 1960.18 1535.84C1982.87 1527.49 2005.14 1517.21 2026.34 1505.65L2033.83 1501.8V1342.29L2012.2 1356.2C1929.34 1412.3 1838.13 1441.2 1738.14 1442.7Z" fill="black"/>
<path d="M2802.94 746.219H2623.31L2310.49 1086.65V746.219H2168.75V1566.26H2310.49V1194.14L2691.39 1562.41L2695.25 1566.26H2890.09L2447.31 1135.26L2802.94 746.219Z" fill="black"/>
<path d="M4113.29 1267.36L3906.04 754.783L3902.61 746.219H3777.14L3567.1 1267.36L3362.41 754.783L3358.77 746.219H3215.1L3541.19 1558.98L3544.62 1567.55H3587.87L3839.02 948.553L4084.39 1558.98L4087.81 1567.55H4131.49L4459.72 751.786L4462.29 746.219H4319.48L4113.29 1267.36Z" fill="black"/>
<path d="M4539.84 746.219H4681.36V1568.4H4539.84V746.219Z" fill="black"/>
<path d="M6127.66 1114.47L6041.16 1063.3C6010.76 1046.81 5983.78 1026.05 5960.23 1000.99C5945.03 984.722 5937.11 965.452 5936.68 943.185C5936.68 919.633 5946.74 901.648 5966.65 889.015C5991.7 872.314 6019.54 864.392 6049.73 865.677C6104.54 866.748 6153.14 884.519 6195.54 919.419L6200.03 922.844L6251.42 799.517L6242 793.736C6184.83 754.768 6121.45 735.498 6052.3 735.712C5984.85 733.143 5925.33 753.912 5873.94 797.59C5851.03 818.359 5833.48 842.981 5821.49 871.244C5809.28 899.721 5803.72 929.268 5804.79 960.1C5804.36 1003.78 5816.56 1043.17 5841.61 1078.93C5874.8 1120.47 5914.62 1154.08 5961.09 1179.78L6047.59 1232.23C6112.03 1272.49 6145.01 1315.09 6145.01 1357.49C6145.44 1383.61 6135.16 1404.81 6114.6 1421.08C6091.27 1439.71 6064.72 1448.48 6034.95 1447.63C5968.37 1445.49 5911.63 1420.44 5864.95 1372.69L5860.45 1368.19L5807.36 1495.59L5814.21 1500.51C5879.72 1550.62 5953.81 1575.67 6036.24 1575.45C6102.4 1577.38 6160.21 1556.18 6209.45 1512.08C6232.15 1490.88 6249.28 1465.61 6261.27 1436.92C6273.04 1408.23 6278.4 1378.26 6277.54 1347C6279.25 1253 6228.08 1174.64 6127.66 1114.47Z" fill="black"/>
<path d="M268.494 746.219H259.716V1313.61C259.93 1339.3 253.078 1363.07 239.375 1384.7C225.886 1406.53 207.473 1423.02 184.563 1434.15C172.145 1438.87 159.512 1441.22 146.451 1441.65C133.391 1442.08 120.544 1440.15 108.126 1436.3C95.7073 1432.44 84.1453 1426.45 73.6539 1418.74C63.1625 1410.82 54.1699 1401.61 46.8901 1390.9L0 1515.52C42.608 1558.12 93.9944 1580.18 154.159 1581.46C177.069 1581.89 199.765 1578.68 221.604 1571.83C245.799 1564.55 268.28 1553.63 289.049 1539.5C309.818 1525.15 327.803 1508.02 343.433 1488.11C358.849 1468.2 371.053 1446.57 379.832 1422.81C388.61 1399.25 393.535 1374.85 394.819 1349.58V746.219H268.494Z" fill="black"/>
<path d="M4974.9 745.355H4833.38V1567.54H5215.99V1436.29H4974.9V745.355Z" fill="black"/>
<path d="M5470.54 745.355H5329.02V1567.54H5711.63V1436.29H5470.54V745.355Z" fill="black"/>
</g>
<defs>
<clipPath id="clip0_195_344">
<rect width="6277.63" height="2317" fill="white"/>
</clipPath>
</defs>
</svg>
