<svg width="1629" height="1157" viewBox="0 0 1629 1157" fill="none" xmlns="http://www.w3.org/2000/svg">
<mask id="mask0_170_83" style="mask-type:luminance" maskUnits="userSpaceOnUse" x="126" y="165" width="1377" height="827">
<path d="M1503 165.059H126V991.942H1503V165.059Z" fill="white"/>
</mask>
<g mask="url(#mask0_170_83)">
<path fill-rule="evenodd" clip-rule="evenodd" d="M397.686 524.879C397.686 561.071 460.574 627.395 528.818 626.464C456.43 585.102 426.973 561.069 417.36 484.302C327.78 516.417 299.956 514.171 214.319 470.534C257.804 528.459 319.15 541.69 397.686 524.879Z" fill="#0C9253"/>
<path fill-rule="evenodd" clip-rule="evenodd" d="M473.934 375.425C488.996 449.665 589.825 575.599 718.366 573.837C576.947 504.689 523.98 440.036 523.98 290.537C381.227 376.987 313.274 367.062 126 280.148C207.904 389.248 348.047 407.115 473.934 375.425Z" fill="#0C9253"/>
<path fill-rule="evenodd" clip-rule="evenodd" d="M434.733 458.819C434.73 515.055 532.456 618.121 638.498 616.669C527.026 552.401 470.504 515.055 457.514 404.853C318.315 454.753 282.87 442.185 149.798 374.371C217.37 464.379 312.692 484.947 434.733 458.819Z" fill="#0C9253"/>
<path fill-rule="evenodd" clip-rule="evenodd" d="M1197.47 524.879C1197.47 561.071 1134.58 627.395 1066.34 626.464C1138.73 585.102 1168.19 561.069 1177.8 484.302C1267.38 516.417 1295.2 514.171 1380.84 470.534C1337.36 528.459 1276.01 541.69 1197.47 524.879Z" fill="#0C9253"/>
<path fill-rule="evenodd" clip-rule="evenodd" d="M1119.88 372.977C1104.81 447.217 1003.99 573.15 875.446 571.388C1016.87 502.241 1069.84 437.589 1069.84 288.088C1212.58 374.54 1280.54 364.614 1467.81 277.7C1385.91 386.8 1245.76 404.668 1119.88 372.977Z" fill="#0C9253"/>
<path fill-rule="evenodd" clip-rule="evenodd" d="M1159.14 456.403C1159.14 512.639 1061.41 615.705 955.366 614.253C1066.84 549.984 1123.36 512.639 1136.35 402.436C1275.55 452.339 1311 439.768 1444.07 371.954C1376.5 461.962 1281.17 482.53 1159.14 456.403Z" fill="#0C9253"/>
<mask id="mask1_170_83" style="mask-type:luminance" maskUnits="userSpaceOnUse" x="638" y="171" width="315" height="311">
<path d="M795.732 171.421C882.588 171.421 952.988 240.894 952.988 326.597C952.988 412.31 882.588 481.783 795.732 481.783C708.889 481.783 638.489 412.31 638.489 326.597C638.489 240.894 708.886 171.421 795.732 171.421Z" fill="white"/>
</mask>
<g mask="url(#mask1_170_83)">
<path d="M801.779 171.539C828.692 204.271 852.873 267.772 852.873 334.68C852.873 385.522 838.968 438.482 801.873 481.658C799.869 481.735 797.856 481.783 795.833 481.783C794.624 481.783 793.422 481.766 792.22 481.74V171.465C793.422 171.438 794.628 171.421 795.833 171.421C797.827 171.421 799.807 171.467 801.779 171.539ZM845.708 334.68C845.708 271.961 824.141 212.532 799.384 179.901V473.624C833.025 432.568 845.708 382.688 845.708 334.68Z" fill="#2A55A3"/>
<path d="M792.135 179.903C767.372 212.534 745.808 271.964 745.808 334.681C745.808 382.69 758.495 432.571 792.135 473.627V179.903ZM795.853 171.421C797.006 171.421 798.154 171.438 799.3 171.463V481.742C798.154 481.766 797.006 481.783 795.853 481.783C793.767 481.783 791.702 481.733 789.637 481.652C752.549 438.475 738.644 385.52 738.644 334.68C738.644 267.779 762.821 204.28 789.734 171.548C791.765 171.471 793.801 171.421 795.853 171.421Z" fill="#2A55A3"/>
<path d="M805.121 171.693C829.663 188.091 852.908 211.942 870.038 239.916C885.461 265.125 896.023 293.784 898.173 323.388C900.334 353.125 894.105 383.899 876.003 413.286C861.138 437.416 838.208 460.621 805.358 481.492C802.215 481.678 799.045 481.783 795.849 481.783C794.637 481.783 793.425 481.766 792.22 481.74V171.465C793.429 171.438 794.637 171.421 795.849 171.421C798.964 171.421 802.053 171.517 805.121 171.693ZM863.91 243.568C846.921 215.831 823.76 192.302 799.41 176.439V476.868C832.387 456.287 855.238 433.387 869.876 409.607C887.132 381.596 893.069 352.237 891.01 323.887C888.938 295.435 878.773 267.858 863.91 243.568Z" fill="#2A55A3"/>
<path d="M792.129 176.445C767.783 192.308 744.618 215.837 727.629 243.574C712.769 267.864 702.601 295.439 700.529 323.906C698.474 352.255 704.409 381.613 721.663 409.627C736.304 433.39 759.139 456.292 792.129 476.872V176.445ZM795.758 171.425C796.95 171.425 798.136 171.442 799.321 171.469V481.744C798.136 481.769 796.95 481.788 795.758 481.788C792.539 481.788 789.346 481.679 786.173 481.491C753.337 460.637 730.402 437.43 715.538 413.306C697.438 383.916 691.204 353.142 693.368 323.405C695.511 293.785 706.081 265.129 721.504 239.92C738.633 211.948 761.872 188.099 786.411 171.701C789.506 171.521 792.614 171.425 795.758 171.425Z" fill="#2A55A3"/>
<path d="M651.019 265.961H940.591C941.602 268.299 942.547 270.666 943.439 273.059H648.168C649.061 270.666 650.013 268.297 651.019 265.961Z" fill="#2A55A3"/>
<path d="M638.87 336.264H952.744C952.593 338.643 952.395 341.01 952.141 343.361H639.477C639.222 341.01 639.02 338.643 638.87 336.264Z" fill="#2A55A3"/>
<path d="M661.013 406.594H930.563C929.09 409.004 927.556 411.371 925.956 413.691H665.617C664.017 411.369 662.483 409.002 661.013 406.594Z" fill="#2A55A3"/>
</g>
<path d="M795.728 171.421C882.584 171.421 952.981 240.894 952.981 326.597C952.981 412.31 882.584 481.783 795.728 481.783C708.882 481.783 638.485 412.31 638.485 326.597C638.485 240.894 708.882 171.421 795.728 171.421Z" stroke="#2A55A3" stroke-width="0.5" stroke-miterlimit="2.61313"/>
<path fill-rule="evenodd" clip-rule="evenodd" d="M1160.25 752.273C1119.02 758.664 1038.93 747.853 999.935 739.012C951.708 728.08 910.186 707.836 876.802 684.919C836.638 657.356 811.044 620.521 797.501 583.905C783.944 620.521 758.344 657.352 718.19 684.919C684.806 707.836 643.282 728.08 595.054 739.012C556.06 747.853 475.97 758.664 434.737 752.273C436.269 749.175 467.823 706.018 469.992 704.158C478.307 697.08 475.215 699.607 489.373 700.047C496.675 700.271 502.566 700.65 510.019 700.403C617.971 696.773 756.535 639.457 787.244 543.621L786.844 540.596C769.968 577.596 733.962 610.027 701.484 632.278C648.669 668.453 558.988 698.793 479.063 689.471C482.046 683.271 515.008 638.685 524.097 628.977C525.145 627.858 526.3 626.733 527.462 625.721C624.871 654.544 784.729 531.693 779.348 511.888C785.863 515.695 792.279 522.016 797.501 531.237C802.224 522.868 807.558 516.996 815.644 511.888C810.259 531.693 970.121 654.542 1067.53 625.721C1068.69 626.733 1069.84 627.858 1070.89 628.977C1079.99 638.685 1112.94 683.268 1115.93 689.471C1036 698.793 946.312 668.453 893.508 632.278C860.577 609.717 825.063 577.349 808.177 540.331L807.75 543.621C838.466 639.46 977.018 696.757 1084.97 700.403C1092.43 700.65 1098.31 700.271 1105.61 700.047C1119.77 699.607 1116.68 697.077 1124.99 704.158C1127.17 706.021 1158.72 749.175 1160.25 752.273Z" fill="#2A55A3"/>
<path fill-rule="evenodd" clip-rule="evenodd" d="M795.77 542.022C669.198 542.022 566.58 439.427 566.58 312.87C566.58 305.932 566.906 298.997 567.527 292.088C567.616 291.105 568.433 290.359 569.42 290.359C570.408 290.359 571.222 291.107 571.314 292.088C581.738 408.048 679.271 497.001 795.767 497.001C912.266 497.001 1009.8 408.044 1020.22 292.088C1020.31 291.105 1021.13 290.359 1022.11 290.359C1023.1 290.359 1023.92 291.107 1024.01 292.088C1024.63 298.997 1024.95 305.932 1024.95 312.87C1024.95 439.424 922.35 542.022 795.77 542.022Z" fill="url(#paint0_linear_170_83)"/>
<path d="M184.285 904.969V811.411H204.308V887.96H236.244V904.969H184.285ZM290.447 867.15C289.949 863.183 288.508 860.174 286.128 858.14C283.772 856.115 280.544 855.108 276.467 855.108C272.391 855.108 269.116 856.115 266.672 858.14C264.209 860.174 262.657 863.18 261.959 867.15H290.447ZM308.447 878.142H261.394C262.111 882.659 263.75 886.038 266.325 888.262C268.877 890.506 272.342 891.62 276.726 891.62C280.046 891.62 282.923 890.989 285.323 889.702C287.745 888.435 289.75 886.497 291.364 883.897L306.026 891.226C302.623 896.724 298.477 900.803 293.633 903.464C288.765 906.122 282.989 907.455 276.313 907.455C266.17 907.455 258.144 904.421 252.211 898.383C246.298 892.343 243.332 884.207 243.332 873.978C243.332 864.141 246.43 856.049 252.627 849.705C258.82 843.359 266.759 840.193 276.445 840.193C286.415 840.193 294.291 843.163 300.092 849.118C305.871 855.047 308.772 863.16 308.772 873.412C308.772 873.978 308.752 874.562 308.706 875.242C308.665 875.897 308.576 876.852 308.447 878.142ZM324.5 904.969V856.551H315.732V842.29H324.5V821.479H342.694V842.29H351.46V856.551H342.694V904.969H324.5ZM363.87 851.451L376.199 811.411H395.807L376.065 851.451H363.87ZM402.765 893.975L416.771 886.78C417.227 889.2 418.49 891.122 420.544 892.512C422.57 893.936 425.102 894.633 428.134 894.633C431.121 894.633 433.455 894.089 435.159 892.995C436.861 891.923 437.71 890.421 437.71 888.499C437.71 885.467 434.678 882.942 428.636 880.89C426.761 880.258 425.275 879.735 424.163 879.301C416.795 876.532 411.687 873.738 408.85 870.926C406.018 868.111 404.601 864.646 404.601 860.523C404.601 854.373 406.997 849.424 411.819 845.63C416.643 841.834 422.989 839.935 430.881 839.935C436.487 839.935 441.376 841.069 445.475 843.313C449.595 845.561 452.588 848.766 454.462 852.89L441.11 859.564C440.394 857.209 439.129 855.418 437.337 854.196C435.551 852.978 433.304 852.369 430.619 852.369C427.936 852.369 425.778 852.91 424.099 854.026C422.441 855.138 421.613 856.601 421.613 858.385C421.613 861.505 425.734 864.408 434.002 867.111C434.983 867.395 435.726 867.634 436.251 867.809C443.119 870.054 448.005 872.692 450.908 875.681C453.81 878.692 455.247 882.506 455.247 887.152C455.247 893.37 452.849 898.298 448.027 901.963C443.208 905.624 436.709 907.455 428.528 907.455C422.048 907.455 416.53 906.256 411.948 903.862C407.349 901.438 404.294 898.141 402.765 893.975ZM556.825 855.633H599.428C599.517 856.179 599.581 856.789 599.604 857.428C599.624 858.056 599.624 859.04 599.624 860.366C599.624 874.369 595.634 885.732 587.629 894.409C579.621 903.113 569.26 907.455 556.587 907.455C542.061 907.455 530.087 902.828 520.689 893.564C511.286 884.294 506.572 872.519 506.572 858.252C506.572 844.124 511.306 832.431 520.754 823.183C530.195 813.931 542.148 809.309 556.587 809.309C564.204 809.309 571.184 810.902 577.529 814.111C583.875 817.294 589.545 822.072 594.523 828.44L581.061 838.362C577.705 834.2 574.17 831.209 570.463 829.349C566.756 827.498 562.458 826.583 557.617 826.583C548.365 826.583 540.972 829.463 535.43 835.218C529.893 840.955 527.122 848.655 527.122 858.272C527.122 867.741 529.893 875.369 535.453 881.194C541.015 887.015 548.279 889.921 557.222 889.921C563.788 889.921 569.111 888.369 573.213 885.271C577.288 882.173 579.341 878.137 579.341 873.145V872.122H556.829L556.825 855.633ZM631.47 858.407C633.298 852.3 635.921 847.744 639.345 844.731C642.789 841.701 647.021 840.193 652.102 840.193C653.237 840.193 655.133 840.411 657.772 840.827C658.297 840.916 658.674 840.98 658.931 841.023L656.181 860.61C654.83 860.039 653.455 859.607 652.057 859.323C650.685 859.04 649.224 858.907 647.695 858.907C642.157 858.907 638.163 860.327 635.741 863.16C633.321 865.995 632.096 870.75 632.096 877.402V904.965H613.904V842.29H631.836L631.47 858.407ZM714.577 873.718C714.577 868.613 713.094 864.559 710.104 861.502C707.113 858.473 703.122 856.942 698.084 856.942C693.067 856.942 689.077 858.448 686.135 861.484C683.186 864.496 681.727 868.572 681.727 873.718C681.727 878.842 683.186 882.92 686.135 885.976C689.077 889.047 693.067 890.574 698.084 890.574C703.083 890.574 707.07 889.047 710.061 885.976C713.071 882.924 714.577 878.842 714.577 873.718ZM733.162 873.848C733.162 883.486 729.866 891.49 723.278 897.884C716.691 904.268 708.36 907.455 698.239 907.455C688.05 907.455 679.655 904.272 673.042 897.884C666.438 891.49 663.141 883.486 663.141 873.848C663.141 864.269 666.454 856.268 673.106 849.835C679.762 843.398 688.135 840.193 698.239 840.193C708.399 840.193 716.755 843.359 723.317 849.705C729.889 856.049 733.162 864.102 733.162 873.848ZM801.325 842.29L810.398 874.74C810.574 875.398 810.793 876.509 811.049 878.142C811.336 879.757 811.838 883.07 812.555 888.113C812.948 886.148 813.432 884.077 813.995 881.894C814.564 879.735 815.281 877.288 816.132 874.61L825.883 842.29H845.691L823.964 904.965H804.592L795.197 872.515C795.018 871.907 794.738 870.942 794.366 869.636C792.946 864.724 791.923 860.737 791.291 857.617C790.723 860.523 790.177 863.16 789.652 865.538C789.107 867.936 788.538 870.161 787.952 872.252L778.288 904.965H758.923L737.193 842.29H757.067L766.665 873.408C767.514 876.222 768.215 878.754 768.762 881.043C769.326 883.308 769.785 885.643 770.18 888.04C770.509 885.447 770.919 882.94 771.401 880.519C771.86 878.121 772.405 875.786 773.059 873.542L781.433 842.29H801.325ZM942.018 855.633H984.622C984.706 856.179 984.771 856.789 984.794 857.428C984.814 858.056 984.814 859.04 984.814 860.366C984.814 874.369 980.822 885.732 972.821 894.409C964.81 903.113 954.454 907.455 941.777 907.455C927.25 907.455 915.274 902.828 905.877 893.564C896.475 884.294 891.764 872.519 891.764 858.252C891.764 844.124 896.491 832.431 905.943 823.183C915.384 813.931 927.337 809.309 941.777 809.309C949.391 809.309 956.372 810.902 962.719 814.111C969.065 817.294 974.734 822.072 979.712 828.44L966.25 838.362C962.895 834.2 959.357 831.209 955.649 829.349C951.941 827.498 947.645 826.583 942.803 826.583C933.553 826.583 926.162 829.463 920.622 835.218C915.078 840.955 912.312 848.655 912.312 858.272C912.312 867.741 915.082 875.369 920.643 881.194C926.203 887.015 933.469 889.921 942.412 889.921C948.976 889.921 954.297 888.369 958.402 885.271C962.477 882.173 964.529 878.137 964.529 873.145V872.122H942.021L942.018 855.633ZM999.758 904.969V805.909H1017.95V904.969H999.758ZM1083.8 873.718C1083.8 868.613 1082.32 864.559 1079.32 861.502C1076.33 858.473 1072.35 856.942 1067.31 856.942C1062.29 856.942 1058.3 858.448 1055.36 861.484C1052.41 864.496 1050.95 868.572 1050.95 873.718C1050.95 878.842 1052.41 882.92 1055.36 885.976C1058.3 889.047 1062.29 890.574 1067.31 890.574C1072.31 890.574 1076.3 889.047 1079.29 885.976C1082.3 882.924 1083.8 878.842 1083.8 873.718ZM1102.39 873.848C1102.39 883.486 1099.09 891.49 1092.5 897.884C1085.91 904.268 1077.58 907.455 1067.46 907.455C1057.28 907.455 1048.88 904.272 1042.27 897.884C1035.66 891.49 1032.36 883.486 1032.36 873.848C1032.36 864.269 1035.68 856.268 1042.33 849.835C1048.99 843.398 1057.36 840.193 1067.46 840.193C1077.62 840.193 1085.98 843.359 1092.54 849.705C1099.11 856.049 1102.39 864.102 1102.39 873.848ZM1132.68 873.519C1132.68 879.19 1134.07 883.616 1136.87 886.757C1139.66 889.921 1143.54 891.49 1148.54 891.49C1153.53 891.49 1157.41 889.921 1160.21 886.757C1163 883.616 1164.4 879.187 1164.4 873.519C1164.4 867.848 1162.98 863.402 1160.14 860.128C1157.3 856.877 1153.4 855.245 1148.41 855.245C1143.58 855.245 1139.77 856.877 1136.93 860.174C1134.09 863.441 1132.68 867.897 1132.68 873.519ZM1116.1 904.969V805.909H1133.51V841.656C1133.51 843.619 1133.45 845.561 1133.3 847.502C1133.14 849.421 1132.94 851.317 1132.68 853.147C1135.67 848.636 1138.9 845.34 1142.39 843.288C1145.9 841.222 1149.89 840.19 1154.41 840.19C1163.35 840.19 1170.34 843.135 1175.35 849.047C1180.34 854.939 1182.85 863.157 1182.85 873.734C1182.85 883.897 1180.32 892.076 1175.24 898.226C1170.18 904.38 1163.5 907.451 1155.24 907.451C1150.26 907.451 1146.03 906.535 1142.56 904.682C1139.07 902.826 1136.1 899.927 1133.64 895.956L1133.77 904.965L1116.1 904.969ZM1242.93 873.519C1242.93 867.894 1241.51 863.445 1238.67 860.174C1235.83 856.88 1232.02 855.245 1227.19 855.245C1222.24 855.245 1218.36 856.88 1215.53 860.131C1212.69 863.402 1211.27 867.851 1211.27 873.522C1211.27 879.19 1212.67 883.62 1215.46 886.757C1218.25 889.923 1222.11 891.49 1227.07 891.49C1232.11 891.49 1236.01 889.923 1238.78 886.757C1241.55 883.62 1242.93 879.187 1242.93 873.519ZM1259.57 904.969H1241.9L1242.16 895.959C1239.69 899.933 1236.73 902.826 1233.24 904.686C1229.77 906.539 1225.53 907.455 1220.57 907.455C1212.26 907.455 1205.56 904.357 1200.45 898.187C1195.37 892.014 1192.82 883.858 1192.82 873.734C1192.82 863.157 1195.32 854.939 1200.32 849.047C1205.34 843.135 1212.3 840.19 1221.2 840.19C1225.84 840.19 1229.92 841.242 1233.43 843.31C1236.95 845.408 1239.91 848.502 1242.29 852.623V842.29H1259.57V904.969ZM1277.34 904.969V805.909H1295.54V904.969H1277.34ZM1314.66 904.969V805.909H1332.86V904.969H1314.66ZM1366.77 900.129L1341.52 842.29H1362.56L1373.43 870.969C1374.14 872.754 1374.73 874.829 1375.22 877.138C1375.68 879.473 1376.04 882.05 1376.31 884.903C1376.72 882.614 1377.26 880.255 1377.9 877.881C1378.53 875.48 1379.32 872.953 1380.26 870.264L1389.79 842.29H1410.62L1373.29 933.49H1353.16L1366.77 900.129Z" fill="#2A55A3"/>
</g>
<defs>
<linearGradient id="paint0_linear_170_83" x1="566.583" y1="416.19" x2="1024.96" y2="416.19" gradientUnits="userSpaceOnUse">
<stop stop-color="#DC9617"/>
<stop offset="0.388235" stop-color="#FFCF25"/>
<stop offset="0.6" stop-color="#FFFF90"/>
<stop offset="0.85098" stop-color="#DA9917"/>
<stop offset="1" stop-color="#ECBF26"/>
</linearGradient>
</defs>
</svg>
