<svg width="1000" height="569" viewBox="0 0 1000 569" fill="none" xmlns="http://www.w3.org/2000/svg">
<path fill-rule="evenodd" clip-rule="evenodd" d="M202.421 263.595C202.421 290.56 249.276 339.975 300.121 339.281C246.188 308.464 224.241 290.558 217.079 233.363C150.337 257.29 129.607 255.617 65.8027 223.105C98.2009 266.262 143.907 276.12 202.421 263.595Z" fill="#0C9253"/>
<path fill-rule="evenodd" clip-rule="evenodd" d="M259.23 152.244C270.452 207.557 345.575 301.385 441.345 300.072C335.98 248.553 296.517 200.383 296.517 88.9975C190.158 153.408 139.529 146.013 0 81.2578C61.0226 162.543 165.437 175.855 259.23 152.244Z" fill="#0C9253"/>
<path fill-rule="evenodd" clip-rule="evenodd" d="M230.023 214.377C230.021 256.276 302.832 333.066 381.839 331.984C298.786 284.101 256.674 256.276 246.996 174.17C143.285 211.348 116.877 201.984 17.7305 151.459C68.0753 218.52 139.096 233.844 230.023 214.377Z" fill="#0C9253"/>
<path fill-rule="evenodd" clip-rule="evenodd" d="M798.307 263.595C798.307 290.56 751.45 339.975 700.604 339.281C754.537 308.464 776.485 290.558 783.646 233.363C850.39 257.29 871.119 255.617 934.923 223.105C902.526 266.262 856.82 276.12 798.307 263.595Z" fill="#0C9253"/>
<path fill-rule="evenodd" clip-rule="evenodd" d="M740.492 150.42C729.268 205.733 654.148 299.56 558.378 298.247C663.743 246.729 703.209 198.56 703.209 87.1731C809.564 151.585 860.193 144.189 999.723 79.4336C938.7 160.719 834.284 174.032 740.492 150.42Z" fill="#0C9253"/>
<path fill-rule="evenodd" clip-rule="evenodd" d="M769.742 212.577C769.742 254.476 696.93 331.266 617.923 330.184C700.976 282.3 743.09 254.476 752.768 172.369C856.477 209.549 882.887 200.183 982.033 149.658C931.69 216.719 860.667 232.043 769.742 212.577Z" fill="#0C9253"/>
<mask id="mask0_170_113" style="mask-type:luminance" maskUnits="userSpaceOnUse" x="381" y="0" width="236" height="232">
<path d="M498.987 0.25C563.699 0.25 616.151 52.0116 616.151 115.865C616.151 179.726 563.699 231.487 498.987 231.487C434.284 231.487 381.832 179.726 381.832 115.865C381.832 52.0116 434.282 0.25 498.987 0.25Z" fill="white"/>
</mask>
<g mask="url(#mask0_170_113)">
<path d="M503.492 0.33827C523.544 24.7255 541.56 72.0369 541.56 121.887C541.56 159.767 531.2 199.225 503.562 231.394C502.069 231.451 500.569 231.487 499.062 231.487C498.161 231.487 497.266 231.474 496.37 231.455V0.2827C497.266 0.26309 498.164 0.25 499.062 0.25C500.548 0.25 502.023 0.28435 503.492 0.33827ZM536.222 121.887C536.222 75.1582 520.153 30.8797 501.708 6.56777V225.408C526.772 194.819 536.222 157.656 536.222 121.887Z" fill="#2A55A3"/>
<path d="M496.307 6.56947C477.857 30.8814 461.791 75.1599 461.791 121.888C461.791 157.657 471.243 194.821 496.307 225.41V6.56947ZM499.077 0.25C499.936 0.25 500.791 0.26309 501.645 0.28107V231.456C500.791 231.474 499.936 231.487 499.077 231.487C497.523 231.487 495.984 231.45 494.446 231.389C466.813 199.22 456.453 159.766 456.453 121.887C456.453 72.0418 474.466 24.7318 494.518 0.3448C496.031 0.2876 497.548 0.25 499.077 0.25Z" fill="#2A55A3"/>
<path d="M505.982 0.45265C524.267 12.6699 541.586 30.4402 554.349 51.2826C565.84 70.0645 573.709 91.4169 575.311 113.474C576.921 135.63 572.28 158.558 558.793 180.453C547.718 198.431 530.634 215.72 506.159 231.27C503.817 231.409 501.455 231.487 499.074 231.487C498.171 231.487 497.268 231.474 496.37 231.455V0.2827C497.271 0.26309 498.171 0.25 499.074 0.25C501.395 0.25 503.696 0.32191 505.982 0.45265ZM549.783 54.0037C537.125 33.3377 519.869 15.8076 501.727 3.98904V227.825C526.297 212.491 543.322 195.429 554.228 177.712C567.085 156.842 571.508 134.968 569.974 113.846C568.43 92.6475 560.857 72.1007 549.783 54.0037Z" fill="#2A55A3"/>
<path d="M496.302 3.9936C478.163 15.8121 460.904 33.3421 448.246 54.0081C437.175 72.1052 429.599 92.6503 428.055 113.859C426.524 134.981 430.946 156.854 443.801 177.726C454.71 195.431 471.723 212.494 496.302 227.827V3.9936ZM499.006 0.25293C499.894 0.25293 500.778 0.26601 501.661 0.28562V231.457C500.778 231.476 499.894 231.49 499.006 231.49C496.608 231.49 494.229 231.409 491.865 231.269C467.4 215.731 450.312 198.441 439.238 180.467C425.752 158.57 421.108 135.642 422.72 113.486C424.317 91.4182 432.192 70.0673 443.683 51.2856C456.445 30.4446 473.759 12.6761 492.042 0.45886C494.348 0.32484 496.664 0.25293 499.006 0.25293Z" fill="#2A55A3"/>
<path d="M391.168 70.6875H606.915C607.668 72.4296 608.372 74.1927 609.037 75.9758H389.044C389.709 74.1927 390.418 72.4279 391.168 70.6875Z" fill="#2A55A3"/>
<path d="M382.116 123.066H615.969C615.857 124.839 615.709 126.602 615.52 128.354H382.568C382.378 126.602 382.228 124.839 382.116 123.066Z" fill="#2A55A3"/>
<path d="M398.614 175.467H599.443C598.346 177.263 597.203 179.026 596.011 180.755H402.044C400.852 179.025 399.709 177.261 398.614 175.467Z" fill="#2A55A3"/>
</g>
<path d="M498.984 0.25C563.696 0.25 616.146 52.0116 616.146 115.865C616.146 179.726 563.696 231.487 498.984 231.487C434.279 231.487 381.829 179.726 381.829 115.865C381.829 52.0116 434.279 0.25 498.984 0.25Z" stroke="#2A55A3" stroke-width="0.5" stroke-miterlimit="2.61313"/>
<path fill-rule="evenodd" clip-rule="evenodd" d="M770.574 433.016C739.852 437.778 680.184 429.723 651.129 423.136C615.197 414.991 584.261 399.908 559.388 382.834C529.464 362.298 510.395 334.854 500.305 307.573C490.204 334.854 471.131 362.295 441.214 382.834C416.341 399.908 385.403 414.991 349.471 423.136C320.418 429.723 260.747 437.778 230.026 433.016C231.167 430.708 254.677 398.554 256.293 397.168C262.488 391.894 260.184 393.777 270.733 394.105C276.173 394.272 280.562 394.554 286.115 394.37C366.545 391.666 469.783 348.962 492.663 277.559L492.365 275.305C479.791 302.872 452.965 327.035 428.767 343.613C389.417 370.566 322.6 393.171 263.051 386.225C265.274 381.606 289.832 348.387 296.604 341.154C297.385 340.32 298.245 339.482 299.111 338.728C371.686 360.203 490.789 268.672 486.78 253.916C491.634 256.753 496.414 261.462 500.305 268.332C503.824 262.097 507.798 257.722 513.822 253.916C509.81 268.672 628.916 360.201 701.491 338.728C702.357 339.482 703.214 340.32 703.998 341.154C710.775 348.387 735.325 381.604 737.551 386.225C677.999 393.171 611.177 370.566 571.835 343.613C547.3 326.804 520.84 302.688 508.259 275.108L507.941 277.559C530.826 348.964 634.055 391.654 714.486 394.37C720.04 394.554 724.426 394.272 729.863 394.105C740.413 393.777 738.109 391.892 744.304 397.168C745.923 398.556 769.434 430.708 770.574 433.016Z" fill="#2A55A3"/>
<path fill-rule="evenodd" clip-rule="evenodd" d="M499.015 276.368C404.712 276.368 328.256 199.929 328.256 105.637C328.256 100.468 328.499 95.3006 328.962 90.1529C329.028 89.4207 329.637 88.8652 330.372 88.8652C331.108 88.8652 331.715 89.4224 331.783 90.1529C339.55 176.55 412.217 242.825 499.013 242.825C585.811 242.825 658.476 176.547 666.243 90.1529C666.311 89.4207 666.918 88.8652 667.653 88.8652C668.389 88.8652 668.998 89.4224 669.066 90.1529C669.53 95.3006 669.77 100.468 669.77 105.637C669.77 199.927 593.324 276.368 499.015 276.368Z" fill="url(#paint0_linear_170_113)"/>
<path d="M43.4258 546.784V477.078H58.3436V534.111H82.1381V546.784H43.4258ZM122.522 518.607C122.151 515.651 121.077 513.408 119.304 511.893C117.549 510.384 115.144 509.635 112.106 509.635C109.069 509.635 106.629 510.384 104.808 511.893C102.973 513.408 101.817 515.649 101.297 518.607H122.522ZM135.933 526.796H100.876C101.41 530.162 102.631 532.679 104.55 534.336C106.451 536.008 109.033 536.838 112.299 536.838C114.773 536.838 116.916 536.368 118.704 535.409C120.509 534.465 122.003 533.02 123.205 531.083L134.129 536.544C131.594 540.64 128.505 543.68 124.896 545.663C121.269 547.643 116.965 548.635 111.991 548.635C104.434 548.635 98.4548 546.376 94.0337 541.877C89.6288 537.377 87.419 531.315 87.419 523.694C87.419 516.365 89.7269 510.336 94.3442 505.609C98.9582 500.881 104.873 498.522 112.09 498.522C119.518 498.522 125.386 500.735 129.708 505.172C134.014 509.589 136.175 515.634 136.175 523.272C136.175 523.694 136.16 524.128 136.126 524.635C136.095 525.123 136.029 525.835 135.933 526.796ZM147.893 546.784V510.71H141.361V500.085H147.893V484.579H161.449V500.085H167.98V510.71H161.449V546.784H147.893ZM177.226 506.91L186.412 477.078H201.021L186.312 506.91H177.226ZM206.205 538.593L216.64 533.232C216.98 535.035 217.921 536.467 219.451 537.503C220.961 538.563 222.847 539.083 225.106 539.083C227.332 539.083 229.071 538.678 230.34 537.863C231.608 537.064 232.241 535.945 232.241 534.513C232.241 532.254 229.982 530.373 225.48 528.844C224.083 528.373 222.976 527.983 222.148 527.66C216.658 525.597 212.852 523.514 210.739 521.419C208.629 519.322 207.573 516.741 207.573 513.669C207.573 509.087 209.358 505.4 212.951 502.573C216.545 499.745 221.273 498.33 227.153 498.33C231.33 498.33 234.972 499.175 238.026 500.847C241.096 502.522 243.326 504.91 244.722 507.982L234.774 512.955C234.241 511.2 233.298 509.866 231.963 508.955C230.632 508.048 228.958 507.594 226.958 507.594C224.959 507.594 223.351 507.996 222.1 508.828C220.865 509.656 220.248 510.747 220.248 512.076C220.248 514.401 223.318 516.564 229.478 518.578C230.209 518.789 230.763 518.967 231.154 519.098C236.271 520.77 239.911 522.736 242.074 524.963C244.236 527.206 245.307 530.048 245.307 533.509C245.307 538.142 243.52 541.814 239.928 544.544C236.337 547.272 231.495 548.635 225.4 548.635C220.572 548.635 216.461 547.742 213.047 545.958C209.62 544.152 207.344 541.697 206.205 538.593ZM320.988 510.026H352.73C352.796 510.433 352.844 510.887 352.861 511.363C352.876 511.831 352.876 512.564 352.876 513.552C352.876 523.985 349.903 532.451 343.939 538.916C337.972 545.401 330.253 548.635 320.811 548.635C309.988 548.635 301.067 545.188 294.065 538.286C287.059 531.379 283.547 522.607 283.547 511.977C283.547 501.451 287.074 492.739 294.113 485.849C301.147 478.956 310.053 475.512 320.811 475.512C326.486 475.512 331.686 476.699 336.414 479.09C341.142 481.461 345.366 485.021 349.075 489.766L339.045 497.158C336.545 494.057 333.911 491.829 331.149 490.443C328.387 489.064 325.185 488.382 321.578 488.382C314.685 488.382 309.177 490.528 305.048 494.816C300.922 499.09 298.858 504.827 298.858 511.992C298.858 519.047 300.922 524.73 305.065 529.07C309.209 533.407 314.621 535.572 321.284 535.572C326.176 535.572 330.142 534.416 333.198 532.108C336.234 529.8 337.764 526.793 337.764 523.073V522.311H320.991L320.988 510.026ZM376.603 512.093C377.965 507.543 379.919 504.148 382.47 501.903C385.036 499.646 388.189 498.522 391.975 498.522C392.82 498.522 394.233 498.685 396.199 498.995C396.59 499.061 396.871 499.109 397.063 499.141L395.014 513.734C394.007 513.309 392.983 512.987 391.941 512.775C390.919 512.564 389.83 512.465 388.691 512.465C384.565 512.465 381.589 513.523 379.785 515.634C377.982 517.746 377.069 521.289 377.069 526.245V546.781H363.515V500.085H376.875L376.603 512.093ZM438.522 523.5C438.522 519.697 437.417 516.675 435.189 514.398C432.961 512.141 429.987 511.001 426.234 511.001C422.496 511.001 419.523 512.123 417.331 514.385C415.134 516.629 414.047 519.666 414.047 523.5C414.047 527.318 415.134 530.356 417.331 532.633C419.523 534.921 422.496 536.059 426.234 536.059C429.958 536.059 432.929 534.921 435.157 532.633C437.4 530.359 438.522 527.318 438.522 523.5ZM452.369 523.596C452.369 530.777 449.913 536.741 445.005 541.505C440.097 546.262 433.89 548.635 426.349 548.635C418.758 548.635 412.503 546.265 407.576 541.505C402.656 536.741 400.199 530.777 400.199 523.596C400.199 516.459 402.668 510.499 407.624 505.706C412.583 500.91 418.821 498.522 426.349 498.522C433.919 498.522 440.145 500.881 445.034 505.609C449.93 510.336 452.369 516.335 452.369 523.596ZM503.154 500.085L509.914 524.262C510.045 524.752 510.208 525.58 510.399 526.796C510.613 528 510.987 530.468 511.521 534.225C511.814 532.761 512.174 531.217 512.594 529.591C513.018 527.982 513.552 526.16 514.186 524.165L521.451 500.085H536.209L520.021 546.781H505.588L498.588 522.604C498.455 522.151 498.246 521.431 497.969 520.458C496.911 516.798 496.149 513.829 495.678 511.504C495.255 513.669 494.848 515.634 494.457 517.406C494.051 519.192 493.627 520.85 493.19 522.408L485.99 546.781H471.562L455.372 500.085H470.179L477.33 523.268C477.963 525.365 478.485 527.252 478.893 528.958C479.313 530.645 479.655 532.385 479.949 534.171C480.194 532.239 480.5 530.371 480.859 528.567C481.201 526.781 481.607 525.041 482.094 523.369L488.333 500.085H503.154ZM607.978 510.026H639.72C639.783 510.433 639.831 510.887 639.848 511.363C639.863 511.831 639.863 512.564 639.863 513.552C639.863 523.985 636.889 532.451 630.928 538.916C624.959 545.401 617.243 548.635 607.798 548.635C596.975 548.635 588.052 545.188 581.051 538.286C574.046 531.379 570.536 522.607 570.536 511.977C570.536 501.451 574.058 492.739 581.1 485.849C588.134 478.956 597.04 475.512 607.798 475.512C613.471 475.512 618.672 476.699 623.401 479.09C628.129 481.461 632.353 485.021 636.062 489.766L626.032 497.158C623.532 494.057 620.896 491.829 618.134 490.443C615.371 489.064 612.17 488.382 608.563 488.382C601.671 488.382 596.164 490.528 592.037 494.816C587.906 499.09 585.845 504.827 585.845 511.992C585.845 519.047 587.909 524.73 592.052 529.07C596.195 533.407 601.608 535.572 608.271 535.572C613.162 535.572 617.126 534.416 620.185 532.108C623.221 529.8 624.75 526.793 624.75 523.073V522.311H607.98L607.978 510.026ZM650.997 546.784V472.979H664.551V546.784H650.997ZM713.612 523.5C713.612 519.697 712.51 516.675 710.279 514.398C708.051 512.141 705.08 511.001 701.328 511.001C697.589 511.001 694.616 512.123 692.422 514.385C690.225 516.629 689.14 519.666 689.14 523.5C689.14 527.318 690.225 530.356 692.422 532.633C694.616 534.921 697.589 536.059 701.328 536.059C705.049 536.059 708.022 534.921 710.25 532.633C712.493 530.359 713.612 527.318 713.612 523.5ZM727.46 523.596C727.46 530.777 725.004 536.741 720.096 541.505C715.187 546.262 708.981 548.635 701.442 548.635C693.851 548.635 687.594 546.265 682.669 541.505C677.746 536.741 675.29 530.777 675.29 523.596C675.29 516.459 677.761 510.499 682.717 505.706C687.676 500.91 693.914 498.522 701.442 498.522C709.012 498.522 715.238 500.881 720.127 505.609C725.021 510.336 727.46 516.335 727.46 523.596ZM750.034 523.352C750.034 527.576 751.07 530.875 753.151 533.215C755.231 535.572 758.124 536.741 761.845 536.741C765.566 536.741 768.46 535.572 770.54 533.215C772.62 530.875 773.662 527.575 773.662 523.352C773.662 519.127 772.606 515.814 770.489 513.375C768.377 510.953 765.469 509.737 761.748 509.737C758.156 509.737 755.314 510.953 753.197 513.409C751.085 515.843 750.034 519.163 750.034 523.352ZM737.679 546.784V472.979H750.653V499.612C750.653 501.075 750.604 502.522 750.49 503.968C750.376 505.398 750.228 506.81 750.034 508.174C752.26 504.813 754.668 502.357 757.265 500.828C759.882 499.289 762.855 498.52 766.222 498.52C772.885 498.52 778.087 500.714 781.82 505.119C785.543 509.509 787.412 515.632 787.412 523.512C787.412 531.084 785.526 537.178 781.742 541.76C777.973 546.345 772.997 548.633 766.838 548.633C763.132 548.633 759.979 547.951 757.394 546.57C754.794 545.187 752.583 543.027 750.75 540.069L750.845 546.781L737.679 546.784ZM832.17 523.352C832.17 519.16 831.114 515.846 829 513.409C826.885 510.955 824.045 509.737 820.448 509.737C816.761 509.737 813.868 510.955 811.758 513.377C809.644 515.814 808.588 519.129 808.588 523.354C808.588 527.577 809.625 530.878 811.707 533.215C813.788 535.574 816.664 536.741 820.354 536.741C824.109 536.741 827.017 535.574 829.082 533.215C831.145 530.878 832.17 527.575 832.17 523.352ZM844.569 546.784H831.403L831.599 540.07C829.762 543.031 827.553 545.187 824.953 546.573C822.366 547.954 819.213 548.635 815.511 548.635C809.321 548.635 804.328 546.328 800.527 541.731C796.741 537.132 794.838 531.055 794.838 523.512C794.838 515.632 796.704 509.509 800.428 505.119C804.166 500.714 809.35 498.52 815.984 498.52C819.443 498.52 822.48 499.304 825.099 500.845C827.716 502.408 829.927 504.713 831.696 507.783V500.085H844.569V546.784ZM857.812 546.784V472.979H871.369V546.784H857.812ZM885.619 546.784V472.979H899.176V546.784H885.619ZM924.444 543.178L905.625 500.085H921.308L929.401 521.452C929.935 522.782 930.374 524.328 930.734 526.048C931.076 527.788 931.35 529.707 931.547 531.833C931.855 530.127 932.26 528.371 932.734 526.602C933.202 524.812 933.789 522.93 934.489 520.927L941.589 500.085H957.109L929.299 568.034H914.301L924.444 543.178Z" fill="#2A55A3"/>
<defs>
<linearGradient id="paint0_linear_170_113" x1="328.258" y1="182.616" x2="669.775" y2="182.616" gradientUnits="userSpaceOnUse">
<stop stop-color="#DC9617"/>
<stop offset="0.388235" stop-color="#FFCF25"/>
<stop offset="0.6" stop-color="#FFFF90"/>
<stop offset="0.85098" stop-color="#DA9917"/>
<stop offset="1" stop-color="#ECBF26"/>
</linearGradient>
</defs>
</svg>
