<svg width="1026" height="617" viewBox="0 0 1026 617" fill="none" xmlns="http://www.w3.org/2000/svg">
<mask id="mask0_472_25" style="mask-type:luminance" maskUnits="userSpaceOnUse" x="0" y="0" width="1026" height="617">
<path d="M1025.94 0H0V616.073H1025.94V0Z" fill="white"/>
</mask>
<g mask="url(#mask0_472_25)">
<path fill-rule="evenodd" clip-rule="evenodd" d="M202.421 268.086C202.421 295.051 249.276 344.466 300.121 343.772C246.188 312.955 224.241 295.049 217.079 237.854C150.337 261.781 129.607 260.108 65.8027 227.596C98.2009 270.753 143.907 280.611 202.421 268.086Z" fill="#0C9253"/>
<path fill-rule="evenodd" clip-rule="evenodd" d="M259.23 156.734C270.452 212.047 345.575 305.875 441.345 304.562C335.98 253.043 296.517 204.873 296.517 93.4877C190.158 157.898 139.529 150.503 0 85.748C61.0226 167.033 165.437 180.345 259.23 156.734Z" fill="#0C9253"/>
<path fill-rule="evenodd" clip-rule="evenodd" d="M230.023 218.867C230.021 260.766 302.832 337.556 381.839 336.474C298.786 288.591 256.674 260.766 246.996 178.66C143.285 215.838 116.877 206.474 17.7305 155.949C68.0753 223.01 139.096 238.334 230.023 218.867Z" fill="#0C9253"/>
<path fill-rule="evenodd" clip-rule="evenodd" d="M798.307 268.086C798.307 295.051 751.45 344.466 700.604 343.772C754.537 312.955 776.485 295.049 783.646 237.854C850.39 261.781 871.119 260.108 934.923 227.596C902.526 270.753 856.82 280.611 798.307 268.086Z" fill="#0C9253"/>
<path fill-rule="evenodd" clip-rule="evenodd" d="M740.492 154.91C729.268 210.223 654.148 304.05 558.378 302.737C663.743 251.219 703.209 203.05 703.209 91.6633C809.564 156.075 860.193 148.679 999.723 83.9238C938.7 165.209 834.284 178.522 740.492 154.91Z" fill="#0C9253"/>
<path fill-rule="evenodd" clip-rule="evenodd" d="M769.742 217.067C769.742 258.966 696.93 335.756 617.923 334.674C700.976 286.79 743.09 258.966 752.768 176.859C856.477 214.039 882.887 204.673 982.033 154.148C931.69 221.209 860.667 236.533 769.742 217.067Z" fill="#0C9253"/>
<mask id="mask1_472_25" style="mask-type:luminance" maskUnits="userSpaceOnUse" x="381" y="4" width="236" height="232">
<path d="M498.987 4.74023C563.699 4.74023 616.151 56.5018 616.151 120.355C616.151 184.216 563.699 235.977 498.987 235.977C434.284 235.977 381.832 184.216 381.832 120.355C381.832 56.5018 434.282 4.74023 498.987 4.74023Z" fill="white"/>
</mask>
<g mask="url(#mask1_472_25)">
<path d="M503.492 4.8285C523.544 29.2157 541.56 76.5271 541.56 126.377C541.56 164.257 531.2 203.715 503.562 235.884C502.069 235.941 500.569 235.977 499.062 235.977C498.161 235.977 497.266 235.964 496.37 235.945V4.77293C497.266 4.75332 498.164 4.74023 499.062 4.74023C500.548 4.74023 502.023 4.77458 503.492 4.8285ZM536.222 126.377C536.222 79.6484 520.153 35.3699 501.708 11.058V229.898C526.772 199.309 536.222 162.146 536.222 126.377Z" fill="#2A55A3"/>
<path d="M496.307 11.0597C477.857 35.3716 461.791 79.6501 461.791 126.378C461.791 162.147 471.243 199.311 496.307 229.9V11.0597ZM499.077 4.74023C499.936 4.74023 500.791 4.75332 501.645 4.7713V235.946C500.791 235.964 499.936 235.977 499.077 235.977C497.523 235.977 495.984 235.94 494.446 235.879C466.813 203.71 456.453 164.256 456.453 126.377C456.453 76.532 474.466 29.222 494.518 4.83503C496.031 4.77783 497.548 4.74023 499.077 4.74023Z" fill="#2A55A3"/>
<path d="M505.982 4.94288C524.267 17.1601 541.586 34.9304 554.349 55.7728C565.84 74.5547 573.709 95.9071 575.311 117.964C576.921 140.12 572.28 163.048 558.793 184.943C547.718 202.921 530.634 220.21 506.159 235.76C503.817 235.899 501.455 235.977 499.074 235.977C498.171 235.977 497.268 235.964 496.37 235.945V4.77293C497.271 4.75332 498.171 4.74023 499.074 4.74023C501.395 4.74023 503.696 4.81214 505.982 4.94288ZM549.783 58.4939C537.125 37.8279 519.869 20.2978 501.727 8.47927V232.315C526.297 216.981 543.322 199.919 554.228 182.202C567.085 161.332 571.508 139.458 569.974 118.336C568.43 97.1377 560.857 76.5909 549.783 58.4939Z" fill="#2A55A3"/>
<path d="M496.302 8.48418C478.163 20.3027 460.904 37.8327 448.246 58.4987C437.175 76.5958 429.599 97.1409 428.055 118.35C426.524 139.472 430.946 161.345 443.801 182.217C454.71 199.922 471.723 216.985 496.302 232.318V8.48418ZM499.006 4.74351C499.894 4.74351 500.778 4.75659 501.661 4.7762V235.948C500.778 235.967 499.894 235.981 499.006 235.981C496.608 235.981 494.229 235.9 491.865 235.76C467.4 220.222 450.312 202.932 439.238 184.958C425.752 163.061 421.108 140.133 422.72 117.977C424.317 95.9088 432.192 74.5579 443.683 55.7762C456.445 34.9352 473.759 17.1667 492.042 4.94944C494.348 4.81542 496.664 4.74351 499.006 4.74351Z" fill="#2A55A3"/>
<path d="M391.168 75.1777H606.915C607.668 76.9198 608.372 78.6829 609.037 80.466H389.044C389.709 78.6829 390.418 76.9181 391.168 75.1777Z" fill="#2A55A3"/>
<path d="M382.116 127.557H615.969C615.857 129.33 615.709 131.093 615.52 132.845H382.568C382.378 131.093 382.228 129.33 382.116 127.557Z" fill="#2A55A3"/>
<path d="M398.614 179.957H599.443C598.346 181.753 597.203 183.516 596.011 185.245H402.044C400.852 183.515 399.709 181.751 398.614 179.957Z" fill="#2A55A3"/>
</g>
<path d="M498.984 4.74023C563.696 4.74023 616.146 56.5018 616.146 120.355C616.146 184.216 563.696 235.977 498.984 235.977C434.279 235.977 381.829 184.216 381.829 120.355C381.829 56.5018 434.279 4.74023 498.984 4.74023Z" stroke="#2A55A3" stroke-width="0.5" stroke-miterlimit="2.61313"/>
<path fill-rule="evenodd" clip-rule="evenodd" d="M770.574 437.506C739.852 442.268 680.184 434.213 651.129 427.626C615.197 419.481 584.261 404.398 559.388 387.324C529.464 366.788 510.395 339.344 500.305 312.063C490.204 339.344 471.131 366.785 441.214 387.324C416.341 404.398 385.403 419.481 349.471 427.626C320.418 434.213 260.747 442.268 230.026 437.506C231.167 435.198 254.677 403.044 256.293 401.658C262.488 396.384 260.184 398.267 270.733 398.595C276.173 398.762 280.562 399.044 286.115 398.86C366.545 396.156 469.783 353.452 492.663 282.049L492.365 279.795C479.791 307.362 452.965 331.525 428.767 348.103C389.417 375.056 322.6 397.661 263.051 390.715C265.274 386.096 289.832 352.877 296.604 345.644C297.385 344.81 298.245 343.972 299.111 343.218C371.686 364.693 490.789 273.162 486.78 258.406C491.634 261.243 496.414 265.952 500.305 272.822C503.824 266.587 507.798 262.212 513.822 258.406C509.81 273.162 628.916 364.691 701.491 343.218C702.357 343.972 703.214 344.81 703.998 345.644C710.775 352.877 735.325 386.094 737.551 390.715C677.999 397.661 611.177 375.056 571.835 348.103C547.3 331.294 520.84 307.178 508.259 279.598L507.941 282.049C530.826 353.454 634.055 396.144 714.486 398.86C720.04 399.044 724.426 398.762 729.863 398.595C740.413 398.267 738.109 396.382 744.304 401.658C745.923 403.046 769.434 435.198 770.574 437.506Z" fill="#2A55A3"/>
<path fill-rule="evenodd" clip-rule="evenodd" d="M499.015 280.858C404.712 280.858 328.256 204.419 328.256 110.127C328.256 104.958 328.499 99.7909 328.962 94.6432C329.028 93.911 329.637 93.3555 330.372 93.3555C331.108 93.3555 331.715 93.9127 331.783 94.6432C339.55 181.04 412.217 247.315 499.013 247.315C585.811 247.315 658.476 181.037 666.243 94.6432C666.311 93.911 666.918 93.3555 667.653 93.3555C668.389 93.3555 668.998 93.9127 669.066 94.6432C669.53 99.7909 669.77 104.958 669.77 110.127C669.77 204.417 593.324 280.858 499.015 280.858Z" fill="url(#paint0_linear_472_25)"/>
<path d="M43.4258 551.274V481.568H58.3436V538.601H82.1381V551.274H43.4258ZM122.522 523.097C122.151 520.141 121.077 517.899 119.304 516.384C117.549 514.875 115.144 514.125 112.106 514.125C109.069 514.125 106.629 514.875 104.808 516.384C102.973 517.899 101.817 520.139 101.297 523.097H122.522ZM135.933 531.286H100.876C101.41 534.652 102.631 537.169 104.55 538.826C106.451 540.498 109.033 541.328 112.299 541.328C114.773 541.328 116.916 540.858 118.704 539.899C120.509 538.955 122.003 537.511 123.205 535.574L134.129 541.035C131.594 545.131 128.505 548.17 124.896 550.153C121.269 552.133 116.965 553.126 111.991 553.126C104.434 553.126 98.4548 550.866 94.0337 546.367C89.6288 541.867 87.419 535.805 87.419 528.184C87.419 520.855 89.7269 514.826 94.3442 510.099C98.9582 505.371 104.873 503.012 112.09 503.012C119.518 503.012 125.386 505.225 129.708 509.662C134.014 514.079 136.175 520.124 136.175 527.762C136.175 528.184 136.16 528.619 136.126 529.126C136.095 529.614 136.029 530.325 135.933 531.286ZM147.893 551.274V515.2H141.361V504.575H147.893V489.069H161.449V504.575H167.98V515.2H161.449V551.274H147.893ZM177.226 511.4L186.412 481.568H201.021L186.312 511.4H177.226ZM206.205 543.083L216.64 537.722C216.98 539.525 217.921 540.957 219.451 541.993C220.961 543.054 222.847 543.573 225.106 543.573C227.332 543.573 229.071 543.168 230.34 542.353C231.608 541.554 232.241 540.435 232.241 539.003C232.241 536.744 229.982 534.863 225.48 533.334C224.083 532.863 222.976 532.473 222.148 532.15C216.658 530.087 212.852 528.005 210.739 525.91C208.629 523.813 207.573 521.231 207.573 518.159C207.573 513.577 209.358 509.89 212.951 507.063C216.545 504.235 221.273 502.82 227.153 502.82C231.33 502.82 234.972 503.665 238.026 505.337C241.096 507.012 243.326 509.4 244.722 512.472L234.774 517.445C234.241 515.69 233.298 514.356 231.963 513.445C230.632 512.538 228.958 512.084 226.958 512.084C224.959 512.084 223.351 512.487 222.1 513.319C220.865 514.147 220.248 515.237 220.248 516.566C220.248 518.891 223.318 521.054 229.478 523.068C230.209 523.279 230.763 523.457 231.154 523.588C236.271 525.26 239.911 527.226 242.074 529.453C244.236 531.696 245.307 534.538 245.307 537.999C245.307 542.632 243.52 546.304 239.928 549.034C236.337 551.762 231.495 553.126 225.4 553.126C220.572 553.126 216.461 552.233 213.047 550.449C209.62 548.643 207.344 546.187 206.205 543.083ZM320.988 514.516H352.73C352.796 514.923 352.844 515.377 352.861 515.853C352.876 516.321 352.876 517.054 352.876 518.042C352.876 528.475 349.903 536.941 343.939 543.406C337.972 549.891 330.253 553.126 320.811 553.126C309.988 553.126 301.067 549.679 294.065 542.777C287.059 535.87 283.547 527.097 283.547 516.467C283.547 505.941 287.074 497.229 294.113 490.339C301.147 483.446 310.053 480.002 320.811 480.002C326.486 480.002 331.686 481.189 336.414 483.58C341.142 485.951 345.366 489.511 349.075 494.256L339.045 501.648C336.545 498.547 333.911 496.319 331.149 494.933C328.387 493.554 325.185 492.872 321.578 492.872C314.685 492.872 309.177 495.018 305.048 499.306C300.922 503.58 298.858 509.317 298.858 516.482C298.858 523.537 300.922 529.22 305.065 533.56C309.209 537.897 314.621 540.062 321.284 540.062C326.176 540.062 330.142 538.906 333.198 536.598C336.234 534.29 337.764 531.283 337.764 527.563V526.801H320.991L320.988 514.516ZM376.603 516.583C377.965 512.033 379.919 508.638 382.47 506.393C385.036 504.136 388.189 503.012 391.975 503.012C392.82 503.012 394.233 503.175 396.199 503.485C396.59 503.551 396.871 503.599 397.063 503.631L395.014 518.224C394.007 517.799 392.983 517.477 391.941 517.265C390.919 517.054 389.83 516.955 388.691 516.955C384.565 516.955 381.589 518.013 379.785 520.124C377.982 522.236 377.069 525.779 377.069 530.735V551.271H363.515V504.575H376.875L376.603 516.583ZM438.522 527.99C438.522 524.187 437.417 521.166 435.189 518.889C432.961 516.632 429.987 515.491 426.234 515.491C422.496 515.491 419.523 516.613 417.331 518.875C415.134 521.119 414.047 524.156 414.047 527.99C414.047 531.808 415.134 534.846 417.331 537.123C419.523 539.411 422.496 540.549 426.234 540.549C429.958 540.549 432.929 539.411 435.157 537.123C437.4 534.849 438.522 531.808 438.522 527.99ZM452.369 528.087C452.369 535.268 449.913 541.231 445.005 545.995C440.097 550.752 433.89 553.126 426.349 553.126C418.758 553.126 412.503 550.755 407.576 545.995C402.656 541.231 400.199 535.268 400.199 528.087C400.199 520.95 402.668 514.989 407.624 510.196C412.583 505.4 418.821 503.012 426.349 503.012C433.919 503.012 440.145 505.371 445.034 510.099C449.93 514.826 452.369 520.826 452.369 528.087ZM503.154 504.575L509.914 528.752C510.045 529.242 510.208 530.07 510.399 531.286C510.613 532.49 510.987 534.958 511.521 538.715C511.814 537.251 512.174 535.708 512.594 534.082C513.018 532.473 513.552 530.65 514.186 528.655L521.451 504.575H536.209L520.021 551.271H505.588L498.588 527.094C498.455 526.641 498.246 525.922 497.969 524.949C496.911 521.289 496.149 518.319 495.678 515.994C495.255 518.159 494.848 520.124 494.457 521.896C494.051 523.682 493.627 525.34 493.19 526.898L485.99 551.271H471.562L455.372 504.575H470.179L477.33 527.759C477.963 529.856 478.485 531.742 478.893 533.448C479.313 535.135 479.655 536.875 479.949 538.661C480.194 536.729 480.5 534.861 480.859 533.057C481.201 531.271 481.607 529.531 482.094 527.859L488.333 504.575H503.154ZM607.978 514.516H639.72C639.783 514.923 639.831 515.377 639.848 515.853C639.863 516.321 639.863 517.054 639.863 518.042C639.863 528.475 636.889 536.941 630.928 543.406C624.959 549.891 617.243 553.126 607.798 553.126C596.975 553.126 588.052 549.679 581.051 542.777C574.046 535.87 570.536 527.097 570.536 516.467C570.536 505.941 574.058 497.229 581.1 490.339C588.134 483.446 597.04 480.002 607.798 480.002C613.471 480.002 618.672 481.189 623.401 483.58C628.129 485.951 632.353 489.511 636.062 494.256L626.032 501.648C623.532 498.547 620.896 496.319 618.134 494.933C615.371 493.554 612.17 492.872 608.563 492.872C601.671 492.872 596.164 495.018 592.037 499.306C587.906 503.58 585.845 509.317 585.845 516.482C585.845 523.537 587.909 529.22 592.052 533.56C596.195 537.897 601.608 540.062 608.271 540.062C613.162 540.062 617.126 538.906 620.185 536.598C623.221 534.29 624.75 531.283 624.75 527.563V526.801H607.98L607.978 514.516ZM650.997 551.274V477.469H664.551V551.274H650.997ZM713.612 527.99C713.612 524.187 712.51 521.166 710.279 518.889C708.051 516.632 705.08 515.491 701.328 515.491C697.589 515.491 694.616 516.613 692.422 518.875C690.225 521.119 689.14 524.156 689.14 527.99C689.14 531.808 690.225 534.846 692.422 537.123C694.616 539.411 697.589 540.549 701.328 540.549C705.049 540.549 708.022 539.411 710.25 537.123C712.493 534.849 713.612 531.808 713.612 527.99ZM727.46 528.087C727.46 535.268 725.004 541.231 720.096 545.995C715.187 550.752 708.981 553.126 701.442 553.126C693.851 553.126 687.594 550.755 682.669 545.995C677.746 541.231 675.29 535.268 675.29 528.087C675.29 520.95 677.761 514.989 682.717 510.196C687.676 505.4 693.914 503.012 701.442 503.012C709.012 503.012 715.238 505.371 720.127 510.099C725.021 514.826 727.46 520.826 727.46 528.087ZM750.034 527.842C750.034 532.067 751.07 535.365 753.151 537.705C755.231 540.062 758.124 541.231 761.845 541.231C765.566 541.231 768.46 540.062 770.54 537.705C772.62 535.365 773.662 532.065 773.662 527.842C773.662 523.617 772.606 520.304 770.489 517.865C768.377 515.443 765.469 514.227 761.748 514.227C758.156 514.227 755.314 515.443 753.197 517.899C751.085 520.333 750.034 523.653 750.034 527.842ZM737.679 551.274V477.469H750.653V504.102C750.653 505.565 750.604 507.012 750.49 508.458C750.376 509.888 750.228 511.3 750.034 512.664C752.26 509.303 754.668 506.847 757.265 505.318C759.882 503.779 762.855 503.01 766.222 503.01C772.885 503.01 778.087 505.204 781.82 509.609C785.543 513.999 787.412 520.122 787.412 528.002C787.412 535.574 785.526 541.668 781.742 546.25C777.973 550.835 772.997 553.123 766.838 553.123C763.132 553.123 759.979 552.441 757.394 551.06C754.794 549.677 752.583 547.517 750.75 544.559L750.845 551.271L737.679 551.274ZM832.17 527.842C832.17 523.651 831.114 520.336 829 517.899C826.885 515.445 824.045 514.227 820.448 514.227C816.761 514.227 813.868 515.445 811.758 517.867C809.644 520.304 808.588 523.619 808.588 527.844C808.588 532.067 809.625 535.368 811.707 537.705C813.788 540.064 816.664 541.231 820.354 541.231C824.109 541.231 827.017 540.064 829.082 537.705C831.145 535.368 832.17 532.065 832.17 527.842ZM844.569 551.274H831.403L831.599 544.561C829.762 547.522 827.553 549.677 824.953 551.063C822.366 552.444 819.213 553.126 815.511 553.126C809.321 553.126 804.328 550.818 800.527 546.221C796.741 541.622 794.838 535.545 794.838 528.002C794.838 520.122 796.704 513.999 800.428 509.609C804.166 505.204 809.35 503.01 815.984 503.01C819.443 503.01 822.48 503.794 825.099 505.335C827.716 506.898 829.927 509.203 831.696 512.273V504.575H844.569V551.274ZM857.812 551.274V477.469H871.369V551.274H857.812ZM885.619 551.274V477.469H899.176V551.274H885.619ZM924.444 547.668L905.625 504.575H921.308L929.401 525.942C929.935 527.272 930.374 528.818 930.734 530.538C931.076 532.278 931.35 534.198 931.547 536.324C931.855 534.618 932.26 532.861 932.734 531.092C933.202 529.303 933.789 527.42 934.489 525.417L941.589 504.575H957.109L929.299 572.524H914.301L924.444 547.668Z" fill="#2A55A3"/>
</g>
<defs>
<linearGradient id="paint0_linear_472_25" x1="328.258" y1="187.106" x2="669.775" y2="187.106" gradientUnits="userSpaceOnUse">
<stop stop-color="#DC9617"/>
<stop offset="0.388235" stop-color="#FFCF25"/>
<stop offset="0.6" stop-color="#FFFF90"/>
<stop offset="0.85098" stop-color="#DA9917"/>
<stop offset="1" stop-color="#ECBF26"/>
</linearGradient>
</defs>
</svg>
