<svg width="5188" height="2653" viewBox="0 0 5188 2653" fill="none" xmlns="http://www.w3.org/2000/svg">
<path d="M41.6328 993.153L237.885 993.153C207.679 1089.02 170.672 1832.96 240.858 1981.35L41.6328 1978.38C115.489 1782.12 69.5248 1062.74 41.6328 993.153Z" fill="black"/>
<rect x="184.359" y="1427.29" width="95.1525" height="59.4703" fill="black"/>
<path d="M212.382 1450.98L309.513 1392.87C480.045 1642.48 597.94 1838.12 726.796 1983.61L568.91 1983.61C549.39 1983.61 531.279 1973.44 521.11 1956.78L212.382 1450.98Z" fill="black"/>
<path d="M575.873 994.145L765.186 994.149L313.06 1488.22L245.809 1429.65C418.344 1237.68 590.934 1091.97 575.873 994.145Z" fill="black"/>
<path d="M1643.36 975.699L1839.61 975.699C1809.41 1071.57 1772.4 1815.51 1842.58 1963.9L1643.36 1960.92C1717.22 1764.67 1671.25 1045.28 1643.36 975.699Z" fill="black"/>
<rect x="1786.09" y="1409.83" width="95.1525" height="59.4703" fill="black"/>
<path d="M1814.12 1433.52L1911.25 1375.41C2081.78 1625.03 2199.67 1820.67 2328.53 1966.15L2170.64 1966.15C2151.12 1966.15 2133.01 1955.99 2122.84 1939.33L1814.12 1433.52Z" fill="black"/>
<path d="M2177.61 976.691L2366.92 976.695L1914.79 1470.76L1847.54 1412.2C2020.08 1220.23 2192.67 1074.51 2177.61 976.691Z" fill="black"/>
<path fill-rule="evenodd" clip-rule="evenodd" d="M2416.48 980.269C2429.36 1010.33 2455.33 1091.68 2456.12 1176.52C2456.92 1261.36 2456.45 1606.36 2456.12 1768.25C2453.81 1819.13 2443.83 1930.41 2422.42 1968.47H2619.67C2606.45 1957.23 2579.03 1901.46 2575.06 1768.25V1494.69H2639.49C2657.33 1503.94 2709.47 1551.78 2775.28 1669.13C2901.36 1849.13 2969.22 1943.69 2987.39 1968.47H3167.78C3134.42 1940.71 3051.02 1858.64 2984.42 1752.39L2781.23 1462.97C2839.15 1440.44 2960.82 1373.22 2995.69 1251.79C2997.55 1245.29 2998.29 1238.52 2998.29 1231.76V1118.74C2998.29 1105.78 2996.87 1092.76 2991.8 1080.83C2974.12 1039.17 2929.89 980.269 2850.61 980.269H2416.48ZM2575.06 1040.73C2608.76 1034.45 2692.22 1025.66 2756.45 1040.73C2820.68 1055.8 2851.27 1113.75 2858.54 1140.84V1288.52C2850.94 1327.84 2807.79 1413.41 2695.99 1441.16H2575.06V1040.73Z" fill="black"/>
<path d="M2416.48 980.269C2429.36 1010.33 2455.33 1091.68 2456.12 1176.52C2456.92 1261.36 2456.45 1606.36 2456.12 1768.25C2453.81 1819.13 2443.83 1930.41 2422.42 1968.47H2619.67C2606.45 1957.23 2579.03 1901.46 2575.06 1768.25V1494.69M2416.48 980.269C2522.86 980.269 2758.63 980.269 2850.61 980.269M2416.48 980.269H2850.61M2575.06 1441.16V1040.73C2608.76 1034.45 2692.22 1025.66 2756.45 1040.73C2820.68 1055.8 2851.27 1113.75 2858.54 1140.84V1288.52C2850.94 1327.84 2807.79 1413.41 2695.99 1441.16H2575.06ZM2575.06 1441.16V1494.69M2575.06 1494.69H2639.49C2657.33 1503.94 2709.47 1551.78 2775.28 1669.13C2901.36 1849.13 2969.22 1943.69 2987.39 1968.47H3167.78C3134.42 1940.71 3051.02 1858.64 2984.42 1752.39L2781.23 1462.97C2839.15 1440.44 2960.82 1373.22 2995.69 1251.79M2850.61 980.269C2929.89 980.269 2974.12 1039.17 2991.8 1080.83M2991.8 1080.83C2996.87 1092.76 2998.29 1105.78 2998.29 1118.74M2991.8 1080.83C2993.12 1083.93 2994.29 1086.94 2995.32 1089.82C2997.51 1095.98 2998.29 1102.52 2998.29 1109.06V1118.74M2998.29 1118.74V1231.76M2998.29 1231.76C2998.29 1238.52 2997.55 1245.29 2995.69 1251.79M2998.29 1231.76V1236.8C2998.29 1240.21 2997.91 1243.62 2997.03 1246.91C2996.6 1248.55 2996.15 1250.17 2995.69 1251.79" stroke="black" stroke-width="2"/>
<path d="M3257.98 1103.17C3257.98 1072.25 3236.83 1010.33 3226.26 983.242H3749.6V1111.1C3713.13 1058.77 3653.13 1043.7 3627.69 1042.71H3395.75V1414.4L3749.6 1406.47C3711.54 1450.88 3630 1473.21 3593.99 1478.83L3395.75 1489.73V1909H3628.68C3723.83 1901.86 3793.87 1838.62 3817 1807.9L3797.18 1965.49H3228.24C3241.72 1947.26 3251.7 1880.58 3256 1849.53C3256 1613.63 3257.98 1134.1 3257.98 1103.17Z" fill="black" stroke="black" stroke-width="2"/>
<path d="M1062.54 996.127H868.266L891.301 1091.15C891.801 1093.21 892.073 1095.32 892.112 1097.45L903.948 1742.48C915.049 1938.34 1044.03 1995.56 1106.15 1997.21H1324.2C1474.07 1975.8 1522.44 1824.75 1522.44 1742.48V1101.96C1522.44 1096.85 1523.19 1091.77 1524.67 1086.88L1552.17 996.127H1360.88L1384.14 1092.07C1384.49 1093.52 1384.72 1094.93 1384.83 1096.42C1395.39 1233.05 1409.91 1546.79 1384.67 1726.62C1355.92 1875.3 1277.62 1936.75 1153.72 1905.03C1054.61 1879.66 1032.47 1729.26 1033.79 1657.24V1100.85C1033.79 1096.48 1034.42 1092.12 1035.65 1087.92L1062.54 996.127Z" fill="black" stroke="black" stroke-width="2"/>
<path d="M4162.92 991.171H3970.63C3997.59 1034.78 3998.39 1114.41 3995.41 1148.77V1993.25C3987.48 2082.85 3963.7 2177.93 3952.79 2214.28C4088.39 2172.25 4126.91 1955.58 4129.22 1852.5V1148.77C4127.64 1091.68 4151.03 1019.92 4162.92 991.171Z" fill="#ED1C24"/>
<rect x="3952.79" y="666.067" width="210.128" height="184.358" fill="#ED1C24"/>
<rect x="3952.79" y="340.963" width="210.128" height="184.358" fill="#ED1C24"/>
<rect x="3952.79" width="210.128" height="184.358" fill="#ED1C24"/>
<rect y="2374.85" width="679.944" height="261.669" fill="#ED1C24"/>
<g clip-path="url(#clip0_222_90)">
<path d="M750.074 2378.52V2646.68H717.602V2378.52H750.074ZM1048.1 2378.52V2646.68H1016.68L870.552 2436.13H867.933V2646.68H835.461V2378.52H866.886L1013.53 2589.59H1016.15V2378.52H1048.1ZM1133.36 2646.68V2378.52H1294.15V2407.33H1165.83V2497.94H1282.1V2526.74H1165.83V2646.68H1133.36ZM1370.04 2646.68V2378.52H1460.65C1481.6 2378.52 1498.8 2382.1 1512.24 2389.26C1525.68 2396.33 1535.63 2406.06 1542.09 2418.46C1548.55 2430.85 1551.78 2444.95 1551.78 2460.75C1551.78 2476.55 1548.55 2490.56 1542.09 2502.78C1535.63 2515 1525.72 2524.6 1512.37 2531.59C1499.01 2538.48 1481.95 2541.93 1461.17 2541.93H1387.85V2512.6H1460.13C1474.44 2512.6 1485.96 2510.51 1494.69 2506.32C1503.51 2502.13 1509.88 2496.19 1513.81 2488.51C1517.82 2480.74 1519.83 2471.49 1519.83 2460.75C1519.83 2450.01 1517.82 2440.63 1513.81 2432.6C1509.79 2424.57 1503.38 2418.37 1494.56 2414.01C1485.75 2409.55 1474.09 2407.33 1459.6 2407.33H1402.51V2646.68H1370.04ZM1496.26 2526.22L1562.25 2646.68H1524.55L1459.6 2526.22H1496.26ZM1637.17 2646.68H1603.12L1701.59 2378.52H1735.11L1833.57 2646.68H1799.53L1719.39 2420.95H1717.3L1637.17 2646.68ZM1649.74 2541.93H1786.96V2570.74H1649.74V2541.93ZM2042.27 2445.56C2040.7 2432.29 2034.33 2421.99 2023.15 2414.66C2011.98 2407.33 1998.27 2403.66 1982.04 2403.66C1970.17 2403.66 1959.78 2405.58 1950.87 2409.42C1942.06 2413.26 1935.16 2418.55 1930.19 2425.27C1925.3 2431.99 1922.85 2439.63 1922.85 2448.18C1922.85 2455.34 1924.56 2461.49 1927.96 2466.64C1931.45 2471.71 1935.9 2475.94 1941.32 2479.34C1946.73 2482.66 1952.4 2485.41 1958.34 2487.59C1964.27 2489.69 1969.73 2491.39 1974.7 2492.7L2001.94 2500.03C2008.92 2501.86 2016.69 2504.4 2025.25 2507.63C2033.89 2510.86 2042.14 2515.26 2049.99 2520.85C2057.94 2526.35 2064.48 2533.42 2069.63 2542.06C2074.78 2550.7 2077.36 2561.31 2077.36 2573.88C2077.36 2588.37 2073.56 2601.46 2065.97 2613.16C2058.46 2624.86 2047.46 2634.15 2032.97 2641.05C2018.57 2647.95 2001.07 2651.39 1980.47 2651.39C1961.26 2651.39 1944.63 2648.3 1930.58 2642.1C1916.61 2635.9 1905.61 2627.26 1897.58 2616.17C1889.64 2605.09 1885.14 2592.21 1884.1 2577.55H1917.62C1918.49 2587.67 1921.9 2596.05 1927.83 2602.69C1933.85 2609.23 1941.45 2614.12 1950.61 2617.35C1959.86 2620.49 1969.82 2622.06 1980.47 2622.06C1992.86 2622.06 2003.99 2620.06 2013.86 2616.04C2023.72 2611.94 2031.53 2606.26 2037.29 2599.02C2043.05 2591.69 2045.93 2583.13 2045.93 2573.35C2045.93 2564.45 2043.45 2557.21 2038.47 2551.62C2033.5 2546.03 2026.95 2541.49 2018.83 2538C2010.71 2534.51 2001.94 2531.46 1992.51 2528.84L1959.52 2519.41C1938.57 2513.39 1921.98 2504.79 1909.76 2493.62C1897.54 2482.44 1891.43 2467.82 1891.43 2449.75C1891.43 2434.74 1895.49 2421.64 1903.61 2410.47C1911.81 2399.21 1922.81 2390.48 1936.6 2384.28C1950.48 2378 1965.98 2374.86 1983.09 2374.86C2000.37 2374.86 2015.73 2377.96 2029.18 2384.15C2042.62 2390.26 2053.27 2398.64 2061.12 2409.29C2069.07 2419.94 2073.26 2432.03 2073.69 2445.56H2042.27ZM2136.36 2407.33V2378.52H2337.48V2407.33H2253.16V2646.68H2220.69V2407.33H2136.36ZM2407.88 2646.68V2378.52H2498.48C2519.43 2378.52 2536.63 2382.1 2550.07 2389.26C2563.51 2396.33 2573.47 2406.06 2579.93 2418.46C2586.38 2430.85 2589.62 2444.95 2589.62 2460.75C2589.62 2476.55 2586.38 2490.56 2579.93 2502.78C2573.47 2515 2563.56 2524.6 2550.2 2531.59C2536.85 2538.48 2519.78 2541.93 2499.01 2541.93H2425.68V2512.6H2497.96C2512.27 2512.6 2523.8 2510.51 2532.53 2506.32C2541.34 2502.13 2547.71 2496.19 2551.64 2488.51C2555.66 2480.74 2557.67 2471.49 2557.67 2460.75C2557.67 2450.01 2555.66 2440.63 2551.64 2432.6C2547.63 2424.57 2541.21 2418.37 2532.4 2414.01C2523.58 2409.55 2511.93 2407.33 2497.44 2407.33H2440.35V2646.68H2407.88ZM2534.1 2526.22L2600.09 2646.68H2562.38L2497.44 2526.22H2534.1ZM2839.98 2378.52H2872.45V2556.07C2872.45 2574.4 2868.13 2590.77 2859.49 2605.17C2850.94 2619.49 2838.85 2630.79 2823.23 2639.09C2807.59 2647.29 2789.27 2651.39 2768.22 2651.39C2747.19 2651.39 2728.85 2647.29 2713.23 2639.09C2697.61 2630.79 2685.48 2619.49 2676.83 2605.17C2668.28 2590.77 2664 2574.4 2664 2556.07V2378.52H2696.48V2553.45C2696.48 2566.55 2699.36 2578.2 2705.12 2588.41C2710.87 2598.54 2719.08 2606.53 2729.72 2612.38C2740.47 2618.14 2753.29 2621.02 2768.22 2621.02C2783.15 2621.02 2795.99 2618.14 2806.72 2612.38C2817.46 2606.53 2825.67 2598.54 2831.34 2588.41C2837.11 2578.2 2839.98 2566.55 2839.98 2553.45V2378.52ZM3173.35 2462.32H3140.88C3138.98 2452.98 3135.61 2444.78 3130.81 2437.71C3126.09 2430.64 3120.32 2424.7 3113.52 2419.9C3106.8 2415.01 3099.33 2411.34 3091.12 2408.9C3082.94 2406.46 3074.37 2405.23 3065.47 2405.23C3049.24 2405.23 3034.53 2409.34 3021.35 2417.54C3008.24 2425.75 2997.82 2437.84 2990.04 2453.81C2982.37 2469.79 2978.53 2489.38 2978.53 2512.6C2978.53 2535.82 2982.37 2555.42 2990.04 2571.39C2997.82 2587.37 3008.24 2599.46 3021.35 2607.66C3034.53 2615.87 3049.24 2619.97 3065.47 2619.97C3074.37 2619.97 3082.94 2618.75 3091.12 2616.3C3099.33 2613.86 3106.8 2610.24 3113.52 2605.43C3120.32 2600.55 3126.09 2594.57 3130.81 2587.5C3135.61 2580.34 3138.98 2572.13 3140.88 2562.88H3173.35C3170.91 2576.59 3166.47 2588.85 3160.01 2599.67C3153.55 2610.5 3145.52 2619.71 3135.91 2627.3C3126.31 2634.81 3115.53 2640.53 3103.57 2644.45C3091.7 2648.38 3078.99 2650.35 3065.47 2650.35C3042.6 2650.35 3022.26 2644.76 3004.46 2633.59C2986.66 2622.41 2972.64 2606.53 2962.43 2585.92C2952.2 2565.32 2947.11 2540.88 2947.11 2512.6C2947.11 2484.32 2952.2 2459.88 2962.43 2439.28C2972.64 2418.68 2986.66 2402.79 3004.46 2391.62C3022.26 2380.44 3042.6 2374.86 3065.47 2374.86C3078.99 2374.86 3091.7 2376.82 3103.57 2380.75C3115.53 2384.68 3126.31 2390.44 3135.91 2398.03C3145.52 2405.54 3153.55 2414.7 3160.01 2425.53C3166.47 2436.27 3170.91 2448.53 3173.35 2462.32ZM3231.45 2407.33V2378.52H3432.56V2407.33H3348.23V2646.68H3315.76V2407.33H3231.45ZM3678.95 2378.52H3711.42V2556.07C3711.42 2574.4 3707.1 2590.77 3698.45 2605.17C3689.89 2619.49 3677.8 2630.79 3662.18 2639.09C3646.56 2647.29 3628.22 2651.39 3607.19 2651.39C3586.16 2651.39 3567.82 2647.29 3552.2 2639.09C3536.58 2630.79 3524.43 2619.49 3515.8 2605.17C3507.24 2590.77 3502.96 2574.4 3502.96 2556.07V2378.52H3535.43V2553.45C3535.43 2566.55 3538.32 2578.2 3544.07 2588.41C3549.84 2598.54 3558.05 2606.53 3568.69 2612.38C3579.44 2618.14 3592.26 2621.02 3607.19 2621.02C3622.11 2621.02 3634.94 2618.14 3645.68 2612.38C3656.41 2606.53 3664.62 2598.54 3670.31 2588.41C3676.05 2578.2 3678.95 2566.55 3678.95 2553.45V2378.52ZM3796.54 2646.68V2378.52H3887.15C3908.09 2378.52 3925.29 2382.1 3938.73 2389.26C3952.18 2396.33 3962.13 2406.06 3968.59 2418.46C3975.05 2430.85 3978.28 2444.95 3978.28 2460.75C3978.28 2476.55 3975.05 2490.56 3968.59 2502.78C3962.13 2515 3952.21 2524.6 3938.87 2531.59C3925.51 2538.48 3908.44 2541.93 3887.67 2541.93H3814.34V2512.6H3886.62C3900.93 2512.6 3912.47 2510.51 3921.19 2506.32C3930.01 2502.13 3936.38 2496.19 3940.3 2488.51C3944.32 2480.74 3946.33 2471.49 3946.33 2460.75C3946.33 2450.01 3944.32 2440.63 3940.3 2432.6C3936.3 2424.57 3929.87 2418.37 3921.05 2414.01C3912.23 2409.55 3900.59 2407.33 3886.1 2407.33H3829.01V2646.68H3796.54ZM3922.76 2526.22L3988.75 2646.68H3951.05L3886.1 2526.22H3922.76ZM4052.66 2646.68V2378.52H4214.5V2407.33H4085.13V2497.94H4206.11V2526.74H4085.13V2617.87H4216.6V2646.68H4052.66ZM4439.95 2445.56C4438.38 2432.29 4432.02 2421.99 4420.84 2414.66C4409.66 2407.33 4395.96 2403.66 4379.73 2403.66C4367.85 2403.66 4357.47 2405.58 4348.56 2409.42C4339.74 2413.26 4332.84 2418.55 4327.87 2425.27C4322.99 2431.99 4320.55 2439.63 4320.55 2448.18C4320.55 2455.34 4322.24 2461.49 4325.65 2466.64C4329.14 2471.71 4333.6 2475.94 4339.01 2479.34C4344.42 2482.66 4350.09 2485.41 4356.02 2487.59C4361.97 2489.69 4367.42 2491.39 4372.39 2492.7L4399.63 2500.03C4406.61 2501.86 4414.38 2504.4 4422.94 2507.63C4431.58 2510.86 4439.83 2515.26 4447.68 2520.85C4455.63 2526.35 4462.17 2533.42 4467.33 2542.06C4472.48 2550.7 4475.06 2561.31 4475.06 2573.88C4475.06 2588.37 4471.25 2601.46 4463.66 2613.16C4456.15 2624.86 4445.14 2634.15 4430.65 2641.05C4416.26 2647.95 4398.76 2651.39 4378.16 2651.39C4358.95 2651.39 4342.32 2648.3 4328.27 2642.1C4314.31 2635.9 4303.31 2627.26 4295.28 2616.17C4287.33 2605.09 4282.83 2592.21 4281.78 2577.55H4315.3C4316.17 2587.67 4319.58 2596.05 4325.53 2602.69C4331.54 2609.23 4339.13 2614.12 4348.31 2617.35C4357.56 2620.49 4367.52 2622.06 4378.16 2622.06C4390.55 2622.06 4401.67 2620.06 4411.54 2616.04C4421.42 2611.94 4429.23 2606.26 4434.97 2599.02C4440.74 2591.69 4443.62 2583.13 4443.62 2573.35C4443.62 2564.45 4441.14 2557.21 4436.16 2551.62C4431.19 2546.03 4424.65 2541.49 4416.52 2538C4408.41 2534.51 4399.63 2531.46 4390.19 2528.84L4357.21 2519.41C4336.25 2513.39 4319.66 2504.79 4307.45 2493.62C4295.24 2482.44 4289.11 2467.82 4289.11 2449.75C4289.11 2434.74 4293.18 2421.64 4301.31 2410.47C4309.49 2399.21 4320.49 2390.48 4334.29 2384.28C4348.17 2378 4363.67 2374.86 4380.78 2374.86C4398.06 2374.86 4413.43 2377.96 4426.87 2384.15C4440.31 2390.26 4450.95 2398.64 4458.82 2409.29C4466.75 2419.94 4470.95 2432.03 4471.39 2445.56H4439.95Z" fill="black"/>
</g>
<rect x="4511.81" y="2382.78" width="675.979" height="253.74" fill="#ED1C24"/>
<path fill-rule="evenodd" clip-rule="evenodd" d="M4375.03 1968.47H4190.67C4271.95 1888.18 4375.03 1679.04 4435.49 1525.41L4607.96 1078.39V999.101H4781.41C4857.4 1239.29 5016.32 1727.81 5044.07 1760.32C5070.17 1820.45 5127.33 1946.26 5147.15 1968.47H4986.58L4839.89 1545.24H4494.96L4375.03 1860.43C4371.73 1887.85 4367.1 1947.85 4375.03 1968.47ZM4824.03 1487.75H4518.75L4680.31 1099.21L4824.03 1487.75Z" fill="black" stroke="black" stroke-width="2"/>
<defs>
<clipPath id="clip0_222_90">
<rect width="3758.52" height="277.528" fill="white" transform="translate(717.609 2374.86)"/>
</clipPath>
</defs>
</svg>
