<svg width="7097" height="7097" viewBox="0 0 7097 7097" fill="none" xmlns="http://www.w3.org/2000/svg">
<g clip-path="url(#clip0_223_9)">
<rect width="7097" height="7097" rx="3548.5" fill="black"/>
<path d="M2945 5313H4152V7080C4152 7089.39 4144.39 7097 4135 7097H2967C2954.85 7097 2945 7087.15 2945 7075V5313Z" fill="#B60F10"/>
<path d="M1870.39 4148.49C1853.49 4148.49 1845.05 4142.29 1845.05 4129.9C1845.05 4119.77 1852.37 4113.01 1867.01 4109.63L1905.87 4102.87C1929.53 4098.37 1944.73 4092.17 1951.49 4084.29C1959.37 4076.4 1963.32 4060.63 1963.32 4036.98V3043.52C1963.32 3019.87 1959.37 3004.1 1951.49 2996.21C1944.73 2988.33 1929.53 2982.13 1905.87 2977.63L1867.01 2970.87C1852.37 2967.49 1845.05 2960.73 1845.05 2950.59C1845.05 2938.2 1853.49 2932.01 1870.39 2932.01H2179.58C2196.48 2932.01 2204.93 2938.77 2204.93 2952.28C2204.93 2962.42 2198.73 2968.62 2186.34 2970.87L2140.72 2977.63C2117.07 2981.01 2101.3 2987.2 2093.41 2996.21C2086.66 3005.22 2083.28 3021.56 2083.28 3045.21V3991.36C2083.28 4031.91 2094.54 4061.19 2117.07 4079.22C2140.72 4097.24 2170.01 4106.25 2204.93 4106.25C2230.83 4106.25 2257.3 4101.18 2284.34 4091.04C2312.49 4079.78 2337.84 4059.51 2360.37 4030.22C2382.89 3999.81 2399.79 3955.88 2411.05 3898.43L2433.02 3785.23C2436.4 3770.59 2444.84 3763.27 2458.36 3763.27C2474.13 3763.27 2480.89 3772.84 2478.64 3791.99L2458.36 4109.63C2456.11 4135.54 2442.03 4148.49 2416.12 4148.49H1870.39ZM2505.81 4148.49C2488.92 4148.49 2480.47 4142.86 2480.47 4131.59C2480.47 4120.33 2488.36 4113.01 2504.12 4109.63L2529.47 4104.56C2552 4100.05 2568.89 4089.35 2580.16 4072.46C2591.42 4054.44 2600.99 4029.66 2608.88 3998.12L2870.76 2942.15C2873.01 2930.88 2876.39 2923.56 2880.9 2920.18C2886.53 2916.8 2891.6 2915.11 2896.11 2915.11C2901.74 2915.11 2906.81 2916.8 2911.31 2920.18C2916.94 2923.56 2920.89 2930.88 2923.14 2942.15L3190.09 4013.32C3197.98 4044.86 3206.99 4066.83 3217.12 4079.22C3227.26 4091.61 3243.03 4100.05 3264.43 4104.56L3289.78 4109.63C3305.55 4113.01 3313.43 4120.33 3313.43 4131.59C3313.43 4142.86 3304.98 4148.49 3288.09 4148.49H2999.17C2983.4 4148.49 2975.52 4142.29 2975.52 4129.9C2975.52 4117.51 2985.09 4110.76 3004.24 4109.63L3036.34 4106.25C3055.49 4104 3067.32 4097.8 3071.82 4087.66C3077.45 4077.53 3077.45 4060.07 3071.82 4035.29L3007.62 3773.41C3000.86 3744.12 2982.27 3729.48 2951.86 3729.48H2774.46C2745.17 3729.48 2726.58 3744.12 2718.7 3773.41L2661.25 3999.81C2644.36 4064.01 2661.25 4099.49 2711.94 4106.25L2737.29 4109.63C2756.43 4113.01 2766.01 4119.77 2766.01 4129.9C2766.01 4142.29 2758.12 4148.49 2742.35 4148.49H2505.81ZM2769.39 3678.79H2955.24C2973.26 3678.79 2980.58 3669.22 2977.21 3650.07L2869.07 3197.27H2860.62L2747.42 3650.07C2744.04 3669.22 2751.37 3678.79 2769.39 3678.79ZM3991.4 4163.69C3973.38 4163.69 3958.17 4150.18 3945.78 4123.15L3487.91 3129.69C3484.53 3121.8 3480.02 3118.42 3474.39 3119.55C3469.88 3120.68 3467.63 3125.74 3467.63 3134.76V4003.19C3467.63 4034.73 3472.7 4058.94 3482.84 4075.84C3494.1 4091.61 3513.81 4101.74 3541.97 4106.25L3563.94 4109.63C3578.58 4110.76 3585.9 4117.51 3585.9 4129.9C3585.9 4142.29 3577.45 4148.49 3560.56 4148.49H3318.95C3302.05 4148.49 3293.61 4142.29 3293.61 4129.9C3293.61 4117.51 3300.93 4110.76 3315.57 4109.63L3337.53 4106.25C3366.82 4101.74 3387.1 4091.61 3398.36 4075.84C3409.62 4058.94 3415.25 4034.73 3415.25 4003.19V3043.52C3415.25 3019.87 3411.31 3004.1 3403.43 2996.21C3396.67 2988.33 3380.34 2982.13 3354.43 2977.63L3315.57 2970.87C3300.93 2967.49 3293.61 2960.73 3293.61 2950.59C3293.61 2938.2 3302.05 2932.01 3318.95 2932.01H3499.73C3527.89 2932.01 3547.6 2944.4 3558.87 2969.18L3957.61 3846.06C3960.99 3852.82 3964.93 3855.63 3969.43 3854.51C3975.07 3853.38 3977.88 3849.44 3977.88 3842.68V3077.31C3977.88 3041.27 3971.69 3016.49 3959.3 3002.97C3946.91 2988.33 3931.14 2979.32 3911.99 2975.94L3881.58 2970.87C3866.93 2967.49 3859.61 2960.73 3859.61 2950.59C3859.61 2938.2 3868.06 2932.01 3884.96 2932.01H4126.56C4143.46 2932.01 4151.91 2938.2 4151.91 2950.59C4151.91 2962.98 4144.59 2969.74 4129.94 2970.87L4107.98 2974.25C4078.69 2978.75 4058.42 2988.33 4047.15 3002.97C4035.89 3016.49 4030.26 3041.27 4030.26 3077.31V4109.63C4030.26 4129.9 4026.32 4143.98 4018.43 4151.87C4011.67 4159.75 4002.66 4163.69 3991.4 4163.69Z" fill="white"/>
<path d="M4009.52 4168.33C3992.42 4168.33 3972.37 4165.42 3972.37 4152.63C3972.37 4142.16 4057.88 4084.6 3972.37 4110.77H4009.52C4055.69 4133.44 3965.53 4118.91 3972.37 4110.77C3980.35 4102.63 3984.34 4086.35 3984.34 4061.93V3036.28C3984.34 3011.86 3980.35 2995.58 3972.37 2987.44C3965.53 2979.3 3986.03 2969.42 3962.09 2964.77L3952.97 2956.71C3938.15 2953.22 3926.2 2956.92 3926.2 2946.45C3926.2 2933.66 3903.39 2921.16 3920.49 2921.16H4464.86C4491.08 2921.16 4505.33 2934.53 4507.61 2961.28L4521.29 3250.83C4523.57 3270.6 4516.16 3280.48 4499.06 3280.48C4485.38 3280.48 4477.4 3272.92 4475.12 3257.81L4464.86 3193.27C4452.32 3114.19 4426.67 3056.63 4387.91 3020.58C4349.15 2983.37 4295.57 2964.77 4227.17 2964.77C4181.57 2964.77 4149.65 2971.74 4131.41 2985.7C4114.31 2998.49 4105.76 3021.75 4105.76 3055.47V3475.84C4105.76 3492.12 4113.74 3500.26 4129.7 3500.26H4215.2C4265.36 3500.26 4296.14 3472.94 4307.54 3418.28L4324.64 3331.07C4329.2 3313.62 4338.89 3306.07 4353.71 3308.39C4366.25 3310.72 4372.52 3320.6 4372.52 3338.04V3730.51C4372.52 3747.95 4366.25 3757.84 4353.71 3760.16C4338.89 3762.49 4329.2 3754.93 4324.64 3737.49L4307.54 3652.02C4299.56 3611.32 4288.16 3584.57 4273.34 3571.78C4259.66 3558.99 4239.71 3552.59 4213.49 3552.59H4129.7C4113.74 3552.59 4105.76 3560.73 4105.76 3577.01V4014.83C4105.76 4056.69 4116.02 4086.93 4136.54 4105.53C4158.2 4124.14 4196.96 4133.44 4252.82 4133.44C4309.82 4133.44 4358.27 4118.91 4398.17 4089.84C4439.21 4059.6 4467.71 4003.78 4483.67 3922.38L4504.19 3819.47C4507.61 3804.35 4516.16 3796.79 4529.84 3796.79C4545.8 3796.79 4552.64 3806.68 4550.36 3826.45L4533.26 4136.93C4530.98 4163.68 4516.73 4177.05 4490.51 4177.05L4009.52 4168.33ZM4921.66 4192.75C4898.86 4192.75 4873.2 4190.42 4844.7 4185.77C4817.34 4181.12 4791.12 4175.31 4766.04 4168.33C4742.1 4161.35 4723.29 4153.79 4709.61 4145.65C4701.63 4141 4695.36 4136.35 4690.8 4131.7C4687.38 4125.88 4685.67 4116.58 4685.67 4103.79L4677.12 3829.94C4677.12 3806.68 4684.53 3795.05 4699.35 3795.05C4711.89 3795.05 4720.44 3805.52 4725 3826.45L4740.39 3892.73C4779.15 4059.02 4851.54 4142.16 4957.57 4142.16C5014.57 4142.16 5059.6 4122.98 5092.66 4084.6C5126.86 4045.07 5143.96 3989.83 5143.96 3918.89C5143.96 3850.29 5126.29 3786.33 5090.95 3727.02C5056.75 3667.72 5001.46 3608.99 4925.08 3550.85C4840.71 3489.22 4779.15 3429.91 4740.39 3372.93C4701.63 3314.79 4682.25 3253.16 4682.25 3188.04C4682.25 3101.98 4711.32 3033.37 4769.46 2982.21C4828.74 2929.88 4903.99 2903.71 4995.19 2903.71C5029.39 2903.71 5062.45 2907.78 5094.37 2915.92C5126.29 2924.06 5152.51 2935.69 5173.03 2950.81C5179.87 2955.46 5185 2960.7 5188.42 2966.51C5192.98 2972.32 5195.26 2979.88 5195.26 2989.19L5200.39 3252.57C5200.39 3272.34 5192.98 3282.23 5178.16 3282.23C5167.9 3282.23 5160.49 3274.09 5155.93 3257.81L5143.96 3214.2C5118.88 3124.66 5092.66 3059.54 5065.3 3018.84C5039.08 2976.98 5000.89 2956.04 4950.73 2956.04C4901.71 2956.04 4862.37 2972.32 4832.73 3004.88C4804.23 3037.44 4789.98 3083.38 4789.98 3142.68C4789.98 3192.69 4805.94 3240.36 4837.86 3285.72C4869.78 3331.07 4925.65 3386.3 5005.45 3451.42C5090.95 3522.36 5153.08 3590.97 5191.84 3657.25C5231.74 3722.37 5251.69 3792.14 5251.69 3866.57C5251.69 3931.69 5237.44 3988.67 5208.94 4037.51C5180.44 4086.35 5141.11 4124.72 5090.95 4152.63C5041.93 4179.38 4985.5 4192.75 4921.66 4192.75Z" fill="white"/>
</g>
<defs>
<clipPath id="clip0_223_9">
<rect width="7097" height="7097" rx="3548.5" fill="white"/>
</clipPath>
</defs>
</svg>
