<svg width="13932" height="5684" viewBox="0 0 13932 5684" fill="none" xmlns="http://www.w3.org/2000/svg">
<path d="M12203.5 2259.18V1870.63L13930.9 1875.88V2259.18H12203.5Z" fill="black"/>
<path d="M12749.5 3813.37V2400.95H13390.1V3813.37H12749.5Z" fill="black"/>
<path d="M12203.5 2259.18V1870.63L13930.9 1875.88V2259.18H12203.5Z" stroke="black" stroke-width="2"/>
<path d="M12749.5 3813.37V2400.95H13390.1V3813.37H12749.5Z" stroke="black" stroke-width="2"/>
<path d="M4033.48 3818.62H4668.81V3104.53H5277.88V2731.74H4668.81V1875.88H4033.48V3818.62Z" fill="black"/>
<path d="M4779.07 2248.68V1875.88H5771.44V2505.96H5136.12V2248.68H4779.07Z" fill="black"/>
<path d="M4033.48 3818.62H4668.81V3104.53H5277.88V2731.74H4668.81V1875.88H4033.48V3818.62Z" stroke="black" stroke-width="2"/>
<path d="M4779.07 2248.68V1875.88H5771.44V2505.96H5136.12V2248.68H4779.07Z" stroke="black" stroke-width="2"/>
<path d="M5986.73 3813.37V1865.38H6616.8V3813.37H5986.73Z" fill="black"/>
<path d="M6721.82 2253.93V1865.38H7472.66L7850.7 2253.93V3440.57L7456.9 3813.37H6721.82V3424.82H7178.62V3015.27H6721.82V2668.73H7178.62V2253.93H6721.82Z" fill="black"/>
<path d="M5986.73 3813.37V1865.38H6616.8V3813.37H5986.73Z" stroke="black" stroke-width="2"/>
<path d="M6721.82 2253.93V1865.38H7472.66L7850.7 2253.93V3440.57L7456.9 3813.37H6721.82V3424.82H7178.62V3015.27H6721.82V2668.73H7178.62V2253.93H6721.82Z" stroke="black" stroke-width="2"/>
<path d="M8076.48 3802.87V1870.63H8711.8V2647.73H9315.63V3031.02H8711.8V3802.87H8076.48Z" fill="black"/>
<path d="M8816.82 2259.18V1870.63H9803.94V2495.46H9179.11V2259.18H8816.82Z" fill="black"/>
<path d="M9179.11 3430.07V3172.79H9803.94V3802.87H8816.82V3430.07H9179.11Z" fill="black"/>
<path d="M8076.48 3802.87V1870.63H8711.8V2647.73H9315.63V3031.02H8711.8V3802.87H8076.48Z" stroke="black" stroke-width="2"/>
<path d="M8816.82 2259.18V1870.63H9803.94V2495.46H9179.11V2259.18H8816.82Z" stroke="black" stroke-width="2"/>
<path d="M9179.11 3430.07V3172.79H9803.94V3802.87H8816.82V3430.07H9179.11Z" stroke="black" stroke-width="2"/>
<path d="M11058.8 2826.25L10738.5 2028.15L10024.5 3813.37H10659.8L11058.8 2826.25Z" fill="black"/>
<path d="M11331.9 3220.05L10801.6 1870.63H11431.6L12208.7 3813.37H11562.9L11494.6 3608.59H10864.6L11022.1 3204.29L11331.9 3220.05Z" fill="black"/>
<path d="M11058.8 2826.25L10738.5 2028.15L10024.5 3813.37H10659.8L11058.8 2826.25Z" stroke="black" stroke-width="2"/>
<path d="M11331.9 3220.05L10801.6 1870.63H11431.6L12208.7 3813.37H11562.9L11494.6 3608.59H10864.6L11022.1 3204.29L11331.9 3220.05Z" stroke="black" stroke-width="2"/>
<path d="M1 3424.82V2243.43L389.547 1865.38H872.606V2259.18H673.081V3424.82H872.606V3813.37H389.547L1 3424.82Z" fill="black"/>
<path d="M982.869 2259.18V1865.38H1471.18L1864.98 2259.18V3424.82L1476.43 3813.37H982.869V3424.82H1198.14V2259.18H982.869Z" fill="black"/>
<path d="M1 3424.82V2243.43L389.547 1865.38H872.606V2259.18H673.081V3424.82H872.606V3813.37H389.547L1 3424.82Z" stroke="black" stroke-width="2"/>
<path d="M982.869 2259.18V1865.38H1471.18L1864.98 2259.18V3424.82L1476.43 3813.37H982.869V3424.82H1198.14V2259.18H982.869Z" stroke="black" stroke-width="2"/>
<path d="M2096 3818.62H2720.83V3120.28H3329.9V2736.99H2710.32V1870.63H2096V3818.62Z" fill="black"/>
<path d="M2831.09 2253.93V1870.63H3818.21V2500.71H3188.13V2253.93H2831.09Z" fill="black"/>
<path d="M2096 3818.62H2720.83V3120.28H3329.9V2736.99H2710.32V1870.63H2096V3818.62Z" stroke="black" stroke-width="2"/>
<path d="M2831.09 2253.93V1870.63H3818.21V2500.71H3188.13V2253.93H2831.09Z" stroke="black" stroke-width="2"/>
</svg>
