<svg width="1329" height="188" viewBox="0 0 1329 188" fill="none" xmlns="http://www.w3.org/2000/svg">
<path d="M1163 38.5V1.5L1327.5 2V38.5H1163Z" fill="black"/>
<path d="M1215 186.5V52H1276V186.5H1215Z" fill="black"/>
<path d="M1163 38.5V1.5L1327.5 2V38.5H1163Z" stroke="black" stroke-width="2"/>
<path d="M1215 186.5V52H1276V186.5H1215Z" stroke="black" stroke-width="2"/>
<path d="M385 187H445.5V119H503.5V83.5H445.5V2H385V187Z" fill="black"/>
<path d="M456 37.5V2H550.5V62H490V37.5H456Z" fill="black"/>
<path d="M385 187H445.5V119H503.5V83.5H445.5V2H385V187Z" stroke="black" stroke-width="2"/>
<path d="M456 37.5V2H550.5V62H490V37.5H456Z" stroke="black" stroke-width="2"/>
<path d="M571 186.5V1H631V186.5H571Z" fill="black"/>
<path d="M641 38V1H712.5L748.5 38V151L711 186.5H641V149.5H684.5V110.5H641V77.5H684.5V38H641Z" fill="black"/>
<path d="M571 186.5V1H631V186.5H571Z" stroke="black" stroke-width="2"/>
<path d="M641 38V1H712.5L748.5 38V151L711 186.5H641V149.5H684.5V110.5H641V77.5H684.5V38H641Z" stroke="black" stroke-width="2"/>
<path d="M770 185.5V1.5H830.5V75.5H888V112H830.5V185.5H770Z" fill="black"/>
<path d="M840.5 38.5V1.5H934.5V61H875V38.5H840.5Z" fill="black"/>
<path d="M875 150V125.5H934.5V185.5H840.5V150H875Z" fill="black"/>
<path d="M770 185.5V1.5H830.5V75.5H888V112H830.5V185.5H770Z" stroke="black" stroke-width="2"/>
<path d="M840.5 38.5V1.5H934.5V61H875V38.5H840.5Z" stroke="black" stroke-width="2"/>
<path d="M875 150V125.5H934.5V185.5H840.5V150H875Z" stroke="black" stroke-width="2"/>
<path d="M1054 92.5L1023.5 16.5L955.5 186.5H1016L1054 92.5Z" fill="black"/>
<path d="M1080 130L1029.5 1.5H1089.5L1163.5 186.5H1102L1095.5 167H1035.5L1050.5 128.5L1080 130Z" fill="black"/>
<path d="M1054 92.5L1023.5 16.5L955.5 186.5H1016L1054 92.5Z" stroke="black" stroke-width="2"/>
<path d="M1080 130L1029.5 1.5H1089.5L1163.5 186.5H1102L1095.5 167H1035.5L1050.5 128.5L1080 130Z" stroke="black" stroke-width="2"/>
<path d="M1 149.5V37L38 1H84V38.5H65V149.5H84V186.5H38L1 149.5Z" fill="black"/>
<path d="M94.5 38.5V1H141L178.5 38.5V149.5L141.5 186.5H94.5V149.5H115V38.5H94.5Z" fill="black"/>
<path d="M1 149.5V37L38 1H84V38.5H65V149.5H84V186.5H38L1 149.5Z" stroke="black" stroke-width="2"/>
<path d="M94.5 38.5V1H141L178.5 38.5V149.5L141.5 186.5H94.5V149.5H115V38.5H94.5Z" stroke="black" stroke-width="2"/>
<path d="M200.5 187H260V120.5H318V84H259V1.5H200.5V187Z" fill="black"/>
<path d="M270.5 38V1.5H364.5V61.5H304.5V38H270.5Z" fill="black"/>
<path d="M200.5 187H260V120.5H318V84H259V1.5H200.5V187Z" stroke="black" stroke-width="2"/>
<path d="M270.5 38V1.5H364.5V61.5H304.5V38H270.5Z" stroke="black" stroke-width="2"/>
</svg>
