<svg width="5415" height="1158" viewBox="0 0 5415 1158" fill="none" xmlns="http://www.w3.org/2000/svg">
<g clip-path="url(#clip0_195_406)">
<path d="M1267.59 489.998C1267.59 442.587 1254.9 406.455 1229.52 381.428C1204.32 356.576 1162.72 344.062 1105.27 344.239C1089.23 344.239 1073.19 345.12 1057.15 346.882C1042.17 348.292 1027.36 351.465 1013.09 356.4V628.532C1026.13 631.352 1039.35 633.114 1052.57 634.172C1066.14 635.229 1079.71 635.758 1093.28 635.758C1155.5 635.758 1200.09 622.892 1227.06 597.159C1254.2 571.426 1267.59 535.647 1267.59 489.998ZM1398.37 491.056C1398.72 521.547 1392.2 551.863 1379.51 579.358C1366.65 606.5 1347.26 629.942 1323.29 647.919C1294.56 668.541 1262.13 683.522 1227.76 691.982C1183.7 702.91 1138.4 708.021 1092.93 707.316C1066.14 707.316 1039.35 705.201 1012.73 701.147V983.502H880.898V310.046C914.562 297.708 949.284 288.191 984.534 282.198C1023.31 275.501 1062.61 272.328 1101.92 272.504C1146.33 271.799 1190.75 277.087 1233.75 288.367C1267.24 297.003 1298.44 312.161 1326.11 333.135C1349.55 351.289 1368.23 374.906 1380.22 402.049C1392.38 430.249 1398.72 460.388 1398.37 491.056Z" fill="black"/>
<path d="M1478.22 983.67V436.233H1605.82V983.67H1478.22ZM1616.4 280.78C1616.4 289.24 1614.28 297.524 1610.58 304.926C1606.7 312.505 1601.24 319.026 1594.54 323.961C1579.56 335.418 1561.23 341.763 1542.37 341.763C1523.51 341.763 1505.18 335.418 1490.2 323.961C1483.51 319.026 1477.87 312.505 1474.16 304.926C1470.29 297.524 1468.35 289.24 1468.35 280.78C1468.35 272.32 1470.29 264.036 1474.16 256.633C1477.87 249.055 1483.33 242.533 1490.2 237.598C1505.18 226.142 1523.51 219.797 1542.37 219.797C1561.23 219.797 1579.56 226.142 1594.54 237.598C1601.24 242.71 1606.7 249.055 1610.58 256.633C1614.28 264.036 1616.4 272.32 1616.4 280.604V280.78Z" fill="black"/>
<mask id="mask0_195_406" style="mask-type:luminance" maskUnits="userSpaceOnUse" x="1676" y="268" width="362" height="734">
<path d="M1676.14 268.792H2037.11V1002H1676.14V268.792Z" fill="white"/>
</mask>
<g mask="url(#mask0_195_406)">
<path d="M2003.45 982.614C1992.87 986.491 1981.95 989.487 1971.02 991.779C1958.33 994.246 1945.29 995.304 1932.42 995.304C1905.63 996.009 1878.66 991.779 1853.28 982.614C1833.37 975.211 1815.21 963.755 1800.23 948.597C1786.48 934.673 1776.44 917.577 1770.45 898.894C1764.45 880.035 1761.28 860.295 1761.46 840.555V508.498H1678.27V436.059H1761.46V313.035L1888 280.605V436.235H2003.63V508.674H1888V842.846C1888 852.011 1889.59 861.177 1893.12 869.637C1896.46 878.273 1901.75 886.028 1908.27 892.549C1921.84 906.649 1941.94 913.876 1969.08 913.876C1980.71 913.699 1992.35 912.113 2003.63 908.764V982.614H2003.45Z" fill="black"/>
</g>
<mask id="mask1_195_406" style="mask-type:luminance" maskUnits="userSpaceOnUse" x="1991" y="404" width="498" height="598">
<path d="M1991.94 404.148H2488.26V1001.99H1991.94V404.148Z" fill="white"/>
</mask>
<g mask="url(#mask1_195_406)">
<path d="M2445.43 958.637C2403.3 983.841 2351.66 996.355 2290.32 996.178C2252.08 996.883 2214.01 989.481 2178.76 974.323C2147.56 960.399 2119.89 940.13 2097.33 914.221C2074.77 887.784 2057.67 857.116 2047.27 823.805C2035.47 786.968 2029.65 748.722 2030.18 709.946C2029.83 671.523 2035.64 633.277 2047.27 596.793C2057.85 563.482 2074.95 532.638 2097.51 506.2C2119.89 480.467 2147.74 460.022 2178.93 446.274C2214.18 431.117 2252.08 423.714 2290.5 424.419C2351.31 424.419 2402.6 436.933 2444.54 462.137L2415.11 529.113C2401.36 519.419 2385.85 512.545 2369.46 508.844C2351.48 504.614 2333.15 502.499 2314.82 502.675C2291.21 502.146 2268.12 507.786 2247.32 519.066C2228.28 529.641 2212.07 544.623 2199.73 562.6C2186.51 582.517 2176.82 604.372 2171.18 627.637C2164.66 653.722 2161.48 680.689 2161.66 707.831C2161.48 734.798 2164.66 761.764 2171.18 788.026C2176.82 811.291 2186.34 833.498 2199.56 853.591C2211.72 871.745 2228.11 887.079 2247.14 897.83C2267.94 908.934 2291.21 914.574 2314.65 914.045C2349.72 915.455 2384.27 906.29 2414.05 887.784L2445.6 958.637H2445.43Z" fill="black"/>
</g>
<path d="M2884.53 984.193V625.698C2884.53 583.397 2873.96 551.672 2852.63 530.169C2831.48 508.491 2799.4 497.739 2756.93 497.563C2737.36 497.563 2717.8 499.502 2698.59 503.203C2679.9 506.728 2661.75 512.368 2644.48 519.947V984.016H2517.93V186.832H2644.48V454.91C2666.33 445.216 2689.42 437.99 2712.86 433.055C2737.72 427.944 2763.1 425.476 2788.48 425.652C2860.74 425.652 2916.08 442.396 2954.68 475.884C2993.28 509.548 3012.67 559.427 3012.49 625.874V984.369H2884.71L2884.53 984.193Z" fill="black"/>
<mask id="mask2_195_406" style="mask-type:luminance" maskUnits="userSpaceOnUse" x="3074" y="268" width="588" height="734">
<path d="M3074.84 268.792H3661.4V1002H3074.84V268.792Z" fill="white"/>
</mask>
<g mask="url(#mask2_195_406)">
<path d="M3511.03 791.551C3511.03 742.906 3493.76 706.598 3458.86 682.98C3424.14 659.186 3367.56 647.554 3289.13 647.906H3233.44V905.762C3248.59 911.578 3264.81 915.632 3281.02 917.571C3299.88 919.862 3318.92 921.096 3337.78 921.096C3361.22 921.272 3384.48 918.804 3407.4 914.046C3426.96 909.992 3445.47 902.237 3462.03 891.309C3477.19 880.91 3489.53 867.163 3498.17 851.124C3507.51 832.617 3511.91 812.172 3511.21 791.551H3511.03ZM3489 462.49C3489 423.186 3476.31 393.752 3451.46 374.012C3426.43 354.448 3386.6 344.578 3331.79 344.578C3298.47 343.873 3265.34 348.808 3233.44 358.678V589.391H3289.31C3320.68 589.743 3352.05 587.1 3383.07 581.283C3404.93 577.053 3425.9 569.122 3444.76 557.313C3459.92 547.972 3471.55 534.048 3478.78 517.833C3485.83 500.208 3489.18 481.349 3488.82 462.49H3489ZM3644.98 792.608C3645.69 824.51 3638.29 856.059 3623.13 884.083C3608.15 910.168 3586.82 932.023 3561.26 947.533C3531.48 965.335 3499.05 977.849 3465.03 984.546C3424.14 993.006 3382.37 997.06 3340.77 996.707C3298.47 996.884 3256.17 993.887 3214.23 987.542C3176.86 982.431 3140.02 972.913 3104.77 959.166V311.266C3138.61 297.695 3173.86 288.177 3209.82 282.714C3250.18 276.545 3291.07 273.372 3331.96 273.725C3426.61 273.725 3497.99 290.292 3545.93 323.604C3593.87 356.739 3617.84 400.802 3618.19 455.616C3618.72 477.295 3614.32 498.974 3605.33 518.89C3597.22 536.515 3585.76 552.202 3571.49 565.068C3557.03 578.111 3540.82 588.686 3523.19 596.617C3505.57 604.548 3487.06 610.365 3467.85 613.713V615.828C3489.71 620.235 3510.86 627.108 3531.13 636.097C3551.92 645.262 3571.31 657.424 3588.41 672.405C3605.15 686.858 3619.07 704.483 3629.47 724.223C3640.22 745.373 3645.51 768.814 3644.98 792.608Z" fill="black"/>
</g>
<mask id="mask3_195_406" style="mask-type:luminance" maskUnits="userSpaceOnUse" x="3661" y="404" width="587" height="598">
<path d="M3661.41 404.148H4247.98V1001.99H3661.41V404.148Z" fill="white"/>
</mask>
<g mask="url(#mask3_195_406)">
<path d="M4113.52 708.531C4113.69 680.86 4110.87 653.189 4105.41 626.222C4100.65 602.605 4092.37 580.044 4080.38 559.07C4062.58 530.87 4034.56 510.425 4002.3 501.965C3969.87 493.681 3935.5 497.911 3906.07 513.95C3888.09 524.878 3873.11 540.388 3862.53 558.718C3850.55 579.516 3842.27 602.076 3837.68 625.693C3832.04 652.836 3829.4 680.331 3829.4 708.003C3829.22 735.674 3832.04 763.169 3837.51 790.312C3842.09 813.753 3850.55 836.49 3862.36 857.288C3880.34 885.488 3908.18 905.933 3940.61 914.217C3972.87 922.5 4007.06 918.094 4036.32 902.055C4054.65 891.128 4069.81 875.794 4080.38 857.288C4092.37 836.49 4100.65 813.93 4105.41 790.312C4110.7 763.346 4113.52 736.027 4113.52 708.531ZM4243.24 710.646C4243.41 749.246 4237.24 787.668 4225.08 824.329C4214.16 857.816 4196.35 888.66 4172.91 914.922C4149.3 940.654 4120.04 961.1 4087.78 974.671C4012.7 1003.93 3929.51 1003.93 3854.43 974.671C3822.17 961.1 3793.09 940.654 3769.3 914.745C3745.86 888.484 3728.05 857.64 3717.13 824.329C3693.51 750.479 3693.51 671.166 3717.13 597.141C3728.23 563.829 3745.86 532.985 3769.47 506.724C3793.09 480.815 3822.17 460.37 3854.6 446.798C3929.69 417.717 4012.88 417.717 4087.78 446.798C4120.39 460.37 4149.65 480.991 4173.62 506.9C4197.06 533.161 4214.68 564.005 4225.61 597.317C4237.6 633.977 4243.59 672.224 4243.06 710.646H4243.24Z" fill="black"/>
</g>
<mask id="mask4_195_406" style="mask-type:luminance" maskUnits="userSpaceOnUse" x="4293" y="404" width="587" height="598">
<path d="M4293.09 404.148H4879.65V1001.99H4293.09V404.148Z" fill="white"/>
</mask>
<g mask="url(#mask4_195_406)">
<path d="M4707.42 709.071C4707.77 681.576 4705.13 653.905 4699.49 626.938C4694.91 603.321 4686.45 580.761 4674.64 559.787C4663.71 540.752 4647.85 524.713 4628.64 513.961C4609.42 503.21 4587.57 497.922 4565.54 498.804C4543.51 497.746 4521.65 503.034 4502.44 513.785C4483.05 524.536 4467.19 540.575 4456.44 559.787C4444.63 580.584 4436.17 603.144 4431.59 626.762C4420.84 681.048 4420.84 736.919 4431.59 791.381C4436.17 814.822 4444.63 837.382 4456.44 858.356C4467.72 877.215 4483.58 893.078 4502.79 904.005C4521.83 914.933 4543.51 920.749 4565.54 920.749C4587.57 920.749 4609.25 914.933 4628.28 904.005C4647.32 893.078 4663.36 877.215 4674.46 858.356C4686.27 837.382 4694.73 814.822 4699.31 791.381C4704.95 764.238 4707.6 736.567 4707.42 708.895V709.071ZM4837.32 711.186C4837.49 749.962 4831.5 788.385 4819.16 825.045C4808.24 858.532 4790.43 889.376 4766.99 915.462C4743.37 941.371 4714.29 961.816 4681.86 975.387C4606.78 1004.64 4523.59 1004.64 4448.68 975.387C4416.25 961.816 4387.17 941.371 4363.55 915.462C4339.94 889.2 4322.13 858.356 4311.21 824.869C4299.05 788.384 4293.05 749.785 4293.23 711.186C4292.88 672.764 4299.05 634.517 4311.21 598.033C4322.13 564.545 4340.11 533.701 4363.55 507.44C4387.17 481.531 4416.25 461.262 4448.68 447.691C4523.77 418.433 4606.96 418.433 4681.86 447.691C4714.29 461.262 4743.37 481.707 4767.17 507.616C4790.61 533.701 4808.41 564.545 4819.16 598.033C4831.5 634.517 4837.49 672.764 4837.32 711.186Z" fill="black"/>
</g>
<mask id="mask5_195_406" style="mask-type:luminance" maskUnits="userSpaceOnUse" x="4879" y="178" width="536" height="813">
<path d="M4879.66 178.554H5414.41V990.72H4879.66V178.554Z" fill="white"/>
</mask>
<g mask="url(#mask5_195_406)">
<path d="M5271.09 985.251L5029.97 687.563H5027.86V985.075H4902.19V187.89H5028.03V675.401H5030.15L5259.45 437.815H5394.28L5149.65 675.401L5420.72 985.427L5271.09 985.251Z" fill="black"/>
</g>
<mask id="mask6_195_406" style="mask-type:luminance" maskUnits="userSpaceOnUse" x="0" y="156" width="639" height="745">
<path d="M0 156H638.382V900.485H0V156Z" fill="white"/>
</mask>
<g mask="url(#mask6_195_406)">
<path d="M633.813 157.239C139.957 197.425 -63.9654 606.68 17.2864 863.831C64.8743 790.51 153.529 710.668 334.715 681.058C324.14 464.269 402.572 313.045 633.813 157.239Z" fill="black"/>
</g>
<mask id="mask7_195_406" style="mask-type:luminance" maskUnits="userSpaceOnUse" x="96" y="178" width="723" height="824">
<path d="M96.8906 178.554H818.816V1002H96.8906V178.554Z" fill="white"/>
</mask>
<g mask="url(#mask7_195_406)">
<path d="M380.51 712.062C255.724 732.507 169.009 766.347 114.547 817.636C116.309 886.198 135.873 953.173 171.476 1011.87C213.776 908.758 352.134 835.79 562.578 835.261C511.465 588.157 625.852 362.027 803.866 210.098C715.916 222.964 629.553 246.23 546.715 279.012C411.178 409.615 360.594 577.934 380.51 712.238V712.062Z" fill="black"/>
</g>
</g>
<defs>
<clipPath id="clip0_195_406">
<rect width="5414.41" height="1158" fill="white"/>
</clipPath>
</defs>
</svg>
