<svg width="5415" height="2027" viewBox="0 0 5415 2027" fill="none" xmlns="http://www.w3.org/2000/svg">
<g clip-path="url(#clip0_195_406)">
<path d="M1267.59 924.498C1267.59 877.087 1254.9 840.955 1229.52 815.928C1204.32 791.076 1162.72 778.562 1105.27 778.739C1089.23 778.739 1073.19 779.62 1057.15 781.382C1042.17 782.792 1027.36 785.965 1013.09 790.9V1063.03C1026.13 1065.85 1039.35 1067.61 1052.57 1068.67C1066.14 1069.73 1079.71 1070.26 1093.28 1070.26C1155.5 1070.26 1200.09 1057.39 1227.06 1031.66C1254.2 1005.93 1267.59 970.147 1267.59 924.498ZM1398.37 925.556C1398.72 956.047 1392.2 986.363 1379.51 1013.86C1366.65 1041 1347.26 1064.44 1323.29 1082.42C1294.56 1103.04 1262.13 1118.02 1227.76 1126.48C1183.7 1137.41 1138.4 1142.52 1092.93 1141.82C1066.14 1141.82 1039.35 1139.7 1012.73 1135.65V1418H880.898V744.546C914.562 732.208 949.284 722.691 984.534 716.698C1023.31 710.001 1062.61 706.828 1101.92 707.004C1146.33 706.299 1190.75 711.587 1233.75 722.867C1267.24 731.503 1298.44 746.661 1326.11 767.635C1349.55 785.789 1368.23 809.406 1380.22 836.549C1392.38 864.749 1398.72 894.888 1398.37 925.556Z" fill="black"/>
<path d="M1478.22 1418.17V870.733H1605.82V1418.17H1478.22ZM1616.4 715.28C1616.4 723.74 1614.28 732.024 1610.58 739.426C1606.7 747.005 1601.24 753.526 1594.54 758.461C1579.56 769.918 1561.23 776.263 1542.37 776.263C1523.51 776.263 1505.18 769.918 1490.2 758.461C1483.51 753.526 1477.87 747.005 1474.16 739.426C1470.29 732.024 1468.35 723.74 1468.35 715.28C1468.35 706.82 1470.29 698.536 1474.16 691.133C1477.87 683.555 1483.33 677.033 1490.2 672.098C1505.18 660.642 1523.51 654.297 1542.37 654.297C1561.23 654.297 1579.56 660.642 1594.54 672.098C1601.24 677.21 1606.7 683.555 1610.58 691.133C1614.28 698.536 1616.4 706.82 1616.4 715.104V715.28Z" fill="black"/>
<mask id="mask0_195_406" style="mask-type:luminance" maskUnits="userSpaceOnUse" x="1676" y="703" width="362" height="734">
<path d="M1676.14 703.293H2037.11V1436.5H1676.14V703.293Z" fill="white"/>
</mask>
<g mask="url(#mask0_195_406)">
<path d="M2003.45 1417.11C1992.87 1420.99 1981.95 1423.99 1971.02 1426.28C1958.33 1428.75 1945.29 1429.8 1932.42 1429.8C1905.63 1430.51 1878.66 1426.28 1853.28 1417.11C1833.37 1409.71 1815.21 1398.25 1800.23 1383.1C1786.48 1369.17 1776.44 1352.08 1770.45 1333.39C1764.45 1314.54 1761.28 1294.8 1761.46 1275.06V942.998H1678.27V870.559H1761.46V747.535L1888 715.105V870.735H2003.63V943.174H1888V1277.35C1888 1286.51 1889.59 1295.68 1893.12 1304.14C1896.46 1312.77 1901.75 1320.53 1908.27 1327.05C1921.84 1341.15 1941.94 1348.38 1969.08 1348.38C1980.71 1348.2 1992.35 1346.61 2003.63 1343.26V1417.11H2003.45Z" fill="black"/>
</g>
<mask id="mask1_195_406" style="mask-type:luminance" maskUnits="userSpaceOnUse" x="1991" y="838" width="498" height="599">
<path d="M1991.94 838.648H2488.26V1436.49H1991.94V838.648Z" fill="white"/>
</mask>
<g mask="url(#mask1_195_406)">
<path d="M2445.43 1393.14C2403.3 1418.34 2351.66 1430.85 2290.32 1430.68C2252.08 1431.38 2214.01 1423.98 2178.76 1408.82C2147.56 1394.9 2119.89 1374.63 2097.33 1348.72C2074.77 1322.28 2057.67 1291.62 2047.27 1258.3C2035.47 1221.47 2029.65 1183.22 2030.18 1144.45C2029.83 1106.02 2035.64 1067.78 2047.27 1031.29C2057.85 997.982 2074.95 967.138 2097.51 940.7C2119.89 914.967 2147.74 894.522 2178.93 880.775C2214.18 865.617 2252.08 858.214 2290.5 858.919C2351.31 858.919 2402.6 871.433 2444.54 896.637L2415.11 963.613C2401.36 953.919 2385.85 947.045 2369.46 943.344C2351.48 939.114 2333.15 936.999 2314.82 937.175C2291.21 936.646 2268.12 942.286 2247.32 953.566C2228.28 964.141 2212.07 979.123 2199.73 997.1C2186.51 1017.02 2176.82 1038.87 2171.18 1062.14C2164.66 1088.22 2161.48 1115.19 2161.66 1142.33C2161.48 1169.3 2164.66 1196.26 2171.18 1222.53C2176.82 1245.79 2186.34 1268 2199.56 1288.09C2211.72 1306.24 2228.11 1321.58 2247.14 1332.33C2267.94 1343.43 2291.21 1349.07 2314.65 1348.55C2349.72 1349.96 2384.27 1340.79 2414.05 1322.28L2445.6 1393.14H2445.43Z" fill="black"/>
</g>
<path d="M2884.53 1418.69V1060.2C2884.53 1017.9 2873.96 986.172 2852.63 964.669C2831.48 942.99 2799.4 932.239 2756.93 932.063C2737.36 932.063 2717.8 934.002 2698.59 937.703C2679.9 941.228 2661.75 946.868 2644.48 954.447V1418.52H2517.93V621.332H2644.48V889.41C2666.33 879.716 2689.42 872.49 2712.86 867.555C2737.72 862.444 2763.1 859.976 2788.48 860.152C2860.74 860.152 2916.08 876.896 2954.68 910.384C2993.28 944.048 3012.67 993.927 3012.49 1060.37V1418.87H2884.71L2884.53 1418.69Z" fill="black"/>
<mask id="mask2_195_406" style="mask-type:luminance" maskUnits="userSpaceOnUse" x="3074" y="703" width="588" height="734">
<path d="M3074.84 703.293H3661.4V1436.5H3074.84V703.293Z" fill="white"/>
</mask>
<g mask="url(#mask2_195_406)">
<path d="M3511.03 1226.05C3511.03 1177.41 3493.76 1141.1 3458.86 1117.48C3424.14 1093.69 3367.56 1082.05 3289.13 1082.41H3233.44V1340.26C3248.59 1346.08 3264.81 1350.13 3281.02 1352.07C3299.88 1354.36 3318.92 1355.6 3337.78 1355.6C3361.22 1355.77 3384.48 1353.3 3407.4 1348.55C3426.96 1344.49 3445.47 1336.74 3462.03 1325.81C3477.19 1315.41 3489.53 1301.66 3498.17 1285.62C3507.51 1267.12 3511.91 1246.67 3511.21 1226.05H3511.03ZM3489 896.99C3489 857.686 3476.31 828.252 3451.46 808.512C3426.43 788.948 3386.6 779.078 3331.79 779.078C3298.47 778.373 3265.34 783.308 3233.44 793.178V1023.89H3289.31C3320.68 1024.24 3352.05 1021.6 3383.07 1015.78C3404.93 1011.55 3425.9 1003.62 3444.76 991.813C3459.92 982.472 3471.55 968.548 3478.78 952.333C3485.83 934.708 3489.18 915.849 3488.82 896.99H3489ZM3644.98 1227.11C3645.69 1259.01 3638.29 1290.56 3623.13 1318.58C3608.15 1344.67 3586.82 1366.52 3561.26 1382.03C3531.48 1399.83 3499.05 1412.35 3465.03 1419.05C3424.14 1427.51 3382.37 1431.56 3340.77 1431.21C3298.47 1431.38 3256.17 1428.39 3214.23 1422.04C3176.86 1416.93 3140.02 1407.41 3104.77 1393.67V745.766C3138.61 732.195 3173.86 722.677 3209.82 717.214C3250.18 711.045 3291.07 707.872 3331.96 708.225C3426.61 708.225 3497.99 724.792 3545.93 758.104C3593.87 791.239 3617.84 835.302 3618.19 890.116C3618.72 911.795 3614.32 933.474 3605.33 953.39C3597.22 971.015 3585.76 986.702 3571.49 999.568C3557.03 1012.61 3540.82 1023.19 3523.19 1031.12C3505.57 1039.05 3487.06 1044.86 3467.85 1048.21V1050.33C3489.71 1054.73 3510.86 1061.61 3531.13 1070.6C3551.92 1079.76 3571.31 1091.92 3588.41 1106.91C3605.15 1121.36 3619.07 1138.98 3629.47 1158.72C3640.22 1179.87 3645.51 1203.31 3644.98 1227.11Z" fill="black"/>
</g>
<mask id="mask3_195_406" style="mask-type:luminance" maskUnits="userSpaceOnUse" x="3661" y="838" width="587" height="599">
<path d="M3661.41 838.648H4247.98V1436.49H3661.41V838.648Z" fill="white"/>
</mask>
<g mask="url(#mask3_195_406)">
<path d="M4113.52 1143.03C4113.69 1115.36 4110.87 1087.69 4105.41 1060.72C4100.65 1037.1 4092.37 1014.54 4080.38 993.571C4062.58 965.37 4034.56 944.925 4002.3 936.465C3969.87 928.181 3935.5 932.411 3906.07 948.45C3888.09 959.378 3873.11 974.888 3862.53 993.218C3850.55 1014.02 3842.27 1036.58 3837.68 1060.19C3832.04 1087.34 3829.4 1114.83 3829.4 1142.5C3829.22 1170.17 3832.04 1197.67 3837.51 1224.81C3842.09 1248.25 3850.55 1270.99 3862.36 1291.79C3880.34 1319.99 3908.18 1340.43 3940.61 1348.72C3972.87 1357 4007.06 1352.59 4036.32 1336.56C4054.65 1325.63 4069.81 1310.29 4080.38 1291.79C4092.37 1270.99 4100.65 1248.43 4105.41 1224.81C4110.7 1197.85 4113.52 1170.53 4113.52 1143.03ZM4243.24 1145.15C4243.41 1183.75 4237.24 1222.17 4225.08 1258.83C4214.16 1292.32 4196.35 1323.16 4172.91 1349.42C4149.3 1375.15 4120.04 1395.6 4087.78 1409.17C4012.7 1438.43 3929.51 1438.43 3854.43 1409.17C3822.17 1395.6 3793.09 1375.15 3769.3 1349.25C3745.86 1322.98 3728.05 1292.14 3717.13 1258.83C3693.51 1184.98 3693.51 1105.67 3717.13 1031.64C3728.23 998.329 3745.86 967.485 3769.47 941.224C3793.09 915.315 3822.17 894.87 3854.6 881.299C3929.69 852.217 4012.88 852.217 4087.78 881.299C4120.39 894.87 4149.65 915.491 4173.62 941.4C4197.06 967.662 4214.68 998.506 4225.61 1031.82C4237.6 1068.48 4243.59 1106.72 4243.06 1145.15H4243.24Z" fill="black"/>
</g>
<mask id="mask4_195_406" style="mask-type:luminance" maskUnits="userSpaceOnUse" x="4293" y="838" width="587" height="599">
<path d="M4293.09 838.648H4879.65V1436.49H4293.09V838.648Z" fill="white"/>
</mask>
<g mask="url(#mask4_195_406)">
<path d="M4707.42 1143.57C4707.77 1116.08 4705.13 1088.4 4699.49 1061.44C4694.91 1037.82 4686.45 1015.26 4674.64 994.287C4663.71 975.252 4647.85 959.213 4628.64 948.461C4609.42 937.71 4587.57 932.423 4565.54 933.304C4543.51 932.246 4521.65 937.534 4502.44 948.285C4483.05 959.036 4467.19 975.075 4456.44 994.287C4444.63 1015.08 4436.17 1037.64 4431.59 1061.26C4420.84 1115.55 4420.84 1171.42 4431.59 1225.88C4436.17 1249.32 4444.63 1271.88 4456.44 1292.86C4467.72 1311.72 4483.58 1327.58 4502.79 1338.51C4521.83 1349.43 4543.51 1355.25 4565.54 1355.25C4587.57 1355.25 4609.25 1349.43 4628.28 1338.51C4647.32 1327.58 4663.36 1311.72 4674.46 1292.86C4686.27 1271.88 4694.73 1249.32 4699.31 1225.88C4704.95 1198.74 4707.6 1171.07 4707.42 1143.4V1143.57ZM4837.32 1145.69C4837.49 1184.46 4831.5 1222.88 4819.16 1259.54C4808.24 1293.03 4790.43 1323.88 4766.99 1349.96C4743.37 1375.87 4714.29 1396.32 4681.86 1409.89C4606.78 1439.14 4523.59 1439.14 4448.68 1409.89C4416.25 1396.32 4387.17 1375.87 4363.55 1349.96C4339.94 1323.7 4322.13 1292.86 4311.21 1259.37C4299.05 1222.88 4293.05 1184.29 4293.23 1145.69C4292.88 1107.26 4299.05 1069.02 4311.21 1032.53C4322.13 999.046 4340.11 968.202 4363.55 941.94C4387.17 916.031 4416.25 895.762 4448.68 882.191C4523.77 852.933 4606.96 852.933 4681.86 882.191C4714.29 895.762 4743.37 916.207 4767.17 942.116C4790.61 968.202 4808.41 999.046 4819.16 1032.53C4831.5 1069.02 4837.49 1107.26 4837.32 1145.69Z" fill="black"/>
</g>
<mask id="mask5_195_406" style="mask-type:luminance" maskUnits="userSpaceOnUse" x="4879" y="613" width="536" height="813">
<path d="M4879.66 613.054H5414.41V1425.22H4879.66V613.054Z" fill="white"/>
</mask>
<g mask="url(#mask5_195_406)">
<path d="M5271.09 1419.75L5029.97 1122.06H5027.86V1419.57H4902.19V622.39H5028.03V1109.9H5030.15L5259.45 872.315H5394.28L5149.65 1109.9L5420.72 1419.93L5271.09 1419.75Z" fill="black"/>
</g>
<mask id="mask6_195_406" style="mask-type:luminance" maskUnits="userSpaceOnUse" x="0" y="590" width="639" height="745">
<path d="M0 590.5H638.382V1334.99H0V590.5Z" fill="white"/>
</mask>
<g mask="url(#mask6_195_406)">
<path d="M633.813 591.739C139.957 631.925 -63.9654 1041.18 17.2864 1298.33C64.8743 1225.01 153.529 1145.17 334.715 1115.56C324.14 898.769 402.572 747.545 633.813 591.739Z" fill="black"/>
</g>
<mask id="mask7_195_406" style="mask-type:luminance" maskUnits="userSpaceOnUse" x="96" y="613" width="723" height="824">
<path d="M96.8906 613.054H818.816V1436.5H96.8906V613.054Z" fill="white"/>
</mask>
<g mask="url(#mask7_195_406)">
<path d="M380.51 1146.56C255.724 1167.01 169.009 1200.85 114.547 1252.14C116.309 1320.7 135.873 1387.67 171.476 1446.37C213.776 1343.26 352.134 1270.29 562.578 1269.76C511.465 1022.66 625.852 796.527 803.866 644.598C715.916 657.465 629.553 680.73 546.715 713.513C411.178 844.115 360.594 1012.43 380.51 1146.74V1146.56Z" fill="black"/>
</g>
</g>
<defs>
<clipPath id="clip0_195_406">
<rect width="5414.41" height="2027" fill="white"/>
</clipPath>
</defs>
</svg>
