<svg width="523" height="291" viewBox="0 0 523 291" fill="none" xmlns="http://www.w3.org/2000/svg">
<path d="M120.422 101H97.9922V40.6719C97.9922 34.1562 98.2734 26.9609 98.8359 19.0859H98.2734C97.1016 25.2734 96.0469 29.7266 95.1094 32.4453L71.4844 101H52.9219L28.875 33.1484C28.2188 31.3203 27.1641 26.6328 25.7109 19.0859H25.0781C25.6875 29.0234 25.9922 37.7422 25.9922 45.2422V101H5.53125V0.171875H38.7891L59.3906 59.9375C61.0312 64.7188 62.2266 69.5234 62.9766 74.3516H63.3984C64.6641 68.7734 66 63.9219 67.4062 59.7969L88.0078 0.171875H120.422V101ZM174.492 0.171875V17.75H166.055V83.4219H174.492V101H134.906V83.4219H143.344V17.75H134.906V0.171875H174.492ZM272.859 101H244.172L214.781 57.1953C214.219 56.3516 213.328 54.5 212.109 51.6406H211.758V101H189.047V0.171875H211.758V47.8438H212.109C212.672 46.5312 213.609 44.6562 214.922 42.2188L242.766 0.171875H269.836L234.68 48.2656L272.859 101ZM371.227 101H346.477L339.305 78.5703H303.445L296.344 101H271.734L308.438 0.171875H335.367L371.227 101ZM334.102 61.1328L323.273 27.2422C322.477 24.7109 321.914 21.6875 321.586 18.1719H321.023C320.789 21.125 320.203 24.0547 319.266 26.9609L308.297 61.1328H334.102ZM443.859 101H383.812V0.171875H406.523V82.5781H443.859V101ZM488.648 0.171875V17.75H480.211V83.4219H488.648V101H449.062V83.4219H457.5V17.75H449.062V0.171875H488.648ZM0.890625 285.133V262.633C4.96875 266.055 9.39844 268.633 14.1797 270.367C18.9609 272.055 23.7891 272.898 28.6641 272.898C31.5234 272.898 34.0078 272.641 36.1172 272.125C38.2734 271.609 40.0547 270.906 41.4609 270.016C42.9141 269.078 43.9922 268 44.6953 266.781C45.3984 265.516 45.75 264.156 45.75 262.703C45.75 260.734 45.1875 258.977 44.0625 257.43C42.9375 255.883 41.3906 254.453 39.4219 253.141C37.5 251.828 35.2031 250.562 32.5312 249.344C29.8594 248.125 26.9766 246.883 23.8828 245.617C16.0078 242.336 10.125 238.328 6.23438 233.594C2.39062 228.859 0.46875 223.141 0.46875 216.438C0.46875 211.188 1.52344 206.688 3.63281 202.938C5.74219 199.141 8.60156 196.023 12.2109 193.586C15.8672 191.148 20.0859 189.367 24.8672 188.242C29.6484 187.07 34.7109 186.484 40.0547 186.484C45.3047 186.484 49.9453 186.812 53.9766 187.469C58.0547 188.078 61.8047 189.039 65.2266 190.352V211.375C63.5391 210.203 61.6875 209.172 59.6719 208.281C57.7031 207.391 55.6641 206.664 53.5547 206.102C51.4453 205.492 49.3359 205.047 47.2266 204.766C45.1641 204.484 43.1953 204.344 41.3203 204.344C38.7422 204.344 36.3984 204.602 34.2891 205.117C32.1797 205.586 30.3984 206.266 28.9453 207.156C27.4922 208.047 26.3672 209.125 25.5703 210.391C24.7734 211.609 24.375 212.992 24.375 214.539C24.375 216.227 24.8203 217.75 25.7109 219.109C26.6016 220.422 27.8672 221.688 29.5078 222.906C31.1484 224.078 33.1406 225.25 35.4844 226.422C37.8281 227.547 40.4766 228.719 43.4297 229.938C47.4609 231.625 51.0703 233.43 54.2578 235.352C57.4922 237.227 60.2578 239.359 62.5547 241.75C64.8516 244.141 66.6094 246.883 67.8281 249.977C69.0469 253.023 69.6562 256.586 69.6562 260.664C69.6562 266.289 68.5781 271.023 66.4219 274.867C64.3125 278.664 61.4297 281.758 57.7734 284.148C54.1172 286.492 49.8516 288.18 44.9766 289.211C40.1484 290.242 35.0391 290.758 29.6484 290.758C24.1172 290.758 18.8438 290.289 13.8281 289.352C8.85938 288.414 4.54688 287.008 0.890625 285.133ZM174.914 289H150.164L142.992 266.57H107.133L100.031 289H75.4219L112.125 188.172H139.055L174.914 289ZM137.789 249.133L126.961 215.242C126.164 212.711 125.602 209.688 125.273 206.172H124.711C124.477 209.125 123.891 212.055 122.953 214.961L111.984 249.133H137.789ZM210.211 254.266V289H187.5V188.172H223.078C248.484 188.172 261.188 198.883 261.188 220.305C261.188 230.43 257.531 238.633 250.219 244.914C242.953 251.148 233.227 254.266 221.039 254.266H210.211ZM210.211 205.609V237.039H219.141C231.234 237.039 237.281 231.742 237.281 221.148C237.281 210.789 231.234 205.609 219.141 205.609H210.211ZM364.617 289H339.867L332.695 266.57H296.836L289.734 289H265.125L301.828 188.172H328.758L364.617 289ZM327.492 249.133L316.664 215.242C315.867 212.711 315.305 209.688 314.977 206.172H314.414C314.18 209.125 313.594 212.055 312.656 214.961L301.688 249.133H327.492ZM467.906 289H444.984L403.43 225.648C400.992 221.945 399.305 219.156 398.367 217.281H398.086C398.461 220.844 398.648 226.281 398.648 233.594V289H377.203V188.172H401.672L441.68 249.555C443.508 252.32 445.195 255.062 446.742 257.781H447.023C446.648 255.438 446.461 250.82 446.461 243.93V188.172H467.906V289ZM522.117 188.172V205.75H513.68V271.422H522.117V289H482.531V271.422H490.969V205.75H482.531V188.172H522.117Z" fill="white"/>
</svg>
