<svg width="11860" height="2659" viewBox="0 0 11860 2659" fill="none" xmlns="http://www.w3.org/2000/svg">
<g clip-path="url(#clip0_195_277)">
<path d="M1139.99 1752.5V1159.83L709.951 1752.5H578.595L146.994 1161.39V1752.5H0V906.5H148.558L650.528 1597.69L1150.93 906.5H1286.98V1752.5H1139.99Z" fill="black"/>
<path d="M1449.77 1752.5V906.5H1609.27V1752.5H1449.77Z" fill="black"/>
<path d="M2525.14 1752.5L2206.13 1375.63H1930.91V1752.5H1771.4V906.5H1930.91V1250.53H2203L2520.45 906.5H2711.23L2334.36 1300.57L2709.66 1752.5H2525.14Z" fill="black"/>
<path d="M3782.03 1752.5L3345.74 1072.26L2903.19 1752.5H2724.92L3286.31 906.5H3403.6L3961.86 1752.5H3782.03Z" fill="black"/>
<path d="M4040.11 1752.5V906.5H4201.18V1627.4H4886.11V1752.5H4040.11Z" fill="black"/>
<path d="M5004.76 1752.5V906.5H5164.26V1752.5H5004.76Z" fill="black"/>
<path d="M5937.75 1752.5V1627.4H6672.72C6742.31 1627.4 6777.49 1601.6 6777.49 1549.21V1442.87C6777.49 1390.88 6742.31 1364.68 6672.72 1364.68H6175.44C6127.36 1364.68 6086.7 1359.6 6053.47 1349.05C6019.07 1339.66 5991.31 1325.59 5970.59 1306.83C5949.48 1289.23 5933.84 1267.73 5923.68 1242.71C5914.29 1218.86 5909.6 1191.11 5909.6 1159.83V1111.35C5909.6 1081.25 5914.29 1053.49 5923.68 1028.47C5933.84 1003.45 5949.48 981.561 5970.59 962.796C5991.31 946.376 6019.07 932.693 6053.47 922.138C6086.7 911.973 6127.36 906.5 6175.44 906.5H6891.65V1031.6H6175.44C6104.29 1031.6 6069.11 1057.79 6069.11 1109.79V1161.39C6069.11 1213.78 6104.29 1239.58 6175.44 1239.58H6672.72C6720.42 1239.58 6761.07 1244.27 6794.69 1253.66C6827.92 1264.21 6855.68 1278.29 6877.57 1295.88C6898.29 1314.64 6913.54 1336.54 6922.92 1361.56C6933.09 1386.58 6938.56 1414.33 6938.56 1444.44V1547.65C6938.56 1578.92 6933.09 1606.68 6922.92 1630.53C6913.54 1655.55 6898.29 1677.05 6877.57 1694.64C6855.68 1713.41 6827.92 1727.48 6794.69 1736.86C6761.07 1747.42 6720.42 1752.5 6672.72 1752.5H5937.75Z" fill="black"/>
<path d="M8005.83 1752.5L7569.54 1072.26L7127 1752.5H6948.73L7510.12 906.5H7627.4L8185.67 1752.5H8005.83Z" fill="black"/>
<path d="M8423.42 1439.75V1752.5H8263.91V906.5H8956.66C9004.36 906.5 9045.02 911.973 9078.64 922.138C9113.04 932.693 9140.41 946.376 9161.52 962.796C9182.24 981.561 9197.88 1003.45 9208.43 1028.47C9217.81 1053.49 9222.5 1081.25 9222.5 1111.35V1236.46C9222.5 1266.95 9217.81 1294.32 9208.43 1319.34C9197.88 1344.36 9182.24 1365.47 9161.52 1381.89C9140.41 1400.65 9113.04 1414.73 9078.64 1424.11C9045.02 1434.66 9004.36 1439.75 8956.66 1439.75H8423.42ZM9063 1109.79C9063 1057.79 9027.42 1031.6 8956.66 1031.6H8423.42V1314.64H8956.66C9027.42 1314.64 9063 1289.23 9063 1238.02V1109.79Z" fill="black"/>
<path d="M10160.3 1752.5L9724 1072.26L9281.45 1752.5H9103.18L9664.57 906.5H9781.86L10340.1 1752.5H10160.3Z" fill="black"/>
<path d="M11460 1752.5L10557.7 1094.15V1752.5H10418.5V906.5H10556.1L11399 1535.14V906.5H11538.2V1752.5H11460Z" fill="black"/>
<path d="M11700.1 1752.5V906.5H11859.6V1752.5H11700.1Z" fill="black"/>
</g>
<defs>
<clipPath id="clip0_195_277">
<rect width="11859.6" height="2659" fill="white"/>
</clipPath>
</defs>
</svg>
