<svg width="11860" height="1158" viewBox="0 0 11860 1158" fill="none" xmlns="http://www.w3.org/2000/svg">
<g clip-path="url(#clip0_195_277)">
<path d="M1139.99 1002V409.331L709.951 1002H578.595L146.994 410.895V1002H0V156H148.558L650.528 847.187L1150.93 156H1286.98V1002H1139.99Z" fill="black"/>
<path d="M1449.77 1002V156H1609.27V1002H1449.77Z" fill="black"/>
<path d="M2525.14 1002L2206.13 625.131H1930.91V1002H1771.4V156H1930.91V500.03H2203L2520.45 156H2711.23L2334.36 550.07L2709.66 1002H2525.14Z" fill="black"/>
<path d="M3782.03 1002L3345.74 321.76L2903.19 1002H2724.92L3286.31 156H3403.6L3961.86 1002H3782.03Z" fill="black"/>
<path d="M4040.11 1002V156H4201.18V876.898H4886.11V1002H4040.11Z" fill="black"/>
<path d="M5004.76 1002V156H5164.26V1002H5004.76Z" fill="black"/>
<path d="M5937.75 1002V876.898H6672.72C6742.31 876.898 6777.49 851.096 6777.49 798.71V692.373C6777.49 640.378 6742.31 614.185 6672.72 614.185H6175.44C6127.36 614.185 6086.7 609.103 6053.47 598.547C6019.07 589.165 5991.31 575.091 5970.59 556.325C5949.48 538.733 5933.84 517.231 5923.68 492.211C5914.29 468.363 5909.6 440.606 5909.6 409.331V360.854C5909.6 330.751 5914.29 302.994 5923.68 277.974C5933.84 252.954 5949.48 231.061 5970.59 212.296C5991.31 195.876 6019.07 182.193 6053.47 171.638C6086.7 161.473 6127.36 156 6175.44 156H6891.65V281.102H6175.44C6104.29 281.102 6069.11 307.295 6069.11 359.29V410.895C6069.11 463.281 6104.29 489.083 6175.44 489.083H6672.72C6720.42 489.083 6761.07 493.774 6794.69 503.157C6827.92 513.713 6855.68 527.787 6877.57 545.379C6898.29 564.144 6913.54 586.037 6922.92 611.057C6933.09 636.078 6938.56 663.835 6938.56 693.937V797.146C6938.56 828.421 6933.09 856.178 6922.92 880.026C6913.54 905.046 6898.29 926.548 6877.57 944.14C6855.68 962.906 6827.92 976.98 6794.69 986.362C6761.07 996.918 6720.42 1002 6672.72 1002H5937.75Z" fill="black"/>
<path d="M8005.83 1002L7569.54 321.76L7127 1002H6948.73L7510.12 156H7627.4L8185.67 1002H8005.83Z" fill="black"/>
<path d="M8423.42 689.246V1002H8263.91V156H8956.66C9004.36 156 9045.02 161.473 9078.64 171.638C9113.04 182.193 9140.41 195.876 9161.52 212.296C9182.24 231.061 9197.88 252.954 9208.43 277.974C9217.81 302.994 9222.5 330.751 9222.5 360.854V485.956C9222.5 516.449 9217.81 543.815 9208.43 568.835C9197.88 593.856 9182.24 614.967 9161.52 631.386C9140.41 650.152 9113.04 664.226 9078.64 673.608C9045.02 684.164 9004.36 689.246 8956.66 689.246H8423.42ZM9063 359.29C9063 307.295 9027.42 281.102 8956.66 281.102H8423.42V564.144H8956.66C9027.42 564.144 9063 538.733 9063 487.519V359.29Z" fill="black"/>
<path d="M10160.3 1002L9724 321.76L9281.45 1002H9103.18L9664.57 156H9781.86L10340.1 1002H10160.3Z" fill="black"/>
<path d="M11460 1002L10557.7 343.652V1002H10418.5V156H10556.1L11399 784.636V156H11538.2V1002H11460Z" fill="black"/>
<path d="M11700.1 1002V156H11859.6V1002H11700.1Z" fill="black"/>
</g>
<defs>
<clipPath id="clip0_195_277">
<rect width="11859.6" height="1158" fill="white"/>
</clipPath>
</defs>
</svg>
