<svg width="23350" height="8345" viewBox="0 0 23350 8345" fill="none" xmlns="http://www.w3.org/2000/svg">
<path d="M2739.4 5399.09L2161.89 1894.55H2519.94L2970.4 4818.34L3628.75 1894.55H4044.56L4702.91 4818.34L5153.37 1894.55H5511.42L4933.92 5399.09H4491.16L3836.66 2550.4L3182.15 5399.09H2739.4ZM6392.24 5464.17C6230.54 5464.17 6080.39 5412.44 5941.79 5308.97C5803.18 5202.16 5691.53 5050.31 5606.83 4853.38C5522.13 4656.46 5479.78 4424.5 5479.78 4157.48C5479.78 3883.8 5522.13 3648.49 5606.83 3451.57C5691.53 3254.64 5803.18 3102.79 5941.79 2995.98C6080.39 2889.17 6230.54 2835.77 6392.24 2835.77C6556.51 2835.77 6704.09 2880.83 6834.99 2970.94C6968.46 3057.73 7073.7 3194.56 7150.7 3381.48C7230.26 3565.04 7270.05 3802.02 7270.05 4092.4V4247.6H5799.33C5809.6 4487.91 5863.5 4688.17 5961.04 4848.38C6058.57 5005.25 6199.74 5083.68 6384.54 5083.68C6500.04 5083.68 6605.27 5048.63 6700.24 4978.54C6795.21 4908.45 6869.64 4810 6923.54 4683.16L7208.45 4833.36C7049.31 5253.9 6777.24 5464.17 6392.24 5464.17ZM6384.54 3216.26C6227.97 3216.26 6102.2 3279.67 6007.24 3406.51C5914.84 3530 5853.24 3686.87 5822.43 3877.12H6946.65C6946.65 3783.67 6924.82 3686.87 6881.19 3586.74C6840.12 3483.28 6778.52 3396.5 6696.39 3326.41C6614.26 3252.98 6510.3 3216.26 6384.54 3216.26ZM8403.25 5459.17C8290.32 5459.17 8192.78 5432.46 8110.65 5379.06C8028.51 5325.66 7960.5 5257.23 7906.6 5173.8C7852.7 5087.01 7811.62 4998.57 7783.4 4908.45V5399.09H7471.54V1794.42H7794.95V3376.47C7823.18 3259.65 7869.38 3161.19 7933.55 3081.09C7997.71 3000.98 8073.43 2940.91 8160.7 2900.85C8247.96 2857.47 8335.23 2835.77 8422.5 2835.77C8591.9 2835.77 8739.48 2889.17 8865.26 2995.98C8993.59 3099.44 9093.69 3249.64 9165.56 3446.56C9237.42 3640.14 9273.36 3873.78 9273.36 4147.47C9273.36 4427.83 9236.14 4666.47 9161.71 4863.39C9087.27 5056.98 8984.61 5205.51 8853.71 5308.97C8722.81 5409.1 8572.65 5459.17 8403.25 5459.17ZM8387.85 5083.68C8513.62 5083.68 8617.57 5043.63 8699.7 4963.52C8784.41 4880.09 8847.28 4768.27 8888.36 4628.09C8929.42 4487.91 8949.96 4331.04 8949.96 4157.48C8949.96 3983.93 8929.42 3825.38 8888.36 3681.87C8847.28 3538.35 8784.41 3424.86 8699.7 3341.42C8615 3254.64 8507.2 3212.93 8376.3 3216.26C8253.1 3216.26 8147.86 3259.65 8060.6 3346.43C7975.9 3429.87 7910.45 3541.68 7864.25 3681.87C7820.61 3822.05 7798.8 3977.25 7798.8 4147.47C7798.8 4421.15 7848.85 4646.44 7948.95 4823.34C8051.61 4996.9 8197.91 5083.68 8387.85 5083.68ZM10082.9 5459.17C9954.52 5459.17 9832.61 5424.12 9717.11 5354.03C9601.61 5280.6 9507.92 5180.47 9436.05 5053.64C9364.18 4926.81 9328.25 4781.62 9328.25 4618.08H9674.76C9674.76 4721.54 9697.86 4808.32 9744.06 4878.41C9790.26 4945.17 9846.72 4995.24 9913.48 5028.61C9980.16 5061.98 10045.6 5078.67 10109.8 5078.67C10238.1 5078.67 10340.8 5048.63 10417.8 4988.56C10494.8 4928.48 10533.3 4836.69 10533.3 4713.2C10533.3 4603.06 10505.1 4521.28 10448.6 4467.88C10392.1 4411.14 10320.3 4369.43 10233 4342.72C10145.7 4312.68 10052.1 4285.98 9951.97 4262.62C9851.86 4239.26 9758.17 4205.87 9670.91 4162.49C9583.63 4119.1 9511.77 4052.34 9455.31 3962.23C9398.83 3872.11 9370.6 3746.95 9370.6 3586.74C9370.6 3463.25 9396.27 3344.76 9447.6 3231.28C9498.93 3117.8 9575.93 3024.34 9678.61 2950.92C9783.84 2874.15 9914.71 2835.77 10071.3 2835.77C10258.7 2835.77 10406.3 2875.82 10514.1 2955.93C10624.4 3032.69 10702.7 3127.82 10748.9 3241.29C10797.7 3351.44 10822.1 3458.25 10822.1 3561.71H10491C10491 3478.27 10455 3399.83 10383.2 3326.41C10311.3 3252.98 10206.1 3216.26 10067.5 3216.26C9941.66 3216.26 9848.01 3249.64 9786.41 3316.39C9724.81 3379.8 9694.01 3464.91 9694.01 3571.72C9694.01 3665.17 9722.24 3736.94 9778.71 3787C9835.17 3837.07 9907.01 3877.12 9994.33 3907.16C10084.1 3933.86 10177.8 3962.23 10275.4 3992.27C10375.5 4018.97 10469.1 4059.02 10556.4 4112.42C10646.2 4162.49 10719.4 4235.91 10775.9 4332.71C10832.3 4426.16 10860.6 4552.99 10860.6 4713.2C10860.6 4846.7 10832.3 4970.2 10775.9 5083.68C10722 5197.16 10637.3 5288.95 10521.8 5359.04C10408.8 5425.79 10262.5 5459.17 10082.9 5459.17ZM11229.9 2420.23C11168.3 2420.23 11114.4 2391.86 11068.2 2335.12C11024.6 2275.04 11002.7 2206.62 11002.7 2129.86C11002.7 2049.75 11024.6 1981.33 11068.2 1924.59C11114.4 1864.51 11168.3 1834.47 11229.9 1834.47C11288.9 1834.47 11340.3 1864.51 11383.9 1924.59C11427.5 1981.33 11449.3 2049.75 11449.3 2129.86C11449.3 2206.62 11427.5 2275.04 11383.9 2335.12C11340.3 2391.86 11288.9 2420.23 11229.9 2420.23ZM11064.3 5399.09V2895.85H11387.7V5399.09H11064.3ZM12403.3 5459.17C12192.8 5459.17 12043.9 5397.42 11956.7 5273.93C11869.4 5150.44 11825.8 4971.86 11825.8 4738.23V3281.35H11479.3V2895.85H11567.8C11673 2895.85 11742.3 2874.15 11775.7 2830.76C11809.1 2784.04 11825.8 2688.91 11825.8 2545.39V2260.02H12149.2V2900.85H12645.8V3281.35H12149.2V4738.23C12149.2 4871.74 12173.5 4965.2 12222.3 5018.59C12271.1 5071.99 12342.9 5098.7 12437.9 5098.7C12463.6 5098.7 12491.8 5097.03 12522.6 5093.69C12553.4 5090.36 12584.2 5085.35 12615 5078.67V5419.11C12545.7 5445.82 12475.1 5459.17 12403.3 5459.17ZM13562.9 5464.17C13401.2 5464.17 13251.1 5412.44 13112.5 5308.97C12973.9 5202.16 12862.2 5050.31 12777.5 4853.38C12692.8 4656.46 12650.5 4424.5 12650.5 4157.48C12650.5 3883.8 12692.8 3648.49 12777.5 3451.57C12862.2 3254.64 12973.9 3102.79 13112.5 2995.98C13251.1 2889.17 13401.2 2835.77 13562.9 2835.77C13727.2 2835.77 13874.8 2880.83 14005.7 2970.94C14139.1 3057.73 14244.4 3194.56 14321.4 3381.48C14400.9 3565.04 14440.7 3802.02 14440.7 4092.4V4247.6H12970C12980.3 4487.91 13034.2 4688.17 13131.7 4848.38C13229.3 5005.25 13370.4 5083.68 13555.2 5083.68C13670.7 5083.68 13776 5048.63 13870.9 4978.54C13965.9 4908.45 14040.3 4810 14094.2 4683.16L14379.1 4833.36C14220 5253.9 13947.9 5464.17 13562.9 5464.17ZM13555.2 3216.26C13398.7 3216.26 13272.9 3279.67 13177.9 3406.51C13085.5 3530 13023.9 3686.87 12993.1 3877.12H14117.3C14117.3 3783.67 14095.5 3686.87 14051.9 3586.74C14010.8 3483.28 13949.2 3396.5 13867.1 3326.41C13784.9 3252.98 13681 3216.26 13555.2 3216.26ZM15504.7 5459.17C15281.3 5459.17 15096.5 5405.77 14950.2 5298.96C14806.5 5188.82 14696.1 5046.96 14619.1 4873.41C14544.7 4699.85 14498.5 4517.95 14480.5 4327.7H14854C14882.3 4541.31 14952.8 4714.87 15065.7 4848.38C15178.7 4981.88 15325 5051.97 15504.7 5058.65C15617.6 5058.65 15720.3 5035.29 15812.7 4988.56C15907.6 4938.49 15983.4 4870.07 16039.8 4783.29C16096.2 4693.17 16123.2 4588.04 16120.7 4467.88C16120.7 4331.04 16092.4 4224.24 16036 4147.47C15979.5 4070.7 15905.1 4010.62 15812.7 3967.23C15722.8 3923.85 15622.7 3887.13 15512.4 3857.09C15402 3823.72 15291.6 3787 15181.2 3746.95C15070.9 3706.9 14969.5 3651.83 14877.1 3581.74C14787.2 3511.64 14714.1 3416.52 14657.6 3296.37C14601.2 3172.88 14572.9 3012.67 14572.9 2815.74C14572.9 2645.52 14605.1 2485.32 14669.2 2335.12C14736 2184.93 14837.3 2064.77 14973.3 1974.66C15109.4 1881.2 15282.7 1834.47 15493.1 1834.47C15639.4 1834.47 15769 1864.51 15882 1924.59C15997.5 1984.67 16095 2064.77 16174.6 2164.9C16256.7 2261.69 16318.3 2368.5 16359.4 2485.32C16403 2602.13 16427.4 2717.28 16432.5 2830.76H16074.5C16061.6 2730.63 16032.1 2635.51 15985.9 2545.39C15939.7 2455.28 15872.9 2381.85 15785.7 2325.11C15701 2265.03 15594.5 2234.99 15466.1 2234.99C15371.2 2234.99 15281.3 2256.69 15196.6 2300.08C15111.9 2343.47 15042.6 2406.88 14988.7 2490.32C14937.4 2573.76 14911.7 2673.89 14911.7 2790.71C14911.7 2924.21 14940 3029.35 14996.4 3106.12C15052.9 3182.89 15126 3242.97 15215.9 3286.35C15308.3 3329.74 15409.7 3368.13 15520 3401.5C15630.4 3434.88 15740.8 3471.59 15851.2 3511.64C15961.5 3551.7 16061.6 3606.77 16151.5 3676.86C16243.9 3746.95 16318.3 3842.07 16374.8 3962.23C16431.2 4079.05 16459.5 4232.58 16459.5 4422.82C16459.5 4649.79 16418.4 4841.7 16336.3 4998.57C16254.1 5152.1 16141.2 5267.25 15997.5 5344.02C15856.3 5420.79 15692 5459.17 15504.7 5459.17ZM17453.2 5464.17C17291.5 5464.17 17141.3 5412.44 17002.7 5308.97C16864.1 5202.16 16752.4 5050.31 16667.7 4853.38C16583 4656.46 16540.7 4424.5 16540.7 4157.48C16540.7 3883.8 16583 3648.49 16667.7 3451.57C16752.4 3254.64 16864.1 3102.79 17002.7 2995.98C17141.3 2889.17 17291.5 2835.77 17453.2 2835.77C17617.4 2835.77 17765 2880.83 17895.9 2970.94C18029.3 3057.73 18134.6 3194.56 18211.6 3381.48C18291.2 3565.04 18331 3802.02 18331 4092.4V4247.6H16860.2C16870.5 4487.91 16924.4 4688.17 17021.9 4848.38C17119.4 5005.25 17260.7 5083.68 17445.5 5083.68C17561 5083.68 17666.1 5048.63 17761.2 4978.54C17856.1 4908.45 17930.6 4810 17984.5 4683.16L18269.4 4833.36C18110.2 5253.9 17838.2 5464.17 17453.2 5464.17ZM17445.5 3216.26C17288.8 3216.26 17163.1 3279.67 17068.1 3406.51C16975.7 3530 16914.1 3686.87 16883.3 3877.12H18007.6C18007.6 3783.67 17985.7 3686.87 17942.1 3586.74C17901 3483.28 17839.4 3396.5 17757.3 3326.41C17675.1 3252.98 17571.2 3216.26 17445.5 3216.26ZM19202.3 5459.17C18991.9 5459.17 18843 5397.42 18755.7 5273.93C18668.5 5150.44 18624.8 4971.86 18624.8 4738.23V3281.35H18278.3V2895.85H18366.8C18472.1 2895.85 18541.4 2874.15 18574.7 2830.76C18608.2 2784.04 18624.8 2688.91 18624.8 2545.39V2260.02H18948.2V2900.85H19444.9V3281.35H18948.2V4738.23C18948.2 4871.74 18972.6 4965.2 19021.3 5018.59C19070.2 5071.99 19142 5098.7 19237 5098.7C19262.7 5098.7 19290.9 5097.03 19321.7 5093.69C19352.5 5090.36 19383.3 5085.35 19414.1 5078.67V5419.11C19344.8 5445.82 19274.2 5459.17 19202.3 5459.17ZM20219.6 5459.17C20032.2 5459.17 19876.9 5380.73 19753.7 5223.86C19633 5066.99 19572.8 4838.36 19572.8 4537.97V2895.85H19896.2V4477.9C19896.2 4694.85 19936 4850.05 20015.5 4943.5C20095 5033.61 20199 5078.67 20327.4 5078.67C20504.5 5078.67 20637.9 5000.24 20727.8 4843.37C20817.6 4686.5 20862.5 4487.91 20862.5 4247.6V2895.85H21185.9V5399.09H20862.5V4928.48C20852.3 4985.22 20822.7 5056.98 20774 5143.76C20727.8 5227.2 20659.8 5300.63 20569.9 5364.04C20480.1 5427.45 20363.3 5459.17 20219.6 5459.17ZM21546.6 6550.58V2895.85H21858.4V3386.48C21886.7 3293.03 21927.7 3204.58 21981.6 3121.14C22035.5 3037.7 22103.5 2969.27 22185.7 2915.87C22267.9 2862.47 22365.3 2835.77 22478.3 2835.77C22647.7 2835.77 22797.8 2887.51 22928.8 2990.97C23059.7 3091.1 23162.3 3237.96 23236.8 3431.54C23311.2 3625.12 23348.4 3863.77 23348.4 4147.47C23348.4 4421.15 23312.4 4656.46 23240.6 4853.38C23168.8 5046.96 23068.7 5197.16 22940.3 5303.96C22814.6 5407.43 22666.9 5459.17 22497.5 5459.17C22410.3 5459.17 22323 5439.14 22235.7 5399.09C22148.5 5355.7 22072.7 5293.95 22008.6 5213.85C21944.5 5130.41 21898.2 5031.94 21870 4918.47V6550.58H21546.6ZM22451.3 5078.67C22582.2 5078.67 22690 5036.95 22774.8 4953.51C22859.4 4870.07 22922.4 4756.59 22963.4 4613.07C23004.4 4469.55 23025 4311.01 23025 4137.45C23025 3963.9 23004.4 3807.03 22963.4 3666.85C22922.4 3526.66 22859.4 3416.52 22774.8 3336.42C22692.6 3252.98 22588.6 3211.26 22462.9 3211.26C22272.9 3211.26 22126.6 3298.04 22024 3471.59C21923.9 3645.15 21873.8 3870.44 21873.8 4147.47C21873.8 4317.69 21895.6 4472.89 21939.3 4613.07C21985.5 4753.25 22050.9 4865.07 22135.6 4948.5C22222.9 5031.94 22328.1 5075.34 22451.3 5078.67Z" fill="#060C3B" stroke="#060C3B" stroke-width="2"/>
<path d="M172.346 1873.04V2797.56H825.449L0 4066.38L489.827 4640.23L1197.35 3486.17V4429.82H1768.82V1873.04H172.346Z" fill="#0060DE"/>
<path d="M72.5669 4850.63V5449.98H1768.82V4850.63H72.5669Z" fill="#060C3B"/>
<path d="M23348.4 4152.85C23348.4 4804.11 22952.4 5332.06 22464 5332.06C21975.5 5332.06 21579.6 4804.11 21579.6 4152.85C21579.6 3501.59 21975.5 2973.63 22464 2973.63C22952.4 2973.63 23348.4 3501.59 23348.4 4152.85ZM22057.3 4152.85C22057.3 4452.36 22239.4 4695.17 22464 4695.17C22688.6 4695.17 22870.7 4452.36 22870.7 4152.85C22870.7 3853.33 22688.6 3610.52 22464 3610.52C22239.4 3610.52 22057.3 3853.33 22057.3 4152.85Z" fill="#060C3B"/>
</svg>
