<svg width="595" height="123" viewBox="0 0 595 123" fill="none" xmlns="http://www.w3.org/2000/svg">
<path d="M69.6921 92.7053L55 3.54737H64.1091L75.569 77.9305L92.3181 3.54737H102.896L119.645 77.9305L131.105 3.54737H140.214L125.522 92.7053H114.258L97.6072 20.2326L80.9561 92.7053H69.6921ZM162.623 94.3611C158.509 94.3611 154.689 93.0448 151.163 90.4126C147.637 87.6954 144.797 83.832 142.642 78.8221C140.487 73.8122 139.41 67.911 139.41 61.1179C139.41 54.1552 140.487 48.1689 142.642 43.159C144.797 38.149 147.637 34.2857 151.163 31.5684C154.689 28.8511 158.509 27.4926 162.623 27.4926C166.802 27.4926 170.557 28.639 173.887 30.9316C177.283 33.1394 179.96 36.6206 181.919 41.3758C183.943 46.0459 184.955 52.0747 184.955 59.4621V63.4105H147.539C147.8 69.5242 149.172 74.619 151.653 78.6947C154.134 82.6857 157.726 84.6811 162.427 84.6811C165.366 84.6811 168.043 83.7895 170.459 82.0063C172.875 80.2232 174.769 77.7183 176.14 74.4916L183.388 78.3126C179.339 89.0116 172.418 94.3611 162.623 94.3611ZM162.427 37.1726C158.444 37.1726 155.244 38.7859 152.828 42.0126C150.478 45.1543 148.91 49.1453 148.127 53.9853H176.728C176.728 51.6078 176.172 49.1453 175.062 46.5979C174.018 43.9657 172.45 41.7579 170.361 39.9747C168.271 38.1068 165.627 37.1726 162.427 37.1726ZM213.785 94.2337C210.911 94.2337 208.43 93.5543 206.341 92.1958C204.251 90.8373 202.521 89.0964 201.149 86.9737C199.778 84.7659 198.733 82.5158 198.015 80.2232V92.7053H190.081V1H198.309V41.2484C199.027 38.2764 200.202 35.7716 201.835 33.7337C203.467 31.6958 205.394 30.1674 207.614 29.1484C209.834 28.0447 212.054 27.4926 214.274 27.4926C218.584 27.4926 222.339 28.8511 225.538 31.5684C228.803 34.2006 231.35 38.0217 233.178 43.0316C235.007 47.9564 235.921 53.9004 235.921 60.8632C235.921 67.9958 234.974 74.0669 233.08 79.0769C231.187 84.0017 228.575 87.7804 225.245 90.4126C221.914 92.96 218.094 94.2337 213.785 94.2337ZM213.393 84.6811C216.592 84.6811 219.237 83.6621 221.327 81.6242C223.482 79.5015 225.081 76.6568 226.126 73.0905C227.171 69.5242 227.693 65.5333 227.693 61.1179C227.693 56.7025 227.171 52.669 226.126 49.0179C225.081 45.3668 223.482 42.4796 221.327 40.3568C219.172 38.149 216.429 37.0878 213.099 37.1726C209.965 37.1726 207.287 38.2764 205.067 40.4842C202.912 42.6069 201.247 45.4516 200.072 49.0179C198.962 52.5842 198.407 56.5326 198.407 60.8632C198.407 67.8259 199.68 73.5575 202.227 78.0579C204.839 82.4733 208.561 84.6811 213.393 84.6811ZM256.516 94.2337C253.25 94.2337 250.149 93.3421 247.21 91.559C244.272 89.691 241.888 87.1436 240.06 83.9168C238.231 80.6901 237.317 76.9964 237.317 72.8358H246.133C246.133 75.468 246.72 77.6758 247.896 79.459C249.071 81.1573 250.508 82.431 252.206 83.28C253.902 84.129 255.567 84.5537 257.201 84.5537C260.465 84.5537 263.078 83.7895 265.037 82.2611C266.996 80.7326 267.975 78.3975 267.975 75.2558C267.975 72.4537 267.256 70.3733 265.821 69.0147C264.383 67.5711 262.555 66.5099 260.335 65.8305C258.114 65.0663 255.732 64.3869 253.185 63.7926C250.638 63.1983 248.255 62.349 246.035 61.2453C243.814 60.1415 241.986 58.4432 240.55 56.1505C239.113 53.8579 238.395 50.6737 238.395 46.5979C238.395 43.4562 239.048 40.4417 240.354 37.5547C241.66 34.6678 243.619 32.2901 246.231 30.4221C248.908 28.469 252.237 27.4926 256.222 27.4926C260.988 27.4926 264.743 28.5116 267.486 30.5495C270.293 32.5025 272.285 34.9225 273.46 37.8095C274.7 40.6116 275.321 43.3289 275.321 45.9611H266.898C266.898 43.8383 265.983 41.8427 264.155 39.9747C262.326 38.1068 259.65 37.1726 256.124 37.1726C252.923 37.1726 250.54 38.0217 248.973 39.72C247.406 41.3333 246.622 43.4985 246.622 46.2158C246.622 48.5933 247.341 50.419 248.777 51.6926C250.214 52.9663 252.041 53.9853 254.263 54.7495C256.547 55.4289 258.931 56.1505 261.413 56.9147C263.96 57.5941 266.342 58.6131 268.563 59.9716C270.847 61.2453 272.708 63.1133 274.146 65.5758C275.582 67.9533 276.301 71.18 276.301 75.2558C276.301 78.6522 275.582 81.7941 274.146 84.6811C272.775 87.568 270.62 89.9032 267.682 91.6863C264.808 93.3846 261.086 94.2337 256.516 94.2337ZM285.696 16.9211C284.129 16.9211 282.758 16.1993 281.582 14.7558C280.474 13.2274 279.917 11.4867 279.917 9.53369C279.917 7.49579 280.474 5.7551 281.582 4.31158C282.758 2.78316 284.129 2.01895 285.696 2.01895C287.199 2.01895 288.505 2.78316 289.614 4.31158C290.725 5.7551 291.279 7.49579 291.279 9.53369C291.279 11.4867 290.725 13.2274 289.614 14.7558C288.505 16.1993 287.199 16.9211 285.696 16.9211ZM281.484 92.7053V29.0211H289.712V92.7053H281.484ZM315.549 94.2337C310.193 94.2337 306.406 92.6627 304.187 89.5211C301.965 86.3794 300.856 81.8364 300.856 75.8926V38.8284H292.041V29.0211H294.294C296.97 29.0211 298.733 28.469 299.583 27.3653C300.431 26.1765 300.856 23.7565 300.856 20.1053V12.8453H309.084V29.1484H321.719V38.8284H309.084V75.8926C309.084 79.289 309.703 81.6667 310.945 83.0253C312.185 84.3838 314.013 85.0632 316.43 85.0632C317.082 85.0632 317.801 85.0206 318.585 84.9358C319.369 84.851 320.152 84.7236 320.936 84.5537V93.2147C319.173 93.8941 317.376 94.2337 315.549 94.2337ZM345.05 94.3611C340.937 94.3611 337.117 93.0448 333.591 90.4126C330.064 87.6954 327.224 83.832 325.069 78.8221C322.914 73.8122 321.837 67.911 321.837 61.1179C321.837 54.1552 322.914 48.1689 325.069 43.159C327.224 38.149 330.064 34.2857 333.591 31.5684C337.117 28.8511 340.937 27.4926 345.05 27.4926C349.229 27.4926 352.984 28.639 356.314 30.9316C359.709 33.1394 362.387 36.6206 364.346 41.3758C366.37 46.0459 367.382 52.0747 367.382 59.4621V63.4105H329.966C330.227 69.5242 331.598 74.619 334.08 78.6947C336.562 82.6857 340.153 84.6811 344.854 84.6811C347.793 84.6811 350.471 83.7895 352.886 82.0063C355.302 80.2232 357.196 77.7183 358.567 74.4916L365.815 78.3126C361.766 89.0116 354.845 94.3611 345.05 94.3611ZM344.854 37.1726C340.872 37.1726 337.671 38.7859 335.256 42.0126C332.905 45.1543 331.338 49.1453 330.554 53.9853H359.155C359.155 51.6078 358.6 49.1453 357.49 46.5979C356.446 43.9657 354.878 41.7579 352.788 39.9747C350.698 38.1068 348.053 37.1726 344.854 37.1726ZM394.449 94.2337C388.768 94.2337 384.067 92.8752 380.345 90.1579C376.688 87.3558 373.88 83.7469 371.921 79.3316C370.027 74.9162 368.852 70.2884 368.395 65.4484H377.896C378.615 70.8827 380.409 75.2983 383.283 78.6947C386.157 82.0911 389.879 83.8743 394.449 84.0442C397.323 84.0442 399.934 83.4499 402.285 82.2611C404.701 80.9874 406.628 79.2468 408.064 77.039C409.5 74.7463 410.186 72.0716 410.121 69.0147C410.121 65.5333 409.402 62.8162 407.966 60.8632C406.53 58.9101 404.636 57.3817 402.285 56.2779C399.999 55.1741 397.452 54.24 394.645 53.4758C391.838 52.6268 389.029 51.6926 386.222 50.6737C383.415 49.6547 380.835 48.2537 378.484 46.4705C376.198 44.6874 374.337 42.2674 372.901 39.2105C371.465 36.0689 370.746 31.9931 370.746 26.9832C370.746 22.6526 371.563 18.5768 373.195 14.7558C374.893 10.9347 377.471 7.8779 380.933 5.58527C384.394 3.20772 388.802 2.01895 394.155 2.01895C397.877 2.01895 401.174 2.78316 404.048 4.31158C406.987 5.84 409.469 7.8779 411.492 10.4253C413.582 12.8877 415.15 15.6049 416.194 18.5768C417.304 21.5488 417.923 24.4782 418.055 27.3653H408.946C408.618 24.8179 407.868 22.3979 406.693 20.1053C405.517 17.8126 403.819 15.9446 401.599 14.5011C399.445 12.9726 396.735 12.2084 393.47 12.2084C391.054 12.2084 388.768 12.7604 386.614 13.8642C384.459 14.9681 382.696 16.5814 381.324 18.7042C380.018 20.827 379.365 23.3744 379.365 26.3463C379.365 29.7427 380.084 32.4175 381.52 34.3705C382.956 36.3236 384.817 37.852 387.103 38.9558C389.454 40.0596 392.034 41.0362 394.841 41.8853C397.648 42.7343 400.457 43.6684 403.265 44.6874C406.072 45.7063 408.618 47.1074 410.905 48.8905C413.255 50.6737 415.15 53.0937 416.585 56.1505C418.021 59.1225 418.74 63.0284 418.74 67.8684C418.74 73.6425 417.696 78.5248 415.606 82.5158C413.516 86.4217 410.644 89.3511 406.987 91.3042C403.396 93.2573 399.215 94.2337 394.449 94.2337ZM444.021 94.3611C439.907 94.3611 436.087 93.0448 432.561 90.4126C429.035 87.6954 426.194 83.832 424.039 78.8221C421.884 73.8122 420.807 67.911 420.807 61.1179C420.807 54.1552 421.884 48.1689 424.039 43.159C426.194 38.149 429.035 34.2857 432.561 31.5684C436.087 28.8511 439.907 27.4926 444.021 27.4926C448.199 27.4926 451.954 28.639 455.285 30.9316C458.679 33.1394 461.357 36.6206 463.316 41.3758C465.34 46.0459 466.353 52.0747 466.353 59.4621V63.4105H428.937C429.197 69.5242 430.569 74.619 433.05 78.6947C435.531 82.6857 439.123 84.6811 443.825 84.6811C446.763 84.6811 449.439 83.7895 451.856 82.0063C454.272 80.2232 456.166 77.7183 457.537 74.4916L464.786 78.3126C460.736 89.0116 453.815 94.3611 444.021 94.3611ZM443.825 37.1726C439.84 37.1726 436.641 38.7859 434.226 42.0126C431.875 45.1543 430.308 49.1453 429.524 53.9853H458.125C458.125 51.6078 457.569 49.1453 456.46 46.5979C455.414 43.9657 453.847 41.7579 451.758 39.9747C449.668 38.1068 447.024 37.1726 443.825 37.1726ZM488.52 94.2337C483.166 94.2337 479.38 92.6627 477.158 89.5211C474.939 86.3794 473.828 81.8364 473.828 75.8926V38.8284H465.013V29.0211H467.266C469.943 29.0211 471.707 28.469 472.555 27.3653C473.405 26.1765 473.828 23.7565 473.828 20.1053V12.8453H482.056V29.1484H494.691V38.8284H482.056V75.8926C482.056 79.289 482.677 81.6667 483.917 83.0253C485.159 84.3838 486.986 85.0632 489.402 85.0632C490.056 85.0632 490.773 85.0206 491.557 84.9358C492.34 84.851 493.124 84.7236 493.907 84.5537V93.2147C492.144 93.8941 490.35 94.2337 488.52 94.2337ZM514.4 94.2337C509.634 94.2337 505.683 92.2383 502.548 88.2474C499.479 84.2564 497.945 78.44 497.945 70.7979V29.0211H506.172V69.2695C506.172 74.7889 507.185 78.7373 509.209 81.1147C511.232 83.4074 513.877 84.5537 517.142 84.5537C521.648 84.5537 525.043 82.5583 527.329 78.5674C529.615 74.5764 530.757 69.5242 530.757 63.4105V29.0211H538.985V92.7053H530.757V80.7326C530.497 82.1762 529.744 84.0017 528.504 86.2095C527.329 88.3322 525.599 90.2004 523.313 91.8137C521.027 93.4269 518.057 94.2337 514.4 94.2337ZM548.161 122V29.0211H556.094V41.5032C556.813 39.1257 557.857 36.8754 559.229 34.7526C560.6 32.6299 562.33 30.889 564.42 29.5305C566.51 28.172 568.99 27.4926 571.864 27.4926C576.174 27.4926 579.994 28.8089 583.324 31.4411C586.654 33.9884 589.265 37.7247 591.16 42.6495C593.054 47.5743 594 53.6457 594 60.8632C594 67.8259 593.085 73.8122 591.258 78.8221C589.43 83.7469 586.883 87.568 583.618 90.2853C580.419 92.9175 576.663 94.2337 572.354 94.2337C570.134 94.2337 567.913 93.7242 565.693 92.7053C563.474 91.6015 561.546 90.0305 559.914 87.9926C558.282 85.8699 557.107 83.3648 556.388 80.4779V122H548.161ZM571.178 84.5537C574.508 84.5537 577.251 83.4922 579.406 81.3695C581.561 79.2468 583.161 76.3596 584.205 72.7084C585.249 69.0573 585.772 65.0238 585.772 60.6084C585.772 56.1931 585.249 52.2021 584.205 48.6358C583.161 45.0695 581.561 42.2674 579.406 40.2295C577.316 38.1068 574.671 37.0453 571.472 37.0453C566.639 37.0453 562.917 39.2531 560.306 43.6684C557.759 48.0838 556.486 53.8154 556.486 60.8632C556.486 65.1937 557.04 69.1421 558.151 72.7084C559.326 76.2747 560.992 79.1194 563.147 81.2421C565.366 83.3648 568.044 84.4689 571.178 84.5537Z" fill="#060C3B" stroke="#060C3B" stroke-width="2"/>
<path d="M4.38462 3V26.5205H21L0 58.8004L12.4615 73.3993L30.4615 44.0392V68.0463H45V3H4.38462Z" fill="#0060DE"/>
<path d="M1.84615 78.7522V94H45V78.7522H1.84615Z" fill="#060C3B"/>
<path d="M594 61C594 77.5685 583.926 91 571.5 91C559.074 91 549 77.5685 549 61C549 44.4315 559.074 31 571.5 31C583.926 31 594 44.4315 594 61ZM561.152 61C561.152 68.6199 565.785 74.7971 571.5 74.7971C577.215 74.7971 581.848 68.6199 581.848 61C581.848 53.3801 577.215 47.2029 571.5 47.2029C565.785 47.2029 561.152 53.3801 561.152 61Z" fill="#060C3B"/>
</svg>
